<?xml version="1.0" encoding="utf-8"?>
<!-- Generator: Adobe Illustrator 19.0.0, SVG Export Plug-In . SVG Version: 6.00 Build 0)  -->
<svg version="1.1" id="Layer_1" xmlns="http://www.w3.org/2000/svg" xmlns:xlink="http://www.w3.org/1999/xlink" x="0px" y="0px"
	 viewBox="0 0 500 500" style="enable-background:new 0 0 500 500;" xml:space="preserve">
<style type="text/css">
	.st0{fill:url(#XMLID_13_);}
	.st1{fill:url(#XMLID_14_);}
	.st2{fill:url(#XMLID_15_);}
	.st3{fill:url(#XMLID_16_);}
	.st4{fill:#231F20;}
</style>
<linearGradient id="XMLID_13_" gradientUnits="userSpaceOnUse" x1="23.1784" y1="297.3892" x2="196.242" y2="-2.3658">
	<stop  offset="5.376340e-003" style="stop-color:#E60000"/>
	<stop  offset="1" style="stop-color:#A30000"/>
</linearGradient>
<polygon id="XMLID_12_" class="st0" points="3.3,285.9 96.7,8 214.2,8 123.7,285.3 "/>
<linearGradient id="XMLID_14_" gradientUnits="userSpaceOnUse" x1="294.9806" y1="285.8982" x2="294.9806" y2="8">
	<stop  offset="0.1344" style="stop-color:#FFE400"/>
	<stop  offset="1" style="stop-color:#E6B300"/>
</linearGradient>
<polygon id="XMLID_11_" class="st1" points="189.5,285.9 282.9,8 400.4,8 310,285.3 "/>
<linearGradient id="XMLID_15_" gradientUnits="userSpaceOnUse" x1="203.8613" y1="270.6228" x2="203.8613" y2="17.988">
	<stop  offset="5.376340e-003" style="stop-color:#009FC7"/>
	<stop  offset="1" style="stop-color:#004B7A"/>
</linearGradient>
<polygon id="XMLID_10_" class="st2" points="218.3,18 160.7,191.3 186.6,270.6 247,97.9 "/>
<linearGradient id="XMLID_16_" gradientUnits="userSpaceOnUse" x1="421.8854" y1="286.4859" x2="421.8854" y2="17.988">
	<stop  offset="0" style="stop-color:#5DDB00"/>
	<stop  offset="1" style="stop-color:#287A00"/>
</linearGradient>
<polygon id="XMLID_9_" class="st3" points="346.4,193.1 404.6,18 497.4,286.5 378.1,285.3 "/>
<g id="XMLID_2_">
	<path id="XMLID_7_" class="st4" d="M77.9,492.5c-14.2,0-28.1-2.4-41.7-7.3c-13.6-4.9-26-12.3-37.2-22.4l24.2-28.9
		c8.5,6.9,17.2,12.4,26.2,16.5c8.9,4.1,18.7,6.1,29.3,6.1c8.5,0,15.1-1.5,19.8-4.6c4.7-3.1,7-7.4,7-12.9v-0.5c0-2.7-0.5-5-1.5-7
		c-1-2-2.8-3.9-5.6-5.7c-2.8-1.8-6.6-3.5-11.4-5.3c-4.9-1.8-11.2-3.6-19-5.6c-9.4-2.3-17.9-4.9-25.6-7.7
		c-7.6-2.8-14.1-6.3-19.4-10.5c-5.3-4.2-9.5-9.3-12.4-15.5c-2.9-6.2-4.4-13.9-4.4-23.1v-0.5c0-8.5,1.6-16.2,4.7-23
		c3.2-6.8,7.6-12.7,13.3-17.7c5.7-5,12.5-8.8,20.5-11.4c7.9-2.7,16.7-4,26.2-4c13.6,0,26.2,2,37.6,6.1c11.4,4.1,21.9,9.9,31.5,17.5
		l-21.2,30.8c-8.3-5.7-16.5-10.1-24.4-13.4c-8-3.3-15.9-4.9-23.9-4.9c-8,0-13.9,1.6-17.9,4.6c-4,3.1-6,6.9-6,11.6v0.5
		c0,3,0.6,5.6,1.7,7.8c1.2,2.2,3.2,4.2,6.3,6c3,1.8,7.1,3.5,12.4,5c5.2,1.6,11.8,3.5,19.8,5.6c9.4,2.5,17.8,5.3,25.2,8.4
		c7.4,3.1,13.6,6.8,18.6,11.2c5.1,4.3,8.9,9.4,11.4,15.3c2.6,5.8,3.9,12.8,3.9,21v0.5c0,9.2-1.7,17.4-5,24.6
		c-3.3,7.2-8,13.2-14,18.1c-6,4.9-13.1,8.6-21.4,11.2C97.1,491.2,88,492.5,77.9,492.5z"/>
	<path id="XMLID_5_" class="st4" d="M247.3,493c-13.6,0-26.3-2.5-38-7.4c-11.7-5-21.8-11.7-30.3-20.3c-8.5-8.6-15.1-18.7-19.9-30.4
		c-4.8-11.7-7.2-24.2-7.2-37.4v-0.5c0-13.3,2.4-25.7,7.2-37.3c4.8-11.6,11.4-21.8,19.9-30.5c8.5-8.8,18.7-15.7,30.5-20.7
		c11.9-5,25-7.6,39.3-7.6c8.7,0,16.6,0.7,23.8,2.1c7.2,1.4,13.7,3.4,19.5,5.8c5.8,2.5,11.2,5.5,16.2,9c5,3.5,9.6,7.4,13.8,11.7
		l-26,30c-7.3-6.5-14.7-11.7-22.2-15.4c-7.5-3.7-16-5.6-25.4-5.6c-7.8,0-15,1.5-21.6,4.5c-6.6,3-12.3,7.2-17.1,12.5
		c-4.8,5.3-8.5,11.5-11.2,18.5c-2.7,7-4,14.5-4,22.4v0.5c0,8,1.3,15.5,4,22.6c2.7,7.1,6.3,13.3,11,18.6c4.7,5.3,10.4,9.5,17,12.6
		c6.6,3.1,13.9,4.6,21.9,4.6c10.6,0,19.6-1.9,27-5.8c7.3-3.9,14.6-9.2,21.9-15.9l26,26.3c-4.8,5.1-9.7,9.7-14.9,13.8
		c-5.1,4.1-10.8,7.6-16.9,10.5c-6.1,2.9-12.8,5.1-20,6.6C264.5,492.2,256.3,493,247.3,493z"/>
	<path id="XMLID_3_" class="st4" d="M422,493c-13.6,0-26.3-2.5-38-7.4c-11.7-5-21.8-11.7-30.3-20.3c-8.5-8.6-15.1-18.7-19.9-30.4
		c-4.8-11.7-7.2-24.2-7.2-37.4v-0.5c0-13.3,2.4-25.7,7.2-37.3c4.8-11.6,11.4-21.8,19.9-30.5c8.5-8.8,18.7-15.7,30.5-20.7
		c11.9-5,25-7.6,39.3-7.6c8.7,0,16.6,0.7,23.8,2.1c7.2,1.4,13.7,3.4,19.5,5.8c5.8,2.5,11.2,5.5,16.2,9c5,3.5,9.6,7.4,13.8,11.7
		l-26,30c-7.3-6.5-14.7-11.7-22.2-15.4c-7.5-3.7-16-5.6-25.4-5.6c-7.8,0-15,1.5-21.6,4.5c-6.6,3-12.3,7.2-17.1,12.5
		c-4.8,5.3-8.5,11.5-11.2,18.5c-2.7,7-4,14.5-4,22.4v0.5c0,8,1.3,15.5,4,22.6c2.7,7.1,6.3,13.3,11,18.6c4.7,5.3,10.4,9.5,17,12.6
		c6.6,3.1,13.9,4.6,21.9,4.6c10.6,0,19.6-1.9,27-5.8c7.3-3.9,14.6-9.2,21.9-15.9l26,26.3c-4.8,5.1-9.7,9.7-14.9,13.8
		c-5.1,4.1-10.8,7.6-16.9,10.5c-6.1,2.9-12.8,5.1-20,6.6C439.2,492.2,431,493,422,493z"/>
</g>
</svg>
