<svg width="400" height="492" viewBox="0 0 400 492" fill="none" xmlns="http://www.w3.org/2000/svg">
<g clip-path="url(#clip0)">
<rect width="400" height="492" fill="white"/>
<path fill-rule="evenodd" clip-rule="evenodd" d="M373.086 -0.00200006H179.586C171.318 -0.00524744 163.261 2.60449 156.565 7.4544C149.869 12.3043 144.877 19.1463 142.302 27.003L1.30299 457.978C0.0223875 461.901 -0.310301 466.073 0.332191 470.149C0.974684 474.226 2.57407 478.093 4.99928 481.432C7.42448 484.772 10.6065 487.489 14.2845 489.361C17.9625 491.234 22.0318 492.208 26.159 492.204H219.659C227.927 492.207 235.985 489.597 242.681 484.747C249.377 479.896 254.369 473.054 256.944 465.197L397.941 34.222C399.222 30.2987 399.554 26.1278 398.912 22.0511C398.27 17.9745 396.67 14.108 394.245 10.7687C391.82 7.42946 388.638 4.71238 384.96 2.84019C381.282 0.967998 377.213 -0.0060074 373.086 -0.00200006Z" fill="black"/>
</g>
<defs>
<clipPath id="clip0">
<rect width="400" height="492" fill="white"/>
</clipPath>
</defs>
</svg>
