<svg width="60" height="44" viewBox="0 0 60 44" fill="none" xmlns="http://www.w3.org/2000/svg">
<path d="M13.5714 0H49.1606C54.5453 0 58.3923 5.21239 56.8052 10.3579L48.1688 38.3579C47.1343 41.712 44.0342 44 40.5242 44H0L13.5714 0Z" fill="black"/>
<path d="M25 32H22C21.4696 32 20.9609 31.7893 20.5858 31.4142C20.2107 31.0391 20 30.5304 20 30V23C20 22.4696 20.2107 21.9609 20.5858 21.5858C20.9609 21.2107 21.4696 21 22 21H25M32 19V15C32 14.2044 31.6839 13.4413 31.1213 12.8787C30.5587 12.3161 29.7956 12 29 12L25 21V32H36.28C36.7623 32.0055 37.2304 31.8364 37.5979 31.524C37.9654 31.2116 38.2077 30.7769 38.28 30.3L39.66 21.3C39.7035 21.0134 39.6842 20.7207 39.6033 20.4423C39.5225 20.1638 39.3821 19.9063 39.1919 19.6875C39.0016 19.4687 38.7661 19.2939 38.5016 19.1752C38.2371 19.0565 37.9499 18.9967 37.66 19H32Z" stroke="white" stroke-width="2" stroke-linecap="round" stroke-linejoin="bevel"/>
</svg>
