<svg height="164" viewBox="0 0 519 164" width="519" xmlns="http://www.w3.org/2000/svg"><linearGradient id="a" x1="81.843%" x2="15.401%" y1="93.548%" y2="4.702%"><stop offset="0" stop-color="#23bcba"/><stop offset="1" stop-color="#45e994"/></linearGradient><g fill="none"><path d="M209.478 123.181v-88.35h14.256v88.35zm149.467-34.738v34.737h-14.253v-88.35h17.053l26.888 67.109 26.888-67.109h17.113v88.35h-14.256v-1.5l.001-33.281.808-27.538-25.262 62.319h-10.643l-25.189-62.106.853 27.369zm153.809-16.917v12.204h-36.99v27.249h42.969v12.201h-57.222v-88.35h56.637v12.204h-42.384v24.492z" fill="#00d28e"/><path d="M68.52-.002c3.963 0 7.08 3.573 6.36 7.65-.45 2.61-2.58 4.74-5.16 5.223-1.62.303-3.153 0-4.41-.75-1.26-.723-2.85-.813-4.26-.42-30 8.307-52.317 35.4-54.12 67.26-1.98 34.89 19.59 65.13 51.3 75.21 3.48 1.077 7.05-1.62 7.05-5.31v-16.8c0-1.083-.48-2.07-1.23-2.82-1.38-1.41-2.13-3.393-1.773-5.61.423-2.58 2.463-4.71 5.013-5.253 4.14-.87 7.86 2.313 7.86 6.333 0 1.77-.72 3.33-1.833 4.5-.747.78-1.257 1.767-1.257 2.85v25.587c0 1.593-.717 3.12-1.92 4.203-1.26 1.08-2.97 1.56-4.59 1.257-38.16-7.287-65.55-40.407-65.55-79.767 0-37.68 25.74-69.453 60.48-78.513 1.14-.327 2.07-1.08 2.76-2.07 1.17-1.65 3.09-2.76 5.28-2.76zm2.127 51.063c0-5.79 4.683-10.5 10.446-10.5 5.787 0 10.467 4.71 10.467 10.5 0 5.82-4.68 10.5-10.467 10.5-5.763 0-10.446-4.68-10.446-10.5zm22.443-51.063c2.22 0 4.14 1.08 5.31 2.76.66.99 1.59 1.743 2.73 2.013 32.103 8.31 56.697 36.3 60.09 70.077 4.29 42.993-24.27 80.463-65.13 88.26-1.62.303-3.3-.177-4.56-1.257-1.23-1.083-1.95-2.61-1.95-4.203v-69.717c0-4.203-3.39-7.62-7.56-7.62h-2.97c-4.17 0-7.53 3.387-7.53 7.56v6.24c0 1.08.51 2.07 1.26 2.82 1.11 1.17 1.8 2.73 1.8 4.467 0 3.99-3.6 7.143-7.77 6.36-2.58-.477-4.65-2.64-5.07-5.217-.36-2.313.42-4.38 1.89-5.793.69-.687 1.11-1.707 1.11-2.73v-6.147c0-7.92 6.39-14.373 14.31-14.373h2.97c7.95 0 14.34 6.453 14.34 14.373v60.99c0 3.69 3.54 6.387 7.02 5.31 30.39-9.63 51.48-37.803 51.48-70.83 0-34.29-23.22-63.15-54.66-71.703-1.26-.357-2.64-.24-3.75.423-.99.6-2.097.927-3.33.927-3.96 0-7.08-3.567-6.36-7.677.48-2.7 2.76-4.89 5.46-5.25.297-.03.6-.063.87-.063z" fill="url(#a)"/><path d="M260.264 123.18h-14.84l33.738-88.35h11.917l33.797 88.35h-14.734l-.36-.986-18.651-51.091-6.006-16.489-2.93 8.082-9.411 25.948-4.319 12.204-8.199 22.332zm27.736-10.499c0 4.971-4.032 9-9.003 9-4.968 0-8.997-4.029-8.997-9s4.029-9 8.997-9c4.971 0 9.003 4.029 9.003 9" fill="#00d28e"/></g></svg>