<?xml version="1.0" encoding="utf-8"?>
<!-- Generator: Adobe Illustrator 16.0.0, SVG Export Plug-In . SVG Version: 6.00 Build 0)  -->
<!DOCTYPE svg PUBLIC "-//W3C//DTD SVG 1.1//EN" "http://www.w3.org/Graphics/SVG/1.1/DTD/svg11.dtd">
<svg version="1.1" id="Layer_1" xmlns="http://www.w3.org/2000/svg" xmlns:xlink="http://www.w3.org/1999/xlink" x="0px" y="0px"
	 width="200px" height="200px" viewBox="0 0 200 200" enable-background="new 0 0 200 200" xml:space="preserve">
<g>
	<path fill="#FFFFFF" d="M186.405,105.344c-0.159,1.992-1.082,3.665-2.482,4.817c-0.504,0.507-1.773,1.442-2.279,1.817
		L69.131,191.027c-0.287,0.287-0.721,0.434-1.008,0.721c-4.616,2.886-10.531,3.173-15.435,0.288
		c-7.068-4.182-9.376-13.126-5.193-20.049c1.587-2.741,4.04-4.761,6.78-5.916l58.723-32.165h23.498v-12.881l31.475-17.239
		l-31.475-26.945V60.34h-19.271L84.436,32.268L53.985,59.72c2.827,2.22,5.857,4.601,8.943,7.023v25.216
		c-18.103-7.502-39.047-16.172-39.379-16.33c-1.01-0.287-1.875-0.721-2.885-1.299c-3.202-1.96-5.553-4.989-6.75-8.451
		c-0.087-0.245-0.159-0.49-0.231-0.735c-0.058-0.189-0.115-0.361-0.159-0.55c-0.1-0.402-0.187-0.807-0.259-1.211
		c0-0.028-0.014-0.057-0.014-0.086c-0.492-2.74-0.275-5.641,0.779-8.439c1.154-3.029,3.172-5.625,5.625-7.356h0.102
		c0.028-0.014,0.058-0.028,0.072-0.058c0.044-0.072,0.144-0.115,0.259-0.229L77.499,8.555c0.1-0.072,0.215-0.13,0.331-0.188
		c1.299-0.909,2.813-1.528,4.457-1.818c0.03,0,0.072,0,0.102-0.015c0.562-0.086,1.153-0.144,1.745-0.144
		c0.404,0,0.793,0.028,1.183,0.058c0.116,0.016,0.231,0.044,0.345,0.058c0.275,0.043,0.549,0.072,0.823,0.13
		c0.102,0.028,0.188,0.058,0.289,0.073c0.289,0.07,0.577,0.158,0.851,0.245c0.058,0.014,0.102,0.028,0.144,0.057
		c1.905,0.649,3.564,1.774,4.861,3.245l91.756,90.039C185.684,101.594,186.405,103.471,186.405,105.344z"/>
	<rect id="XMLID_12_" x="69.276" y="120.056" fill="#FFFFFF" width="27.55" height="4.618"/>
	<g id="XMLID_2_">
		<path id="XMLID_11_" fill="#FFFFFF" d="M68.987,79.668l2.164-2.019c0.578,0.722,1.154,1.153,1.875,1.153
			c0.867,0,1.299-0.577,1.299-1.73v-7.646h3.317v7.646c0,1.442-0.432,2.596-1.153,3.317c-0.722,0.721-1.875,1.153-3.318,1.153
			C71.007,81.688,69.853,80.821,68.987,79.668z"/>
		<path id="XMLID_10_" fill="#FFFFFF" d="M78.363,69.57h9.665v2.741h-6.348v1.875h5.77v2.597h-5.77v1.875h6.491v2.885h-9.665
			L78.363,69.57z"/>
		<path id="XMLID_9_" fill="#FFFFFF" d="M92.356,72.456H88.75V69.57h10.53v2.886h-3.605v9.087h-3.318V72.456z"/>
		<path id="XMLID_8_" fill="#FFFFFF" d="M69.276,84.284h6.202c1.442,0,2.596,0.433,3.317,1.01c0.433,0.433,0.721,1.154,0.721,2.019
			l0,0c0,1.442-0.721,2.164-1.875,2.741c1.442,0.433,2.308,1.299,2.308,2.886l0,0c0,2.02-1.73,3.317-4.471,3.317h-6.202V84.284z
			 M76.2,88.034c0-0.722-0.578-1.009-1.442-1.009h-2.164v2.164h2.02C75.622,89.044,76.2,88.755,76.2,88.034L76.2,88.034z
			 M75.046,91.496H72.45v2.164h2.596c1.01,0,1.586-0.433,1.586-1.153l0,0C76.632,91.785,76.056,91.496,75.046,91.496z"/>
		<path id="XMLID_7_" fill="#FFFFFF" d="M80.527,84.284h5.626c1.875,0,3.029,0.433,3.894,1.299c0.721,0.722,1.01,1.586,1.01,2.74
			l0,0c0,1.874-1.01,3.029-2.453,3.751l2.885,4.183h-3.75l-2.453-3.606h-1.442v3.606h-3.317V84.284z M86.008,90.054
			c1.154,0,1.731-0.577,1.731-1.442l0,0c0-1.01-0.721-1.442-1.731-1.442h-2.164v2.885H86.008z"/>
		<path id="XMLID_6_" fill="#FFFFFF" d="M94.952,84.284h3.173l5.049,12.117h-3.605l-0.867-2.163h-4.614l-0.866,2.163H89.76
			L94.952,84.284z M97.837,91.496l-1.299-3.317l-1.298,3.317H97.837z"/>
		<path id="XMLID_5_" fill="#FFFFFF" d="M103.607,84.284h3.316v11.973h-3.316V84.284z"/>
		<path id="XMLID_4_" fill="#FFFFFF" d="M107.791,84.284h3.028l4.905,6.348v-6.348h3.316v11.973h-2.885l-5.049-6.491v6.636h-3.316
			V84.284z"/>
		<path id="XMLID_3_" fill="#FFFFFF" d="M119.33,94.525l1.875-2.164c1.154,1.01,2.453,1.442,3.896,1.442
			c0.864,0,1.442-0.287,1.442-0.864l0,0c0-0.578-0.435-0.722-2.021-1.154c-2.596-0.577-4.471-1.299-4.471-3.751l0,0
			c0-2.164,1.729-3.894,4.614-3.894c2.021,0,3.606,0.576,4.905,1.586l-1.731,2.308c-1.153-0.722-2.308-1.154-3.317-1.154
			c-0.864,0-1.153,0.289-1.153,0.722l0,0c0,0.577,0.433,0.722,2.019,1.153c2.741,0.578,4.473,1.442,4.473,3.752l0,0
			c0,2.452-1.875,3.895-4.905,3.895C122.791,96.545,120.772,95.824,119.33,94.525z"/>
	</g>
</g>
</svg>
