<?xml version="1.0" encoding="utf-8"?>
<!-- Generator: Adobe Illustrator 16.0.0, SVG Export Plug-In . SVG Version: 6.00 Build 0)  -->
<!DOCTYPE svg PUBLIC "-//W3C//DTD SVG 1.1//EN" "http://www.w3.org/Graphics/SVG/1.1/DTD/svg11.dtd">
<svg version="1.1" id="Layer_1" xmlns="http://www.w3.org/2000/svg" xmlns:xlink="http://www.w3.org/1999/xlink" x="0px" y="0px"
	 width="519px" height="164px" viewBox="0 0 519 164" enable-background="new 0 0 519 164" xml:space="preserve">
<g>
	<path fill="#FFFFFF" d="M209.478,123.182V34.831h14.256v88.351H209.478z M358.945,88.443v34.736h-14.253V34.83h17.053
		l26.889,67.109l26.888-67.109h17.113v88.35h-14.256v-1.5l0.001-33.281l0.808-27.538l-25.262,62.319h-10.644l-25.188-62.105
		L358.945,88.443L358.945,88.443z M512.754,71.526V83.73h-36.99v27.248h42.969v12.201h-57.222V34.83h56.637v12.204h-42.384v24.492
		H512.754z"/>
	
		<linearGradient id="SVGID_1_" gradientUnits="userSpaceOnUse" x1="-36.9465" y1="499.4844" x2="-37.611" y2="500.3728" gradientTransform="matrix(161.6461 0 0 -163.1993 6104.5117 81668.2969)">
		<stop  offset="0" style="stop-color:#FFFFFF"/>
		<stop  offset="1" style="stop-color:#FFFFFF"/>
	</linearGradient>
	<path fill="url(#SVGID_1_)" d="M68.52-0.002c3.963,0,7.08,3.573,6.36,7.65c-0.45,2.61-2.58,4.74-5.16,5.223
		c-1.62,0.303-3.153,0-4.41-0.75c-1.26-0.723-2.85-0.813-4.26-0.42c-30,8.307-52.317,35.4-54.12,67.26
		c-1.979,34.891,19.59,65.13,51.3,75.21c3.48,1.077,7.05-1.62,7.05-5.31v-16.801c0-1.082-0.479-2.069-1.229-2.819
		c-1.38-1.41-2.13-3.394-1.773-5.61c0.424-2.58,2.464-4.71,5.014-5.253c4.14-0.87,7.859,2.313,7.859,6.333
		c0,1.77-0.72,3.33-1.833,4.5c-0.747,0.78-1.257,1.768-1.257,2.85v25.588c0,1.593-0.717,3.119-1.92,4.203
		c-1.26,1.08-2.97,1.56-4.59,1.256C27.39,155.82,0,122.701,0,83.341C0,45.661,25.74,13.888,60.48,4.828
		c1.141-0.327,2.07-1.08,2.761-2.07C64.41,1.108,66.33-0.002,68.52-0.002z M70.647,51.061c0-5.79,4.684-10.5,10.446-10.5
		c5.787,0,10.467,4.71,10.467,10.5c0,5.82-4.68,10.5-10.467,10.5C75.33,61.561,70.647,56.881,70.647,51.061z M93.09-0.002
		c2.22,0,4.14,1.08,5.31,2.76c0.66,0.99,1.59,1.743,2.73,2.013c32.103,8.31,56.697,36.3,60.09,70.077
		c4.29,42.993-24.27,80.462-65.13,88.259c-1.62,0.304-3.3-0.176-4.561-1.256c-1.229-1.084-1.949-2.61-1.949-4.203V87.932
		c0-4.203-3.391-7.621-7.561-7.621h-2.97c-4.17,0-7.53,3.387-7.53,7.56v6.24c0,1.08,0.51,2.07,1.26,2.82
		c1.11,1.17,1.801,2.729,1.801,4.467c0,3.99-3.601,7.143-7.771,6.359c-2.58-0.477-4.649-2.64-5.069-5.217
		c-0.36-2.313,0.42-4.38,1.89-5.793c0.689-0.688,1.11-1.707,1.11-2.73v-6.146c0-7.92,6.39-14.373,14.31-14.373h2.97
		c7.95,0,14.34,6.453,14.34,14.373v60.99c0,3.689,3.54,6.387,7.021,5.31c30.39-9.63,51.479-37.803,51.479-70.83
		c0-34.29-23.22-63.15-54.659-71.703c-1.261-0.357-2.641-0.24-3.75,0.423c-0.99,0.6-2.098,0.927-3.33,0.927
		c-3.96,0-7.08-3.567-6.36-7.677c0.48-2.7,2.76-4.89,5.46-5.25C92.517,0.031,92.82-0.002,93.09-0.002L93.09-0.002z"/>
	<path fill="#FFFFFF" d="M260.264,123.18h-14.84l33.738-88.35h11.917l33.797,88.35h-14.734l-0.36-0.986l-18.65-51.09l-6.006-16.489
		l-2.931,8.082l-9.41,25.949l-4.319,12.203l-8.199,22.332H260.264z M288,112.682c0,4.971-4.032,9-9.003,9
		c-4.969,0-8.997-4.029-8.997-9c0-4.972,4.028-9,8.997-9C283.968,103.682,288,107.71,288,112.682"/>
</g>
</svg>
