<?xml version="1.0" encoding="utf-8"?>
<!-- Generator: Adobe Illustrator 22.1.0, SVG Export Plug-In . SVG Version: 6.00 Build 0)  -->
<svg version="1.1" id="Layer_1" xmlns="http://www.w3.org/2000/svg" xmlns:xlink="http://www.w3.org/1999/xlink" x="0px" y="0px"
	 viewBox="0 0 1920 1417.6" style="enable-background:new 0 0 1920 1417.6;" xml:space="preserve">
<style type="text/css">
	.st0{fill:#751A2C;}
	.st1{fill:#661626;}
	.st2{fill:#922032;}
	.st3{fill:#BE594E;}
	.st4{fill:#A32433;}
	.st5{fill:#851D2C;}
	.st6{fill:#551627;}
	.st7{fill:#40111E;}
	.st8{fill:#D14C46;}
	.st9{fill:#E1534D;}
	.st10{fill:#AC4647;}
	.st11{fill:#A62F3A;}
	.st12{fill:#DF6359;}
	.st13{fill:#E87169;}
	.st14{fill:#51121E;}
	.st15{fill:#851E33;}
	.st16{fill:#621B2E;}
	.st17{fill:#791529;}
	.st18{fill:#A14458;}
	.st19{fill:#843746;}
	.st20{fill:#7F3443;}
	.st21{fill:#B25061;}
	.st22{fill:#601326;}
	.st23{fill:#9A1F2E;}
	.st24{fill:#902631;}
	.st25{fill:#9B4A5D;}
	.st26{fill:#D24F3F;}
	.st27{fill:#C84942;}
	.st28{fill:#CB6351;}
	.st29{fill:#BA3E44;}
	.st30{fill:#BB4B48;}
	.st31{fill:#AE282D;}
	.st32{fill:#CF505B;}
	.st33{fill:#963541;}
	.st34{fill:#C0433A;}
	.st35{fill:#B55857;}
	.st36{fill:#5B152F;}
	.st37{fill:#7D2331;}
	.st38{fill:#7E1929;}
	.st39{fill:#95283B;}
	.st40{fill:#99313A;}
	.st41{fill:#542038;}
	.st42{fill:#6C2739;}
	.st43{fill:#A25263;}
	.st44{fill:#D53E34;}
	.st45{fill:#A02C36;}
	.st46{fill:#A43939;}
	.st47{fill:#C4342D;}
	.st48{fill:#D4372D;}
	.st49{fill:#822C3E;}
	.st50{fill:#66273A;}
	.st51{fill:#6E2939;}
	.st52{fill:#6C1423;}
</style>
<path class="st0" d="M3.9,575.8l6.2-2.7c4.6-2.7,10.1-2,14.7-0.7c3.9,0,3.9,3.4,4.6,5.4c0.8,2,2.3,3.4,3.9,2.7
	c3.1,0,4.6,1.3,5.4,3.4c0.8,2.7,1.5,4.7,4.6,4.7c8.5-0.7,11.6,4,13.9,10.1c1.5,5.4,6.2,6,10.8,2.7c1.5-1.3,3.9-2,5.4,0
	c0.8,1.3,3.1,1.3,3.1,2.7c-0.8,1.3-2.3,1.3-3.9,2c-1.5,0.7-3.1,2-2.3,4c0,1.3,1.5,2.7,3.1,3.4h6.2c2.3-0.7,4.6-1.3,7-0.7
	c3.1,1.3,7-2,8.5,0.7v8.1c0.8,6.7,2.3,8.1,10.1,9.4c3.1,0,6.2-0.7,8.5,1.3c3.9,2.7,8.5,3.4,13.1,3.4h8.5c1.5,0,3.1,0.7,3.1,2
	c0,8.7,6.2,12.1,15.5,10.1c3.1-0.7,7-1.3,10.1-0.7c7.7,2,15.5,3.4,21.7,7.4c7.7,4,15.5,5.4,24.8,6c3.9,0,7.7,0.7,11.6,2.7
	c4.6,2,9.3,2.7,13.1,3.4l36.4,6c13.1,2,26.3,6,40.2,8.1c4.6,0.7,10.1,2,13.1,4.7c3.1,2.7,6.2,4,9.3,4.7l-5.4-1.3
	c-16.2-4-33.3-6.7-50.3-8.7c-3.9-0.7-7.7,0-11.6,1.3c-2.3,0.7-4.6,2-4.6,4.7c0,2,1.5,3.4,3.1,4.7l7.7,4c1.5,0.7,2.3,2,1.5,4
	c-2.3,4-0.8,7.4,4.6,8.7c5.4,1.3,10.8,0.7,16.2-0.7c9.3-2,15.5,0.7,18.6,8.7l1.5,4c2.3,6.7,3.9,8.1,12.4,8.7c6.2,0,11.6,1.3,17,2.7
	c-3.9,2-7,2-10.8,1.3c-8-0.9-15.9-1.5-24-2c-0.8,1.3,0,1.3,1.5,2c0.8-0.7,0.8,0.7,0,0c-3.1,0.7-6.2-2.7-9.3,0.7c0,2,2.3,2.7,4.6,2.7
	c6.2,0.7,12.4,2.7,17.8,4c3.1,0.7,7.7,2,8.5,4.7c3.1,6,9.3,6,15.5,6.7c13.9,0.7,27.8,2.7,41,6c10.8,2,20.9,2,31.7,0.7
	c14.7-1.3,28.6-2.7,43.3,0l9.3,1.3c2.3,0,5.4,0,7-2c0-2.7-3.1-2.7-5.4-3.4l-17.8-2.7l-28.6-4.7c7,1.3,17.8,1.3,27.8,4
	c2.3,0.7,5.4,0.7,7.7-0.7l0.8-1.3c-0.8-1.3-1.5-2-3.1-2c-11.6-1.3-21.7-8.1-32.5-11.4c-10.1-3.4-21.7-4.7-30.2-12.1
	c-7-6-15.5-10.7-19.3-18.8c-0.8-2.7-1.5-4.7,1.5-6l3.1-1.3c-1.5-4-5.4-2.7-8.5-3.4c-7-0.7-13.1-2-19.3-4c-2.3,0-4.6,0-4.6-2.7
	l-3.1-2c-4.6-0.7-7.7-2.7-12.4-4.7c-1.5-0.7-3.1-1.3-3.1-3.4c-0.8-4,7-11.4,11.6-10.1c6.2,1.3,12.4,2.7,17.8,5.4
	c7,4,13.9,8.7,21.7,10.1l10.8,3.4c9.3,4,18.6,4.7,27.8,4c2.3,0,5.4,0,4.6-3.4c-0.8-3.4,1.5-3.4,3.9-4c4.6,0,8.5,0.7,12.4,2h3.1
	c3.1,0,5.4-0.7,7-2.7c0.8-2.7-2.3-3.4-3.9-4.7c-1.5-1.3-3.1-2.7-2.3-4.7c0.8-4.7-2.3-7.4-7-8.7c-4.6-2-9.3-2.7-13.9-2.7
	c-3.9,0.7-7.7,1.3-11.6-1.3l3.9-0.7c1.5-0.7,3.1-0.7,3.9-2.7c0-1.3-2.3-2.7-3.9-2.7c-5.4-1.3-10.8-3.4-16.2,0
	c-2.3,1.3-4.6,0.7-6.2-0.7l-12.4-7.4c-2.3-1.3-4.6-3.4-4.6-7.4c3.9,3.4,7.7,5.4,12.4,6c7.7,1.3,15.5,3.4,23.2,0.7h3.1
	c7.7,2,16.2,2,24,3.4c2.3,0,4.6,0.7,7-0.7c1.5-2-0.8-2.7-2.3-2.7c-2.3-0.7-3.1-1.3-3.9-3.4c-0.8-1.3-2.3-1.3-4.6-1.3
	s-3.9-1.3-4.6-2.7c-3.1-3.4-7-3.4-10.1-0.7c-3.9,2.7-7.7,1.3-11.6,0.7c-1.5,0-1.5,0-2.3-1.3c-2.3-5.4-2.3-5.4-8.5-4
	c-5.4,1.3-10.1,0-13.9-1.3l-11.6-6.7l-27.1-4h-10.1c-6.2,1.3-7.7,6-3.9,10.1c2.3,2,5.4,3.4,8.5,4c1.5,0.7,3.9,0.7,5.4,3.4
	c-3.1,1.3-7,1.3-8.5,4c-3.1,4-7,4-10.8,2c-14.7-7.4-30.2-6-45.6-5.4c-3.9,0-6.2,2-7,4.7c-2.3,4-4.6,5.4-9.3,4c-4.6-2-9.3-2-13.1,2
	c0-5.4,2.3-10.1-3.1-14.1l-12.4-5.4c-3.9-2-7-4.7-10.1-8.1c-1.5-2-3.9-3.4-7-2.7c-2.3,0.7-2.3,2.7-3.1,4.7c-0.8,4-2.3,4.7-6.2,2
	c-6.2-4-6.2-4-12.4-0.7c-3.1,2-5.4,1.3-5.4-1.3c-0.8-3.4-3.1-4.7-7-6c-7-2-14.7-3.4-22.4-4c-4.6-0.7-9.3-2-11.6-5.4
	c-3.1-2.7-6.2-4.7-10.1-6c-3.9-1.3-7.7-2.7-9.3-6c-2.3-5.4-7-7.4-13.1-8.1c-3.1,0-5.4-1.3-7.7-3.4c-6.2-4.7-12.4-8.1-20.9-8.7
	c-8.5-1.3-15.5-4-21.7-10.1c-3.1-2.7-6.2-4.7-10.8-6c-4.6-0.7-8.5-3.4-11.6-6.7c-7.7-7.4-17.8-12.8-27.1-18.8h-2.3
	c-5.4,1.3-7.7,0-8.5-4.7c-1.5-4.7-5.4-7.4-8.5-10.7H0l0,57.7H3.9z"/>
<path class="st1" d="M0,605.4c4.6,2,8.5,5.4,10.8,8.7s6.2,4.7,10.1,4.7c1.5,0,3.1,0,3.9,2c1.5,2.7,4.6,3.4,7.7,4s5.4,2,3.9,5.4
	c-0.8,2.7,0,5.4,2.3,6.7c3.1,1.3,5.4,3.4,7,6c1.5,1.3,3.1,2.7,5.4,2.7c4.6-2.7,8.5-0.7,10.1,4.7l-1.5,3.4c-1.5,3.4-0.8,6,2.3,7.4
	c7.7,3.4,13.9,8.1,20.9,12.1c7,3.4,12.4,8.7,17.8,14.1c3.9,4.7,8.5,9.4,13.9,10.7c8.5,2,16.2,6,25.5,6.7c5.4,0.7,10.8,1.3,13.9,6.7
	c0.8,2,3.1,2.7,5.4,1.3c3.9-2,5.4,0,6.2,2.7l1.5,4.7c2.3,4.7,6.2,7.4,11.6,7.4c6.2,0.7,12.4,2,17.8-0.7h5.4c5.4,1.3,10.1,1.3,15.5,0
	c8.5-2.7,17.8-3.4,27.1-2c10.8,1.3,22.4,2,33.3,5.4c3.1,1.3,7,2,10.1,0.7c1.5-1.3,0-2-0.8-3.4l13.1,2.7c3.1,0.7,6.2,2,10.1,0l24,3.4
	c4.6,0.7,9.3,0,13.9-0.7c0.8,0,1.5-0.7,1.5-2l-1.5-1.3c-7-0.7-13.1-3.4-20.1-3.4c-7.7,0-8.5-0.7-10.8-7.4c-1.5-4-0.8-10.1-6.2-12.1
	c-5.4-2-10.8-4-17-1.3c-5.4,2-10.8,2-15.5,0c-4.6-1.3-5.4-4.7-1.5-7.4c2.3-1.3,2.3-2,0-3.4l-9.3-5.4c-2.3-0.7-4.6-1.3-3.9-4
	c0-2.7,3.1-2.7,5.4-3.4c5.4-1.3,10.8,0.7,16.2,0.7c9.3,0.7,17.8,2,25.5,4l24,4.7c1.5,0,4.6,0.7,4.6-0.7c0.8-2.7-2.3-1.3-3.9-2
	c-2.3-2-8.5,1.3-7.7-4.7l-3.1-1.3c-7.7-2.7-15.5-3.4-22.4-5.4c-16.2-4-33.3-6.7-50.3-9.4c-8.5-1.3-18.6-2.7-27.1-5.4
	c-5.4-2-11.6-4-17.8-4c-6.2,0-11.6-1.3-16.2-4l-14.7-5.4c-7.7-2.7-15.5-5.4-24.8-2c-7,2-13.1-4-10.8-10.1c0.8-2.7,0.8-3.4-3.1-3.4
	l-15.5,0.7c-2.3,0-4.6-0.7-5.4-2c-2.3-2.7-5.4-3.4-9.3-2.7c-3.1,0-5.4-0.7-8.5-2c-0.8,0-3.1-1.3-2.3-2.7c3.1-3.4-0.8-7.4,1.5-11.4
	c0.8-2.7-0.8-4.7-4.6-2.7c-1.5,0.7-3.1,2-4.6,1.3c-3.9-2-7-1.3-10.8,0.7c-3.1,1.3-5.4-0.7-6.2-2.7c-0.8-2.7,2.3-2.7,3.9-3.4l2.3-0.7
	c1.5,0,3.1-1.3,2.3-2.7c0-2-1.5-2-3.1-2c-1.5,0.7-2.3,0-3.1-1.3c-1.5-3.4-3.9-2.7-6.2-0.7c-1.5,1.3-2.3,4-5.4,3.4
	c-3.1-0.7-3.1-3.4-3.9-5.4c-1.5-5.4-7-11.4-11.6-10.1c-7,1.3-7-2.7-7.7-6c0-2-0.8-3.4-3.1-2c-3.9,2-4.6,0-5.4-2.7
	c0-2-0.8-4.7-2.3-4.7c-6.2-1.3-12.4-4-17.8,0l-10.8,4L0,605.4z"/>
<path class="st2" d="M34,518.1c-4.6,2-4.6,2.7-1.5,4.7s7.7,3.4,12.4,3.4c1.5,0,4.6,0,5.4,2c2.3,4.7,7,6.7,12.4,8.1l4.6,2
	c3.9,4,8.5,6,14.7,6c5.4,0.7,9.3,2.7,12.4,6.7c2.3,3.4,5.4,4.7,9.3,6.7c7,2,13.1,4.7,14.7,11.4c1.5,2.7,3.9,4,7,5.4l12.4,2.7
	c10.8,1.3,20.9,2.7,29.4,8.7c-2.3,1.3-3.9,3.4-1.5,6c3.1,4.7,7,8.7,13.9,10.1c3.1,0,7,1.3,10.1,2.7c1.5,0,1.5,1.3,3.1,2
	c3.1,2,6.2,2.7,9.3,1.3c3.1-2,2.3-4.7,2.3-7.4c-0.8-2-3.9-2.7-4.6-4.7c3.1-1.3,6.2-0.7,8.5,0l7.7,2.7c10.1,3.4,22.4,0.7,31.7,6.7
	c8.5-2,14.7,2.7,21.7,3.4c10.1,1.3,20.1,0.7,29.4,2c3.9,0,7.7,0,10.1,2.7c1.5,2,3.9,2.7,6.2,2.7c11.6-1.3,22.4,1.3,33.3,3.4l27.8,4
	l8.5,0.7c0.8,0,3.1-0.7,3.1-2s-1.5-1.3-3.1-2l-29.4-5.4c-9.3-1.3-19.3-2.7-27.1-8.1c-2.3-1.3-3.9-3.4-3.9-6V592
	c0-3.4,1.5-4.7,5.4-4.7h9.3c9.3,0,10.8-1.3,10.8-9.4c0-2.7-0.8-6.7,1.5-8.7c3.1-2.7,3.1-6,3.1-9.4s0-7.4-1.5-10.7
	c-2.3-6,0-8.7,7-10.1l1.5-0.7c0.8-2-1.5-2.7-2.3-2.7l-13.1-7.4c-6.2-3.4-5.4-9.4,0-12.8c1.5-0.7,3.9-1.3,3.9-3.4
	c2.3-6.7-4.6-14.1-12.4-14.1c-4.6,1.3-5.4,5.4-7,8.7c-3.1,4-3.1,7.4,0.8,10.7c1.5,1.3,2.3,3.4,2.3,5.4c0,4-0.8,7.4-3.1,11.4
	c-3.9,4.7-3.9,6,0.8,10.1c3.1,3.4,4.6,6,6.2,10.1c1.5,5.4,1.5,11.4,3.9,16.8c1.5,3.4,0,4-3.9,4l-8.5-1.3c-11.6-3.4-19.3,2-27.1,7.4
	c-5.4,3.4-3.1,10.1,3.1,12.1c1.5,0.7,3.9,1.3,4.6,2.7c0.8,0.7,1.5,1.3,0.8,2.7h-3.1c-1.5,0-2.3-1.3-3.1-2c-2.3-2.7-5.4-4.7-9.3-4.7
	c-8.5,0-14.7-3.4-21.7-6.7c-10.1-5.4-20.9-6-32.5-5.4c-3.1,0-6.2,0-8.5-2.7c-2.3-2-5.4-2.7-8.5-2c-3.1,1.3-5.4,0.7-8.5,0
	c-8.5-1.3-15.5-5.4-24.8-4.7l-17.8-1.3c-4.6,0-7.7-0.7-10.8-4c-0.8-1.3-2.3-2.7-4.6-3.4l-15.5-7.4c-3.9-3.4-8.5-4.7-13.9-4.7
	c-3.1,0-5.4-0.7-7-2.7c-3.9-4-8.5-6.7-13.9-8.1c-3.9-1.3-7-3.4-9.3-6c-3.1-3.4-6.2-7.4-10.8-8.1c-7.7-1.3-14.7-6-23.2-6
	c-2.3,0-3.9-1.3-3.1-4c0.8-2.7-1.5-4-3.9-5.4c-12.4-6.7-24-13.4-37.9-17.5l-3.9-2c-4.6-2.7-5.4-5.4-3.1-9.4c0.8-1.3,0.8-2.7-0.8-3.4
	c-3.9-1.3-7-2.7-10.8-0.7l0,16.1C10.8,502,21.7,510.1,34,518.1z"/>
<path class="st3" d="M9.3,308l0.8,1.3c7,1.3,11.6,6.7,18.6,8.1c1.5,0,3.9,0.7,5.4,2.7L24,320.8c-2.3,0-7-2.7-7.7,1.3
	c-0.8,3.4,4.6,3.4,7,3.4c8.5,1.3,14.7,4.7,20.1,9.4c3.1,2.7,4.6,6,9.3,8.1c1.5,1.3,4.6,0.7,5.4,4c0,2.7,3.1,4,5.4,4.7
	c5.4,1.3,11.6,2.7,17,2c7.7-1.3,14.7,0.7,20.9,4l3.9,1.3l33.3-1.3l5.4-1.3c0.8-0.7,2.3-1.3,2.3-3.4c-7-2.7-14.7-4.7-22.4-5.4
	c-7,0-7.7-0.7-5.4-6.7c0.8-2.7,0.8-6-2.3-8.1l-12.4-6.7c-8.5-3.4-16.2-7.4-21.7-15.4c-2.3-3.4-2.3-4,2.3-5.4c6.2-1.3,7-2.7,4.6-8.1
	c0-1.3-1.5-3.4,1.5-4.7c4.6-2,8.5-6.7,15.5-6l2.3-1.3l-0.8-1.3c-3.1-1.3-6.2-2.7-10.1-2.7c-7.7,3.4-16.2,0.7-23.2-2
	c-3.9-2-7-4-10.8-4.7c-8.5,0-16.2-4.7-25.5-3.4c3.9-4.7,3.9-6.7-2.3-8.1l-17.8-2.7c-3.9,1.3-7,0-10.1-0.7c-2.3-0.7-4.6-2-7.7,0
	L0,300C3.1,302.6,9.3,302.6,9.3,308z"/>
<path class="st4" d="M213.5,575.2c6.2,1.3,10.8,0.7,15.5-2c1.5-1.3,3.1-2.7,5.4-2c7,0.7,13.9-0.7,20.9,2c2.3,0.7,4.6,1.3,5.4,0
	c4.6-4.7,10.1-4.7,16.2-5.4c3.9-0.7,6.2-2.7,6.2-6c-0.8-3.4-3.9-6-8.5-5.4c-10.1,2-17.8-4-27.1-8.1c3.9-2,7-2,10.1-0.7
	c8.5,2.7,17.8,2.7,26.3,5.4h7.7c6.2-3.4,11.6-2.7,17.8-1.3l5.4,0.7c7.7,0.7,9.3-2.7,7-8.7s-6.2-12.8-2.3-19.5c-3.9-2.7-5.4,0-7.7,2
	c-1.5,0.7-3.1,2.7-1.5,4.7c3.9,3.4,3.1,8.1,4.6,12.1c0.8,2.7,0,4-3.1,2.7h-3.1c-3.9,0.7-8.5,0-12.4-1.3l-5.4,0.7
	c-3.1,2-7,1.3-10.8,1.3c-7-0.7-13.9-2.7-21.7-4.7c-7-2-13.9-0.7-15.5,4c-2.3,6-6.2,6.7-11.6,5.4l-3.1-0.7c-7-1.3-15.5,0.7-22.4-3.4
	c-1.5-1.3-3.1-0.7-4.6,1.3c-2.3,4-6.2,3.4-10.1,2c-10.1-4-19.3-6-30.2-6.7c-13.1-0.7-26.3-2-35.6-10.7l-5.4-2.7
	c-4.6-2-10.1-4.7-15.5-6c-3.1-1.3-4.6-4.7-8.5-5.4c-5.4-0.7-9.3-4-12.4-8.1c-3.1-4-7-6-11.6-6.7c-7-0.7-12.4-4-17-8.1l-7.7-5.4
	c-2.3-1.3-4.6-2-7.7-0.7c-5.4,2.7-10.1,0-15.5-2.7c3.9-0.7,6.2,0.7,7.7,0.7c3.9,0.7,7.7,0,9.3-3.4c0.8-3.4-1.5-5.4-5.4-6.7
	c-6.2-2-13.1-4.7-20.1-6c-2.3,0-4.6,0.7-4.6-1.3c-0.8-2,1.5-2.7,3.1-4l16.2-8.7c3.9-2,3.9-5.4,0-7.4l-2.3-1.3c-3.9,0-4.6-2-5.4-5.4
	c0-5.4-2.3-10.1-7.7-13.4c-3.1-2-3.1-6-5.4-8.7c-0.8-1.3,0.8-2,1.5-2.7c1.5-1.3,3.9-1.3,6.2-1.3c3.9,0,7.7-0.7,10.8-3.4l-1.5-2
	c-6.2-2.7-12.4-5.4-19.3-5.4c-2.3,0-4.6,0-7,2l0,67.8c3.9,1.3,7.7,0,11.6,2.7c-1.5,1.3-5.4,1.3-4.6,4c1.5,2.7,2.3,6,5.4,7.4
	c7,3.4,13.9,6.7,21.7,8.7c8.5,3.4,14.7,9.4,23.2,12.1c0.8,0.7,3.1,1.3,1.5,3.4c-3.9,3.4,0,4.7,2.3,5.4c7,0.7,13.1,1.3,18.6,4.7
	l4.6,0.7l3.1,0.7c1.5,4,8.5,4.7,10.1,9.4l3.9,3.4c12.4,1.3,18.6,14.1,32.5,12.8l5.4,2.7c5.4,4,11.6,7.4,19.3,9.4l3.1,2.7
	c0.8,3.4,3.9,4,7.7,4c7,0,13.9,2,20.9,1.3C198.8,569.8,205.7,573.8,213.5,575.2z"/>
<path class="st5" d="M0,518.1c4.6,0.7,3.9,4.7,7,6.7c2.3,1.3,3.9,2.7,2.3,5.4c-0.8,2,1.5,3.4,3.9,4.7c2.3,0.7,4.6,2.7,7-0.7
	c0-2,1.5-3.4,3.1-2c1.5,0.7-0.8,1.3-0.8,2c6.2,4,10.8,10.1,17.8,12.8c3.1,1.3,4.6,2.7,6.2,4.7c3.9,4.7,8.5,8.1,14.7,9.4
	c3.1,0.7,5.4,2,7.7,4c7.7,7.4,17,10.7,27.8,12.1c5.4,0.7,11.6,3.4,15.5,7.4c3.1,2.7,6.2,4.7,10.1,4c4.6,0,9.3,2,10.1,5.4
	c2.3,5.4,6.2,7.4,11.6,8.7c3.9,1.3,7,3.4,9.3,6c3.1,4,7.7,4.7,12.4,5.4c8.5,0.7,17,2,24.8,4.7c2.3,0.7,3.9,2,3.9,4
	c-0.8,2,0,4,2.3,4.7c2.3,0,4.6-0.7,6.2-2c3.9-3.4,6.2-3.4,9.3,0c2.3,2,3.9,3.4,7,2.7c3.1-1.3,3.1-3.4,3.1-6
	c-0.8-3.4,0.8-3.4,3.9-2.7l3.1,2.7c5.4,7.4,13.9,10.1,22.4,12.8c3.1-2.7,0.8-5.4-1.5-6.7l-10.1-6.7c-7.7-6-17-8.7-27.8-8.1
	c-5.4,0-10.8,0.7-13.9-4.7l-2.3-0.7c-3.1-0.7-4.6-2.7-6.2-5.4l-7.7-2c-5.4-0.7-9.3-2.7-12.4-6c-5.4-6-5.4-6,2.3-8.7l0.8-0.7
	c-5.4-0.7-8.5-4.7-13.9-6l-21.7-4c-7.7-0.7-17-0.7-17.8-10.7l-3.1-2.7c-4.6-2-8.5-6.7-14.7-6.7c-2.3,0-3.9-2-4.6-4
	c-3.1-6-8.5-8.1-15.5-8.1c-4.6-0.7-8.5-2-11.6-4.7c-2.3-2.7-4.6-4-8.5-4.7c-3.9,0-7.7-1.3-8.5-4.7c0-4.7-3.1-4-7-4
	c-5.4,0-10.1-2-14.7-4.7c3.1-2,4.6,2,7,0v-0.7c-10.8-8.7-23.2-15.4-32.5-24.8c-1.5-0.7-3.1-2-5.4-2L0,518.1z"/>
<path class="st6" d="M181,739.6h7.7c1.5-1.3,3.1-2,6.2-2l13.1,1.3l-3.9,1.3l-0.8,0.7l1.5,1.3c10.1,3.4,21.7,3.4,32.5,4.7
	c3.9,0,3.9-2,2.3-4s-3.9-4-7-4.7c-3.9-0.7-5.4-2.7-7-6c5.4,0,10.1-1.3,14.7-3.4l7-0.7l20.9,2c3.1,0.7,6.2,1.3,9.3-0.7
	c-7-2-13.9-4.7-21.7-5.4c-4.6,0-10.1,0.7-14.7-1.3c-7-2-13.1-0.7-19.3,1.3c-6.2,2-13.1,4-20.9,0.7c-2.3-0.7-4.6,0-7,1.3
	c-7,2.7-13.9,0.7-20.9-0.7c-1.5-0.7-3.1-2-3.9-4l-2.3-8.7c-0.8-2-3.1-4-3.9-2.7c-7,4.7-8.5,0.7-10.8-3.4l-0.8-0.7
	c-3.9-1.3-8.5-2.7-12.4-2.7c-9.3,0-16.2-6.7-25.5-6.7l-0.8-0.7c-3.1-5.4-10.8-7.4-13.9-12.8c-2.3-3.4-6.2-7.4-10.1-9.4
	c-9.3-3.4-16.2-10.1-25.5-13.4c-3.9-1.3-4.6-4-1.5-6.7c1.5-1.3,2.3-2,0.8-3.4c-3.9-2.7-7-4-11.6-4.7L48,643c-2.3-3.4-4.6-6-8.5-7.4
	c-1.5-0.7-2.3-2.7-1.5-4.7c2.3-3.4,0.8-6.7-3.9-6.7c-3.9-0.7-7.7-1.3-7.7-5.4c0-1.3-0.8-1.3-2.3-1.3c-7.7,2-11.6-2.7-14.7-7.4
	c-2.3-3.4-4.6-4.7-9.3-4L0,647c2.3,4,5.4,6,10.1,6.7c3.9,0.7,7.7,2,10.8,4c0.8,0.7,2.3,2,4.6,2c7,0.7,12.4,4,17,8.1
	c7,4,14.7,6.7,21.7,8.1c6.2,0.7,10.8,2.7,14.7,6l5.4,4c8.5,4.7,17.8,10.1,24,18.1c3.1,3.4,7,6,11.6,7.4c3.1,0.7,6.2,1.3,8.5,4
	c4.6,4,9.3,6,15.5,7.4l3.1,2c-4.6,0.7-9.3-0.7-13.1,1.3c0,2-1.5,3.4,0.8,4c9.3,0.7,17,5.4,26.3,4C167.1,736.9,174.8,737.6,181,739.6
	z"/>
<path class="st7" d="M0.8,690c7.7,2,11.6,8.7,17.8,12.1v0.7c1.5,7.4,9.3,10.1,15.5,13.4c2.3,1.3,3.9,2,5.4,4.7
	c2.3,2.7,4.6,5.4,9.3,6c15.5,1.3,27.8,7.4,37.9,16.8c5.4,4,10.1,8.7,17.8,10.1l5.4,3.4c8.5,5.4,16.2,12.1,23.2,18.8
	c4.6,4.7,10.1,5.4,16.2,4.7c3.9-0.7,6.2-3.4,10.1-4.7c3.1-2,7-3.4,11.6-2.7c3.1,0.7,4.6,4,6.2,4c3.1,0,2.3-4.7,5.4-5.4l3.1-0.7
	c3.1,0,4.6,2.7,6.2,4c4.6,4.7,10.1,6.7,17,4c3.9-1.3,10.1-3.4,11.6,3.4c0,1.3,2.3,2.7,3.9,2.7l13.9,6c2.3,1.3,4.6,2.7,7.7,0.7
	c3.1-2.7,0.8-4.7-0.8-6.7c-0.8-1.3-1.5-4,1.5-4.7s7-0.7,9.3,1.3c2.3,2-0.8,4-0.8,5.4l-0.8,2.7c-0.8,2.7,0.8,5.4,3.9,6
	c3.1,1.3,3.9-1.3,5.4-3.4c1.5-3.4,3.9-3.4,6.2-0.7c1.5,2,1.5,3.4,1.5,5.4c0,2.7,1.5,5.4,4.6,5.4c6.2,0,11.6,4,17.8,4.7
	c4.6,0.7,5.4,3.4,3.9,6.7c1.5,1.3,3.1,1.3,5.4,0c-0.8-2.7,1.5-6.7-3.1-8.1c-7.7-2.7-13.9-6-22.4-6c-0.8,0.7-3.9,0-2.3-2
	c2.3-4,0-8.1,0-11.4c-0.8-4.7-5.4-8.7-10.8-8.7c-11.6,0-23.2-5.4-35.6-4c-2.3,0-3.9,0-4.6-2c-2.3-4-5.4-4-8.5-0.7
	c-0.8,0.7-1.5,1.3-2.3,0.7c0-5.4,0-6-3.1-7.4c-7.7-5.4-16.2-4.7-24,1.3c-3.1,2.7-7.7,4.7-12.4,4c-8.5-0.7-15.5,1.3-21.7,5.4
	c-7,4-12.4,3.4-17.8-2l-7-6c-2.3-2-4.6-4.7-5.4-7.4c-1.5-3.4-4.6-5.4-8.5-6.7c-8.5-2-14.7-6.7-18.6-13.4
	c-3.1-8.1-11.6-10.1-18.6-12.8c-6.2-2-13.9-1.3-20.1-6.7c-6.2-6-7.7-5.4-5.4-13.4c0.8-1.3,0-3.4,3.1-4c3.1,0,4.6,0.7,5.4,3.4
	c0.8,2.7,3.1,4,7,3.4c3.1-0.7,5.4-2,5.4-4.7l0.8-9.4c-0.8-2-4.6-2-7-3.4l-1.5-1.3c-4.6-4-10.1-7.4-15.5-10.1c-7-3.4-14.7-7.4-23.2-4
	c-3.1,0.7-5.4-1.3-7-3.4c-3.1-4.7-7.7-5.4-13.1-4.7L0,669.1L0.8,690z"/>
<path class="st8" d="M20.9,259c7,0.7,13.9,0.7,20.1,4c3.1,1.3,6.2,2.7,10.1,2.7c5.4,0,10.8,2,15.5,4c3.9,2,8.5,3.4,13.1,2.7l7-2
	c7.7,0,13.9-3.4,17.8-9.4c3.1-6,3.1-8.7-3.1-12.8l26.3-0.7c2.3-0.7,3.9-2.7,2.3-4c-3.9-4.7-0.8-5.4,3.1-5.4l5.4-1.3
	c5.4-1.3,7.7-5.4,4.6-10.1c-2.3-2-4.6-3.4-7.7-4c-0.8-0.7-1.5-1.3-0.8-3.4c1.5-5.4,1.5-6-5.4-7.4c-9.3-2.7-11.6-5.4-10.8-13.4
	c0-6-4.6-10.1-11.6-10.1c-2.3,0.7-4.6,0.7-4.6-2.7c0-2-2.3-2.7-3.9-2.7c-2.3,0-5.4-0.7-7.7,0.7c-0.8,2,0.8,3.4,1.5,4.7
	c3.1,3.4,7,5.4,11.6,6c5.4,0.7,7.7,2.7,8.5,7.4c0.8,6.7,5.4,11.4,13.1,13.4c0.8,0.7,3.1,0.7,2.3,2.7c-3.1,2.7-2.3,5.4,0.8,8.1
	c0.8,0.7,2.3,1.3,1.5,2.7c-0.8,1.3-1.5,2-3.1,1.3c-7.7-1.3-16.2,1.3-24.8-1.3l-10.8-0.7c-7-0.7-13.9-0.7-20.1-3.4
	c-4.6-2-9.3,0.7-8.5,5.4c0.8,4-1.5,6.7-7,6.7c-3.9,0-7.7,0-10.8-1.3c-4.6-2-9.3-2.7-14.7-2.7c-4.6,0.7-10.1,0-12.4-4
	c-3.1-6-10.1-7.4-14.7-10.1H0l0,40.9l6.2,1.3c3.9,0,7.7,2.7,11.6,0.7C17,259,19.3,259,20.9,259z"/>
<path class="st9" d="M109.1,215.4h-0.8c-3.1,0.7-5.4,0-7-2.7c-0.8-2.7-3.1-4-6.2-2.7c-4.6,2.7-7,0-8.5-2.7c-2.3-4-6.2-5.4-10.8-5.4
	c-3.9,0.7-7,1.3-10.1,0.7c-12.4-2.7-25.5-3.4-36.4-9.4c-2.3-1.3-4.6-2-7.7-2c-4.6,0-10.1-1.3-14.7-3.4c-1.5-0.7-4.6-2-7,0l0,30.9
	c5.4,4,14.7,4,15.5,11.4l3.1,2c4.6,1.3,10.1,4,15.5,2c3.1-0.7,5.4,0,7.7,1.3c3.9,3.4,9.3,2.7,14.7,2.7c3.9,0.7,6.2-2,8.5-4
	c3.1-2-0.8-3.4-0.8-4.7c-0.8-2,0.8-2.7,1.5-4c1.5-1.3,3.1-1.3,4.6,0c2.3,2.7,5.4,2.7,9.3,2.7c6.2,1.3,13.1,0,19.3,2
	c9.3,2.7,19.3,0,28.6,2c2.3,0,4.6-0.7,5.4-2.7c0-2-0.8-4-3.1-4.7c-4.6-2-3.9-4,0-6.7C122.2,219.4,116,216.7,109.1,215.4z"/>
<path class="st10" d="M0,334.2c3.9,4,10.8,2,13.9,6c-5.4,3.4-7.7,7.4-7,12.1c0.8,3.4,5.4,6.7,11.6,6.7c3.1,0.7,6.2,1.3,8.5,3.4
	c2.3,0.7,3.1,2,1.5,4.7c-2.3,3.4-0.8,6.7,3.1,8.7l10.8,6.7c1.5,0.7,2.3,1.3,0.8,2.7c-2.3,2.7,0,4.7,3.1,6.7c3.1,1.3,7,2,10.8,2
	c1.5,0,3.9-0.7,5.4-2c3.1-2.7,6.2-4.7,10.1-6c3.1-2,5.4-4.7,7-8.1c0.8-2,1.5-3.4,0-4.7c-4.6-2.7-7.7-7.4-13.1-8.1
	c-7.7-1.3-8.5-5.4-9.3-10.7V349c0.8-3.4-0.8-6-4.6-7.4c-2.3-2-7-3.4-6.2-7.4l-1.5-1.3c-7.7-3.4-14.7-10.1-24.8-9.4
	c-1.5,0-3.1,0-3.1-1.3c0.8-2,2.3-1.3,3.1-0.7H34c0.8,0,3.1-0.7,3.1-2s-0.8-2-2.3-2c-8.5-1.3-14.7-6.7-22.4-8.7
	c-1.5-0.7-3.9-1.3-2.3-3.4c1.5-2.7,0-2.7-2.3-3.4c-2.3-0.7-4.6-2-7.7-2L0,334.2z"/>
<path class="st11" d="M0.8,408.7c10.1-2,18.6,2,27.1,5.4c0.8,2,3.9,2,6.2,2.7c8.5,1.3,17.8,2,27.1,0.7l5.4-5.4
	c4.6-2.7,4.6-5.4,0-8.7l-3.9-4.7c-0.8-2.7-3.1-4.7-5.4-6l-7.7-1.3c-2.3-0.7-4.6-1.3-5.4-4c-0.8-2.7,3.1-2.7,4.6-4
	c-7-2-10.8-6.7-17-9.4c-2.3-1.3-3.9-3.4-2.3-5.4c5.4-5.4,0-7.4-4.6-9.4c-2.3-1.3-4.6-1.3-7.7-1.3c-4.6-0.7-7.7-2.7-8.5-6
	c-1.5-4.7,1.5-8.1,6.2-9.4c0.8,0,2.3,0,2.3-1.3c0.8-1.3-0.8-2-1.5-2.7c-4.6-2.7-10.1-2.7-15.5-4L0.8,408.7z"/>
<path class="st12" d="M126.8,214c-7.7-1.3-13.1-6-13.1-12.8c0-5.4-3.1-7.4-8.5-8.1c-7-0.7-11.6-4-14.7-9.4c0.8-1.3,0-2-1.5-2.7
	l-19.3-13.4c-1.5-0.7-3.1-2-4.6,0c-0.8,2,1.5,2.7,2.3,4c1.5,1.3,3.1,2.7,3.1,4.7c0,2.7,2.3,4.7,3.9,6c5.4,4.7,5.4,6.7-1.5,8.7h-5.4
	c-10.8-1.3-22.4-2-33.3-4.7c-9.3-2.7-19.3-3.4-27.8-8.1c-2.3-1.3-3.9-1.3-6.2,0l0,9.4l3.9,0.7c5.4,0.7,9.3,4,14.7,4
	c3.9-0.7,7.7,0.7,10.8,2c9.3,5.4,20.1,7.4,30.2,8.1c3.9,0.7,7,2.7,10.8,1.3c8.5-1.3,10.8-0.7,16.2,6l0.8,1.3c2.3,2.7,3.9,3.4,7,0.7
	c3.1-2.7,6.2-2,6.2,2c0.8,3.4,2.3,4,6.2,3.4c3.1-0.7,7.7-0.7,10.1,1.3c3.1,2.7,5.4,2,8.5,0.7l4.6-1.3
	C131.5,215.4,131.5,215.4,126.8,214z"/>
<path class="st13" d="M66.5,159.7c-5.4-4.7-12.4-6.7-20.1-7.4l-3.1,1.3c0.8,2.7,3.1,2.7,5.4,4c1.5,0.7,4.6,0.7,6.2,3.4
	c-10.1,0.7-17.8,6-27.8,6.7H7.7c-3.1,0-5.4-0.7-7.7,1.3l0,9.4l4.6,0.7c8.5,6,19.3,6.7,29.4,9.4c10.8,2.7,22.4,3.4,34,4.7
	c3.1,0.7,11.6-2.7,12.4-4.7c1.5-4-2.3-5.4-5.4-7.4c-1.5-0.7-3.1-2-3.1-3.4c0.8-4-0.8-6-4.6-8.1c-1.5-0.7-1.5-1.3-1.5-2.7
	C68.1,164.4,67.3,162.3,66.5,159.7z"/>
<path class="st14" d="M0,652.4c7.7,3.4,16.2,4.7,23.2,8.7c5.4,2.7,12.4,3.4,17,6.7c5.4,4,11.6,6.7,17.8,8.1c3.1,0.7,5.4,2,7.7,4
	c6.2,5.4,11.6,11.4,20.1,14.8c10.1,5.4,20.9,11.4,27.1,21.5c1.5,2,3.9,3.4,7,2.7c5.4,0,9.3,4,13.9,4.7c1.5,0.7,0.8,2,0,3.4h10.1
	c2.3-0.7,6.2,1.3,6.2-2c0.8-2-3.1-2-5.4-3.4c-3.9-1.3-9.3-1.3-12.4-4.7c-2.3-3.4-7-5.4-11.6-6.7c-3.1-0.7-6.2-1.3-8.5-4
	c-5.4-6-11.6-12.1-19.3-16.8c-6.2-4-13.1-7.4-18.6-12.8c-2.3-2-4.6-2-7-2c-7-0.7-14.7-2.7-19.3-6c-10.8-7.4-23.2-10.1-34.8-15.4
	c-3.9-2-9.3-2.7-13.1-6L0,652.4z"/>
<path class="st14" d="M383.6,753.1c-12.4-1.3-24-4-36.4-4c-4.6,0-11.6,2-10.8-6l-0.8-1.3c-9.3-4-18.6-6.7-28.6-7.4l-4.6-2
	c-4.6-2.7-8.5-3.4-13.9-2c-3.9,0.7-7-0.7-10.8-0.7c-12.4-0.5-24.8-1.2-37.1-2c-4.6,1.3-9.3,4-15.5,2.7c-0.8,0-3.1,1.3-2.3,2
	c3.1,2,3.1,6.7,7,7.4c5.4,0,7.7,2.7,10.1,6c-12.4-0.7-24.8-2-36.4-4.7c-3.9-4-8.5-4-13.9-2l-10.8-2c-5.4-1.3-11.6-2.7-17-2.7
	c0,0.7,3.1,2.7-1.5,2.7l-7,0.7c-1.5,0-3.1,0-3.1,1.3c-0.8,2,1.5,2,2.3,2.7c8.5,0,12.4,4,13.1,10.7l1.5,2c4.6,0,10.1,2.7,15.5,0
	c3.1-1.3,7-2,10.1-1.3c6.2,1.3,12.4,1.3,18.6-1.3c8.5-4.7,17-5.4,27.1-2.7c7.7,2,16.2,0.7,24,2.7c3.9,0.7,7.7,0.7,10.8-4
	c1.5-2.7,4.6-2,6.2,1.3l5.4,6.7c3.9,5.4,9.3,10.1,5.4,16.8c-0.8,2,0,3.4,1.5,4c6.2,3.4,9.3,9.4,17.8,9.4l2.3,1.3
	c4.6,4.7,10.8,6,17,4c8.5-2,17-4.7,26.3-3.4c3.1,0,5.4,0,7,2c3.1,2.7,7,3.4,10.1,3.4c4.6,0,8.5,1.3,12.4,4c4.6,1.3,6.2-2.7,8.5-4.7
	c4.6-5.4,6.2-6,10.1,0c2.3,2.7,5.4,4.7,9.3,4c5.4-0.7,11.6,0,17,0.7l18.6,0.7c2.3,0,4.6,0,5.4-2.7c2.3-6-3.1-8.1-7.7-10.1
	c-0.8-0.7-1.5-2.7-3.1-1.3c-1.5,0.7,0,2,0,2.7c2.3,4,0.8,4.7-3.1,6c-10.8,2.7-18.6-3.4-26.3-7.4c-3.1-0.7-6.2-2.7-3.9-6
	c0-1.3-1.5-2.7-2.3-3.4l-3.1-2.7c-2.3-6-6.2-8.7-13.1-6.7c-6.2,1.3-10.8-2.7-16.2-3.4l10.8-0.7c5.4,0,7-2,4.6-6.7
	C388.3,753.7,385.2,753.7,383.6,753.1z"/>
<path class="st15" d="M252.9,646.3c-0.8,2,0.8,3.4,2.3,4.7c1.5,0,3.1,0,3.1-1.3c1.5-5.4,4.6-3.4,8.5-2c3.1,1.3,7,1.3,10.1,0
	c2.3-0.7,1.5-2.7,2.3-4.7c0.8-2.7,3.1-4,6.2-4c10.1-1.3,20.1,0,30.2,0.7c5.4,0,9.3,2,13.1,4c1.5,1.3,3.9,2,5.4,2
	c3.1,0.7,6.2,0.7,7-2c1.5-3.4,4.6-4,7.7-4.7c1.5,0,3.9,0,4.6-2c0-2-2.3-2.7-3.9-3.4l-5.4-1.3c-3.1,0-4.6-1.3-7-3.4
	c-1.5-1.3-2.3-3.4-1.5-5.4c0.8-2,3.1-2.7,5.4-2.7l10.8,0.7l24.8,3.4c7.7,3.4,16.2,4,24.8,5.4c4.6,0,10.1,2,14.7,0.7
	c2.3-3.4-0.8-3.4-3.1-4c-3.9-2-9.3-1.3-13.9-2c2.3-0.7,3.9-0.7,4.6-2.7c0-2-2.3-2-4.6-2.7l-22.4-4c-12.4-2-24.8-2.7-36.4-6.7
	c-7-2-12.4-6-13.1-12.8c-0.8-4.7-0.8-5.4,4.6-5.4h10.1c5.4,0,8.5-2.7,10.1-6l1.5-8.1c0-2,0-4.7,1.5-6.7c2.3-3.4,3.1-7.4,3.1-11.4
	c0-3.4-1.5-6-2.3-9.4c-0.8-5.4,1.5-7.4,7-6c3.9,0.7,7.7,1.3,11.6,0l6.2-2.7c7-1.3,8.5-2.7,9.3-8.1l1.5-6.7c0-4-1.5-7.4-5.4-9.4
	l-14.7-6.7c-1.5,0-3.1-0.7-3.1-2.7c0.8-2,2.3-2,3.9-2.7c3.9-1.3,7.7-1.3,11.6-0.7c4.6,1.3,9.3,0.7,14.7,0c1.5,0,3.9-0.7,3.9-2.7
	c0.8-2-0.8-3.4-3.1-4c-4.6-2.7-8.5-5.4-13.9-6c-3.9-1.3-6.2-3.4-8.5-6l-5.4-6.7c-1.5-2-2.3-4-0.8-6.7c1.5-1.3,3.1-3.4,1.5-4.7
	L358.9,455c-2.3,3.4-1.5,6.7,1.5,9.4c0.8,2,3.1,3.4,3.1,5.4c-0.8,5.4,0.8,9.4,4.6,12.8c3.1,3.4,2.3,5.4-1.5,7.4l-3.1,1.3
	c-4.6,2-4.6,4-1.5,7.4c1.5,2,1.5,3.4,0.8,6c-2.3,6,0.8,10.7,8.5,11.4c4.6,0.7,5.4,2,3.9,4.7s-3.9,4.7-3.9,6.7
	c-0.8,6-3.9,9.4-10.1,10.7c-10.8,0-13.1,2.7-10.1,12.1l0.8,1.3c1.5,4.7,2.3,10.1,0,13.4c-3.9,5.4-3.9,10.7-3.9,16.1
	c0,3.4-1.5,4.7-6.2,4.7h-13.1c-4.6,0-6.2,2-6.2,5.4v11.4c-0.8,2,0.8,3.4,2.3,4.7c7,4,13.9,6.7,22.4,8.1c13.1,1.3,25.5,5.4,38.7,6.7
	c-16.2-0.8-32.2-2.8-48-6c-6.2-2-13.1-2.7-20.1-2c-3.9,0.7-7.7,0-9.3-3.4c-1.5-1.3-3.1-2-5.4-2c-10.8,0.7-21.7-2-32.5-1.3
	c-1.5,0.7-3.9,0.7-5.4-0.7c-4.6-4-10.1-3.4-16.2-3.4c-5.4,0.7-9.3-5.4-15.5-4H232l-13.1-1.3c-5.4-1.3-10.8-5.4-17-4.7
	c-2.3,0.7-4.6,0-5.4,2.7c0,2,2.3,2.7,3.9,3.4c1.5,0,3.1,0.7,2.3,2c-0.8,2,0.8,4-0.8,6c-1.5,0.7-7.7-1.3-8.5-3.4
	c-0.8-2.7-2.3-2-3.9-1.3c-1.5,2-0.8,3.4,0.8,4c3.9,1.3,8.5,1.3,7.7,6.7l1.5,0.7c4.6,0,8.5,1.3,13.1,0.7c9.3-1.3,17,2,24,6.7
	l10.8,6.7c3.1,1.3,4.6,3.4,3.9,6.7C255.2,638.3,255.2,642.3,252.9,646.3z"/>
<path class="st16" d="M433.1,680.6c-7,0-8.5,2-5.4,7.4l-18.6-0.7c-7-1.3-12.4-4.7-18.6-5.4c-10.1-2-17.8-6.7-25.5-11.4
	c-6.2-3.4-13.1-4-19.3-6c-3.1-1.3-6.2,0.7-8.5,2.7l-3.1,5.4c-3.1,4.7-2.3,6.7,3.1,8.7c5.4,2,10.1,4.7,15.5,6c3.1,2,7.7,2.7,11.6,3.4
	c14.7,2,28.6,2,42.5,6l16.2,2.7c3.1,0.7,6.2,1.3,8.5-0.7c0.8-4,3.1-4.7,6.2-4c6.2,2,7-5.4,11.6-4.7l-0.8-2c-2.3-1.3-3.9-3.4-3.9-6
	C440.9,680.6,437,679.9,433.1,680.6z"/>
<path class="st17" d="M528.3,644.3l-31.7-5.4c-26.5-3.8-53-6.6-79.7-8.7l-40.2-5.4c4.6,4,10.8,6.7,17.8,8.7
	c3.9,0.7,7.7-1.3,11.6-1.3c0.8,0,2.3-0.7,3.1,0.7c1.5,1.3,0.8,2-0.8,2.7c-0.8,0.7-1.5,2,0,2.7c2.3,1.3,14.7,0.7,17-0.7
	c2.3-2,5.4-3.4,7.7,0c12.4-0.7,25.5,0.7,37.9,2c10.1,1.3,19.3,5.4,29.4,3.4h1.5c9.3,3.4,19.3,3.4,28.6,6c1.5,0.7,3.9,0,4.6-2
	C533.7,645,530.6,645,528.3,644.3z"/>
<path class="st18" d="M439.3,745.7c-6.2,0-12.4-2-18.6-0.7l21.7,4.7c12.4,2.7,25.5,3.4,38.7,6.7l3.9,0.7l53.4,7.4
	c3.1,0.7,7,2,11.6,0.7l-3.9-1.3c-23.2-5.4-47.2-8.7-70.4-12.8l-9.3-2h-0.8C457.1,749,448.6,745.7,439.3,745.7z"/>
<path class="st19" d="M350.4,687.9c-0.8,1.3,0.8,1.3,1.5,1.3l12.4,3.4c7,1.3,13.9,1.3,20.9,3.4h4.6c-1.5-3.4-5.4-2-7.7-3.4l17,3.4
	c3.1,0.7,5.4,1.3,7.7-0.7c-5.4-2.7-11.6-2.7-17.8-3.4l-36.4-5.4L350.4,687.9z"/>
<path class="st20" d="M313.2,732.2l-3.1-2l-20.1-3.4c-2.3-0.7-6.2-1.3-7,0.7c-0.8,2.7,3.9,0.7,5.4,2.7l13.9,2
	C306.3,732.2,309.4,734.3,313.2,732.2z"/>
<path class="st21" d="M21.7,534.2c2.3-0.7,4.6,0.7,5.4-1.3c0.8-1.3-0.8-2-2.3-2.7c-2.3,0-5.4-1.3-7.7,0.7c-0.8,1.3,2.3,2,3.1,3.4
	H21.7z"/>
<path class="st22" d="M442.4,674.5c0.8,0,1.5-0.7,0.8-1.3c-2.3-2.7-5.4-2.7-8.5-2l-0.8,0.7C436.2,673.8,438.5,675.2,442.4,674.5z"/>
<path class="st0" d="M54.9,643c-3.1-2-3.9-0.7-3.9,2.7c3.1,2.7,7,4,11.6,4.7C64.2,644.3,58,644.3,54.9,643z M125.3,640.3
	c0,1.3,2.3,2,3.9,2c0.8,0,2.3-0.7,2.3-2c0-1.3-1.5-2-3.1-2C126.8,638.3,125.3,638.9,125.3,640.3z"/>
<path class="st14" d="M105.2,717.5c1.5,0,3.9-0.7,3.9-2.7c0-1.3-1.5-2.7-3.1-2.7c-2.3,0-3.1,1.3-3.9,2.7
	C102.9,716.1,102.9,718.1,105.2,717.5z M269.2,758.4c-0.8,0.7-2.3,1.3-2.3,2.7l3.1,1.3c0.8-0.7,1.5-0.7,1.5-2
	S270.7,758.4,269.2,758.4z"/>
<path class="st23" d="M215,576.5c2.3,0.7,5.4,1.3,8.5,0.7c3.1-1.3,6.2-0.7,7.7,2c1.5,2,3.9,3.4,5.4,2.7c7-2.7,13.1,2,19.3-0.7
	c1.5-0.7,3.1,0,4.6,1.3l7,2.7c4.6,0.7,8.5,2,10.8,5.4c1.5,2,4.6,3.4,7,2.7c7.7-2,13.9,0.7,18.6,6c2.3,2.7,5.4,2.7,7.7,1.3
	c3.1-2,0.8-4-0.8-6c-1.5-1.3-3.9-3.4-7-2.7c-2.3,0-3.1-2-3.9-3.4c0-4,0.8-6.7,5.4-8.1l12.4-6c2.3-0.7,4.6-1.3,7,0l11.6,2
	c2.3,0.7,4.6,2.7,7,0c0.8-2,0.8-4.7-0.8-6.7l-2.3-9.4c-0.8-5.4-1.5-11.4-7-15.4c-6.2-5.4-6.2-5.4-0.8-12.1c3.9-4,3.1-12.1-0.8-16.1
	c-0.8-1.3-3.9-3.4-2.3-4.7c3.1-4,1.5-10.1,7.7-12.8c3.9-2,1.5-4.7-0.8-6.7c-4.6-3.4-7.7-6.7-10.8-11.4c-1.5-2.7-3.9-5.4-8.5-5.4
	c-1.5,3.4,1.5,4.7,3.1,6.7c1.5,2.7,5.4,6,2.3,8.1c-3.9,2.7-7,6-12.4,7.4c-6.2,0.7-7.7,3.4-3.1,8.1c1.5,2,3.1,3.4,3.9,6
	c0,4,2.3,6.7,6.2,8.1c2.3,0.7,3.1,2,1.5,4c-3.1,2.7-5.4,6-1.5,10.1l0.8,4.7l0.8,4.7c2.3,1.3,4.6,3.4,2.3,6c-1.5,2.7-5.4,1.3-7.7,1.3
	l-5.4-1.3c-4.6-0.7-10.1-2-14.7,0.7c-3.9,2-7,2-10.1,0.7l-7.7-1.3c-5.4-0.7-10.8-1.3-15.5-3.4c-3.9-1.3-7-0.7-10.8-0.7
	c-2.3,0-3.1,1.3-3.9,3.4c0,2,1.5,2,3.1,2l8.5,3.4c5.4,3.4,11.6,5.4,17.8,4c2.3-0.7,3.9-0.7,5.4,0.7c0.8,1.3,2.3,3.4,1.5,4.7
	c-0.8,2-3.1,2.7-5.4,2.7c-6.2,0.7-12.4-0.7-15.5,5.4c-0.8,2-3.9,1.3-5.4,0c-2.3-2-5.4-2-7.7-2H239c-5.4-1.3-9.3-0.7-12.4,2.7
	c-3.1,2.7-7,3.4-11.6,2c-4.6-2-10.1-2-15.5-3.4c-2.3-0.7-6.2-1.3-9.3,0.7C199.5,571.1,206.5,575.2,215,576.5z"/>
<path class="st24" d="M346.5,503.3l1.5,6c1.5,2.7,0,4-2.3,4.7c-5.4,0-5.4,3.4-6.2,6c-0.8,3.4-0.8,6.7,3.1,8.1
	c6.2,3.4,11.6,8.1,18.6,9.4c6.2,0.7,10.1-0.7,10.8-6c0-3.4,1.5-6.7,4.6-10.1c1.5-1.3,1.5-4,0-6c-0.8-2-3.9-2-5.4-1.3
	c-4.6,2-5.4-2-7.7-4c-2.3-2-0.8-4,0.8-5.4c1.5-2.7,2.3-4.7-0.8-6.7c-3.9-3.4-3.9-4.7,2.3-6.7c7-2.7,8.5-6,2.3-10.7
	c-3.1-2.7-4.6-6-3.1-10.1c0.8-2,0-4-1.5-4.7c-4.6-3.4-4.6-6.7-4.6-11.4l-1.5-3.4c-5.4-7.4-13.1-13.4-17-21.5
	c-1.5-3.4-5.4-4.7-10.1-2.7v2c0,4.7-0.8,9.4-7,12.1l-1.5,2.7c1.5,3.4-0.8,5.4-3.1,7.4c-0.8,0.7-1.5,2.7-0.8,4
	c2.3,2.7,5.4,2.7,7.7,4.7c1.5,0.7,5.4,0.7,4.6,3.4c0,2-3.1,1.3-5.4,2c-6.2,1.3-8.5,5.4-7,10.1l2.3,2c6.2,5.4,8.5,12.8,16.2,16.8
	c2.3,1.3,2.3,3.4,0.8,5.4C341.9,498.6,345,500,346.5,503.3z"/>
<path class="st25" d="M457.1,702.7c-8.5-1.3-17-1.3-25.5-4c-8.5,0.7-16.2-3.4-24.8-3.4c-9.3,0-17.8-3.4-27.8-2.7c4.6,2,7.7,2,10.8,4
	l45.6,6.7c18.6,3.4,37.9,5.4,56.5,9.4c7,1.3,14.7,0,21.7,3.4h3.1c2.3,0,3.9,0.7,6.2-1.3l-12.4-2.7c-7.7-0.7-15.5-2-23.2-4.7
	L457.1,702.7z"/>
<path class="st26" d="M111.4,291.2c0,3.4,1.5,6,4.6,7.4c5.4,2.7,10.1,6,16.2,6.7c3.1,0.7,5.4,2,5.4,5.4c0.8,4,3.1,6.7,7,7.4
	c6.2,2,10.8,5.4,16.2,8.1c3.9,1.3,4.6,4,1.5,7.4c-2.3,3.4-3.9,7.4-8.5,8.1c-2.3,0.7-3.1,2-3.9,4l-3.9,7.4l-2.3,2
	c5.4,2,9.3,1.3,12.4-2l3.9-4.7c3.1-2.7,7-2,8.5,2c0.8,2.7,2.3,4.7,3.9,6c2.3,2.7,2.3,4.7,0,6.7c-1.5,0.7-3.9,2-2.3,4
	c1.5,1.3,3.9,1.3,6.2,0.7c5.4-1.3,10.8,0,16.2-4l0.8,8.1l-0.8,2c-5.4,2.7-6.2,8.7-10.8,10.7c-1.5,0.7-2.3,2.7-1.5,4
	c0.8,1.3,2.3,1.3,3.9,1.3l5.4,0.7c9.3,1.3,17.8,3.4,27.1,2c3.1-0.7,4.6,0,6.2,2.7c3.1,6,10.1,8.7,17.8,7.4c3.9-0.7,7-2.7,10.1-4
	c3.9-2.7,7.7-1.3,9.3,2.7c2.3,5.4,4.6,6.7,10.8,4.7c3.1-0.7,5.4-1.3,9.3-0.7c7,1.3,10.1-1.3,8.5-7.4c-0.8-4-3.1-7.4-6.2-11.4
	c4.6,0,9.3,4.7,13.1-0.7c0-1.3-0.8-2.7-2.3-3.4l-6.2-4.7c-1.5-2-2.3-3.4,0.8-4.7c3.9-2,3.9-4,0-5.4l-7.7-3.4
	c-5.4-2-11.6-3.4-16.2-6.7l-16.2-8.1c-11.2-1.9-21.6-6.2-30.2-12.8l-5.4-3.4c-10.8-5.4-21.7-11.4-33.3-15.4c-3.1-1.3-4.6-3.4-6.2-6
	c-0.8-1.3-0.8-2,0.8-2.7c1.5-0.7,3.9-1.3,3.1-4c0-2-2.3-2.7-3.9-2.7l-25.5-6.7h-10.1c-9.3,2-13.9-0.7-17.8-8.1
	c-2.3-4-6.2-5.4-10.8-4v1.3C109.8,286.5,111.4,288.5,111.4,291.2z"/>
<path class="st27" d="M129.2,356.3c-8.5,0.7-16.2,0-24.8,1.3c-1.5,2-0.8,4.7-3.1,6c-4.6,2.7-4.6,4-1.5,8.1c1.5,2,3.9,4,3.1,6.7
	c0,5.4,3.1,8.7,7.7,11.4h3.9c6.2-2,12.4-0.7,17.8-1.3c7.7-0.7,12.4,2,17,6.7c4.6,4.7,5.4,14.1,3.1,20.1c-3.9,8.1-5.4,16.8,0.8,24.8
	c3.1,0,4.6,4.7,9.3,2c2.3-1.3,6.2-1.3,9.3-2c6.2-0.7,10.8-2.7,13.1-8.1c0-2,1.5-3.4,3.1-4c7.7-2,14.7-3.4,21.7,0
	c4.6,2.7,10.1,3.4,14.7,5.4h10.8c1.5-0.7,3.9-1.3,4.6-3.4c0-2-1.5-4-3.1-4.7l-7.7-3.4c-6.2-2.7-11.6-4.7-15.5-10.1
	c-1.5-1.3-2.3-2-4.6-2c-7-1.3-13.1-5.4-20.9-4.7c-5.4,0.7-8.5-4-5.4-8.1l3.9-2.7c2.3-1.3,4.6-2,3.1-4.7c-1.5-2.7-3.9-1.3-5.4-0.7
	c-1.5,0-2.3,0-3.1-1.3l0.8-2c3.9-1.3,5.4-6.7,7.7-8.1c5.4-3.4,7-5.4,4.6-10.1v-2c0.8-1.3,0.8-3.4-0.8-4c-2.3-0.7-3.1,0.7-3.9,1.3
	c-1.5,1.3-2.3,2.7-4.6,2.7c-3.1-0.7-5.4,0-8.5,0.7c-1.5,0.7-3.9,1.3-6.2,0c7.7-5.4,7.7-6,1.5-12.1l-1.5-3.4c0-2.7-0.8-4.7-3.9-5.4
	c-3.9-0.7-7.7,0-9.3,3.4c-2.3,5.4-7,6.7-13.1,6C139.2,356.3,133.8,355,129.2,356.3z"/>
<path class="st28" d="M96.7,286.5c-2.3,2-3.9,3.4-7,4c-3.1,1.3-4.6,3.4-2.3,6c2.3,6,2.3,6-4.6,7.4c-3.9,0.7-7,4-4.6,5.4
	c5.4,2.7,4.6,10.7,12.4,10.7c6.2,6.7,16.2,8.1,24,12.8c3.9,2.7,3.9,4.7,1.5,8.1c-3.1,5.4-1.5,8.1,5.4,8.1c6.2,0,11.6,0.7,16.2,2.7
	l8.5,1.3c3.9-0.7,3.9-3.4,4.6-5.4c0.8-2.7,1.5-5.4,4.6-5.4c3.9-0.7,6.2-2,6.2-5.4l2.3-3.4c3.1-3.4,3.1-6.7-0.8-8.7
	c-6.2-2-10.8-6.7-17.8-8.1c-3.9-0.7-6.2-2-6.2-6c0.8-4-2.3-6-6.2-6.7c-6.2,0-10.8-4-16.2-6.7c-3.1-1.3-5.4-3.4-3.9-7.4
	c1.5-3.4-0.8-5.4-4.6-4.7C104.4,285.2,99.8,283.2,96.7,286.5z"/>
<path class="st29" d="M143.9,293.9l-10.8-4.7c-3.1-1.3-10.1-2-4.6-7.4l0.8-0.7c-1.5-5.4,2.3-5.4,7-5.4h7.7l7-1.3
	c1.5,0,3.1-0.7,3.1-2.7c0-2-1.5-2-3.1-2c-3.9-1.3-7.7-1.3-11.6-3.4c-5.4-2-7-8.1-3.1-12.1c3.9-4,3.9-4,0-8.1l-1.5-2
	c-2.3-2-2.3-4,1.5-4.7c3.9-1.3,7.7-2.7,10.8-5.4c1.5-2,1.5-4,0-5.4c-1.5-2-3.1-3.4-5.4-1.3c3.1,4,1.5,7.4-3.9,8.7l-10.1,1.3
	c-3.1,0.7-3.1,2.7-0.8,4.7c0.8,0.7,3.1,1.3,2.3,2.7c-0.8,2-3.1,1.3-4.6,1.3c-9.3-0.7-18.6,2.7-28.6,0l5.4,3.4c3.1,2,5.4,4,3.9,7.4
	c-4.6,6-8.5,12.8-18.6,12.1c-2.3-0.7-5.4,0.7-7,2.7c0,1.3,0.8,2,1.5,2c5.4,2.7,10.8,6,17,7.4c3.1,2,6.2,2.7,10.1,2.7
	c5.4,0,9.3,1.3,9.3,6.7c0.8,4,11.6,9.4,15.5,8.1c4.6-1.3,9.3-1.3,13.9-1.3C147.7,295.3,145.4,294.6,143.9,293.9z"/>
<path class="st30" d="M85.9,351c-7.7,1.3-15.5,0.7-23.2-1.3c-1.5-0.7-3.1-0.7-3.1-2c0.8-5.4-3.9-5.4-7-6c0.8,2,4.6,2,3.9,5.4
	c-2.3,4.7,0,9.4,0.8,14.8c0,1.3,1.5,3.4,3.1,3.4c7.7-0.7,11.6,5.4,17.8,8.1c1.5,0.7,0.8,2,0.8,3.4c-1.5,3.4-4.6,6-7,8.7
	c11.6,6,24,6.7,37.1,4l0.8-0.7c-0.8-2.7-5.4-4-5.4-7.4c1.5-4.7-0.8-8.1-3.9-10.7c-1.5-2-3.1-4.7,0.8-5.4c4.6-1.3,4.6-4,3.1-7.4
	C99,354.3,93.6,350.3,85.9,351z"/>
<path class="st28" d="M65,267.1c-3.9-2-8.5-3.4-13.9-2.7l-7-2c-7.7-4.7-17-4.7-25.5-5.4c-1.5,0-3.1,0-3.9,2c0,1.3,1.5,2,3.1,2
	l17.8,3.4l2.3,0.7l2.3,1.3c0,1.3-1.5,1.3-2.3,1.3c-1.5,0.7-3.9,0.7-3.1,2.7c0,2,3.1,2.7,4.6,2c3.9-0.7,7.7,0,11.6,1.3
	c2.3,1.3,4.6,1.3,7.7,2c5.4,0.7,11.6,0,15.5,5.4l3.1,0.7l7.7,1.3c4.6,0.7,10.1,3.4,13.1-2c-0.8-2-3.1-2-4.6-2.7
	c-4.6-2.7-10.1-4-13.9-6.7C75,270.4,69.6,269.7,65,267.1z"/>
<path class="st31" d="M302.4,442.9l-5.4-2c-3.9-2.7-3.9-4-0.8-6.7l6.2-5.4c2.3-1.3,3.1-2.7,3.1-4.7c-0.8-3.4,1.5-5.4,5.4-6.7
	c2.3-0.7,5.4-2,3.9-5.4h-17c-3.9,0-7,2-9.3,4.7s-2.3,4.7,0.8,7.4c5.4,4.7,5.4,4.7,0,10.1l-1.5,1.3c-1.5,4.7-0.8,6.7,7,10.1
	c5.4,2.7,11.6,4,14.7,10.1l3.1,2c2.3,1.3,6.2,1.3,8.5,4c-6.2,2-11.6-0.7-17,0.7l-8.5,0.7c-3.9,1.3-6.2,3.4-6.2,6.7
	c0,7.4,0.8,14.8,7.7,19.5c2.3,2,3.1,3.4,0,4.7c-4.6,1.3-5.4,2.7-2.3,6.7l1.5,3.4c-0.8,6.7,3.1,10.7,9.3,13.4
	c1.5,0.7,3.9,1.3,3.1,3.4c0,2-2.3,2.7-3.9,2.7c-10.1-0.7-20.9,0.7-30.2-4.7l-7.7-2.7c-5.4,0-9.3,2.7-8.5,7.4c0,4-1.5,4.7-5.4,4.7
	c-9.3,1.3-18.6,2-27.1,4.7c-3.9,1.3-7.7,0.7-10.8-2c-3.1-2-7-2.7-10.8-2.7l-9.3-2c-6.2-2-12.4-2.7-18.6-1.3
	c-3.9,0.7-7.7,0.7-11.6-0.7l-12.4-3.4c-7.7-1.3-9.3-7.4-13.1-11.4V508c3.1-4.7-1.5-4-4.6-4.7c-3.1,0-7,0.7-9.3-1.3
	c0.8-2,3.1-2.7,4.6-3.4c3.9-2,3.9-4,0-6.7c-3.1-2-7-2.7-10.1-3.4c-10.1-2-19.3-5.4-27.8-10.7c-2.3-1.3-4.6-2.7-7-2
	c-3.1,0.7-4.6-0.7-6.2-3.4c-1.5-5.4-5.4-6-10.1-2c2.3-2,2.3-2,7-2.7c7,0,8.5-3.4,4.6-8.1c-2.3-4-6.2-7.4-7-12.1c0-3.4-0.8-6-4.6-8.1
	c-1.5-0.7-2.3-2.7-0.8-4c3.1-2,3.1-4,1.5-6c-1.5-1.3-1.5-2.7-1.5-4c0.8-3.4-0.8-5.4-3.9-6.7l-3.1-1.3c-3.9-3.4-7.7,0-11.6-0.7
	l-22.4-2.7c-4.6,0.7-9.3,2.7-13.9,1.3c-2.3,0-5.4,2-7,4.7c-0.8,2,1.5,2.7,3.1,4l1.5,3.4c-1.5,2.7,0.8,3.4,2.3,4c3.9,2,6.2,4.7,7,8.1
	c0.8,5.4-0.8,10.7,8.5,11.4l1.5,1.3c2.3,1.3,2.3,2.7,0,4c-6.2,2-10.8,6-17,8.7c-3.9,1.3-5.4,4-5.4,7.4l6.2,1.3
	c7.7,0.7,14.7,4,21.7,5.4c2.3,0.7,4.6,2.7,3.9,5.4c-0.8,2-3.1,2-5.4,2.7l-4.6-1.3l-7-0.7c-1.5,0-1.5,1.3-0.8,2.7
	c1.5,2.7,13.9,6,17,4c3.9-2.7,7-1.3,10.1,0.7l6.2,5.4c4.6,3.4,9.3,6.7,15.5,7.4c4.6,0,9.3,2.7,11.6,6.7c3.1,3.4,7,8.7,13.9,8.1
	c1.5,0,2.3,1.3,3.1,2c0,1.3,0.8,2,2.3,2.7c6.2,1.3,11.6,4.7,17.8,6.7c2.3,0.7,4.6,1.3,5.4,2.7c2.3,4.7,6.2,5.4,10.8,6
	c10.8,3.4,21.7,6,33.3,5.4c3.1-0.7,6.2,0,9.3,1.3c5.4,2.7,11.6,3.4,17,6c0.8,0.7,3.1,1.3,3.1,0c4.6-6.7,10.1-4,15.5-2
	c8.5,0,16.2,0.7,24,2.7c3.1,0.7,4.6-0.7,5.4-3.4c0.8-8.7,8.5-9.4,15.5-6.7c9.3,2.7,18.6,3.4,27.1,5.4l2.3-0.7c2.3-2,5.4-2,8.5-2.7
	c3.9-0.7,8.5-0.7,13.1,0.7l3.9,1.3c1.5,0.7,3.1,1.3,3.9,0c1.5-1.3,0-2-0.8-3.4l-0.8-6c0-2.7,0-5.4-2.3-6.7c-3.9-2-2.3-3.4,0-5.4
	l5.4-2.7c1.5,0,3.9,0,3.9-1.3c0-2-1.5-2.7-3.1-3.4c-3.1-0.7-7-1.3-7-4.7c0-4.7-1.5-8.1-5.4-10.7c-2.3-1.3-1.5-4.7,0.8-4
	c8.5,1.3,10.1-7.4,16.2-7.4c1.5,0,1.5-1.3,1.5-2.7c-0.8-3.4-1.5-6-3.9-8.1s-3.9-3.4-3.9-5.4c0.8-7.4,3.1-8.7,10.8-10.1
	c2.3,0,4.6-0.7,4.6-2.7c0.8-2.7-2.3-2.7-3.9-3.4l-10.8-4.7C314.8,449.6,310.2,444.9,302.4,442.9z"/>
<path class="st32" d="M308.6,546.3c-2.3-3.4-9.3-4-13.1-0.7C300.1,548.3,304.7,547.6,308.6,546.3z"/>
<path class="st15" d="M157.8,589.9l-1.5-1.3c-0.8-0.7-1.5,0.7-2.3,1.3c-0.8,2.7-3.1,4-6.2,4.7c-2.3,0.7-3.9,2-0.8,2.7l7.7,4
	c2.3,1.3,4.6,0.7,4.6-2.7L157.8,589.9z"/>
<path class="st1" d="M212.7,740.3v-0.7c-7-3.4-14.7-4-22.4-3.4c-2.3,0-0.8,1.3-0.8,2.7l13.9,2L212.7,740.3z"/>
<path class="st33" d="M136.9,275.8c-2.3,0.7-4.6,2-3.9,4.7c1.5,4.7,4.6,8.7,9.3,11.4h2.3c0.8-3.4-1.5-4.7-3.1-7.4
	c-0.8-0.7-3.1-2-1.5-3.4c0.8-2,3.1-1.3,4.6-1.3l25.5-0.7c3.1,0,5.4,0,7.7,1.3h7c2.3-1.3,7,0.7,7.7-3.4c-0.8-2.7-3.9-2-5.4-2.7
	c-10.8-3.4-22.4-5.4-34.8-7.4l11.6-0.7c2.3,0,4.6,0,4.6-2.7c0-1.3-1.5-2-3.9-2.7l-16.2-4c-2.3,0-4.6,0-4.6-1.3
	c-0.8-2,1.5-2.7,3.1-3.4c5.4-2.7,8.5-5.4,7-11.4c-1.5-5.4,1.5-10.1,7.7-12.8c6.2-3.4,6.2-6,0-8.7l-9.3-3.4c-2.3-0.7-4.6-1.3-4.6-4
	c-0.8-4.7-4.6-6.7-9.3-8.1l-7.7-2.7c-1.5-1.3-2.3-2-0.8-4c3.1-5.4,2.3-6.7-4.6-8.7c-4.6-2-10.1-3.4-12.4-7.4c-2.3-2.7-4.6-2.7-7.7-2
	c-5.4,0.7-10.8-0.7-15.5-4l-7-2.7c-5.4-2.7-11.6-4-13.1-10.7c-0.8-1.3-1.5-3.4-4.6-2l0.8,7.4l24.8,16.8c2.3,0.7,4.6,1.3,7,0.7
	c1.5-0.7,3.9-0.7,3.1,1.3c-3.1,6.7,2.3,4.7,5.4,4.7c7-1.3,11.6,3.4,10.1,8.7c-0.8,3.4,0,5.4,2.3,8.1c2.3,4,7,5.4,11.6,6
	c3.9,0.7,7,2,2.3,5.4c-2.3,2-1.5,4,1.5,4.7c3.1,0.7,5.4,2.7,7.7,4c2.3-0.7,3.9,0.7,4.6,2.7c0.8,2-1.5,3.4-2.3,4c-3.1,2-7,4-10.8,4.7
	c-4.6,0-3.9,2-2.3,4c2.3,2.7,4.6,5.4,8.5,7.4c-7.7,4-8.5,5.4-7,11.4c0.8,4.7,4.6,6.7,9.3,7.4l11.6,2.7c-2.3,3.4-7,0.7-9.3,2.7
	L136.9,275.8z"/>
<path class="st34" d="M76.6,418.1c4.6-0.7,7.7-0.7,11.6,1.3c3.9,3.4,9.3,6,14.7,5.4c2.3,0,3.1,0.7,3.9,2c3.9,3.4,7,7.4,8.5,12.1
	c2.3,6,7.7,10.1,14.7,12.1c7,1.3,14.7,0.7,20.9-4c1.5-2,3.9-4,3.1-7.4c0-2.7-2.3-4.7-2.3-7.4c-1.5-5.4-1.5-11.4,1.5-14.8
	c4.6-5.4,3.1-9.4,2.3-14.8c0-6.7-10.8-16.8-20.9-16.1l-24.8,2c-11.6,0-23.2,1.3-34.8-3.4h-3.1c-3.9,0.7-7,2-9.3,4.7
	c-1.5,1.3-3.1,2.7-6.2,2.7c3.9,4,3.9,10.1,10.1,12.1c3.1,1.3,2.3,4.7-0.8,6c-3.1,1.3-4.6,3.4-4.6,6l2.3,2
	C68.1,420.8,72.7,419.4,76.6,418.1z"/>
<path class="st35" d="M28.6,142.2c-7-2.7-14.7-4.7-21.7-8.1c-2.3,2-1.5,4,1.5,5.4c7,2.7,13.9,5.4,21.7,6.7c5.4,0.7,11.6,0,12.4,6.7
	l1.5,0.7h3.1c-1.5-2.7,1.5-2.7,3.1-2.7h8.5l-3.1-2c-7-2-13.9-2.7-20.9-3.4L28.6,142.2z"/>
<path class="st0" d="M466.4,749l9.3,2C472.6,749.7,470.3,747,466.4,749z"/>
<path class="st36" d="M518.2,758.7c0,0.8,0.8,1.3,3.1,1.3c1.5,0,3.9-0.3,3.9-1.3c0-0.8-1.5-1.1-3.1-1.1
	C519.8,757.6,518.2,757.9,518.2,758.7z"/>
<path class="st37" d="M360.4,456.4c0.8,4,2.3,6.7,7.7,8.1c1.5,0,4.6,2.7,2.3,4.7c-5.4,4.7-3.1,8.1,0.8,11.4l3.1,3.4
	c2.3,4,5.4,7.4,10.8,8.1c5.4,0.7,9.3,4,13.9,5.4c0.8,0.7,2.3,1.3,2.3,2.7c-0.8,1.3-2.3,2-3.9,2c-5.4,0.7-10.8,1.3-16.2-0.7
	c-3.1-0.7-7-0.7-10.1,0.7c-2.3,0.7-5.4,2-5.4,4.7c0,3.4,3.1,4,5.4,4.7c6.2,1.3,10.1,4.7,15.5,6.7c2.3,1.3,3.1,2.7,3.1,4.7l-1.5,10.7
	c-0.8,3.4-3.1,5.4-7,5.4c-2.3,0-6.2,0-7,2.7c1.5,1.3,3.9,1.3,5.4,1.3c5.4-0.7,10.1,2,12.4,5.4c3.9,4.7,8.5,6,14.7,6
	c6.2-0.7,12.4-0.7,17.8,4c3.1,3.4,7.7,2,10.1-2c0-1.3-0.8-1.3-1.5-2l-2.3-1.3c-10.8-6-11.6-10.1-4.6-16.8c4.6-4,3.9-8.1-2.3-10.7
	c-2.3-1.3-6.2-2-7-6c2.3,2,3.9,4,7,3.4c3.1-1.3,2.3-4,2.3-6c0-5.4,1.5-6.7,7.7-6c10.1,1.3,20.9-0.7,30.9,1.3h4.6
	c1.5-0.7,3.1-1.3,3.1-2.7c-11.1-2.3-22.2-4.8-33.3-7.4c-2.3-0.7-5.4-0.7-4.6-3.4c0.8-4-2.3-6-4.6-8.7c-4.6-4-7-9.4-13.9-10.7
	l-3.1-2.7l-4.6-2c-5.4,0-9.3-2-13.1-4.7c-3.1-2-5.4-5.4-9.3-5.4c-10.1-2-15.5-9.4-24-13.4c-2.3-0.7-4.6-2-4.6-4.7
	c0-2-1.5-3.4-3.9-4.7c-1.5,0-3.1-1.3-3.1-2.7c0.8-2,3.1-2,4.6-2h13.9c1.5,0,3.1,0.7,3.9-1.3c0-1.3-2.3-1.3-3.9-1.3
	c-6.2-0.7-12.4-2-18.6-4.7c-6.2-2-11.6-5.4-18.6-4.7c-4.6,0-7.7-7.4-4.6-11.4v-1.3c-3.1-0.7-6.2-1.3-7.7,1.3c0,4,2.3,7.4,3.9,10.7
	c0.8,2.7,3.9,4,7.7,3.4c4.6-0.7,8.5,1.3,10.1,5.4c3.9,8.7,12.4,14.8,17.8,22.2L360.4,456.4z"/>
<path class="st38" d="M359.7,540.3c-3.1-0.7-4.6,0-5.4,2.7c-0.8,2-1.5,4,0,6.7c2.3,6.7,3.1,14.1-1.5,20.8c-1.5,1.3-1.5,3.4-1.5,4.7
	c0.8,2.7,0,6-0.8,8.7c-1.5,2.7-3.1,5.4-7.7,4.7h-13.9c-3.1,0-4.6,1.3-4.6,4c0,8.1,6.2,15.4,14.7,17.5c16.2,4,33.3,6,49.5,9.4
	c5.4,0.7,10.8,0,15.5,3.4c2.3,2,5.4,2.7,8.5,1.3c0.8-2-0.8-2.7-2.3-3.4c-8.5-2-13.1-6.7-16.2-13.4h-0.8c-6.2-5.4-8.5-12.1-12.4-18.1
	c-1.5-2-0.8-4,0.8-6c3.9-3.4,7-4.7,12.4-2.7c6.2,2.7,10.8,1.3,12.4-2.7c0.8-4.7,3.9-5.4,8.5-5.4s8.5-0.7,10.1-5.4
	c0-1.3,2.3-1.3,3.1-1.3l7-0.7c2.3-0.7,3.9-2,3.9-4.7c0-2-0.8-4-4.6-4.7c-3.9,4-8.5,4-11.6-0.7c-0.8-1.3-0.8-3.4-2.3-2.7
	c-4.6,1.3-9.3-0.7-13.1,0c-6.2,1.3-10.1,0-13.1-4.7c0-1.3-1.5-2-3.1-3.4c-4.6-4.7-10.8-2.7-16.2-2.7
	C368.9,542.9,364.3,541.6,359.7,540.3z"/>
<path class="st39" d="M395.2,624.2c0,2.7,5.4,2,8.5,2.7c4.6,0,9.3,0.7,13.1,3.4l62.6,8.1c10.8,2,22.4,4,33.3,4.7
	c7.7,0.7,14.7,4,22.4,4h3.1c2.3,2,4.6,2,6.2,0c0.8-2.7-1.5-4-3.9-4.7h-0.8l-29.4-4.7l-4.6-0.7l-9.3-1.3l-7.7-1.3l-41.8-6l-27.8-5.4
	c-2.3,0-4.6-0.7-7,0.7l-8.5-0.7C400.6,623.5,395.2,621.5,395.2,624.2z"/>
<path class="st40" d="M129.9,274.4c-3.1,0-5.4,0.7-3.1,4c1.5,2.7,1.5,4.7-2.3,6c-0.8,0-2.3,0.7-1.5,2c0,1.3,1.5,1.3,2.3,2
	c7.7,2,14.7,5.4,21.7,8.7l12.4,3.4l13.9,3.4l2.3,2c0.8,0.7-0.8,1.3-1.5,1.3c-6.2,1.3-3.9,4-2.3,6.7c3.9,6,10.8,6.7,16.2,9.4
	c10.1,5.4,20.9,9.4,30.2,16.1c8.5,6,18.6,10.1,29.4,11.4c3.1,0,6.2,2.7,10.1,2c2.3-2,4.6-2,7.7-2l19.3,2c8.5,0.7,17.8,0,26.3,2
	c10.8,1.3,21.7,0.7,33.3,2h2.3l4.6,0.7l0.8-2c-1.5-1.3-2.3-2.7-1.5-3.4l-38.7-7.4c-4.6-0.7-10.1-2-15.5-1.3
	c-10.8,2-20.9-0.7-30.2-4.7l-4.6-0.7h-8.5c-17-3.4-35.6-3.4-51-12.8l-3.1-1.3l-19.3-8.7c-3.9-2.7-3.9-3.4,0-5.4c3.1-2,3.1-4,0-6
	c-0.8-1.3-2.3-1.3-3.9-2l-26.3-9.4c-1.5-0.7-2.3-1.3-4.6-0.7c-3.1-0.7-3.9-2.7-5.4-4.7c-5.4-8.7-5.4-8.7,4.6-12.8H129.9z"/>
<path class="st41" d="M297,353c-3.9-0.7-5.4,2-3.1,4.7c1.5,2.7,3.9,4.7,7,6c3.9,1.3,6.2,3.4,8.5,6l6.2,6.7c3.9,3.4,6.2,7.4,4.6,12.1
	c-0.8,3.4,0.8,6,4.6,6.7l34.8,7.4c1.5,0,3.9,2,6.2,0c-0.8-2.7,1.5-2.7,3.9-2.7c1.5,0,3.9,0.7,3.9-1.3c0.8-2-0.8-2.7-2.3-3.4
	l-6.2-0.7c-2.3,0-4.6-0.7-5.4-3.4c-0.8-4-4.6-6-7.7-8.7c-4.6-4-7.7-8.1-14.7-9.4l-1.5-1.3c-2.3-3.4-5.4-5.4-8.5-8.1
	c-1.5-2-6.2-4-4.6-6c0.8-2.7,5.4-0.7,8.5-1.3c4.6-0.7,8.5,2.7,13.1,0.7l-34-3.4L297,353z"/>
<path class="st42" d="M306.3,353c-6.2-1.3-11.6-0.7-17-1.3l-27.1-2.7c-3.1,0-5.4,0.7-5.4,4c1.5,4,5.4,5.4,9.3,6.7l20.1,4.7
	c3.9,0.7,3.1,3.4,3.9,5.4c0.8,1.3,0,2-1.5,2.7c-4.6,2-4.6,2.7-0.8,6c2.3,2.7,6.2,4,7.7,7.4c1.5,4,5.4,6,10.1,8.1l19.3,4l49.5,9.4
	c3.1,0.7,6.2,1.3,8.5-0.7V406l-17-3.4l-13.1-2.7c-3.9-1.3-7.7-0.7-10.8-2c-4.6-2-10.1-2.7-15.5-3.4c-4.6-0.7-6.2-2-4.6-6.7
	c1.5-3.4,0.8-6-0.8-8.7l-14.7-14.8L304,363c-4.6-0.7-6.2-4-8.5-6c-2.3-2-1.5-3.4,1.5-3.4h13.1L306.3,353z"/>
<path class="st41" d="M350.4,358.4h10.8c-2.3-3.4-6.2-2.7-10.1-2l-5.4,0.7L350.4,358.4z"/>
<path class="st43" d="M346.5,353c-1.5,0-3.1,0-3.1,1.3s1.5,1.3,3.1,1.3l4.6,0.7c3.1,2,7,0.7,10.1,2c17.8,1.3,35.6,4.7,53.4,4.7
	c-7.7-3.4-15.5-3.4-23.2-5.4h-6.2l-34.8-4.7H346.5z"/>
<path class="st44" d="M294.7,385.9c-3.9,2.7-7,0.7-9.3-0.7s-3.9-2-5.4,0c-2.3,2,0,2.7,1.5,3.4c3.9,3.4,4.6,7.4,5.4,11.4
	c0.8,3.4-2.3,5.4-4.6,4c-5.4-2.7-10.1-0.7-14.7,0.7c-3.9,1.3-7,0-6.2-3.4c0.8-4-3.1-4.7-5.4-5.4c-3.1-1.3-5.4-0.7-7.7,1.3
	c-3.1,3.4-7.7,4-12.4,4c-3.9,0.7-11.6-2.7-11.6-5.4c0-6.7-5.4-6-9.3-5.4h-12.4l-13.1-1.3c-0.8,3.4-3.1,3.4-5.4,4
	c-4.6,2-6.2,6-4.6,10.1c1.5,3.4,5.4,4,9.3,4c7.7-1.3,13.9,3.4,21.7,4l2.3,2c2.3,4,7,6,10.8,8.1l10.8,4c1.5,0.7,4.6,1.3,3.9,4
	c-0.8,2.7-3.9,2-5.4,2.7c-9.3,0.7-16.2-3.4-24-6c-4.6-2-19.3-2-24,0.7l-1.5,3.4c-3.1,6-5.4,8.1-13.1,8.1c-3.9,0.7-7,0.7-9.3,2.7
	c-0.8,0.7-3.1,2-3.1,0c0.8-6-2.3-2-4.6-1.3l-3.1,6.7c-0.8,1.3,0,2.7,0.8,3.4c5.4,3.4,3.9,6.7,1.5,10.7c-3.9,6-3.1,7.4,4.6,8.7
	l9.3,2.7c9.3,2,18.6,4.7,27.1,0c3.1-2,6.2-1.3,9.3-0.7c10.1,1.3,20.1,2.7,28.6,6.7l5.4,0.7c3.1-0.7,4.6,0,6.2,2.7
	c1.5,4,4.6,4.7,9.3,3.4c6.2-1.3,8.5-5.4,6.2-12.8c-1.5-6.7,3.9-13.4,10.8-12.8c10.1,0.7,18.6-4,27.8-3.4c2.3,0.7,4.6-0.7,5.4-3.4
	c0-2.7-2.3-3.4-5.4-3.4c-4.6,0-9.3-2-12.4-5.4c-1.5-2-4.6-2.7-7-3.4c-1.5-0.7-3.9-1.3-4.6-4c6.2,0,10.8,3.4,16.2,0l3.1-2.7
	c6.2-4.7,6.2-6-0.8-9.4c-3.9-2.7-4.6-5.4,0-8.1c3.1-2,6.2-3.4,10.1-2.7c4.6,0.7,9.3,0,13.9-1.3c0.8,1.3,2.3,1.3,3.9,1.3
	c2.3-2,5.4,0.7,7.7-1.3c1.5,0.7,3.9,1.3,4.6,0c0.8-1.3-0.8-2.7-2.3-3.4c-2.3-1.3-3.9-1.3-5.4-1.3c7,0,13.9-1.3,21.7-0.7
	c3.1,0.7,6.2,2,9.3,1.3c3.9-0.7,8.5,0,12.4,0.7c7,1.3,13.9,2,21.7,1.3c-1.5-2.7-4.6-2-6.2-3.4l-7.7-0.7l-37.9-7.4l-32.5-6
	C300.9,391.2,296.2,389.9,294.7,385.9z"/>
<path class="st45" d="M327.2,413.4h7.7l3.1-1.3c0-1.3-1.5-1.3-2.3-1.3c-0.8-0.7-2.3-0.7-2.3-2c0.8-1.3,2.3-1.3,3.1-1.3
	c3.9,0,8.5,0.7,11.6,2c2.3,0.7,3.9,1.3,5.4,0.7c4.6-2,9.3-1.3,13.9-1.3c-7-2-14.7-2-22.4-2.7l-23.2-0.7c-0.8-0.7-3.1-1.3-3.1,0.7
	c-0.8,1.3,0.8,2.7,3.1,2.7l7,0.7l2.3,2c-0.8,1.3-2.3,0.7-3.1,0.7L327.2,413.4z"/>
<path class="st45" d="M310.2,416.1c-4.6,0.7-7,3.4-6.2,7.4c0.8,2,0,2.7-0.8,4l-7.7,6c-4.6,3.4-5.4,5.4,0,7.4c8.5,4,17,8.1,23.2,14.1
	c0-3.4,2.3-4.7,4.6-6c2.3-0.7,3.9-2,0.8-4c-2.3-0.7-0.8-2,0.8-2.7c6.2-4,7.7-8.1,6.2-14.8c-2.3-2-7-1.3-7-4.7l-3.9-9.4
	c-1.5-1.3-3.1-1.3-4.6-1.3C314,414.1,312.5,415.4,310.2,416.1z"/>
<path class="st46" d="M287.7,376.5c-1.5-0.7-1.5-2,0-2.7c3.1-0.7,3.9-2,3.9-6c0.8-4.7-1.5-4-3.9-4.7l-13.9-2.7
	c-6.2-1.3-12.4-2-17-7.4c-3.1-0.7-6.2-2.7-9.3-2c10.1,3.4,17,10.7,27.8,13.4l11.6,4c0.8,0.7,2.3,0.7,2.3,2s-1.5,1.3-2.3,1.3
	c-5.4,0.7-4.6,3.4-1.5,6l9.3,8.1c-0.8,6.7,5.4,5.4,10.1,6.7C297,388.6,293.9,381.2,287.7,376.5z"/>
<path class="st47" d="M143.1,449c-4.6,1.3-10.8,2-14.7,0c-6.2-2.7-10.8-6.7-13.1-13.4c-2.3-5.4-4.6-12.8-15.5-12.1
	c-3.9,0-8.5-2.7-11.6-5.4c-3.1-2-6.2-3.4-10.1-2c-4.6,2.7-10.1,2-14.7,3.4c2.3,2,4.6,3.4,3.1,7.4c-0.8,2,1.5,4,3.9,6
	c-3.9,1.3-7.7,3.4-3.9,6.7c3.1,2.7,5.4,4.7,5.4,10.1c0,3.4,4.6,7.4,7.7,10.7c3.1,4.7,3.9,4.7-3.1,6l-4.6,0.7c-2.3,0.7-4.6,1.3-4.6,4
	c-0.8,1.3-0.8,2.7,0.8,3.4c2.3,0.7,1.5-1.3,1.5-2.7c0.8-2,2.3-2.7,4.6-2.7c2.3,0.7,3.9,1.3,3.9,4c0,3.4,3.1,6,6.2,4.7
	c3.9-1.3,5.4,0,7.7,1.3l7,4c8.5,4.7,17.8,6.7,26.3,8.7c3.1,0.7,6.2,1.3,7,3.4c0,2-3.9,2.7-6.2,3.4c-1.5,0.7-3.9,0.7-3.9,2.7
	c0.8,2,3.1,2.7,4.6,3.4h8.5c1.5,0.7,3.1-0.7,4.6,1.3c-5.4,0.7-6.2,2.7-1.5,4.7c1.5,1.3,3.9,3.4,3.9,5.4c0.8,2.7,3.1,4,6.2,4.7
	l14.7,4c4.6,2,9.3,2,14.7,1.3c4.6-0.7,9.3-1.3,13.9,0.7c4.6,1.3,9.3,2.7,14.7,2.7c3.1,0,5.4,0.7,7.7,2.7c2.3,2.7,6.2,3.4,10.1,2.7
	c10.8-3.4,21.7-4.7,33.3-5.4c3.1-0.7,4.6-2,3.1-5.4c-1.5-1.3-0.8-2,0-3.4c2.3-4,8.5-4.7,13.9-1.3c3.1,2.7,7,3.4,10.8,4.7
	c6.2,1.3,12.4,0,18.6,1.3c3.1,0.7,7-1.3,7.7-4c1.5-3.4-2.3-4.7-4.6-5.4c-6.2-2.7-9.3-6-8.5-12.1c-4.6,0.7-3.9,4-3.9,6
	c0,2.7,2.3,4.7,3.1,6.7c-7.7-4-18.6-2.7-24-10.1c-6.2-1.1-12.4-1.9-18.6-2.7c-3.1-0.7-6.2,0.7-7,3.4c-1.5,2.7,0,4.7,2.3,6l2.3,1.3
	c1.5,1.3-0.8,11.4-2.3,12.1h-3.9l-7-1.3l-23.2-4c-5.4-0.7-11.6-0.7-15.5-4c-5.4-3.4-10.8-4.7-17-4.7c-7.7,0-12.4-5.4-11.6-12.1
	c0.8-2,0.8-4-0.8-5.4c-5.4-6.7-9.3-14.8-17.8-19.5l2.3-1.3c1.5-0.7,3.9-1.3,3.1-3.4s-2.3-2-3.9-2l-11.6-2c1.5-4.7,5.4-6.7,10.8-6.7
	l2.3-4c1.5-2,1.5-3.4-0.8-4c-3.1-1.3-3.9-4-6.2-6L143.1,449z"/>
<path class="st48" d="M297,499.3c-1.5-0.7-3.9-0.7-2.3-2.7c0.8-1.3,1.5-2,3.9-2c1.5-0.7,3.9,0,4.6-2c0-2-2.3-3.4-3.9-4
	c-4.6-2-6.2-6-7-10.7c-2.3-11.4-3.1-13.4,12.4-14.8c1.5-3.4,7-2.7,8.5-6.7l-6.2-7.4c-0.8-1.3-2.3-2.7-3.9-2.7
	c-5.4,0-8.5-3.4-12.4-5.4c-2.3-1.3-3.1-2.7-1.5-5.4c-4.6,0.7-9.3,0-13.9-1.3c-2.3-0.7-3.9-0.7-4.6,1.3c-1.5,1.3,0,2.7,1.5,3.4
	c0.8,0.7,2.3,2,3.9,2c3.9,0.7,7,2.7,9.3,5.4s6.2,4.7,10.1,4c2.3-0.7,5.4,0,5.4,2c0,2.7-3.1,2-5.4,2c-4.6,0.7-9.3-0.7-13.1,1.3
	c-3.1,2-7,2-10.8,1.3c-9.3-1.3-17.8,6.7-14.7,14.8c0.8,2,1.5,4,0.8,6c0,2.7-2.3,4.7-5.4,5.4c-2.3,0.7-6.2,1.3-7-0.7
	c-1.5-6-5.4-6.7-11.6-5.4v-0.7c-8.5-3.4-17.8-5.4-27.1-6.7c-7-1.3-12.4-1.3-17.8,2c-2.3,1.3-4.6,2-7.7,1.3l-20.9-4.7
	c-8.5-2.7-8.5-2-5.4-8.1c-2.3-0.7-4.6-3.4-7.7-0.7l-5.4,6c-0.8,0.7-1.5,2-0.8,2.7c0.8,1.3,2.3,1.3,3.9,0.7c3.1-0.7,6.2,0,9.3,0.7
	c1.5,0,3.9-0.7,4.6,1.3c0,2-3.1,2-4.6,2c-1.5,0.7-3.1,0.7-3.1,2.7s1.5,2,3.9,2.7c2.3,0,5.4,0.7,5.4,3.4c0,2.7,2.3,4,3.9,5.4
	c3.9,4.7,10.1,8.7,6.2,15.4l0.8,2.7c3.1,5.4,7,10.1,15.5,8.7c3.9-0.7,8.5,0,11.6,3.4c3.1,2.7,7,3.4,10.8,4
	c8.5,2.7,17.8,1.3,26.3,4.7l13.9,2c3.9,0,7,0.7,3.9-4l0.8-3.4c3.9-4.7,3.9-4.7-1.5-8.1c-2.3-1.3-4.6-2.7-3.1-4.7
	c0.8-2,3.1-3.4,6.2-2.7l9.3,1.3c5.4,0,10.1,0,11.6,6l1.5,0.7c6.2,0,12.4,2.7,17.8,4.7c2.3,0.7,4.6,2,7,0c-7-5.4-7.7-7.4-3.9-14.1
	C300.1,502,298.6,500.7,297,499.3z"/>
<path class="st44" d="M315.6,464.4c3.1,0,8.5-0.7,8.5-2c0.8-2.7-3.9-3.4-7-4.7l-3.9-1.3c-3.1,0-3.9,3.4-7,3.4s-2.3,2-1.5,3.4
	L315.6,464.4z"/>
<path class="st49" d="M260.7,326.8c-5.4-3.4-10.8-6.7-15.5-11.4c-4.6-6-10.1-12.1-18.6-13.4c-0.8-0.7-1.5-0.7-0.8-1.3
	c3.9,0,7,1.3,10.1,0c1.5,0,3.1-0.7,3.1-2s-0.8-2.7-2.3-2.7c-8.5-1.3-17.8-5.4-27.1-4.7c-4.6,0.7-8.5,0.7-13.1-1.3l-16.2-4l-13.9-4
	c3.9-2,8.5,0,11.6-2.7c-1.5-2.7-3.9-2-6.2-1.3l-6.2,0.7c-8.5-1.3-17,0.7-25.5,0c-3.1,0-4.6,2-2.3,4c3.1,2.7,4.6,6,7,9.4l8.5,3.4
	l24,8.7c1.5,0.7,3.9,1.3,3.1,3.4c0,1.3-2.3,0.7-3.1,1.3c-4.6,1.3-5.4,2.7-2.3,5.4c13.6,6.6,27.3,13.1,41,19.5
	c9.3,4,20.1,2.7,30.2,5.4c4.6,1.3,10.1,3.4,15.5,0.7C269.2,333.5,268.4,332.2,260.7,326.8z"/>
<path class="st50" d="M265.3,339.6l9.3,2.7c6.2,0.7,12.4,3.4,19.3,1.3l-4.6-4c-6.2-4.7-15.5-5.4-19.3-12.8c-2.3-4-2.3-6,0.8-8.7
	c3.1-2,4.6-4.7,2.3-7.4c-5.4-6-10.8-11.4-19.3-13.4s-16.2-4-23.2-7.4l-15.5-5.4c-2.3-0.7-6.2-0.7-7-2.7c-0.8-4-4.6-4.7-7.7-5.4
	c-4.6,2-10.1,2-15.5,2.7h-18.6c-1.5,0-3.1,0-3.1,2c-0.8,1.3,0.8,2.7,3.1,2.7l34.8,8.7c1.5,0.7,3.9,1.3,5.4,0.7
	c10.8-2,20.9,4,30.9,4.7c-4.6,4-11.6-1.3-17.8,2.7c3.9,1.3,6.2,3.4,10.1,4c2.3,0.7,4.6,1.3,6.2,3.4c7.7,8.1,15.5,16.1,26.3,21.5
	c3.1,2,5.4,4,0.8,6.7c-1.5,0.7-1.5,2-1.5,3.4H265.3z"/>
<path class="st51" d="M168.6,261c-5.4-2-9.3-5.4-9.3-10.7c0-2,0-4.7-1.5-7.4c-3.1-4-2.3-8.1,0.8-12.1c1.5-0.7,1.5-2.7,2.3-4.7
	c-7,4-10.1,9.4-8.5,16.1c0.8,3.4,0,5.4-2.3,6.7s-3.9,2.7-6.2,2.7c-1.5,0.7-3.9,2-3.9,3.4c0.8,2.7,3.1,3.4,5.4,3.4l7,1.3
	c5.4,1.3,10.8,1.3,16.2,4.7c-7,2.7-13.9-1.3-20.9,2.7l14.7,3.4c10.8,1.3,20.1,5.4,30.2,6c1.5,0.7,3.1,1.3,4.6,0c-2.3-2-4.6-2-7.7-2
	c-2.3,0-6.2,0-7-2.7c-0.8-3.4-3.1-5.4-4.6-7.4L168.6,261z"/>
<path class="st49" d="M184.9,279.1c5.4,0,11.6,1.3,15.5-2.7h-7.7C191.8,280.5,187.2,277.1,184.9,279.1z"/>
<path class="st52" d="M567.7,630.2c0,1.3,0,3.4-2.3,2c-3.1-2-7-2-10.1-2c-3.1,0-5.4-0.7-7.7-2.7c-7.7-6-16.2-10.1-26.3-11.4
	c-3.1,0-5.4-0.7-7-2c-7-4.7-14.7-6.7-23.2-6.7c-2.3,0-4.6,0.7-6.2-1.3c-1.5-2-3.9-2-7-2c-2.3,0-5.4,0-3.9-3.4
	c0.8-1.3-0.8-3.4-2.3-3.4c-6.2-2-6.2-6.7-6.2-12.1c0-3.4,0-7.4-3.1-9.4c-5.4-2.7-10.1-6.7-16.2-7.4c-3.1,0-6.2-1.3-5.4-5.4
	s-2.3-6.7-7.7-8.1l0.8,0.7c1.5,2,4.6,3.4,3.1,6c-1.5,3.4-4.6,2.7-7.7,2.7h-5.4c-1.5,0-3.1,0-1.5,2c2.3,4-1.5,4-4.6,4l-7,0.7
	c-3.9-0.7-5.4,0.7-6.2,4c0,4.7-2.3,6-7.7,5.4l-5.4-2c-3.1-1.3-14.7,4.7-14.7,7.4l0.8,2c5.4,5.4,5.4,12.8,12.4,18.1
	c2.3,1.3,5.4,4,5.4,6.7c0.8,4.7,4.6,6,8.5,7.4l8.5,3.4l55.7,9.4c10.1,1.3,19.3,3.4,29.4,4c2.3,0.7,6.2,0,8.5,2h4.6
	c-0.8-8.7-10.1-9.4-17-12.1c7,0.7,10.8-3.4,15.5-5.4c12.4-4,26.3-2,35.6,6c3.1,2.7,7,3.4,10.8,4c4.6,0,9.3,0,10.8,5.4
	c0.8,3.4,10.1,7.4,13.9,7.4c0.8-0.7,3.1-0.7,3.1-2s-1.5-1.3-3.1-2l-5.4-1.3c-3.9-0.7-5.4-2.7-5.4-6c0.8-3.4,1.5-6.7,7-6.7
	C571.6,624.8,569.3,626.2,567.7,630.2z"/>
<path class="st17" d="M505.8,745.4c-2.3-1.3-5.4-0.5-8.5-0.8C499.6,745.1,502.7,745.1,505.8,745.4z"/>
<path class="st49" d="M274.6,343.6c7,1.3,13.9,3.4,21.7,0.7l-2.3-0.7l-8.5-0.7l-20.1-3.4L274.6,343.6z"/>
<path class="st0" d="M42.1,162.2c-3.1-2-3.9-0.7-3.9,2.7c3.1,2.7,7,4,11.6,4.7C51.4,163.5,45.2,163.5,42.1,162.2z M112.5,159.5
	c0,1.3,2.3,2,3.9,2c0.8,0,2.3-0.7,2.3-2s-1.5-2-3.1-2C114,157.5,112.5,158.1,112.5,159.5z"/>
</svg>
