<?xml version="1.0" encoding="utf-8"?>
<!-- Generator: Adobe Illustrator 22.1.0, SVG Export Plug-In . SVG Version: 6.00 Build 0)  -->
<svg version="1.1" id="Layer_1" xmlns="http://www.w3.org/2000/svg" xmlns:xlink="http://www.w3.org/1999/xlink" x="0px" y="0px"
	 viewBox="0 0 24 24" style="enable-background:new 0 0 24 24;" xml:space="preserve">
<style type="text/css">
	.st0{fill:#FFFFFF;}
</style>
<g>
	<g>
		<path class="st0" d="M12,2C6.5,2,2,6.5,2,12s4.5,10,10,10s10-4.5,10-10S17.5,2,12,2z M18.9,8h-2.8c-0.3-1.3-0.6-2.5-1.1-3.4
			C16.7,5.3,18,6.5,18.9,8z M20,12c0,0.7-0.1,1.4-0.3,2h-3.3c0.1-0.6,0.1-1.3,0.1-2s0-1.4-0.1-2h3.3C19.9,10.6,20,11.3,20,12z
			 M12,20c-0.4,0-1.5-1.4-2.1-4h4.2C13.5,18.6,12.4,20,12,20z M9.6,14c-0.1-0.6-0.1-1.3-0.1-2s0-1.4,0.1-2h4.8
			c0.1,0.6,0.1,1.3,0.1,2s0,1.4-0.1,2H9.6z M4,12c0-0.7,0.1-1.4,0.3-2h3.3c-0.1,0.6-0.1,1.3-0.1,2s0,1.4,0.1,2H4.3
			C4.1,13.4,4,12.7,4,12z M12,4c0.4,0,1.5,1.4,2.1,4H9.9C10.5,5.4,11.6,4,12,4z M9,4.6C8.5,5.5,8.1,6.7,7.9,8H5.1
			C6,6.5,7.3,5.3,9,4.6z M5.1,16h2.8c0.3,1.3,0.6,2.5,1.1,3.4C7.3,18.7,6,17.5,5.1,16z M15,19.4c0.5-0.9,0.8-2.1,1.1-3.4h2.8
			C18,17.5,16.7,18.7,15,19.4z"/>
	</g>
</g>
</svg>
