<?xml version="1.0" encoding="utf-8"?>
<!-- Generator: Adobe Illustrator 16.0.0, SVG Export Plug-In . SVG Version: 6.00 Build 0)  -->
<!DOCTYPE svg PUBLIC "-//W3C//DTD SVG 1.1//EN" "http://www.w3.org/Graphics/SVG/1.1/DTD/svg11.dtd">
<svg version="1.1" id="Layer_1" xmlns="http://www.w3.org/2000/svg" xmlns:xlink="http://www.w3.org/1999/xlink" x="0px" y="0px"
	 width="200px" height="200px" viewBox="0 0 200 200" enable-background="new 0 0 200 200" xml:space="preserve">
<g>
	
		<linearGradient id="XMLID_2_" gradientUnits="userSpaceOnUse" x1="146.7441" y1="-470.686" x2="259.8242" y2="-402.4364" gradientTransform="matrix(1 0 0 -1 -87.835 -290.4893)">
		<stop  offset="0" style="stop-color:#FAEE3C"/>
		<stop  offset="1" style="stop-color:#F37C3D"/>
	</linearGradient>
	<path id="XMLID_3041_" fill="url(#XMLID_2_)" d="M184.096,109.95c1.299-1.152,2.021-2.738,2.164-4.614
		c0.145-3.749-2.596-6.778-6.346-7.066c-1.73-0.146-3.461,0.576-4.76,1.586l0,0L54.284,166.06c-2.74,1.154-5.192,3.175-6.779,5.913
		c-4.182,6.924-1.875,15.865,5.193,20.049c4.903,2.885,10.817,2.598,15.434-0.287l0,0l0,0c0.287-0.29,0.721-0.434,1.008-0.722
		l112.505-79.042C182.221,111.539,183.809,110.385,184.096,109.95L184.096,109.95L184.096,109.95z"/>
	
		<linearGradient id="XMLID_3_" gradientUnits="userSpaceOnUse" x1="170.6514" y1="-306.8101" x2="273.8631" y2="-397.1691" gradientTransform="matrix(1 0 0 -1 -87.835 -290.4893)">
		<stop  offset="0" style="stop-color:#EF5B6C"/>
		<stop  offset="0.57" style="stop-color:#F36F4F"/>
		<stop  offset="1" style="stop-color:#F37C3D"/>
	</linearGradient>
	<path id="XMLID_3049_" fill="url(#XMLID_3_)" d="M184.385,100.288L184.385,100.288L92.363,9.996
		c-2.021-2.163-4.904-3.605-8.222-3.605c-6.202,0-11.107,5.048-11.107,11.106l0,0c0,3.028,1.154,5.624,3.03,7.645l0,0l0,0
		c0.576,0.577,1.154,1.01,1.729,1.442l97.216,83.223l0,0c1.154,1.012,2.596,1.732,4.328,1.876c3.748,0.145,6.779-2.597,7.066-6.347
		C186.404,103.46,185.684,101.587,184.385,100.288z"/>
	
		<linearGradient id="XMLID_4_" gradientUnits="userSpaceOnUse" x1="177.209" y1="-388.7168" x2="116.0404" y2="-350.5167" gradientTransform="matrix(1 0 0 -1 -87.835 -290.4893)">
		<stop  offset="0" style="stop-color:#7D5AA4"/>
		<stop  offset="0.3852" style="stop-color:#B04D93"/>
		<stop  offset="0.7654" style="stop-color:#DD4284"/>
		<stop  offset="0.957" style="stop-color:#ED407E"/>
	</linearGradient>
	<path id="XMLID_3042_" fill="url(#XMLID_4_)" d="M95.391,92.211c-0.144,0-56.828-44.713-57.983-45.435l0,0l0,0
		c-0.865-0.432-1.729-0.864-2.596-1.299c-8.365-3.172-17.597,1.155-20.769,9.521c-2.741,7.355,0.288,15.434,6.634,19.327l0,0l0,0
		c1.01,0.577,1.875,1.01,2.885,1.299c0.578,0.289,65.484,27.114,65.484,27.114l0,0c2.596,1.155,5.624,0.435,7.355-1.729
		C98.565,98.27,98.132,94.375,95.391,92.211z"/>
	
		<linearGradient id="XMLID_5_" gradientUnits="userSpaceOnUse" x1="176.0996" y1="-302.1948" x2="116.3824" y2="-351.516" gradientTransform="matrix(1 0 0 -1 -87.835 -290.4893)">
		<stop  offset="0" style="stop-color:#EF5B6C"/>
		<stop  offset="0.364" style="stop-color:#EE4F73"/>
		<stop  offset="1" style="stop-color:#ED407E"/>
	</linearGradient>
	<path id="XMLID_3057_" fill="url(#XMLID_5_)" d="M84.141,6.391c-2.452,0-4.76,0.864-6.635,2.163L20.099,47.209
		c-0.144,0.146-0.287,0.146-0.287,0.289h-0.145l0,0c-2.452,1.73-4.471,4.327-5.625,7.355c-3.173,8.366,1.154,17.742,9.519,20.771
		c5.192,2.02,10.818,1.01,15.001-2.02l0,0l0,0c1.008-0.722,1.875-1.442,2.596-2.308l49.905-45.002l0,0
		c2.596-2.019,4.327-5.192,4.327-8.798l0,0C95.391,11.438,90.342,6.391,84.141,6.391z"/>
	<g id="XMLID_3008_">
		<rect id="XMLID_3033_" x="62.938" y="60.335" fill="#010101" width="73.56" height="73.562"/>
		<rect id="XMLID_3032_" x="69.285" y="120.047" fill="#FFFFFF" width="27.549" height="4.617"/>
		<g id="XMLID_3009_">
			<path id="XMLID_3030_" fill="#FFFFFF" d="M68.996,79.662l2.164-2.019c0.578,0.722,1.153,1.154,1.875,1.154
				c0.867,0,1.299-0.578,1.299-1.731v-7.645h3.317v7.645c0,1.442-0.432,2.596-1.153,3.317c-0.721,0.721-1.875,1.153-3.317,1.153
				C71.016,81.683,69.861,80.815,68.996,79.662z"/>
			<path id="XMLID_3028_" fill="#FFFFFF" d="M78.372,69.565h9.664v2.741h-6.347v1.875h5.77v2.596h-5.77v1.875h6.49v2.885h-9.664
				L78.372,69.565z"/>
			<path id="XMLID_3026_" fill="#FFFFFF" d="M92.363,72.45h-3.606v-2.885h10.529v2.885H95.68v9.087h-3.317V72.45z"/>
			<path id="XMLID_3022_" fill="#FFFFFF" d="M69.285,84.278h6.202c1.442,0,2.596,0.433,3.317,1.01
				c0.432,0.433,0.721,1.153,0.721,2.019l0,0c0,1.442-0.721,2.163-1.875,2.741c1.442,0.433,2.308,1.299,2.308,2.885l0,0
				c0,2.02-1.729,3.316-4.471,3.316h-6.202V84.278z M76.208,88.027c0-0.721-0.577-1.008-1.442-1.008h-2.164v2.163h2.02
				C75.63,89.038,76.208,88.749,76.208,88.027L76.208,88.027z M75.054,91.49h-2.596v2.163h2.596c1.01,0,1.586-0.433,1.586-1.153l0,0
				C76.64,91.778,76.064,91.49,75.054,91.49z"/>
			<path id="XMLID_3019_" fill="#FFFFFF" d="M80.535,84.278h5.626c1.875,0,3.028,0.433,3.894,1.299
				c0.721,0.721,1.01,1.586,1.01,2.739l0,0c0,1.875-1.01,3.03-2.452,3.751l2.885,4.182h-3.75l-2.452-3.605h-1.442v3.605h-3.317
				V84.278z M86.016,90.048c1.153,0,1.73-0.578,1.73-1.442l0,0c0-1.01-0.721-1.442-1.73-1.442h-2.164v2.885H86.016z"/>
			<path id="XMLID_3016_" fill="#FFFFFF" d="M94.958,84.278h3.174l5.047,12.116h-3.605l-0.866-2.163h-4.614l-0.867,2.163h-3.46
				L94.958,84.278z M97.843,91.49l-1.299-3.317l-1.297,3.317H97.843z"/>
			<path id="XMLID_3014_" fill="#FFFFFF" d="M103.613,84.278h3.316v11.971h-3.316V84.278z"/>
			<path id="XMLID_3012_" fill="#FFFFFF" d="M107.797,84.278h3.027l4.904,6.347v-6.347h3.318v11.971h-2.885l-5.049-6.49v6.636
				h-3.316V84.278z"/>
			<path id="XMLID_3010_" fill="#FFFFFF" d="M119.336,94.519l1.873-2.164c1.154,1.01,2.453,1.442,3.896,1.442
				c0.863,0,1.441-0.287,1.441-0.864l0,0c0-0.578-0.434-0.722-2.02-1.154c-2.596-0.577-4.471-1.298-4.471-3.751l0,0
				c0-2.163,1.729-3.893,4.613-3.893c2.021,0,3.607,0.576,4.906,1.586l-1.732,2.307c-1.152-0.721-2.307-1.153-3.316-1.153
				c-0.865,0-1.154,0.289-1.154,0.722l0,0c0,0.577,0.434,0.721,2.02,1.153c2.74,0.577,4.471,1.442,4.471,3.751l0,0
				c0,2.452-1.873,3.895-4.904,3.895C122.797,96.538,120.777,95.817,119.336,94.519z"/>
		</g>
	</g>
</g>
</svg>
