<?xml version="1.0" encoding="utf-8"?>
<!-- Generator: Adobe Illustrator 16.0.0, SVG Export Plug-In . SVG Version: 6.00 Build 0)  -->
<!DOCTYPE svg PUBLIC "-//W3C//DTD SVG 1.1//EN" "http://www.w3.org/Graphics/SVG/1.1/DTD/svg11.dtd">
<svg version="1.1" id="Layer_1" xmlns="http://www.w3.org/2000/svg" xmlns:xlink="http://www.w3.org/1999/xlink" x="0px" y="0px"
	 width="595.279px" height="196px" viewBox="0 321.445 595.279 196" enable-background="new 0 321.445 595.279 196"
	 xml:space="preserve">
<path fill="#FFFFFF" d="M31.888,368.928c2.581-1.521,5.281-2.868,8.097-4.039c5.938-2.462,12.059-3.992,18.362-4.592l6.829,7.783
	l-3.116,8.007c-6.15,1.23-11.938,3.467-17.366,6.709c-0.396,0.237-0.788,0.479-1.174,0.727l-1.153-10.539L31.888,368.928
	L31.888,368.928z"/>
<path fill="#FFFFFF" d="M28.909,370.795l10.836,4.197l1.136,10.336c-5.866,4.324-10.442,9.838-13.716,16.546
	c-0.292,0.598-0.568,1.196-0.83,1.798l-7.563-9.25l-12.43,2.625c3.098-6.677,7.258-12.653,12.481-17.927
	C21.94,375.976,25.303,373.201,28.909,370.795L28.909,370.795z M100.217,443.802c1.162-1.961,2.123-3.959,2.887-5.988l11.731,14.219
	l19.688-4.248c-1.125,3.111-2.462,6.152-4.004,9.129c-4.05,7.811-9.389,14.592-16.017,20.346
	c-6.732,5.836-14.337,10.096-22.821,12.773c-0.169,0.053-0.337,0.104-0.506,0.158l-14.592-12.352l3.825-16.816
	c0.096-0.039,0.19-0.078,0.285-0.119C89.052,457.351,95.558,451.648,100.217,443.802L100.217,443.802z"/>
<path fill="#FFFFFF" d="M124.863,377.347c1.203,1.664,2.333,3.389,3.399,5.175c4.496,7.556,7.604,15.642,9.321,24.254
	c1.707,8.543,1.948,17.127,0.727,25.749c-0.585,4.145-1.493,8.186-2.728,12.123l-19.658,4.232l-11.789-14.277
	c1.41-5.244,1.531-10.711,0.369-16.399c-1.378-6.747-4.316-12.504-8.815-17.273l21.241-2.519L124.863,377.347L124.863,377.347z
	 M4.974,400.225l12.697-2.68l7.48,9.141c-2.29,6.562-2.863,13.386-1.724,20.472c0.323,2.014,0.766,3.971,1.325,5.873l-13.405-3.063
	l-9.633,11.391C0.56,436.314-0.011,431.156,0,425.888c0.016-8.782,1.642-17.26,4.88-25.425
	C4.91,400.383,4.942,400.303,4.974,400.225z"/>
<path fill="#FFFFFF" d="M25.805,436.177c1.927,5.102,4.764,9.777,8.511,14.027c2.834,3.211,5.991,5.871,9.468,7.982l-13.311,7.625
	l0.721,17.357c-4.389-2.75-8.421-6.016-12.102-9.795c-6.174-6.34-10.906-13.619-14.193-21.842c-0.896-2.246-1.67-4.518-2.318-6.814
	l9.822-11.604L25.805,436.177z"/>
<path fill="#FFFFFF" d="M46.684,459.789c2.864,1.426,5.928,2.514,9.187,3.264c7.304,1.695,14.423,1.408,21.356-0.848L73.438,478.9
	l14.452,12.23c-7.229,1.893-14.617,2.703-22.158,2.43c-8.799-0.285-17.245-2.15-25.345-5.602c-2.169-0.922-4.265-1.947-6.291-3.072
	l-0.719-17.475L46.684,459.789L46.684,459.789z M122.83,374.675l-7.95,21.114l-21.857,2.588c-0.64-0.554-1.299-1.09-1.985-1.61
	c-7.132-5.424-15.208-8.6-24.224-9.526c-2.039-0.196-4.031-0.256-5.979-0.18L68.45,367.5l-16.444-18.746
	c4.945-0.427,9.881-0.566,14.807-0.417c2.969,0.075,5.908,0.303,8.829,0.682c4.11,0.535,8.176,1.372,12.192,2.508
	c8.498,2.394,16.245,6.278,23.242,11.656C115.491,366.573,119.408,370.403,122.83,374.675L122.83,374.675z"/>
<path fill="#FFFFFF" d="M195.482,427.775H179.91l-3.89,19.693h17.883l-2.312,11.688h-30.935l13.575-70.98h29.665l-2.313,11.583
	h-16.306l-3.474,16.852h15.888L195.482,427.775L195.482,427.775z M207.229,459.156l-2.206-70.98h14.623l-0.947,35.912
	c-0.209,6.424-0.633,14.637-1.053,20.115h0.211c1.473-5.479,3.893-13.795,6.105-20.115l12.726-35.912h14.521l-29.669,70.98h-14.313
	H207.229z M275.152,427.775h-15.568l-3.895,19.693h17.885l-2.316,11.688h-30.93l13.573-70.98h29.668l-2.313,11.583h-16.309
	l-3.474,16.852h15.888L275.152,427.775L275.152,427.775z M278.042,459.156l13.573-70.98h11.992l5.473,28.225
	c1.786,9.371,2.942,16.113,3.468,22.011h0.211c0.949-7.793,2.211-20.009,4.418-31.804l3.473-18.433h11.364l-13.572,70.981h-11.256
	l-5.684-26.432c-2.211-9.9-2.842-14.745-3.576-23.592h-0.21c-0.946,7.161-2.524,18.854-4.843,31.172l-3.576,18.852H278.04H278.042z
	 M344.405,400.602h-12.311l2.421-12.427h37.771l-2.421,12.427h-12.311l-11.153,58.554h-13.152L344.405,400.602L344.405,400.602z
	 M380.173,445.677c2.313,1.369,5.995,2.422,9.783,2.422c6,0.209,10.205-3.475,10.205-9.057c0-4.74-2.63-7.479-7.049-11.9
	c-5.576-5.268-8.418-10.952-8.418-17.165c0-13.165,9.261-22.434,23.146-22.434c5.472,0,8.945,1.158,10.629,2.211l-3.578,11.375
	c-2.104-1.158-4.42-1.896-7.68-1.896c-5.577,0-9.365,3.583-9.468,9.059c0,3.368,1.367,6.001,7.048,11.057
	c5.787,5.161,8.521,11.374,8.521,17.061c0,14.746-9.785,23.381-23.25,23.381c-7.049,0-11.574-1.582-13.256-2.633L380.173,445.677
	L380.173,445.677z M431.198,400.602h-12.312l2.423-12.427h37.768l-2.419,12.427h-12.312l-11.149,58.554h-13.154L431.198,400.602
	L431.198,400.602z M474.236,401.129c-6.523,6.633-10.207,26.435-10.207,36.966c0,4.002,0.525,10.32,5.998,10.32
	c1.477,0,3.054-0.736,4.311-2.107c7.052-6.949,10.103-29.803,10.103-37.493c0-4.525-0.631-9.898-5.473-9.898
	C477.287,398.917,475.708,399.655,474.236,401.129L474.236,401.129z M498.012,409.87c0,15.062-4.943,34.017-14.308,43.388
	c-4.419,4.426-9.468,6.742-15.679,6.742c-15.358,0-17.567-15.375-17.567-23.168c0-14.428,4.946-33.386,14.73-42.969
	c4.209-4.107,9.364-6.528,15.572-6.528C496.117,387.334,498.012,401.446,498.012,409.87L498.012,409.87z M516.295,420.507h3.052
	c6.624,0,11.044-7.058,11.044-14.535c0-3.79-1.577-7.793-6.524-7.793c-1.364,0-2.626,0.107-3.469,0.317L516.295,420.507z
	 M509.455,389.123c4.418-0.738,9.362-1.266,14.1-1.266c6.1,0,11.991,1.162,15.675,4.846c2.945,2.947,4.628,7.055,4.628,11.69
	c0,10.426-6.31,18.746-14.412,21.482v0.213c3.894,1.789,5.576,5.898,5.785,13.795c0.213,7.9,0.422,16.639,1.158,19.27h-13.255
	c-0.316-1.998-0.527-9.158-0.527-16.953c0-8.637-1.79-11.48-6.208-11.48h-2.209l-5.261,28.434h-12.836L509.455,389.123
	L509.455,389.123z M575.777,427.775h-15.57l-3.891,19.693h17.883l-2.315,11.688h-30.93l13.574-70.98h29.665l-2.315,11.583h-16.303
	l-3.475,16.852h15.888L575.777,427.775L575.777,427.775z M590.327,451.884c-0.217-0.086-0.522-0.127-0.916-0.127h-0.384v1.754h0.613
	c0.367,0,0.656-0.074,0.863-0.223s0.311-0.389,0.311-0.719s-0.163-0.557-0.488-0.688L590.327,451.884z M587.444,456.736v-6.045
	c0.374,0,0.936,0.002,1.683,0.004c0.746,0.002,1.161,0.006,1.245,0.012c0.478,0.035,0.875,0.139,1.189,0.311
	c0.537,0.297,0.807,0.777,0.807,1.443c0,0.508-0.143,0.875-0.426,1.1c-0.285,0.227-0.633,0.361-1.047,0.406
	c0.38,0.078,0.666,0.195,0.858,0.348c0.354,0.289,0.531,0.74,0.531,1.357v0.539c0,0.061,0.005,0.119,0.013,0.178
	s0.022,0.119,0.044,0.178l0.055,0.17h-1.507c-0.05-0.191-0.083-0.471-0.101-0.836s-0.051-0.611-0.101-0.74
	c-0.078-0.211-0.227-0.359-0.443-0.443c-0.118-0.049-0.298-0.082-0.54-0.096l-0.347-0.021h-0.333v2.137H587.444L587.444,456.736z
	 M586.63,450.542c-0.868,0.889-1.302,1.943-1.302,3.16c0,1.264,0.442,2.336,1.324,3.219c0.877,0.885,1.936,1.324,3.176,1.324
	c1.238,0,2.296-0.443,3.173-1.33c0.877-0.895,1.315-1.965,1.315-3.211c0-1.213-0.436-2.266-1.308-3.16
	c-0.882-0.906-1.942-1.361-3.181-1.361c-1.249,0-2.316,0.453-3.198,1.361V450.542z M593.647,457.617
	c-1.06,1.025-2.331,1.539-3.815,1.539c-1.531,0-2.822-0.525-3.873-1.576c-1.048-1.051-1.574-2.342-1.574-3.877
	c0-1.592,0.567-2.916,1.7-3.973c1.064-0.986,2.314-1.48,3.747-1.48c1.504,0,2.787,0.533,3.852,1.6
	c1.064,1.064,1.597,2.35,1.597,3.854C595.28,455.251,594.735,456.558,593.647,457.617L593.647,457.617z"/>
</svg>
