<?xml version="1.0" encoding="utf-8"?>
<!-- Generator: Adobe Illustrator 21.0.0, SVG Export Plug-In . SVG Version: 6.00 Build 0)  -->
<svg version="1.1" id="Layer_1" xmlns="http://www.w3.org/2000/svg" xmlns:xlink="http://www.w3.org/1999/xlink" x="0px" y="0px"
	 viewBox="0 0 500 500" style="enable-background:new 0 0 500 500;" xml:space="preserve">
<style type="text/css">
	.st0{fill:#FFFFFF;}
</style>
<g id="XMLID_1_">
	<polygon id="XMLID_13_" class="st0" points="214.2,8 96.7,8 3.3,285.9 123.7,285.3 	"/>
	<polygon id="XMLID_14_" class="st0" points="310,285.3 400.4,8 282.9,8 189.5,285.9 	"/>
	<polygon id="XMLID_15_" class="st0" points="186.6,270.6 247,97.9 218.3,18 160.7,191.3 	"/>
	<polygon id="XMLID_16_" class="st0" points="378.1,285.3 497.4,286.5 404.6,18 346.4,193.1 	"/>
	<path id="XMLID_17_" class="st0" d="M130.5,398.1c-5.1-4.3-11.3-8.1-18.6-11.2c-7.4-3.1-15.8-5.9-25.2-8.4c-8-2.1-14.6-4-19.8-5.6
		s-9.4-3.3-12.4-5c-3-1.8-5.1-3.8-6.3-6s-1.7-4.8-1.7-7.8v-0.5c0-4.6,2-8.5,6-11.6s10-4.6,17.9-4.6c8,0,15.9,1.6,23.9,4.9
		s16.1,7.7,24.4,13.4l21.2-30.8c-9.6-7.6-20-13.5-31.5-17.5c-11.4-4.1-23.9-6.1-37.6-6.1c-9.6,0-18.3,1.3-26.2,4
		s-14.8,6.5-20.5,11.4c-5.7,5-10.2,10.8-13.3,17.7c-3.2,6.8-4.7,14.5-4.7,23v0.5c0,9.2,1.5,16.9,4.4,23.1s7.1,11.4,12.4,15.5
		c5.3,4.2,11.8,7.7,19.4,10.5s16.2,5.4,25.6,7.7c7.8,1.9,14.2,3.8,19,5.6c4.9,1.8,8.7,3.5,11.4,5.3c2.8,1.8,4.6,3.7,5.6,5.7
		s1.5,4.4,1.5,7v0.5c0,5.5-2.3,9.8-7,12.9s-11.3,4.6-19.8,4.6c-10.6,0-20.4-2-29.3-6.1s-17.7-9.6-26.2-16.5l-24.1,29
		c11.2,10.1,23.5,17.6,37.2,22.4c13.6,4.9,27.5,7.3,41.7,7.3c10.1,0,19.3-1.3,27.6-3.9s15.4-6.3,21.4-11.2c6-4.9,10.6-10.9,14-18.1
		c3.3-7.2,5-15.4,5-24.6v-0.5c0-8.1-1.3-15.1-3.9-21C139.4,407.5,135.6,402.4,130.5,398.1z"/>
	<path id="XMLID_18_" class="st0" d="M275.6,449.5c-7.3,3.9-16.3,5.8-27,5.8c-8,0-15.3-1.5-21.9-4.6c-6.6-3.1-12.3-7.3-17-12.6
		c-4.7-5.3-8.4-11.5-11-18.6c-2.7-7.1-4-14.6-4-22.6v-0.5c0-8,1.3-15.4,4-22.4s6.4-13.1,11.2-18.5c4.8-5.3,10.5-9.5,17.1-12.5
		s13.8-4.5,21.6-4.5c9.4,0,17.8,1.9,25.4,5.6c7.5,3.7,14.9,8.9,22.2,15.4l26-30c-4.2-4.2-8.9-8.1-13.8-11.7c-5-3.5-10.4-6.5-16.2-9
		c-5.8-2.5-12.3-4.4-19.5-5.8s-15.1-2.1-23.8-2.1c-14.3,0-27.4,2.5-39.3,7.6c-11.9,5-22,11.9-30.5,20.7
		c-8.5,8.8-15.1,18.9-19.9,30.5c-4.8,11.6-7.2,24-7.2,37.3v0.5c0,13.3,2.4,25.8,7.2,37.4c4.8,11.7,11.4,21.8,19.9,30.4
		s18.6,15.4,30.3,20.3c11.7,5,24.3,7.4,38,7.4c9,0,17.2-0.8,24.4-2.3c7.3-1.5,13.9-3.7,20-6.6s11.7-6.4,16.9-10.5
		c5.1-4.1,10.1-8.7,14.9-13.8l-26-26.3C290.2,440.2,282.9,445.6,275.6,449.5z"/>
	<path id="XMLID_19_" class="st0" d="M472.2,433.5c-7.3,6.7-14.6,12-21.9,15.9s-16.3,5.8-27,5.8c-8,0-15.3-1.5-21.9-4.6
		s-12.3-7.3-17-12.6c-4.7-5.3-8.4-11.5-11-18.6c-2.7-7.1-4-14.6-4-22.6v-0.5c0-8,1.3-15.4,4-22.4s6.4-13.1,11.2-18.5
		c4.8-5.3,10.5-9.5,17.1-12.5s13.9-4.5,21.6-4.5c9.4,0,17.8,1.9,25.4,5.6c7.5,3.7,14.9,8.9,22.2,15.4l26-30
		c-4.2-4.2-8.9-8.1-13.8-11.7c-5-3.5-10.4-6.5-16.2-9c-5.8-2.5-12.3-4.4-19.5-5.8s-15.1-2.1-23.8-2.1c-14.3,0-27.4,2.5-39.3,7.6
		c-11.9,5-22,11.9-30.5,20.7c-8.5,8.8-15.1,18.9-19.9,30.5s-7.2,24-7.2,37.3v0.5c0,13.3,2.4,25.8,7.2,37.4
		c4.8,11.7,11.4,21.8,19.9,30.4s18.6,15.4,30.3,20.3c11.7,5,24.3,7.4,38,7.4c9,0,17.2-0.8,24.4-2.3c7.3-1.5,13.9-3.7,20-6.6
		s11.7-6.4,16.9-10.5c5.1-4.1,10.1-8.7,14.9-13.8L472.2,433.5z"/>
</g>
</svg>
