<?xml version="1.0" encoding="utf-8"?>
<!-- Generator: Adobe Illustrator 22.1.0, SVG Export Plug-In . SVG Version: 6.00 Build 0)  -->
<svg version="1.1" id="Layer_1" xmlns="http://www.w3.org/2000/svg" xmlns:xlink="http://www.w3.org/1999/xlink" x="0px" y="0px"
	 viewBox="0 0 1918 981.8" style="enable-background:new 0 0 1918 981.8;" xml:space="preserve">
<style type="text/css">
	.st0{fill:#313A9E;}
	.st1{fill:#1E286F;}
	.st2{fill:#263A9A;}
	.st3{fill:#223586;}
	.st4{fill:#252F93;}
	.st5{fill:#333FB0;}
	.st6{fill:#3846AF;}
	.st7{fill:#2731A5;}
	.st8{fill:#2E49BC;}
	.st9{fill:#3545D1;}
	.st10{fill:#4234C1;}
	.st11{fill:#6784F1;}
	.st12{fill:#A1D7FB;}
	.st13{fill:#9BB3FC;}
	.st14{fill:#C1EAF8;}
	.st15{fill:#CFF6FA;}
	.st16{fill:#7FA6FC;}
	.st17{fill:#6B83FA;}
	.st18{fill:#413FC1;}
	.st19{fill:#323DD1;}
	.st20{fill:#384ABB;}
	.st21{fill:#5269D2;}
	.st22{fill:#4256C7;}
	.st23{fill:#4255CA;}
	.st24{fill:#5D7CDF;}
	.st25{fill:#6794E7;}
	.st26{fill:#93B5FA;}
	.st27{fill:#7FA2F5;}
	.st28{fill:#5971E6;}
	.st29{fill:#97C5FB;}
	.st30{fill:#85BFFC;}
	.st31{fill:#ADEAFC;}
	.st32{fill:#8BB9FB;}
	.st33{fill:#5567FB;}
	.st34{fill:#3A46EA;}
	.st35{fill:#6CA7FA;}
	.st36{fill:#4F60DF;}
	.st37{fill:#7A8DED;}
	.st38{fill:#638EFC;}
	.st39{fill:#495ADC;}
	.st40{fill:#604FDF;}
	.st41{fill:#5F95F5;}
	.st42{fill:#4554FB;}
</style>
<path class="st0" d="M1522,109.8l-4-14c-1-9-6-15-14-18c-4-2-6-5-4-9l-1-6c-1-8,2-13,9-16c6-3,11-9,16-13c3-2,3-6,4-10l-1-16v-9h229
	c4,2,7,5,6,9c-6,2-7,7-7,13c0,2,0,5-2,7c-6,4-10,10-16,13c-3,0-4-2-5-4c-3-4-5-9-11-9l-3-2c-1-2-2-7-5-5c-5,3-12,1-14,9l-3,11
	c-1,5-3,5-6,1s-5-4-8,0c-1,1-2,2-4,1c-6-4-6,0-7,4l1,7l-2,9c-1,3-3,5-7,5c-4-1-7,1-8,5l-7,15c-4,5-8,6-12,1c-5-6-10-8-18-7
	c-8,2-13-5-18-9l-13-14c-4-6-7-13-7-21c1-8-1-9-12-11c-6,0-7,3-9,8l-11,33c-3,8-5,9-13,8c-4,0-5,2-6,5c-4,7-3,15-3,23c-1,3,0,6-3,8
	C1522,111.8,1521,111.8,1522,109.8z"/>
<path class="st1" d="M1824-1.2h91c4,0,5,1,5,5l-1,69c-3,11-13,18-19,27c-3,5-7,4-12,0c-6-7-12-16-15-25c-3-8-7-14-15-18
	c-4-3-8-7-9-13c-3-6-7-10-12-14c-8-7-11-17-14-27C1822,0.8,1823-0.2,1824-1.2z"/>
<path class="st2" d="M1890,264.8c-2-3-5-3-7,0c-3,5-6,11-13,12c-2,1-2,4-3,6l-8,59l-7,42c-2-16-5-32-2-49c-3-3-3-6-3-11v-7l-1-2h-1
	l-1,5c-1,3-2,5-5,6c-3,0-4-3-4-6c0-5-3-4-6-3l-1-3v-9c1-3,2-5,5-5s4,2,5,5l1,7l4-11c7,1,8,3,10,14l1-11l4-10c5-11,9-22,11-34
	c1-3,1-6,4-7c3-2,5,1,7,3c4,3,7,2,8-4c1-7,2-14,6-20c5-8,4-16,6-24c5-20,5-39,6-59l-1-3l-9,8c-5,4-8,4-12,0c-3-4-5-4-9-1l-9,2l-6-1
	c-4,0-6-3-5-7c2-11,1-22,0-34l1-7c1-3,4-6,7-8s5-2,8-1c2,2,3,5,2,8l-1,4c-3,7-1,11,6,14c5,3,10,5,12,10c1,3,3,3,4,1l5-5l5-8
	c5-5,10-5,15-1v106c-11,2-13,3-16,16c-1,7-2,14-6,20C1895,264.8,1894,266.8,1890,264.8z"/>
<path class="st3" d="M1919,119.8c-7-3-13-1-16,7l-3,3c-7,3-12,2-17-6l-8-10c-3-2-4-5-3-8c1-4,0-8-3-10c-2-2-4-5-4-8c-2-7-5-12-10-16
	c-4-2-6-6-8-9c-3-5-6-9-11-13c-5-3-7-9-11-14l-19-25c-2-4-5-6-9-5c-6,2-12-2-17-3c-2,0-3-2-2-4h46c1,10,7,18,11,27l5,3
	c5,3,9,8,10,14c2,6,6,10,11,12c6,4,10,9,13,16c3,9,8,18,15,27c5,5,8,5,11-2l1-2c7-6,12-15,19-22L1919,119.8z"/>
<path class="st4" d="M1777-1.2c7,2,12,7,19,5c5-1,8,0,11,4c8,11,18,21,24,33c6,9,17,14,20,25l4,4c5,5,11,8,11,16c0,3,2,5,3,7l3,4
	c0,10,5,16,10,23s9,11,18,10c0,3-2,4-4,6c-5,5-6,5-8-2c-2-4-4-6-8-7c-5-2-8-4-11-8c-2-3-2-6,0-9c2-4,5-8,1-11s-7,2-10,4l-3,2l-1-1
	c-5-10-13-16-18-26c-4-8-10-15-16-20c-7-6-13-13-22-17l-5-4c-2-4-5-5-9-4c-4,1-7,0-10-3l-14-22l-6-8L1777-1.2z"/>
<path class="st5" d="M1867,152.8c4,0,6-1,9-4s6-3,9,2c3,6,5,6,10,1l10-10c1-2,3-1,3,1v5c-1,23-2,45-8,68c-1,5,0,12-5,17
	c-3-4-1-8,0-12c3-14,4-28,5-43c0-5,1-11-1-17c-3,1-3,3-3,4c-5,7-7,8-13,2c-6-5-10-1-14,1l-7,7c-5,5-10,4-12-2l-2-8c-2-8-6-9-13-4
	c-2,2-4,4-4,7v2c-4,5-6,12-13,14c-4-2-4-6-4-10v-23c0-2,0-5-3-6c-2,0-4,2-5,4c-2,3-2,7-6,9c-2,0-4,0-6-2l-6-41c-1-9-8-12-13-17
	c-3-1-6,0-7,3l-4,7c-2,3-3,5-6,5c-3-1-4-3-5-6l-2-11c0-4-2-5-6-5c-12,1-13,2-14,13l-2,15c0,3-1,7-4,8c-7-1-10-5-10-12l2-12
	c2-6,1-12,0-19c-4,4-6,9-11,11c-2,1-5,1-6,3c-2,4-5,7-11,7c-2,0-3,3-4,5c-1,3-1,6-3,8s-3,3-5,3l-3-4c0-11-2-21,0-31c3-9,1-19,1-28
	c0-4-2-4-5-4l-1-8c0-3,0-6,3-8c4-2,5,2,7,4c4-1,2-9,8-6c3,1,4,5,6,9l4-16c1-4,3-7,8-7h2c7-5,11-6,13,4l2,1c9-3,8,7,12,10l3,3l1,2
	c-1,6,2,7,8,6c9-3,16,2,17,13v11c11-12,21-11,29,2c6,9,9,19,9,29l3,27c0,1,0,3,2,4s3-1,4-3l5-5c4-1,8,0,9,5c2,4,2,9,2,13l2,4
	c2,0,3-1,3-3c3-4,6-7,11-10c6-4,12-1,13,6v7c0,7,1,7,8,6L1867,152.8z"/>
<path class="st6" d="M1671,53.8l1-3c0-1,0-3,2-3s2,2,2,3c2,12,3,23,1,35c-3,11,0,22,0,34c5-2,5-7,6-10c2-5,3-10,10-7c3,1,3-2,4-4
	c1-4,4-6,9-5c-4,6-4,14-14,14c-3,0-4,2-4,4c-5,10-9,19-8,30v3c0,3-1,6-4,6s-4-3-5-5l-1-4v-4c3-20,0-40,2-58c-2,10-1,23-2,35
	c-2,14-5,28-10,41c0,2,0,6-4,6c-3-1-4-4-4-7l-1-23c-1,7-4,12-11,15c-4,2-5,6-6,10s-1,8-5,8s-5-5-5-8l-3-26c-4,5-7,2-10-2
	c-5-7-5-7-10,0c-2,2-4,4-7,4c-4-1-5-4-5-7c-2-12-8-23-10-35c-2-8-5-14-12-19l-4-4c-3-5-7-5-11-1l-4,8c-2,4-5,7-10,6c-5,0-6,3-7,7
	c-2,5-2,10-2,15c0,3,0,7-3,10l-3-1c2-10,0-20,3-30c2-6,4-12,12-7c2,1,4-1,5-2l4-8c1-13,8-24,12-36c1-7,8-4,12-4l4,2c9-3,9,5,8,9
	c-1,6,1,12,3,16c7,12,17,21,28,28c1,2,4,1,6,0c7-3,12,0,17,6c5,7,6,6,10-1c2-4,3-9,6-13c2-4,4-11,11-6c3,1,4-1,4-3L1671,53.8z"/>
<path class="st7" d="M1867,152.8l-4,3c-2,1-4,3-7,1c-2-2-2-4-2-7c2-4,0-7-1-11c-2-3-5-6-9-3s-8,5-10,10c-1,3-3,6-6,5c-4-1-4-5-4-8
	l-1-11c-1-2-1-4-4-5c-2,0-4,1-5,3l-3,5c-1,2-3,3-5,3c-3-1-4-3-5-5c0-12-3-24-2-35c0-12-6-21-13-29c-6-7-16-4-20,4c0,1,0,4-3,4
	c-2-1-2-3-2-6v-13c-2-6-6-10-13-9l-2,1c-11,3-12,1-9-10c4-4,8-9,14-12c4-2,3-7,3-11c-1-7,1-10,8-9c7,4,10,12,14,18c4,5,7,7,13,4
	c2-1,4-1,5,1c8,9,18,15,27,22l6,6c11,15,22,29,31,46c-1,10,2,20,1,30l-1,10c-2,7-2,7,6,8H1867z"/>
<path class="st8" d="M1830,169.8c0-9,5-15,13-15c4-1,5,2,6,5l3,12c2,5,5,6,8,2s6-7,10-9c6-4,11-6,16,2c3,5,6,0,8-3c1-2,0-8,5-7
	c4,1,4,6,4,10c-0.7,29.8-5.1,59.3-13,88c0,5-5,5-7,6c-4,2-4-2-5-4c-1-1-2-4-4-3c-3,0-2,3-2,5c-3,13-6,26-13,38c-3,4-4,9-4,14
	c0,3,0,6-2,9c-4-4-2-8-4-12c-1-3-2-6-5-6c-4-4-3-8-3-12c0-7,1-15-4-21c-1-1-2-3-1-5c2-16,5-33,11-48c3-6,9-6,13-1l4,8l5,6
	c-2-4-1-8,0-12c0-6-1-8-7-6c-9,2-13-1-14-9v-14c-1-3-2-6-6-4c-6,2-7-1-8-6C1834,174.8,1834,170.8,1830,169.8z"/>
<path class="st9" d="M1830,169.8c4-4,6-2,6,3l1,7c0,3,1,4,4,2c5-4,7-3,9,3l1,16c0,9,3,11,11,7c7-2,11,0,9,8c-1,6-1,13,1,19
	c-4-6-10-10-13-17c-1-3-3-5-6-5c-4,0-4,4-4,6l-6,15c-4,10-1,21-6,31l1,3c8,6,5,16,5,24v10l-4,15h-1l-2-10c0-3,0-6-3-6s-3,4-3,6l-1,7
	l-6,15c-1,2-2,4-4,3c-3,0-2-3-2-5v-44l-1-35c-1-10,2-20,2-30c2-7-1-13,0-20C1820,187.8,1825,178.8,1830,169.8z"/>
<path class="st10" d="M1820,216.8c-3,38-2,76-2,116c6-6,8-13,11-19l1,3l-5,13c-2,2-1,8-6,7s-3-6-3-9v-41c1-21-2-42-2-63c0-3-1-6-4-7
	c-3-3-5-6-6-10c-5-13-7-27-7-41c0-3,0-7,3-9l5-11c1-3,4-5,8-4c4,0,4,4,4,7v26c0,3,0,6,3,8c2,3,1,6,0,8
	C1818,199.8,1818,208.8,1820,216.8z"/>
<path class="st11" d="M1538,437.8v-14c-2-7,1-15-3-22c-2-15-1-30,0-45v-73l3-30l2-5c5-6,12-10,16-16h3c4,3,3,8,4,12c3,10,3,20,1,30
	l-2,5c-1,13-6,25-5,38c0,7-4,12-4,19l-1,9c-1,14-6,27-7,42c-3,27-2,55-2,82c0,5,1,10,3,14c3,10,3,21,3,31l6,84c0,3,1,5,5,3
	c2,0,3,2,4,4c2,5,1,10,0,15c-2,13-1,27-1,41c-2,21,1,43-2,64c-1,3,0,6-3,8c-2-7,0-15-1-23c2-3,1-6,1-8v-72c0-5,3-10,1-15
	c-3-1-3,4-6,4c-3-10-1-20-3-30c-3-16-1-32-5-48c0-18-2-35-6-52c-2-14-3-29-3-43C1536,443.8,1536,439.8,1538,437.8z"/>
<path class="st12" d="M1562,620.8v-16c-3-6-2-12,0-18l4-16c0-13,4-26,7-40c1-7,3-8,9-7l7,23c0,1,0,4,2,4s3-2,4-4l2-7c1-3,2-6,7-5
	c4,1,5-2,6-5l2-17c0-3,0-7,2-10c6-1,8,0,8,6v36l3,24l5-25c2-8,4-15,8-21c5-8,8-17,10-26l4-15c1-3,3-6,6-5c3,0,3,3,4,6l1,14
	c0,5,2,7,7,7h2c5,4,9,7,15,5c2,0,3,2,4,4l1,7c1,22,2,43-4,64l-3,24c0,6-4,12-5,18l-7,44l-3,24l-4,21v1c-1,1,0,3-3,3c-2,0-3-2-3-4
	l-2-20l-2-29c-2,5-2,10-4,13c-1,3-2,6-6,5c-4,0-4-3-5-7v-5c-3-1-5,3-8,0c-2-2-1-5-2-8l-2-28v-7c0,17-3,35-5,52l-6,40
	c-2,21-4,42-8,63c-1,7,1,14-3,21l-2-1c-4-8-1-15,0-23l3-26c3-20,3-39,6-58c4-14,3-29,7-43c-1,1,0,0,0,0c-7,6-8,0-9-4
	c-2-11-2-21-1-32v-13v22l-2,8c-1,4-3,7-8,7c-4,0-6-4-7-7v-4l-1,5c-1,3-2,5-5,5s-5-2-6-5l-2-14l-2-9c0-3,0-8-4-8s-3,5-3,9
	c-1,5-3,8-8,7H1562z"/>
<path class="st13" d="M1733,493.8c0,15-5,29-5,44c0,1,0,2-2,2l-2-2v-1c-1-2-2-6-5-5c-4,1-2,4-2,7c-5,21-8,42-11,63c-1,7-4,14-3,21
	c-6,2-7,1-8-5c2-2,4-3,4-6c3-28,11-55,13-83c0-3,0-7-3-9c-2-2-3-5-3-9c2-9-1-18-1-27l1-10c1-14,4-27,3-41l2-15l3-9c0-2,2-4,4-4
	c3,0,5,3,5,5c1.7,7.6,3.1,15.3,4,23h1c3-2,5-5,9-3s2,7,2,9c-3,15-2,30-6,44V493.8z"/>
<path class="st14" d="M1617,696.8l-6,54l-1,3l-4,17v6c-5,9-5,18-5,28c0,6,0,11,3,16c-1,1-2,2-4,1c-2-5-5-7-8,0c-10-5-11-12-10-22
	c2-11,4-22,3-33v-8c3-12,1-24-4-36l-6-17c0,13-4,23-5,34c0,7,1,13-6,19c-3,3-1,10,0,15c2,7,2,13,1,20v34c0,3,1,7-4,9c-2-3-1-7-2-10
	l-1-93l2-49l1-24l1-15c1-11,3-21,9-31c4,1,4,4,5,6c3,8,3,16,3,24c-2,16,2,31,6,47l1,2c9,6,8,16,10,25l2,1c2-1,1-3,1-5
	c0-14,4-27,5-41v-3c1-2,2-4,4-4c3,0,3,2,4,5v3C1611,682.8,1614,689.8,1617,696.8z"/>
<path class="st15" d="M1561,836.8c2-2,1-5,1-8l1-44c1-8-3-17-2-25v-7c4-1,2,4,6,3c1-19,4-37,7-55c2,0,3,1,3,2c5,14,10,28,12,43
	c1,4-1,8-1,12c-2,10,1,20-1,30c-2,5-2,11-3,16c0,5-2,10,6,12c2,0,2,3,2,6l-10,37l-3,5c-3,3-6,7-9,7c-4,0-3-5-4-8
	C1562,854.8,1559,845.8,1561,836.8z"/>
<path class="st12" d="M1600,821.8c2,0,3-1,3-2c-3-7-2-11,3-15l-1,16c0,3-1,4-5,3V821.8z"/>
<path class="st16" d="M1733,493.8c-4-9,1-17,1-25l4-31c0-2,2-6-2-7c-3-1-5,2-6,5c-1,1-1,3-4,3c-3-1-2-3-2-5l-3-23c0-2,0-5-3-5
	c-2,0-2,3-2,4l-3,8c-5,5-8,5-12,1c-3-4-4-8-5-13l-10,27c-4,8-7,10-16,9c-4,0-6,1-7,4c-3,4-6,9-12,11c-3,0-2,5-5,5l-2-1
	c-2-3-1-7,0-10l9-62v-4c0-3,2-5,5-6c3,0,5,2,7,4l1,6l2,7l6-18c1-4,1-8,7-6c3,2,3,0,4-2c3-13,5-27,6-41c0-8,0-15,4-22c5-4,6-1,7,4
	l1,14l3,15c4-3,3-11,10-9c3,18,14,34,11,53c-1,3,1,6,1,10c1,5,3,8,8,9s6,3,5,8l-1,22L1733,493.8z"/>
<path class="st17" d="M1740,432.8l1-22c0-4-1-5-4-5c-8,0-10-6-12-12c-2-8,1-16,0-24c-1-10-8-19-9-30v-9c-6-6-5-13-3-20v-14
	c-2-8-2-16-1-24c6-1,9,1,11,6l2,14c1,16,6,32,9,48c0,2,2,5,4,6c7,2,10,7,10,14v5c-4,3,1,7-1,10l-4,31v10L1740,432.8z"/>
<path class="st18" d="M1526,112.8c1-9,0-19,3-29c1-4,2-7,8-5c7,2,9-4,11-8c1-3,1-7,5-8c7-4,8-3,14,8l-4,7c-10,9-13,22-14,35l-3,21
	l-1,3c-8,4-6,13-7,19c-3,9-1,18-1,27c0,4,0,8-5,10l-2-1c-3-9-6-18-5-28C1522,146.8,1525,129.8,1526,112.8z"/>
<path class="st19" d="M1794,155.8c1,5-1,11-3,15c-4,7-4,16-11,21c-3-3-1-6,0-9c1-6,1-12-1-18l-3,3c-2,2-4,3-6,2c-3-1-4-3-4-6v-5
	c-1-9-1-9-10-8c-5,0-7-3-8-6s-1-7-3-10h-2c-2,2-2,5-3,8c-2,7-6,13-14,14c-3,1-5,4-7,7s-3,7-8,7l-2-5c-1-4,1-8,3-12c5-6,7-13,7-20
	c0-4,1-7,5-8c3-1,3-4,3-7c0-8,2-15,3-23c0-3,2-6,5-6l14-2c3,0,5,2,5,5c-1,5,0,10,1,14c1,2,1,4,3,4s3-1,3-3l4-7c0-3,1-6,5-6s8-1,9,4
	v1c13,4,11,15,13,24l4,23C1796,149.8,1796,152.8,1794,155.8z"/>
<path class="st20" d="M1724,125.8c-3,2-3,5-3,9c0,7-2,14-6,20c-3,3-5,7-5,12c-12,6-14,18-14,31l-4,15c0,3-1,6-5,6c-3-1-4-4-4-7l1-17
	l-2,3c-1,2-1,6-4,5c-3,0-4-4-4-6v-12l-1-6c-8-12-5-24-1-36c3,1,0,8,4,7c3-1,2-6,2-9c-1-12,5-22,9-33c1-3,3-4,6-2s5,0,5-3
	c1-5,5-7,8-9c3-5,8-8,9-13c0-1,1-2,3-2l2,4c2,10,0,19-2,29C1716,117.8,1718,122.8,1724,125.8z"/>
<path class="st8" d="M1820,216.8c-6-9-3-18-1-27l1-6l10-14c0,6-4,11-6,16C1820,195.8,1821,206.8,1820,216.8z"/>
<path class="st21" d="M1668,115.8v-22l4-21c1,22,3,44,0,66c-2,14-3,28,0,43c2,15,3,30,2,45v-1c0-4,1-9,6-8c3,0,3,5,3,8
	c-1,17,1,33-2,50c0,2-1,5,2,5l2,1c1,9,0,18-3,27c-1,2-2,5-5,4s-3-5-3-7l1-33v-17c-3,4-5,9-5,15c0,4-1,8-6,8s-5-4-6-8l-1-5l-8,7
	c-8,5-15,2-16-7c-1-8,0-17-2-25c0-2,1-4-2-7c-1,10-5,18-7,27c-1,6-2,11-8,14c-3,1-3,4-5,7c-1,2-3,4-6,4c-3-1-4-4-4-6c1-22-2-43,4-64
	c1-4,1-8-2-11s-3-7-1-11c2-6,2-12,1-18c-2-7,4-14,11-14c5,0,6,4,7,8c2,10,2,20,2,30c0,6,0,12,2,18c2-2,2-4,2-5c0-13,3-25,7-37
	c3-10,7-11,16-3c1-4,4-7,7-8s4-3,5-6C1662,144.8,1667,130.8,1668,115.8z"/>
<path class="st22" d="M1668,115.8c1,16-6,31-8,47l-1,2c-5,3-9,6-9,13c0,2-3,0-4-2c-2-3-2-8-7-7c-4,1-5,6-6,10c-3,12-7,25-6,38
	c0,3,0,6-4,6c-3,0-2-4-3-6c-3-15,1-31-3-46c0-2,0-6-3-7c-4-1-7,2-10,4c-2,2-2,5-1,8c3,5,2,11,0,17c-2,4-3,8-1,12v2l-5,22
	c-1,5-9,13-15,13c-2,0-4-1-5-3c-1-3-2-6-1-9c0-13,0-26,2-39c1-21,5-43-12-61c-3-3-3-7-4-10c-2-7-3-13-6-19c-2,14-9,26-8,40v5
	c0,11-1,12-12,10c0-6,2-10,1-16l2-3c7,1,4-5,5-9c3-9,3-19,4-28l8-19c1-3,6-7,11-10c9,0,11,9,12,14c4,13,9,26,12,40c0,3,0,5,3,6
	c4,1,4-2,5-4c5-8,8-8,12-3l3,6c2,2,3,4,5,0l4-5c3,13,1,26,5,40c4-4,4-8,5-12c0-4,2-8,7-9c6-1,8-6,8-12c0-2-1-6,3-6s3,4,3,7v22
	c0,2,0,5,2,5c3,0,2-3,2-4L1668,115.8z"/>
<path class="st23" d="M1683,281.8c-2,1,0,4-3,7c-3-13,1-24,1-36l-1-35c-7,4-1,12-6,17c-3-1-2-4-2-5c0-21-2-42-4-64c0-9,0-18,4-27v4
	c0,9-2,18-1,28c0,2-1,5,3,5c3,0,2,4,2,6l1,21l8-16h2l-2,22v5c1,2,1,4,4,3l1-3c4-11,3-23,6-34c2-8,5-13,14-14l1,5c7,6,3,13,1,20
	c-3,9-7,18-8,28l-1,4c-1,2-1,5-4,5c-2-1-2-4-2-6v-6l-1,9c-4,14-6,29-8,44C1687,273.8,1686,277.8,1683,281.8z"/>
<path class="st24" d="M1602,205.8v-1c5,2,5,6,3,10c-6,22-2,43-3,65c0,2-1,4,1,4c2,1,4,0,4-2c2-5,4-9,9-11c2-1,4-6,4-10
	c0-10,7-18,6-28c0-2,1-3,3-4c2,0,2,2,3,4c3,6,2,14,3,21l1,13c1,7,6,9,11,4c4-3,8-6,11-11c3,4,3,8,3,12c0,3,0,6,3,6s4-4,4-6
	c-3-9,6-14,6-22c0-2,1-3,2-2c2,0,2,1,2,3v12c-1,14,1,28-2,41v4c0,1,0,3,2,3l3-2c2,2,2,4,2,7c-1,13-3,26-8,39c-1,3-1,7-5,7
	c-4-1-5-5-6-9v-1c1-10-1-20-1-30c-1-6-6-8-10-10c-2-2-6,2-6,5l-2,12l-2,6c-1,2-2,3-4,3s-2-2-3-4l-3-14h-1l-1,1c-1,5-4,9-10,10
	c-4,1-6,3-7,7c-2,5-3,9-10,9c-3,0-4,4-4,6l-6,27c0,4,0,10-6,9c-5-1-4-7-3-10c3-17,5-33,4-50v-8c-4,7-6,15-7,23l-4,14c-1,2-2,5-5,5
	c-3-1-4-4-4-6c3-14-1-27-2-41l-2-15c-3-8-5-17-3-26c1-14,0-28-4-42c2-4,5-5,9-4s4,4,4,7c-2,7,1,13,3,19c1,7,4,15,4,22c0,3,1,6,4,6
	c4,1,5-2,6-5c5-9,5-20,6-30C1594,233.8,1598,219.8,1602,205.8z"/>
<path class="st25" d="M1562,274.8l10,61v16c-1,4-1,6,1,9c3,0,3-3,4-5l9-39l2-3c2,0,2,1,3,3l1,5c0,16,0,33-3,49l-2,12c-1,2-1,4,1,5
	c3,0,4-3,4-4c0-8,2-15,3-23l5-15c1-2,2-5,5-2c4,4,5-1,5-3c2-7,4-13,14-13c4,0,3-6,6-8c2,2,2,4,1,6c-3,9-3,17-3,26c0,6-1,12-5,16
	c-5,7-8,14-16,18c-3,2-4,6-5,10c-1,5-2,9-6,12c-3,2-4,5-4,8l-1,6c-1,4-2,8-6,8c-5,0-5-4-6-7l-1-7c-1-5-3-8-8-9c-7,0-10-4-10-11
	c1-17-5-34-3-52l-1-9c-3,3-1,9-6,10l3-18l1-7c-1-13,5-26,5-40C1559,277.8,1560,275.8,1562,274.8z"/>
<path class="st26" d="M1582,524.8c-5-2-6,1-7,4c-2,16-7,30-7,46l-2,8c-3,7-4,15-4,22c-6-4-4,5-8,5c-2-3-1-8-1-12l-4-43l-4-65l-1-4
	c-1-4,0-8,4-8s5-3,5-6v-6c0-9,7-18,15-21c4-1,4,2,5,4c2,3,1,7,2,10c1,5,1,9,3,13c6,10,4,20,5,31c0,6-2,12,0,18L1582,524.8z"/>
<path class="st27" d="M1576,471.8c-3-5-3-11-4-16c0-3,0-7-2-10c-2,3-6,6-10,8s-5,6-5,11c1,5,1,11-2,17c-5-4-9-4-9,4c-3-6-4-13-4-19
	v-31c-1-31,3-61,10-91c2-3,2-8,3-12c0-2,0-4,3-4c2,0,2,2,2,4c3,10,2,19,1,29v4c4,10,3,20,3,30c0,8,2,10,10,10c5-1,8,1,8,7l1,11
	c3,13,0,27,2,40C1583,467.8,1581,470.8,1576,471.8z"/>
<path class="st28" d="M1572,254.8c-3-6-5-12-4-19s0-7-7-5l-3,2c-4,6-9,12-15,16c-5,2-3,8-4,12l-2,22c-2,2-4,1-5-1l-1-7c2-4,1-8,1-12
	l3-48c4-13,8-25,9-39c0-11,4-22,6-33c0-2,2-4,4-5c4,0,4,3,5,6l4,24l4,14l2,7c0,3,1,4,4,4s5,2,5,5l-3,51
	C1574,250.8,1574,253.8,1572,254.8z"/>
<path class="st12" d="M1562,645.8c0,5,2,10-1,15c0-13-1-27,1-41l1,1l2,5C1564,631.8,1565,638.8,1562,645.8z"/>
<path class="st29" d="M1675,660.8l-3,9l6-45c1-5,1-10,5-14l1-1c-4-14,3-26,5-38c2-19,2-38,0-57c0-2,0-4-3-5c-2-1-3,2-4,3
	c-3,4-6,3-7-2c0-5-2-5-6-4c-5,1-8-2-8-7l-2-18c0-2,1-3-1-4c-2,0-2,2-3,3l-4,17c-1,9-5,18-10,25s-7,14-8,22l-5,24c0,2,0,6-4,6
	c-3-1-2-4-2-7c-3-19-2-39-2-58c0-4,0-8-5-6c-3-8-1-15,2-21c1-2,3-4,5-3c2,0,3,2,3,4v48l2,13c4-10,3-20,5-29c3-15,9-29,10-44
	c1-3,3-6,6-7c3,0,6-1,7-4c2-3,4-5,8-5c4,1,5,5,6,8l1,7c6-7,9-7,14,1c2-2,2-5,3-8c2-4,3-9,9-8c5,1,4,6,5,11l-1,11l1,10c3-1,3-5,6-4
	c1,10,3,20,2,30c-1,2,0,4,2,5c6,1,4,5,4,9c-1,18-6,35-8,52l-6,36c0,3-2,3-5,2c-3-4-6-5-10-4c-5,1-5,5-6,9L1675,660.8z"/>
<path class="st30" d="M1650,465.8c-4,1-6,4-6,7c-2,16-7,32-10,47c-2,8-1,17-4,25l-2,5l-2,2c-1,0-2-1-2-3l-1-15v-46c0-2,1-5-2-7
	c-6,6-4,16-7,23c0,10,1,21-4,30c-1,4-3,8-8,3c-2-2-3,1-3,2c0,5-2,9-4,13c-3,4-8,4-8-1c0-9-7-16-5-26c-3-7-2-14-2-22c0-10,1-21-4-31
	c2-3,6-4,5-7c4-3,7-1,8,3c2,3,2,7,5,11c2-3,2-7,2-11c1-15,6-31,5-47v-3c1-4,3-9,8-8c6,0,6,5,6,9c2.3,19.6,2.3,39.4,0,59l4-18
	c0-5,1-9,3-13c1-2,2-3,5-3c2,1,3,2,3,4l1,4c-2,13,2,25,3,38c3-7,4-15,6-22c1-2,1-6,5-6h2C1649,462.8,1650,463.8,1650,465.8z"/>
<path class="st31" d="M1562,645.8l1-25c4-2,8-4,5-10l1-4c1-3,2-6,5-7c4,0,5,4,6,7l3,21l2,7c0,2,0,5,3,5c2-1,4-3,4-5c0-4,1-7,4-11
	l1,12c1,2,2,4,5,4s4-2,5-4l2-12l3-27c3,20-2,39,4,58c5-2,3-7,6-9c0,17-3,34-5,50c-6-4-9-10-7-18v-4c0-2,1-5-2-5s-2,3-2,5
	c0,15-5,30-4,45l-2,5c-1,1-1,3-3,3s-2-2-2-4l-3-16c0-3-1-6-3-7c-6-2-6-7-7-12c-4-11-6-22-6-33v-17c1-8-2-15-5-23c-1,11-7,19-7,29
	L1562,645.8z"/>
<path class="st15" d="M1606,804.8l-3,15c-4-2-5-5-5-10c1-6,4-12-1-18c-1-1,0-3,1-4c5-5,7-11,6-18c-1-5,4-10,3-15c0-2,2-2,3-1
	C1610,770.8,1606,787.8,1606,804.8z"/>
<path class="st32" d="M1650,465.8c-1-1-3-2-3-4c0-4-1-8,6-8c3,0,5-4,7-7c2-5,4-11,12-7c5,2,9-1,11-6c5-9,8-18,10-28c0-2,1-4,3-5
	c4,3,2,8,4,12c3,8,6,9,13,5c-1,23-3,45-6,66l-3,6c0,2-1,4-4,4c-2-1-1-3-1-4v-23c0-4,0-9-4-10s-4,5-6,8l-3,9l-2,3c-2,0-2-2-3-3
	c-1-2,1-6-4-6c-4,0-4,4-5,7l-1,2c-4-3-3-7-4-11c-1-3,0-7-4-8c-5,0-6,4-7,7C1655,468.8,1653,470.8,1650,465.8z"/>
<path class="st33" d="M1748,360.8c-2-1-4-1-3-4c2-4-1-6-4-6c-9-2-10-8-11-16c-1-11-5-21-7-32l-1-19c-1-6-4-10-9-12c-5-1-4-6-7-9
	c-3-1-3,7-7,2c-2-16,0-32,8-46c5-3,6,1,7,4c2,4,2,8,2,13c1,3,1,5,5,5c8,1,13,8,19,12l3,3c11,2,12,13,18,20c-2,12-2,25-6,37
	C1754,328.8,1750,344.8,1748,360.8z"/>
<path class="st34" d="M1755,312.8l5-38c-1-11,2-21,5-32l6-29c1-3,2-5,0-8h-1c-2,2-4,6-7,4c-3-1-3-5-3-7l-1-7c-2-10-3-11-13-10l-2,1
	c-10-4-15,3-18,11l-2,5c-2,2-4,2-6-1c-1-3-1-6-3-8l-5-4c3-6,3-12,1-19l4-4c3-6,6-12,15-13c3-1,5-5,7-9l3-11l2-4c3,0,4,2,5,3
	c1,4,1,8,3,11c1,4,2,6,7,4c8-3,10-1,11,8v9c0,2,0,4,2,4c3,1,3-1,4-3c2-1,2-6,6-5c2,1,2,5,2,8c2,5,2,10,0,15l-2,8c-2,15-6,29-9,44
	c-6,22-10,44-12,66C1759,305.8,1758,309.8,1755,312.8z"/>
<path class="st33" d="M1747,375.8l-2-5c-2-3,0-4,3-5C1748,369.8,1749,372.8,1747,375.8z"/>
<path class="st35" d="M1645,461.8l-7,25l-1,4c-1,2-2,5-4,5c-3,0-2-3-2-5c0-14-4-28-3-42c1-1,0-3-1-3c-3-1-2,1-3,3c-3,9-4,18-5,28
	l-4,9c-3-4-4-7-3-11c2-9,2-19,1-28v-29c0-3,0-6-3-7c-4-1-5,3-6,6l-1,5c1,19-4,37-5,56c-1,3-1,6-4,6s-3-3-4-5l-2-9c-1-4-3-6-7-5
	c-2-14,0-27,0-41c2,1,0,6,3,5c3,0,4-3,5-6v-6c0-3,1-8,3-9c7-3,7-10,9-16c0-4,2-8,6-9c8-2,10-9,13-15c6,2,5,7,5,11l2,31
	c2-6,4-11,7-15c2-3,2-6,1-9c0-4,0-9,2-12c1-2,3-4,5-3c2,0,2,2,3,4c0,4,0,9,2,14c3-8,3-16,5-23l6-34l1-3l3-2l2,3l1,13l1,11
	c2,9,2,18,2,27c0,3,0,7-3,9c-3-3,0-10-7-9c-5,2-2,8-3,11c-3,21-4,42-9,62L1645,461.8z"/>
<path class="st36" d="M1710,190.8c2-1,4,0,6,1c1,10,2,20-7,27c-6,15-9,31-9,47c2,2,2,4,2,6l-4,31l-2,4c-1,8-4,15-3,22c-1,3,0,7-3,7
	c-4,0-3-4-4-7c0-14-2-29,0-43l-1-4h-2c4-24,8-49,14-72c3,5,1,11,2,18C1703,214.8,1705,201.8,1710,190.8z"/>
<path class="st37" d="M1685,281.8c1,0,2-3,2,0l1,7c-1,15,1,30,1,46c3-1,2-4,4-5c-1,11-1,23-5,34v5c-1,3-1,6-4,7c-3,2-4-2-7-4
	c0,11-4,20-9,29c-4-4-3-8-3-11v-38c0-1,0-2,1-1c0,4,1,7,5,11c6-18,10-35,10-53L1685,281.8z"/>
<path class="st38" d="M1696,306.8c-1-14,4-27,4-41l2-3c1-1,0-5,3-5c3,1,4,3,5,6c0,3,2,5,3,8c3,8,0,15,2,23c2,6,3,11,0,18
	c-3,5-1,12,1,18c-5,1-4,5-6,8c-1,2,0,6-3,5c-3,0-3-3-4-5c-3-9-3-18-3-28C1700,308.8,1701,304.8,1696,306.8z"/>
<path class="st39" d="M1565,181.8c-3-3-4-7-4-11l-5-28c0-1,0-3-2-3l-2,3c0,10-5,18-5,28c-1,15-4,30-10,43c-4,0-3-4-3-7
	c1-5,1-10-2-15c5-6,2-14,2-21c0-5,0-10,2-16c1,0,2-3,4-2c8,4,6-2,6-5c-3-17,6-32,7-49c0-1,2-3,4-3s2,2,3,4l2,10c0,12,7,20,13,29
	c4,6,6,12,6,19v29c0,1,0,3-2,4c-2-2-4-1-6,1c-2,3-4,2-5-2L1565,181.8z"/>
<path class="st40" d="M1532,191.8c4,0,5,1,5,6c1,5-3,11,0,16c1,17-3,33-3,49c0,4,2,8-1,12c-2-3-4-1-6-2l-8-4c9-9,7-21,8-32
	c0-15,4-30,3-45H1532z"/>
<path class="st21" d="M1565,181.8c4,2,2,8,5,10c3-1,2-6,6-6c3,0,3,3,3,5l-1,37v8c1,2,1,4,3,5s3-2,4-3l2-3c9,3,7-4,8-8c2-7,1-15,7-21
	c1,10-4,19-5,29l-2,23c0,8-3,15-5,23c0,4-3,5-7,5s-8-1-8-5c1-9-3-17-3-26l4-57c0-3,0-5-4-2s-5-1-5-3L1565,181.8z"/>
<path class="st41" d="M1666,350.8l-1,1c-3-3-1-8-1-11c0-5-1-9-3-14c-3,18-7,33-9,50c0,4-1,9-3,13c-1,1-1,4-4,3l-2-5l-1-16
	c-5,4-6,8-4,14c1,4,0,8-3,11c-4,4-4,9-6,14c0,2,0,5-3,5c-2,0-2-3-2-5c0-11-2-21-1-32c0-4-1-8-3-11c5-5,6-10,6-17c-2-11,1-21,4-31
	c0-2-1-6,2-6s4,3,3,5c0,7,4,12,4,19c5-6,4-13,5-19c0-5,2-7,6-10c4-2,7-2,8,3l1,3c10-1,6,7,6,11C1665,333.8,1667,341.8,1666,350.8z"
	/>
<path class="st42" d="M1709,218.8c5-8,5-18,7-27c4,3,2,8,5,12c4-5,5-11,8-16c2-4,5-5,9-4c5,1,9,1,13-1c4-1,6,0,7,3c3,6,4,13,4,19
	c0,1,0,4,2,4c2,1,2-2,3-3c1-2,2-5,4-4c3,1,4,4,3,7l-8,36l-4,25l-2,5c-3-1-6-2-7-7c0-5-2-10-9-8c-1,1-3,0-3-2c-1-5-6-6-10-9
	c-3-4-7-7-12-5c-4,0-5-3-5-6l-1-15C1712,220.8,1712,218.8,1709,218.8z"/>
</svg>
