<?xml version="1.0" encoding="utf-8"?>
<!-- Generator: Adobe Illustrator 22.1.0, SVG Export Plug-In . SVG Version: 6.00 Build 0)  -->
<svg version="1.1" id="Layer_1" xmlns="http://www.w3.org/2000/svg" xmlns:xlink="http://www.w3.org/1999/xlink" x="0px" y="0px"
	 viewBox="0 0 1920 1417.6" style="enable-background:new 0 0 1920 1417.6;" xml:space="preserve">
<style type="text/css">
	.st0{fill:#751A2C;}
	.st1{fill:#661626;}
	.st2{fill:#922032;}
	.st3{fill:#BE594E;}
	.st4{fill:#A32433;}
	.st5{fill:#851D2C;}
	.st6{fill:#551627;}
	.st7{fill:#40111E;}
	.st8{fill:#D14C46;}
	.st9{fill:#E1534D;}
	.st10{fill:#AC4647;}
	.st11{fill:#A62F3A;}
	.st12{fill:#DF6359;}
	.st13{fill:#E87169;}
	.st14{fill:#51121E;}
	.st15{fill:#851E33;}
	.st16{fill:#621B2E;}
	.st17{fill:#791529;}
	.st18{fill:#A14458;}
	.st19{fill:#843746;}
	.st20{fill:#7F3443;}
	.st21{fill:#B25061;}
	.st22{fill:#601326;}
	.st23{fill:#9A1F2E;}
	.st24{fill:#902631;}
	.st25{fill:#9B4A5D;}
	.st26{fill:#D24F3F;}
	.st27{fill:#C84942;}
	.st28{fill:#CB6351;}
	.st29{fill:#BA3E44;}
	.st30{fill:#BB4B48;}
	.st31{fill:#AE282D;}
	.st32{fill:#CF505B;}
	.st33{fill:#963541;}
	.st34{fill:#C0433A;}
	.st35{fill:#B55857;}
	.st36{fill:#5B152F;}
	.st37{fill:#7D2331;}
	.st38{fill:#7E1929;}
	.st39{fill:#95283B;}
	.st40{fill:#99313A;}
	.st41{fill:#542038;}
	.st42{fill:#6C2739;}
	.st43{fill:#A25263;}
	.st44{fill:#D53E34;}
	.st45{fill:#A02C36;}
	.st46{fill:#A43939;}
	.st47{fill:#C4342D;}
	.st48{fill:#D4372D;}
	.st49{fill:#822C3E;}
	.st50{fill:#66273A;}
	.st51{fill:#6E2939;}
	.st52{fill:#6C1423;}
</style>
<path class="st0" d="M1849.7-29.5l-1.8,7.4c-1.6,5.5-1.9,12.3-1.7,18.2c-0.4,4.8,1.1,5.2,1.9,6.4s1.2,3.3,0.8,5.1
	c-0.3,3.9,0.1,5.9,0.9,7.1c1.1,1.3,1.9,2.4,1.6,6.3c-1.1,10.5,0.6,14.9,3.1,18.4c2.2,2.5,2,8.4,0.1,13.8c-0.7,1.8-1.3,4.6-0.5,6.7
	c0.5,1.1,0.3,4,0.9,4.1c0.7-0.8,0.8-2.7,1.3-4.6c0.4-1.9,1.2-3.6,2-2.4c0.6,0.1,1,2.2,1.2,4.2l-0.6,7.7c-0.5,2.8-1,5.6-1,8.6
	c0.3,4-1.6,8.4-0.5,10.7l3.5,0.9c2.9,1.7,3.3,3.8,3.1,13.5c-0.3,3.9-0.9,7.6-0.2,10.7c0.8,5.1,0.6,11,0.2,16.7l-0.8,10.6
	c-0.2,1.9,0,3.9,0.6,4.1c3.8,1,4.7,9,2.9,20.3c-0.6,3.8-1.3,8.5-1.3,12.4c0.1,9.8,0,19.6,1.1,27.8c1,10.1,0.8,19.8,0.2,31.5
	c-0.4,4.8-0.5,9.7,0,14.7c0.4,6,0.3,11.8,0.2,16.7l-0.9,45.9c-0.4,16.6,0.1,33.4-0.4,50.9c-0.2,5.8-0.1,12.7,0.8,16.9
	c0.9,4.1,1.2,8.1,1.2,12.1l-0.1-6.9c-0.2-20.7,0.3-42.1,1.1-63.5c0.1-4.9,0.8-9.6,1.7-14.3c0.5-2.8,1.3-5.6,2.5-5.3
	c0.9,0.2,1.3,2.3,1.8,4.4l1,10.1c0.1,2,0.7,3.1,1.6,2.4c2-2.4,3.3-0.2,3.4,6.7s-0.8,13.5-1.9,20.1c-1.8,11.3-1.2,19.3,2,24.1
	l1.6,2.4c2.7,3.6,3.2,5.7,2.6,16.4c-0.6,7.7-0.5,14.6-0.5,21.5c1.3-4.6,1.6-8.4,1.7-13.3c0.4-10,0.9-20,1.5-30.1
	c0.7-0.8,0.6,0.1,0.7,2.1c-0.4,0.9,0.2,1,0,0c0.6-3.8-0.6-8,1.2-11.5c0.9,0.2,1,3.2,0.7,6.1c-0.3,7.8,0,15.7,0,22.6
	c0,3.9,0.1,9.8,1.2,11.1c2.4,4.5,1.7,12.2,1.4,20c-1.1,17.4-1.6,34.9-1.4,51.7c-0.2,13.7-1.2,26.2-2.8,39.5c-2,18.1-4,35.3-4.3,53.9
	l-0.3,11.7c-0.2,2.9-0.5,6.7-1.6,8.4c-1.2-0.3-0.9-4.1-0.9-7.1l0.6-22.4l0.7-36.1c-0.1,8.8-1.2,22.3-1,35.1c0.1,3-0.2,6.8-1.1,9.6
	l-0.7,0.8c-0.5-1.1-0.7-2.1-0.6-4.1c0.5-14.6-1.4-27.8-1.8-41.7c-0.5-12.9,0.1-27.5-2.3-38.9c-2-9.3-3.2-20.4-6.4-26.1
	c-1.1-1.3-1.9-2.4-2.8,1.3l-0.9,3.7c-1.6-2.4-0.6-7-0.6-11c0.4-8.7,0.4-16.6,0.1-24.5c0.2-2.9,0.5-5.8-0.7-6.1l-0.6-4.1
	c0.2-5.8-0.4-9.9-0.8-15.9c-0.1-2-0.3-4-1.2-4.2c-1.7-1.4-5.7,7.4-5.6,13.3c0,7.8,0,15.7,0.6,22.7c1.1,9.1,2.5,18.3,2.3,28.1
	l0.4,13.8c0.9,12,0.2,23.6-1,35.1c-0.2,2.9-0.5,6.7-1.9,5.4s-1.6,1.6-2.2,4.4c-0.5,5.8-0.5,10.7-0.3,15.6l-0.3,3.9
	c-0.3,3.9-0.8,6.7-1.9,8.4c-1.3,0.7-1.2-3.3-1.7-5.3c-0.4-2.1-0.9-4.1-1.8-3.4c-2.1,0.5-3-3.7-3.2-9.6c-0.4-6-0.3-11.8,0.2-17.6
	c0.7-4.7,1.3-9.5,0.5-14.6l-0.7,4.7c-0.4,1.9-0.6,3.8-1.6,4.5c-0.6-0.1-1-3.2-0.8-5.1c-0.1-6.9-0.4-13.8,1.6-20.2
	c0.8-2.7,0.8-5.7,0.3-7.8l-2-16.2c-0.4-3-1-6.1-2.8-6.6c1.1,5.2,1.6,10.2,1.4,16.1c-0.2,9.8,0,19.6-2,29l-0.3,3.9
	c0.1,9.8-0.7,20.4-0.9,30.2c-0.2,2.9-0.2,5.8-1,8.6c-1,1.7-1.1-1.3-1-3.2c-0.1-3-0.3-4-1.1-5.2c-0.5-1.1-0.4-3-0.1-5.9
	c0.2-2.9-0.2-5-0.7-6.1c-1.2-4.2-0.8-9,0.7-12.6c1.6-4.5,1.3-9.5,1.4-14.4c0.2-1.9,0.2-1.9-0.4-3c-2.1-3.5-2.1-3.5-0.9-11
	c1.1-6.6,1-12.5,0.8-17.5l-1.8-15.2l0.9-34.1l1-12.5c1.2-7.6,3.4-9,4.8-3.7c0.7,3.1,0.9,7.1,0.9,11c0.1,2-0.1,4.9,0.9,7.1
	c0.9-3.7,1.3-8.5,2.6-10.1c2.1-3.4,2.5-8.2,1.9-13.3c-1.8-19.1,0.3-38.2,2.1-57.4c0.4-4.8,1.5-7.5,2.7-8.2c2-2.4,2.8-5.2,2.7-11.1
	c-0.4-6,0-11.8,2.2-16.1c-2.4-0.6-4.7,1.8-5.9-5.4l-1.1-16c-0.5-5-1.4-9.2-2.6-13.4c-0.7-2.1-1.1-5.2-0.5-9c0.5-2.8,1.4-2.6,2.4-3.3
	c1.8-0.5,2.3-2.4,1.5-7.5c-1.2-8.1-1.2-8.1,0.9-15.5c1.2-3.6,1.1-6.6-0.1-6.9c-1.4-1.3-1.8-4.4-2-9.3c-0.2-8.9,0-18.7,0.4-28.4
	c0.2-5.8,0-11.8-1.2-15c-0.9-4.1-1.5-8.2-1.7-13.2c-0.2-5-0.4-9.9-1.7-12.2c-2.1-3.5-2.6-9.5-2.2-17.2c0.3-3.9-0.1-6.9-0.7-10
	c-1.5-8.2-2.3-16.3-1.8-26.9c0.2-10.7-0.3-19.7-2.3-28.1c-0.9-4.1-1.5-8.2-1.6-14.1c0.2-5.8-0.6-11-1.8-15.2
	c-2.5-10.4-3.9-23.5-5.6-35.7l0.2-2.9c1.1-6.6,0.8-9.6-1.2-11.1c-1.9-2.4-2.7-7.5-3.9-11.8l0.3-3.9l25.4,6.3L1849.7-29.5z"/>
<path class="st1" d="M1863.1-31.1c0.4,6,1.5,11.2,2.8,14.4c1.2,3.3,1.5,8.2,1.1,13c-0.2,1.9-0.3,3.9,0.5,5c1,2.2,1,6.1,1,10.1
	c0,3.9,0.4,7,2,5.4c1.3-0.7,2.4,0.6,2.7,3.6c0.3,4,0.9,7.1,2,9.3c0.4,2.1,0.9,4.1,0.6,7c-1.6,5.5-1.1,10.5,1.1,13l1.6-1.6
	c1.6-1.6,2.7-0.3,3,3.7c0.7,10,2.2,18.2,3.3,27.3c0.8,9,2.6,16.4,4.4,23.7c1.7,5.3,3.3,11.6,3.4,18.5c0,10.8,1.1,20.9,0.4,32.5
	c-0.2,6.8-0.5,13.6,1.6,18.1c0.8,1.2,0.9,4.1,0.1,6.9c-1.3,4.6-0.5,6.7,0.6,8l1.9,2.4c1.8,3.4,2.6,8.5,2.1,15.2
	c-0.3,7.8-0.3,15.6-2,22.1l-0.5,6.7c0.1,6.9-0.4,12.7-1.5,19.3c-2,10.3-3.2,21.8-3.5,33.5c-0.5,13.6-1.3,28.1-0.9,42
	c0.3,4,0.2,8.9-0.7,12.6c-0.7,1.8-0.9-0.2-1.4-1.3l-0.1,16.7c0,3.9,0.3,7.9-1,12.5l-0.9,30.2c-0.2,5.8-0.9,11.6-1.7,17.3
	c-0.1,1-0.4,1.9-1,1.7l-0.4-2.1c0.4-8.7-0.2-16.7,0.5-25.4c0.8-9.6,0.5-10.7-2.2-14.3c-1.6-2.4-4.3-2.1-4.7-9s-0.7-13.9,1.1-21.3
	c1.4-6.5,1.9-13.3,1.5-19.3c-0.1-5.9-1.5-7.3-3.1-2.7c-0.8,2.7-1.1,2.7-1.5-0.4l-1.4-12.1c-0.1-3-0.1-5.9-1.4-5.3
	c-1.2-0.3-1.5,3.6-2,6.4c-1.1,6.6-0.8,13.5-1.3,20.3c-0.6,11.6-0.9,22.4-0.7,32.2L1868,395c-0.2,1.9-0.2,5.8-0.8,5.7
	c-1.3,0.7-0.4-3-0.5-5c-0.7-3.1,1.4-10.4-1.3-10.1l-0.3-4c-0.4-9.9,0-19.6-0.2-28.5c-0.2-20.7,0.3-42.1,0.8-63.6
	c0.2-10.7,0.6-23.4,0.3-34.3c-0.4-7-0.6-14.9,0-22.6c0.6-7.7,0.5-14.6-0.2-20.7l-0.9-18.9c-0.4-9.9-0.8-19.8,1.5-31
	c1.6-8.4-0.5-16.8-3.4-14.6c-1.3,0.7-1.6,0.6-1.2-4.2l1.8-19.2c0.2-2.9,0.2-5.8-0.4-7c-1-3.2-0.9-7.1-0.3-11.8
	c0.3-3.9,0.2-6.8,0-10.8c0.1-1-0.3-4-1-3.2c-1.8,3.5-3.2-1.8-5.2,0.7c-1.3,0.7-2-1.5-0.7-6.1c0.4-1.9,1.2-3.6,1-5.6
	c-0.5-5,0.1-8.8,1.4-13.4c0.9-3.7,0.2-6.8-0.6-8c-1.1-1.3-1.4,2.6-1.9,4.4l-0.5,2.8c-0.2,1.9-0.9,3.7-1.4,2.6
	c-0.9-0.2-0.7-2.1-0.6-4.1c0.4-1.9,0.2-2.9-0.3-4c-1.3-2.3-0.8-5.1,0.3-7.8c0.7-1.8,2-2.4,2-6.4c0-3.9-1.2-4.2-2-5.4
	c-2.2-2.5-4.3-9.9-3.3-15.5c1.3-8.5-0.5-9-1.9-10.3c-0.9-0.2-1.4-1.3-0.6-4.1c1.3-4.6,0.5-5.8-0.6-7c-0.9-0.2-2-1.5-1.8-3.4
	c0-7.8-0.6-15.8,1.7-22.1l2.8-13L1863.1-31.1z"/>
<path class="st2" d="M1821.4,1.7c1.3-5.6,1.6-5.5,2.2-1.4c0.6,4.1,0.7,10,0.3,15.8c-0.2,1.9-0.5,5.8,0.4,7c1.8,3.4,2.3,9.4,2.3,16.3
	l0.4,6c1.4,5.3,1.8,11.2,1.2,18.9c-0.2,6.8,0.3,11.8,1.7,16.1c1.2,3.3,1.5,7.3,2,12.3c0.2,8.9,0.8,16.9,3.6,19.5
	c1,2.2,1.4,5.3,1.7,9.2l0,15.7c-0.5,13.6-0.9,26.3,0.9,37.5c0.8-2.7,1.9-4.4,2.8-1.3c1.8,4.4,3.2,9.6,3.1,18.4
	c-0.3,3.9-0.1,8.8,0.2,12.8c-0.2,1.9,0.4,2.1,0.6,4.1c0.6,4.1,0.6,8-0.3,11.7c-1.2,3.6-2.3,2.4-3.5,2.1c-0.8-1.2-0.8-5.1-1.6-6.3
	c-0.9,3.7-0.9,7.6-0.8,10.6l0.4,9.9c0.5,12.9-1.9,28-0.2,40.2c-1.7,10.4-0.3,18.6-0.7,27.3c-0.4,12.7-1.7,25.1-2,36.8
	c-0.4,4.8-0.8,9.6,0.2,12.8c0.7,2.1,0.8,5.1,0.6,8c-1.7,14.3-1.6,28.1-1.8,41.8l-1,35.1l-0.5,10.7c-0.1,1-0.6,3.8-1.2,3.6
	s-0.4-2.1-0.6-4.1l0.5-37.2c0.3-11.7,0.7-24.4-0.9-34.6c-0.4-3-1.1-5.2-2.3-5.5l-3.8-1c-1.5-0.4-2.2,1.4-2.6,6.2l-0.9,11.6
	c-0.9,11.6-1.7,13.3-5.2,12.5c-1.2-0.3-2.9-1.7-4,1c-1.5,3.6-3,3.2-4.4,2.8c-1.5-0.4-3.2-0.8-4.6-3.1c-2.4-3.5-3.8-1-5.1,7.6
	l-0.4,1.9c-1,0.7-1-2.2-1-3.2l-2-17.2c-0.9-8.1-3.6-7.8-5.6-1.4c-0.4,1.9-1,4.7-1.9,4.4c-3.2,2.2-5.7-7.3-5-16.9
	c1-5.6,2.9-6.2,4.5-7.7c2.1-3.4,3.5-3,4.6,2.1c0.4,2.1,1.2,3.3,2.1,3.5c1.8,0.4,3.3-0.2,5.3-2.6c2.4-4.3,3-4.2,4.3,2.1
	c1.2,4.2,2.2,6.4,3.8,8.8c2.2,2.5,4.9,3.2,7,6.6c1.3,2.3,1.8,0.4,2.2-4.4l0.2-10.7c-0.3-14.8,2.8-23.8,5.9-32.9c2-6.4,4.7-2.8,5,5.2
	c0.1,2,0.2,5,0.7,6.1c0.2,1,0.4,2.1,1.1,1.3l0.3-3.9c0.2-1.9-0.4-3-0.6-4.1c-1-3.2-1.5-7.3-1.2-12.1c0.8-10.6,0-18.7-0.8-27.7
	c-1.4-13.1-0.6-26.6,0.8-41c0.3-3.9,0.6-7.7-0.3-10.9c-0.7-3.1-0.6-7,0-10.8c0.9-3.7,0.8-6.7,0.8-10.6c0.2-10.7-0.8-19.8,0.4-31.3
	l1.2-22.3c0.5-5.8,0.5-9.7-0.7-13.9c-0.5-1.1-1-3.2-1-6.1l-1.7-20.1c-1.1-5.2-1.2-11.1-0.7-17.8c0.3-3.9,0.2-6.8-0.5-9
	c-1.4-5.3-2.1-11.3-2.2-18.2c-0.2-5-0.8-9-1.7-12.2c-1.2-4.2-2.6-8.5-2.5-14.4c0.2-9.8-1.2-18.9-0.4-29.5c0.2-2.9-0.2-5-1.5-4.3
	c-1.3,0.7-1.6-2.4-2-5.4c-1.7-16.1-3.5-31.3-3.9-49.1l-0.5-5c-0.7-6.1-1.8-7.3-3.8-4.9c-0.7,0.8-1.3,0.7-1.4-1.3
	c-0.2-5-0.5-9,0.8-13.5l7.1,1.8C1816.6-28.9,1819.1-14.6,1821.4,1.7z"/>
<path class="st3" d="M1731.5-52l0.5,1.1c-0.1,8.8,1.8,15.2,1.7,24c-0.2,1.9-0.1,4.9,0.6,7l1.3-12.4c0.2-2.9-0.5-9,1.4-9.5
	c1.6-0.6,1,6.1,0.8,9c-0.2,10.7,0.6,18.8,2.2,26.1c0.9,4.1,2.2,6.4,2.6,12.4c0.4,2.1-0.2,5.8,1.2,7.2c1.2,0.3,1.5,4.3,1.5,7.3
	c0.1,6.9,0,14.7-0.8,21.4c-1.3,9.5-1.1,18.4-0.3,26.4l0.2,5l-3.9,41.2l-1.1,6.6c-0.4,0.9-0.8,2.7-1.7,2.5c-0.5-9-0.6-18.8-0.2-28.5
	c0.7-8.7,0.5-9.7-2.4-7.5c-1.3,0.7-2.7,0.3-3.3-3.8l-1.7-16.1c-0.6-11-1.6-21-4.7-28.6c-1.2-3.3-1.5-3.3-2.6,2.3
	c-1.2,7.6-1.9,8.4-4,4.9c-0.6-0.1-1.3-2.3-2.2,1.4c-1.3,5.6-3.8,9.9-4.2,18.6l-0.8,2.7l-0.5-1.1c-0.3-4-0.6-8-0.2-12.8
	c2.2-9.3,1.9-20.1,1.4-29.1c-0.5-5-1.1-9.1-1-14c0.8-10.6-0.5-20.7,1-32.1c-2.4,4.3-3.3,4.1-3.3-3.8l0.6-22.4
	c1-4.7,0.7-8.7,0.7-12.6c-0.1-3-0.4-6,0.8-9.6l17.7,4.4C1729.7-60.3,1729.1-52.6,1731.5-52z"/>
<path class="st4" d="M1828.8,231.2c0,7.8-0.8,13.5-2.4,19c-0.7,1.8-1.5,3.6-1.4,6.5c-0.4,8.7-1.7,17.3-1.2,26.2
	c0.1,3,0.1,5.9-0.5,6.7c-2.5,5.3-3.1,12-4,19.6c-0.7,4.7-1.8,7.4-3.3,7c-1.4-1.3-2.3-5.5-1.5-11.2c1.9-12.3,0-22.6-0.9-34.6
	c-1.3,4.6-1.6,8.4-1.3,12.4c0.3,10.9-0.6,22.4-0.2,33.3l-0.8,9.6c-2.1,7.3-2.3,14.1-2.3,22l-0.2,6.8c-0.5,9.7-2.1,11.3-4.5,7.7
	c-2.4-3.5-5-9.1-8.3-5c-0.8-5.1,0.5-6.7,1.6-9.4c0.4-1.9,1.5-3.6,2.2-1.4c1.1,5.2,3.2,4.7,4.9,7.1c1.1,1.3,1.8,0.4,1.5-3.6l0.3-3.9
	c0.7-4.7,0.8-10.6,0.6-15.5l0.8-6.7c1.2-3.6,1.3-8.5,1.7-13.3c0.4-8.7,0.2-17.6,0.1-27.5c-0.2-8.9,1.1-17.4,3.3-18.8
	c2.9-2.2,3.6-7,3.5-13.9l0-3.9c0.1-8.8,1.8-19.2,0.7-28.3c-0.4-2.1,0-3.9,1-5.6c2-2.4,2.1-7.3,1.9-12.3c-0.8-13-0.8-24.7,0-38.3
	c1-16.4,1.7-32.9-1.2-45.5l-0.6-7c-0.4-6-1.1-13-1.1-19.9c-0.3-4-1.6-6.3-1.5-11.2c0.2-6.8-0.9-12-2.3-16.3s-2-9.3-1.8-15.2
	c0.4-8.7-0.6-15.8-1.9-22.1l-1.6-10.2c-0.4-3-0.4-6,0.5-9.7c1.7-6.4,1-12.5,0.3-19.5c-0.7,4.7-0.3,7.8-0.5,9.7
	c-0.1,4.9-0.8,9.6-2.4,11.2c-1.6,0.6-2.2-2.5-2.4-7.5c-0.3-7.9-0.8-16.9-0.7-25.7c0.2-2.9,0.8-5.7-0.1-5.9c-0.8-1.2-1.3,1.6-2.1,3.4
	l-5.4,19.3c-1.3,4.6-2.7,4.2-3.2-0.8l-0.4-3c0.4-4.8-0.4-6-1.8-7.3c-2.4-0.6-4.2-4-5.1-11.1c-0.6-4.1-2.4-4.5-3.3-7.7
	c-0.5-1.1-1,0.7-1.3,1.6c-0.7,1.8-1,4.7-1.2,7.6c-0.4,4.8-1.1,9.6-2.5,13.1l-0.7-2.1c-0.6-8-1.1-16-0.5-24.7
	c0.2-2.9,0.5-5.8,1.6-8.4l29.8,7.4c0.2,5-0.8,9.6,0,14.7c0.7-1.8,1.1-6.6,2.2-5.3c1,2.2,2.4,3.5,2.7,7.5c0.8,9,1.6,18.1,1.7,27.9
	c0.6,11,2.7,19.3,3,30.2c0.2,1,0.3,4,1.3,2.3c1.9-4.4,2.1,0.5,2.1,3.5c-0.4,8.7-0.7,16.5,0.2,23.6l-0.2,5.8l0,3.9
	c1.6,2.4,1.2,11.1,3.1,13.5l1.1,5.2c-0.6,15.5,4.4,24.6,2.4,41.8l0.6,7c1.2,7.2,2.1,15.2,2.2,25.1l0.9,4.1c1.4,1.3,1.4,5.3,1,10.1
	c-0.7,8.7-0.5,17.5-1.5,26.1C1827.9,212.4,1829,221.5,1828.8,231.2z"/>
<path class="st5" d="M1824.7-40.6c-0.2,5.8,1.7,5.3,2.3,9.4c0.4,3,0.8,5.1,2.1,3.5c1-0.7,1.3,2.3,1.7,5.3c0.1,3,0.7,6.1-1,8.6
	c-0.9-0.2-1.6,1.6-1.2,3.6c0.1,2,0.7-0.8,1-0.7c1.2,8.1,3.4,14.6,3.9,23.5c0.3,4,0.7,6.1,1.5,8.2c1.7,5.3,2.7,11.5,2.7,19.3
	c0,3.9,0.4,7,1,10.1c2.5,10.4,3,22.3,2.6,36c-0.2,6.8,0.3,14.8,1.7,20.1c0.9,4.1,1.5,8.2,0.8,13c-0.5,5.8,0,11.8,1.4,13.1
	c2.1,3.5,2.6,8.5,2.7,15.4c0.2,5,0.8,9,1.7,12.2c1.5,4.3,1.3,10.1,1.1,16c-0.5,10.7-0.8,21.4-0.4,31.3c0.1,3,0.5,5,1.4,5.3
	c1-0.7,1.8,0.4,1.8,3.4c-0.2,2.9-0.8,5.7-1.5,7.5c-1.9,4.4-2.1,7.3-0.9,11.6c0.7,3.1,1.1,5.2,0.5,9c-0.9,3.7-1.8,3.5-3,3.2
	c-1.4-1.3-1.6,0.6-1.6,4.5l0.9,4.1c2.7,7.5,3.1,18.4,3.4,29.3c-1.5,3.6-2.4,0.4-2.8-2.7l-2-13.2c-1.9-10.3-2.2-22.1-0.8-35.5
	c0.5-6.7,1.4-13.4-0.7-17.8l-0.1-3c0-3.9-0.7-6.1-1.8-8.3l-0.1-9.8c0.2-6.8-0.3-11.8-1.4-16.1c-2.1-7.4-2.1-7.4-4.1,1.9l-0.4,0.9
	c0.2-6.8-1.2-11.1-1.3-18l0.4-27.4c0.5-9.7,1.4-21.2-3-23.3l-0.9-4.1c-0.4-6-2.1-11.3-1.5-19c0.2-2.9-0.5-5-1.3-6.2
	c-2.4-4.5-2.7-11.5-2-20.1c0.2-5.8,0-10.8-0.9-15c-1-3.2-1.3-6.2-1.2-11.1c0.4-4.8,0.2-9.8-1.2-11.1c-2.1-0.5-1.5-4.3-1.1-9.1
	c0.5-6.7,0.1-12.7-0.6-18.8c-1.2,3.6,0.4,6-0.7,8.7l-0.3-0.1c-2.8-14.4-4.5-30.6-7.7-43.1c-0.1-2-0.6-4.1-0.4-7L1824.7-40.6z"/>
<path class="st6" d="M1904.3,208.8l-0.8,9.6c-0.7,1.8-1.2,3.6-1.5,7.5l-0.7,16.5l1-4.7l0.4-0.9l0.4,2.1c0.5,12.9-0.7,27.3-1.1,40.9
	c-0.4,4.8-1.3,4.6-2,2.4c-0.7-2.1-1.4-5.3-1.4-9.2c0.1-4.9-0.6-7-2-9.3c-0.5,6.7-1.6,12.4-2.9,17.9l-1,8.6l-1.2,26.2
	c0,3.9,0,7.8-1.2,11.5c-0.2-8.9-0.7-17.8-0.2-27.5c0.5-5.8,1.3-12.4,0.9-18.4c-0.2-8.9,1-16.4,2.5-23.9c1.5-7.5,3.1-15.9,2.3-25.9
	c-0.1-3,0.5-5.8,1.3-8.5c1.9-8.4,1.7-17.3,1.8-26.1c-0.1-2-0.6-4.1-1.4-5.3l-3.6-3.8c-0.8-1.2-1.5-4.3-0.8-5.1
	c2.7-8.2,1.1-10.5-0.4-13.8l-0.2-1c-0.2-5-0.3-10.9,0-15.7c0.9-11.6-1.4-20.9-0.4-32.5l-0.2-1c-2.1-4.4-2.2-14.3-4.2-18.7
	c-1.2-3.3-2.6-8.5-3.1-13.5c-0.6-11.9-2.8-21.3-3.4-33.2c-0.2-5-1.3-6.2-2.8-2.7c-0.7,1.8-1.1,2.7-1.6,0.6c-0.8-5.1-1.1-9.1-0.9-15
	l-0.9-4.1c-1.2-3.3-2.2-6.4-2.4-11.4c-0.1-2-1-3.2-1.9-2.4c-1.7,2.5-3,0.2-2.6-5.5c0.1-4.9,0.2-9.8-1.6-10.2c-0.6-0.1-0.5-1.1-0.4-3
	c1.6-9.4,0-14.7-1.8-19.1c-1.2-3.3-1.6-6.3-0.9-12l18,4.5c1.5,3.3,2.1,7.4,2,13.2c-0.1,4.9,0.1,9.8,0.7,13.9c0.2,1,0.7,3.1,0.4,6
	c-0.4,8.7,0.6,15.8,1.9,22.1c1.1,9.1,1.5,19,1.4,27.8c-0.3,7.8,0.1,13.8,1.2,18.9l1.2,7.2c1.2,11.1,2.7,23.2,5.6,31.8
	c1.2,4.2,2,9.3,2.1,15.2c0,3.9,0,7.8,0.9,11c1.3,6.2,1.7,12.2,1.7,20.1l0.6,4.1c0.8-5.7,0.6-11.6,1.9-16.2c0.9,0.2,1.6-1.6,1.7,1.4
	c-0.6,11.6,0.7,21.8-0.8,33.2C1904.5,191.1,1904,200.8,1904.3,208.8z"/>
<path class="st7" d="M1900.2-20.9c0.1,9.8,2.7,15.4,3.6,23.5l0.3,0.1c3.1,2.7,3.5,12.6,4.4,20.7c0.4,3,0.5,5,1.5,7.3
	c1,3.2,1.9,6.4,1.7,12.2c-0.9,19.4,0.5,35.5,3.7,49c1.2,7.2,2.8,13.5,2.7,23.2l0.9,7.1c1.5,11.2,3.7,21.5,6,30.9
	c1.6,6.3,1.4,13.1,0.5,20.7c-0.7,4.7-2.1,7.3-3.1,12c-1.2,3.6-2.2,8.3-2.3,14.1c0,3.9,1.3,6.2,1.2,8.1c-0.3,3.9-2.3,2.4-2.9,6.2
	l-0.6,3.8c-0.3,3.9,0.7,6.1,1.2,8.1c1.6,6.3,2,13.2,0.1,21.6c-1,4.7-2.5,12.1,0.3,14.8c0.6,0.1,1,3.2,0.8,5.1l1.3,18
	c0.4,3,0.7,6.1-0.5,9.7c-1.5,3.6-2.1,0.4-2.9-1.7c-0.5-1.1-1.6-2.4-2.2,1.4c-0.6,3.8-1,8.6-0.3,11.7s1.8-0.5,2.4-0.4l1.3-0.7
	c1.3-0.7,2.3,1.5,2.3,5.5c0.3,4-1,4.7-2,6.4c-1.6,1.6-1.9,4.4-0.9,7.6c0.7,2.1,1.3,2.3,2.2,2.5c1.2,0.3,2.2,2.5,1.9,6.4
	c-0.6,7.7,0.6,14.9,0.3,22.7c-0.2,5.8,0.9,7.1,2.6,5.5c0.4,2.1,0.3,4-0.5,6.7c-1.1-1.3-3.1,1.2-3.2-4.7c-0.4-9.9-1.3-18-0.5-28.6
	c0.4-0.9,0.4-4.8-0.7-3.1c-2,2.4-3.5-0.9-5-1.2c-2-1.5-3.3-7.7-2.8-14.4c1.1-14.4-0.1-29.5,1.7-44.7c0.2-2.9,0.4-4.8-0.4-6
	c-1.5-3.3-1.2-7.2,0.5-10.7c0.4-0.9,0.7-1.8,0.5-2.8c-2.4-0.6-2.7-0.7-2.9-4.7c-1.6-10.2-0.5-20.7,2.9-29.7c1.5-3.6,2.8-9.1,3-15
	c0.5-10.7,2.1-19.1,4.5-26.4c2.5-8.2,2.7-15,0.9-22.4l-2-9.3c-0.7-3.1-1.6-6.3-2.7-7.5c-1.3-2.3-1.9-6.4-2.1-11.3
	c0-10.8-1.5-19-4.1-24.6c-3.2-4.7-3.3-15.5-3.8-24.5c-0.3-7.9,0.8-17.5-1-25.8c-2-8.4-1.6-10.2-5.4-8.2c-0.7,0.8-1.5-0.4-2.1,3.4
	c-0.3,3.9-0.2,5.8,0.9,7.1c1.1,1.3,1.5,4.3,0.8,9c-0.6,3.8-1.4,6.5-2.6,6.2l-4.2-0.1c-0.8-1.2-0.4-6-0.8-9l-0.4-2.1
	c-1.3-6.2-2.3-13.3-2.9-20.3c-0.8-9-1.8-19.1,0.5-29.3c0.6-3.8-0.1-6.9-0.8-9c-1.8-4.4-1.6-10.2-0.8-16.9l0.8-6.7L1900.2-20.9z"/>
<path class="st8" d="M1708.8-42.9c-0.4,8.7-1.1,17.4-0.2,25.5c0.3,4,0.6,8,0.2,12.8c-0.5,6.7-0.2,13.7,0.3,19.7
	c0.5,5,0.6,11-0.1,16.7l-1.6,8.4c-0.8,9.6-2.8,17-5.9,21.1c-3,3.2-4.1,2.9-5.3-5.2l-2.9,32.7c-0.5,2.8-1.6,4.5-2,2.4
	c-1.7-5.3-2.3-1.5-2.7,3.3l-1.1,6.6c-1.1,6.6-3.1,9-4.9,4.7c-0.7-3.1-1-6.1-1-10.1c-0.2-1-0.4-2.1-1.4-1.3c-2.5,1.3-2.8,1.3-2.7-7.5
	c-0.3-11.8-1.2-15-4.8-14.9c-2.7-0.7-4-6.9-3.3-15.5c0.5-2.8,0.8-5.7-0.7-6.1c-0.9-0.2-1-3.2-0.8-5.1c0.2-2.9,0.2-6.8,1.1-9.6
	c1-0.7,1.4,1.3,1.9,2.4c1.2,4.2,1.7,9.2,1.5,15.1c-0.2,6.8,0.4,9.9,2.4,11.4c2.9,1.7,4.5,8,4.6,17.8c0.2,1,0,3.9,1,3.2
	c1.5-3.6,2.6-2.3,3.5,1.8c0.2,1,0.4,3,1,2.2c0.7-0.8,1-1.7,0.9-3.7c0.2-9.8,2.2-20.1,1.8-30.9l0.8-13.5c0.4-8.7,1.1-17.4,0.5-25.4
	c-0.4-6,1.2-11.5,3.2-10c1.7,1.4,3.1-1.2,3.6-7.9c0.4-4.8,0.8-9.6,0.5-13.6c-0.4-6-0.3-11.8,0.3-18.6c0.8-5.7,1-12.5-0.6-15.8
	c-2.4-4.5-2.3-13.3-3-19.4l0.3-3.9l18,4.5l0,7.8c-0.4,4.8,0.4,9.9-0.8,14.5C1709.2-47.7,1709-44.8,1708.8-42.9z"/>
<path class="st9" d="M1681,62.1l0.1-1c0.6-3.8,0.5-6.7-0.5-9c-1.1-1.3-1.5-4.3-0.6-8c1.6-5.5,0.7-8.7-0.3-10.9
	c-1.5-3.3-1.8-8.3-1.3-14.1c0.7-4.7,1.3-8.5,1.3-12.4c0-15.7,1-32.1-0.6-46.3c-0.4-3-0.4-6-0.1-9.8c0.5-5.8,0.4-12.7,0-18.7
	c-0.1-2-0.4-6,0.7-8.7l13.6,3.4c1.2,7.2,0.3,18.7,3.5,20.5l0.6,4.1c0.1,5.9,0.8,13-0.6,19.5c-0.6,3.8-0.5,6.7-0.2,9.8
	c1.1,5.2,0.3,11.8-0.3,18.6c-0.1,4.9-1.5,7.5-2.6,10.1c-1.2,3.6-1.4-1.3-2-1.5c-0.8-1.2-1.3,0.7-1.9,1.5c-0.7,1.8-0.9,3.7-0.5,5.8
	c1,3.2,0.6,7,0.3,11.8c0,7.8-1.3,16.4-1,24.3c0.3,11.8-1.9,24.1-1.9,35.8c-0.2,2.9-0.8,5.7-1.7,6.4c-0.9-0.2-1.7-1.4-1.8-4.4
	c-0.4-6-1.4-5.3-3-0.7C1681.4,78.9,1680.9,70.9,1681,62.1z"/>
<path class="st10" d="M1743.9-60.7c1.4,5.3-0.2,13.7,1.3,18c2-6.4,4-8.8,6-7.3c1.4,1.3,2.4,7.5,1.8,15.2c0,3.9,0,7.8,0.6,11
	c0.1,3,0.6,4.1,1.9,2.4c1.7-2.5,3-0.2,3.5,4.8l1.9,14.2c0.1,2,0.4,3,1.1,1.3c1.4-2.6,2.1,0.5,2.6,4.6c0.3,4,0.2,8.9-0.2,13.7
	c-0.2,1.9-0.7,4.7-1.4,6.5c-1.5,3.6-2.7,7.2-3.6,11.9c-1.2,3.6-2.6,6.2-4.2,7.8c-1,0.7-1.6,1.6-2.1-0.5c-0.7-6.1-2.5-10.4-2.2-17.2
	c0.2-9.8-1.5-11.2-3.8-12.7l-2.4-0.6c-1.6,0.6-2.6-1.6-2.8-6.6c-0.7-3.1-0.8-9-2.6-8.5l-0.4-2.1c-0.7-10-3-19.4-1.7-31.8
	c0.2-1.9,0.3-3.9-0.3-4c-1,0.7-0.8,2.7-0.6,3.8l-1.4,17.3c-0.1,1-0.6,3.8-1.2,3.6c-0.6-0.1-0.8-1.2-0.7-3.1
	c0.2-10.7-1.5-19-1.6-28.9c-0.1-2-0.2-5-1.2-3.3c-1.3,1.6-1.2-0.3-1.2-3.3c-0.1-3-0.4-6-0.1-9.8L1743.9-60.7z"/>
<path class="st11" d="M1776.6-51.6c-1.9,12.3-0.9,23.3-0.3,34.3c0.8,1.2,0.5,5,0.6,8c-0.2,10.7-0.9,22.4-2.4,33.8l-2.9,6.2
	c-1.6,5.5-2.8,5.2-3.8-1l-1.7-5.3c-1.1-1.3-1.8-4.4-2.1-7.4l0.2-9.8c-0.1-3-0.1-5.9-1.2-7.2s-1.5,3.6-2.2,5.3
	c-0.2-8.9-1.9-14.2-2.5-22.2c-0.4-3-1.1-5.2-2.1-3.5c-2.9,6.2-3.2-0.8-3.7-6.8c-0.4-3-0.1-5.9,0.2-9.8c0.2-5.8-0.4-9.9-1.8-11.2
	c-1.9-2.4-3.7,1-4.7,6.7c-0.1,1-0.2,2.9-0.8,2.7c-0.7,0.8-0.8-1.2-1-2.2c-0.7-6.1-0.2-12.8-0.3-19.7L1776.6-51.6z"/>
<path class="st12" d="M1678.6,84c0.2-9.8-1.4-17-4.3-17.8c-2.4-0.6-2.9-4.7-2.7-11.5c0.4-8.7-0.6-14.9-2.7-19.3
	c-0.7,0.8-0.9-0.2-1-2.2l-4-25.5c-0.1-2-0.6-4.1,0.5-5.8c1-0.7,1,2.2,1.5,3.3c0.4,2.1,0.9,4.1,1.8,4.4c1.2,0.3,1.8,3.4,2.3,5.5
	c1.5,7.3,2.4,7.5,4-1l0.5-6.7c0.5-13.6,1.3-28.1,1.2-41.9c-0.3-11.8,0.4-24.4-0.8-35.5c-0.4-3-0.2-5,0.6-7.7l4.1,1l-0.1,4.9
	c-0.2,6.8,0.9,12,0.3,18.7c-0.7,4.7-0.5,9.7-0.2,13.7c1.4,12.1,1.3,25.8,0.6,38.4c-0.1,4.9,0.5,9-0.5,13.6
	c-1.4,10.4-1.4,13.4,1.1,20.9l0.5,1.1c1,3.2,1.1,5.2-0.4,8.7c-1.5,3.6-1.5,7.5,0.3,7.9c1.4,1.3,1.5,3.3,0.9,8.1
	c-0.6,3.8-1.1,9.6-0.4,12.7c0.9,4.1,0.4,7-0.5,10.7l-1,5.6C1678.8,90,1678.8,90,1678.6,84z"/>
<path class="st13" d="M1660.7,3c-1.5-7.3-1.7-16.1-1.3-25.8l0.9-3.7c1.1,1.3,0.9,4.1,1.2,7.2c0.1,2-0.2,5.8,0.9,8.1
	c1.3-12.4,4.4-21.5,5.7-33.9l1.9-24.1c0.3-3.9,0.2-6.8,1.4-9.5l4.1,1l-0.2,5.8c1.8,11.2,1.1,24.8,1.2,37.6
	c0.1,13.8-0.7,28.3-1.3,42.9c0,3.9-2.3,14.1-3.3,14.9c-1.9,1.5-2.1-3.5-2.7-7.5c-0.1-2-0.6-4.1-1.2-4.2c-1.8,0.5-2.6-1.6-3.1-6.7
	c-0.1-2-0.4-2.1-1-2.2C1662.6,5.5,1661.8,4.3,1660.7,3z"/>
<path class="st14" d="M1883.7-26c0.7,10,0.5,20.7,1.6,29.8c0.6,7,0.3,15.8,1.3,21.9c1.2,7.2,1.8,15.2,1.8,23c0,3.9,0.4,7,1,10.1
	c1.8,8.3,3.9,15.7,4.5,26.6c1.4,13.1,3,27.2,6.8,36c0.7,2.1,1.1,5.2,0.5,9c-0.5,6.7,0.9,12,0.7,17.8c0.1,2,0.8,1.2,1.5,0.4l-1,12.5
	c-0.5,2.8,0,7.8-1.5,7.5c-1,0.7-0.6-4.1-0.9-7.1c-0.2-5,0.3-11.7-0.8-15.9c-1.2-3.3-1.7-9.2-1.8-15.2c0-3.9,0-7.8-0.9-11
	c-2.1-7.4-4.2-15.8-5.5-25.9c-1.2-8.1-2-17.2-3.8-24.5c-0.7-3.1-0.4-6-0.2-8.9c0.4-8.7,0.3-18.6-0.8-24.7c-2.2-14.3-2.1-30-3.4-45
	c-0.5-5-0.3-11.8-1.4-17L1883.7-26z"/>
<path class="st14" d="M1890.3,462.4c0.6-15.5,0.6-30.3,1.8-45.7c0.5-5.8,2-14.2-1.6-14.1l-0.5-1.1c-0.9-12-1.1-23.8-0.4-36.4l-0.4-6
	c-0.7-6.1-0.6-11,0.5-17.5c0.7-4.7,0.4-8.7,0.8-13.5c1-15.5,1.9-30.9,2.8-46.4c1-5.6,2.7-11.1,2.7-19c0.1-1,0.9-3.7,1.1-2.7
	c0.6,4.1,2.6,4.6,2.6,9.5c-0.5,6.7,0.4,9.9,1.7,13.2c0.9-15.5,1.5-31,1.5-45.8c-1.4-5.3-0.9-11,0.5-17.5l0.2-13.7
	c-0.1-6.9,0-14.7,0.5-21.5c0.3,0.1,0.9,4.1,1.3-1.6l1-8.6c0.2-1.9,0.3-3.9,0.9-3.7c1-0.7,0.7,2.1,1,3.2c-0.8,10.6,0.6,15.8,3.4,17.5
	l0.7,2.1c-0.5,5.8,0.2,12.8-1.5,19.3c-0.9,3.7-1.6,8.4-1.6,12.4c0,7.8-0.6,15.5-2.4,23c-2.9,10.1-4,20.6-3.8,33.4
	c0.1,9.8-1.3,20.3-1.2,30.1c-0.1,4.9-0.5,9.7-2.8,13c-1.3,1.6-1.3,5.6,0,7.8l2.4,7.5c2,5.4,3.5,12.6,6.8,8.6c1-0.7,1.5,0.4,1.6,2.4
	c0.9,8.1,3.2,12.6,2.4,23.2l0.4,3c1.6,6.3,1.6,14.1,0.1,21.6c-1.7,10.4-3.7,20.7-4.1,32.4c-0.3,3.9-0.5,6.7,0.2,8.9
	c0.9,4.1,0.8,9,0.5,12.9c-0.5,5.8-0.2,10.7,0.6,15.8c0.1,5.9-1.8,7.4-2.9,10.1c-2.8,5.2-3.3,7-1,12.5c1,3.2,1.5,7.3,0.9,12
	c-0.8,6.7-1.1,14.4-1.4,21.2l-1.5,23.2c-0.2,2.9-0.5,5.8-1.7,6.4c-2.9,2.2-3.2-4.7-3.7-10.7c-0.2-1-1-2.2-0.3-4
	c0.4-1.9,0.9,0.2,1.2,0.3c1.5,3.3,2,1.5,3-3.2c2.2-13.2,0.3-23.5-0.7-33.5c0-3.9-0.6-8-2.3-5.5c-0.6-0.1-1-2.2-1.2-3.3l-0.9-4.1
	c-2.4-3.5-3.2-8.7-1.7-17.1c1.2-7.6-0.1-13.8,0.1-20.6l-1.4,13.4c-0.5,6.7-1.6,8.4-3.4,5C1890.1,468.3,1890.4,464.4,1890.3,462.4z"
	/>
<path class="st15" d="M1856.2,288.1c1-0.7,1.4,1.3,1.8,3.4c-0.2,1.9-0.3,3.9-0.9,3.7c-2.5,1.3-1.9,5.4-1.7,10.4
	c0.3,4-0.1,8.8-1,12.5c-0.5,2.8-1.3,1.6-2.3,2.4c-1.3,0.7-2.1,3.4-2.4,7.3c-1.6,12.4-2,25-2.7,37.6c-0.5,6.7,0,11.8,0.5,16.8
	c0.4,2.1,0.5,5,0.4,7c0,3.9-0.3,7.8-1.6,8.4c-1.6,1.6-2.2,5.3-2.8,9.1c-0.2,1.9-0.4,4.8-1.3,5.6c-0.9-0.2-1-3.2-1.1-5.2l-0.1-6.9
	c0.3-3.9-0.1-5.9-0.8-9c-0.4-2.1-1.2-3.3-2.2-2.5c-1,0.7-1.5,3.6-1.7,6.4l-0.8,13.5l-1,31.2c0.7,10,0.2,20.7-0.1,31.4
	c-0.5,5.8-0.1,12.7-1.1,18.4c-1.7,2.5-1.4-1.3-1.5-4.3c-0.5-5,0.3-11.7,0.5-17.5c-0.5,2.8-0.7,4.7-1.6,5.5c-0.9-0.2-0.7-3.1-0.7-6.1
	l0.4-28.4c0.3-15.6,1.3-31.1,0.6-46c-0.2-8.9-1.4-16.1-4.3-17.8c-2-1.5-2.3-1.5-2.8,5.2l-1,12.5c-0.5,6.7-2,10.3-3.6,11.9l-3.7,1
	c-0.9-0.2-2.1-0.5-3.1,1.2c-1.7,2.5-3.5,3-5.3,2.6c-1.5-0.4-2.5-2.6-3.9-3.9c-2.3-1.5-3.4,1.1-3.3,8c-0.1,4.9-0.2,9.8-1.1,14.4
	l-1.8,7.4c-1.3,8.5-2,10.3-4.5,10.7l-3.1,1.2c-1.8-0.4-3.1-2.7-3.6-7.8l-1.5-19c0.2-1.9,0-3.9-0.9-4.1c-1,0.7-1.1,2.7-1.6,4.5
	c-1,4.7-1.3,9.5-1.4,14.4c0.1,5.9-0.6,11.6-1.4,18.3c-0.2,1.9-0.7,4.7-1.6,4.5c-1,0.7-1.4-1.3-1.5-4.3c-0.7-6.1-1.5-11.2-1.3-18
	c-0.2-5-0.9-8.1-1.8-11.2l-2.4-7.5c-0.7-2.1-1.5-3.3-2.9-1.7c-0.7,1.8-1.8,3.5-2.2,1.4l-3.7-17.6c1.7-2.5,3.1-1.2,4,3
	c0.8,1.2,1.2,4.2,2.1,4.4c2.4-0.4,4.1,2,5.1,7.2c1.2,4.2,2.1,3.5,3.4-1.1l0.9-3.7c1.3-5.6,2.2-5.3,3.4-1.1c0.7,2.1,1.3,2.3,2.6,1.6
	c2.9-2.2,4.6,2.1,4.2,11.8c-0.2,5.8,0.4,7,1.7,5.3c1.3-1.6,2.4-4.3,3.3-4.1c2.7-0.3,4.5-3.8,5.7-11.3c1.1-13.5,2.5-16.1,6.3-11.2
	l0.5,1.1c1.9,2.4,4.2,4,5.9,1.5c2.7-4.2,5.1-3.6,7.5-3.1c1.5,0.4,2.2-1.4,2.7-7.2l1.3-16.4c0.5-5.8,1.5-7.5,3-7.1l5,1.2
	c1-0.7,1.4,1.3,1.8,3.4c1.1,9.1,1.6,18.1,1.3,28.8c-0.7,16.5-0.1,32.4-0.8,48.9c1.2-20.2,1.9-40.4,2.1-60.3
	c-0.3-7.9,0.1-16.7,1.1-25.2c0.7-4.7,0.8-9.6-0.6-11.9c-0.4-2.1-0.6-4.1-0.4-7c1.4-13.4,1.2-27.2,2.6-40.6c0.4-1.9,0.7-4.7,0.2-6.8
	c-1.3-6.2-0.5-12.9,0.1-20.6c0.8-6.7-1.4-12.1-0.3-19.7l0.2-1.9l0.7-16.5c-0.1-6.9-1.3-14.1-0.4-21.7c0.5-2.8,0.5-5.8,1.7-6.4
	c0.9,0.2,1,3.2,1.1,5.2c-0.2,1.9,0,3.9,0.7,3.1c1-0.7,1.7,1.4,2.7-0.3c0.4-1.9,0.2-9.8-0.6-11c-1.1-1.3-0.7-3.1-0.2-5
	c1-1.7,1.6-0.6,1.7,1.4c0.2,5-0.2,10.7,2.2,10.4l0.1,2c-0.5,5.8-0.2,10.7-1,16.4c-1.5,11.4-0.8,21.4,0.6,30.6l1.9,14.2
	c0.3,4,1,6.1,2.6,5.5C1852.5,290.1,1854.2,290.5,1856.2,288.1z"/>
<path class="st16" d="M1853.6,516.1c0.7-8.7,1.7-10.4,3.8-5.9l1.5-23.2c0.1-8.8-0.8-15.9-0.5-23.7c0.1-12.7-1.2-22.9-2.5-33
	c-0.9-8.1-0.5-16.8-0.8-24.7c-0.3-4,0.9-7.6,2-10.3l2.7-3.3c2.4-3.3,3.2-2.2,3.5,4.8s1.1,13,1.1,19.9c0.6,4.1,0.4,9.9,0.3,14.8
	c-0.6,18.5-1.9,35.8-1.5,53.6l-0.4,20.5c0,3.9,0,7.8-1.1,10.5c-1.8,0.5-2.4,3.3-2.4,7.3c0.3,7.9-3,8.1-3.2,13.9l-0.8-1.2
	c-0.4-3-1.1-5.2-2.3-5.5C1852.8,525.7,1852.9,520.9,1853.6,516.1z"/>
<path class="st17" d="M1828.3,630.6l0.8-40.1c0.9-33.3,2.3-66.7,4-100.1l1.6-50.6c1.3,6.2,1.9,14.2,2.1,23.1
	c-0.1,4.9-1.4,9.5-1.7,14.3c-0.1,1-0.5,2.8,0,3.9c0.4,2.1,0.8,1.2,1.3-0.7c0.4-0.9,1-1.7,1.2,0.3c0.4,3-1.1,18.4-2,21.1
	c-1.1,2.7-2,6.4-0.8,9.6c-1.5,15.3-2.2,31.8-2.8,47.4c-0.4,12.7,0.5,24.7-1.4,36.9l-0.2,1.9c0.6,11.9-0.4,24.4-0.2,36.3
	c0.1,2-0.4,4.8-1.3,5.6C1828.1,637.4,1828.4,633.5,1828.3,630.6z"/>
<path class="st18" d="M1881.6,530.9c0.6-7.7,0.3-15.6,1.5-23.2l-0.1,27.5c0,15.7-1,32.1-0.8,48.9l-0.1,4.9l-2,67.2
	c0,3.9,0.2,8.9-0.8,14.5l-0.2-5c-0.1-29.5,0.8-59.7,1.3-89l0-11.8l0.1-1C1881.3,553.4,1880.7,542.5,1881.6,530.9z"/>
<path class="st19" d="M1865,413.9c0.7-0.8,0.5,1.1,0.4,2.1l0.3,15.8c-0.1,8.8-0.8,17.5-0.6,26.4l-0.5,5.8c-1.3-2.3-0.4-7-0.7-10
	l-0.2,21.5c0,3.9,0.1,6.9-1.1,9.6c-0.6-7,0-14.7,0.3-22.5l1.2-45.8L1865,413.9z"/>
<path class="st20" d="M1888.1,372.6l-0.6-4.1l0.5-25.4c-0.1-3,0-7.8,1-8.6c1.3-0.7-0.1,4.9,0.6,7l-0.5,17.5
	C1888.8,363.9,1889.3,368,1888.1,372.6z"/>
<path class="st21" d="M1829.7-11.9c-0.5,2.8-0.2,5.8-1.1,6.6c-0.7,0.8-0.8-1.2-1-3.2c0.2-2.9-0.1-6.9,1.1-9.6
	c0.7-0.8,0.7,3.1,1.2,4.2L1829.7-11.9z"/>
<path class="st22" d="M1850,527c-0.1,1-0.4,1.9-0.7,0.8c-1-3.2-0.6-7,0-10.8l0.4-0.9C1850.3,519.2,1850.7,522.3,1850,527z"/>
<path class="st0" d="M1874.2,41.3c-0.6-4.1,0.1-4.9,1.6-4.5c0.9,4.1,1.1,9.1,0.9,15C1873.9,53,1874.5,45.3,1874.2,41.3z
	 M1866.1,128.6c0.6,0.1,0.7,3.1,0.5,5c-0.1,1-0.5,2.8-1.1,2.7c-0.6-0.1-0.7-2.1-0.6-4.1C1865.1,130.3,1865.5,128.5,1866.1,128.6z"/>
<path class="st14" d="M1902,112c-0.2,1.9-0.7,4.7-1.6,4.5c-0.6-0.1-1-2.2-0.9-4.1c0.2-2.9,0.9-3.7,1.6-4.5
	C1901.7,109,1902.6,109.2,1902,112z M1903.9,320.5c0.4-0.9,0.8-2.7,1.4-2.6l0.3,4c-0.4,0.9-0.4,1.9-1,1.7
	C1904,323.5,1903.8,322.5,1903.9,320.5z"/>
<path class="st23" d="M1829.3,233.3c0.1,3,0.1,6.9-0.5,10.7c-0.9,3.7-0.9,7.6,0.1,9.8c0.7,2.1,1.1,5.2,0.6,7
	c-1.9,8.4-0.4,16.6-2.2,24c-0.4,1.9-0.3,3.9,0.1,5.9l0.5,9c-0.2,5.8,0,10.8,1.3,14.1c0.7,2.1,1,6.1,0.5,9
	c-1.6,9.4-1.1,17.4,0.8,23.8c1,3.2,0.6,7-0.2,9.8c-1.2,3.6-1.8,0.5-2.6-1.6c-0.4-2.1-1.1-5.2-0.5-9c0.2-2.9-0.6-4.1-1.1-5.2
	c-1.8-0.4-3,0.2-4.1,5.9l-3.9,14.7c-0.5,2.8-1,5.6-0.7,8.7l-0.3,14.7c0.1,3,0.7,6.1-0.7,8.7c-1,0.7-2.1,0.5-2.9-1.7l-3.9-3.9
	c-2.3-1.5-4.9-3.2-6.1-10.3c-1.8-8.3-1.8-8.3-5.2-2.3c-2.2,4.4-5.6,2.5-7-2.7c-0.5-1.1-1.1-5.2-1.8-3.4c-2.1,3.4-4.6,0.8-6.4,8.2
	c-1.3,4.6-2.2,1.4-2.9-1.7c-1-6.1-2.2-10.4-4-14.7c-1-2.2-2-5.4-1.5-11.2c1.6-1.6,1.9,2.4,2.6,4.6c1,2.2,2.1,7.4,3.3,3.8
	c1.6-4.5,3.3-8,4.5-14.6c0.9-7.6,2.2-9.3,3.8-3c0.7,2.1,1.2,4.2,2.3,5.5c1.8,0.4,2.7,3.6,2.9,8.6c0.1,3,0.6,4.1,1.6,2.4
	c1.5-3.6,3.2-6.1,4.6-0.8l2,1.5l2,1.5c0.4,3,1,6.1,2.4,3.5c1.3-1.6,1.1-6.6,1.4-9.5l-0.1-6.9c0.2-5.8,0.1-12.7,1.7-18.2
	c1.3-4.6,1.6-8.4,1.3-12.4l0.2-9.8c0.2-6.8,0.5-13.6,0-19.6c-0.2-5,0.4-8.7,0.8-13.5c0.2-2.9,0.9-3.7,1.9-4.4
	c0.9,0.2,0.7,2.1,0.6,4.1l0.6,11c0.9,7.1,1.2,15,0,22.6c-0.5,2.8-0.7,4.7-0.2,6.8c0.5,1.1,1.2,3.3,1.9,2.4c1-0.7,1.5-3.6,1.7-6.4
	c0.9-7.6,0.9-15.5,3.9-18.7c1-0.7,1-4.7,0.5-6.7c-0.7-3.1-0.4-7-0.1-9.8l0.8-10.6c-0.1-6.9,0.6-11.6,2.4-15.1
	c1.5-3.6,2.2-8.3,2-14.2c-0.4-6,0.1-12.7,0-19.6c-0.1-3,0-7.8,1.2-11.5C1828.4,213.5,1829.5,222.6,1829.3,233.3z"/>
<path class="st24" d="M1784.2,389l2.5,2.6c1,2.2,1.8,0.4,2.3-2.4c0.5-6.7,2-6.4,3.3-7c1.6-0.6,3-0.2,3.2,4.7
	c0.9,8.1,2.4,15.3,2.3,24.1c-0.3,7.8-1.3,12.4-3.7,12.8c-1.5-0.4-3.1,1.2-4.9,4.7c-0.7,1.8-1.9,1.5-2.7-0.7c-0.8-1.2-0.5-5-0.1-6.9
	c1.3-5.6-0.4-7-1-10.1c-0.7-3.1-1.7-1.4-2.4,0.4c-1.3,1.6-2.3,2.4-2.9-1.7c-1.1-5.2-1.7-5.3-3.2,2.2c-1.9,8.4-3.5,9.9-4.9,1.7
	c-0.9-4.1-2.2-6.4-4.1-4.9c-1,0.7-1.8-0.4-1.9-2.4c-1-6.1-2.5-6.5-4.6-7l-1.3-2.3c-2.7-7.5-4.6-17.8-7.8-23.5
	c-1.3-2.3-1.5-7.3-0.2-12.8l0.9,0.2c2.1,0.5,4.2,0.1,6-7.3l1.3-1.6c1.3,2.3,2.4-0.4,3.5-3c0.4-0.9,1.3-1.6,1.8-0.5
	c1,3.2,0.6,7,1.3,10.1c0.1,2-0.2,6.8,1,6.1c0.9,0.2,0.9-3.7,1.4-6.5c1.2-7.6,3.2-10,5.1-7.6l0.7,3.1c1.8,8.3,4.8,12,5.8,22
	c0.4,3,1.2,3.3,2.3,1.5C1782.6,382.7,1782.9,386.7,1784.2,389z"/>
<path class="st25" d="M1861,548.4c0.2-10.7,1.1-21.3,0.7-32.2c1.1-10.5,0.1-20.6,1-31.2c0.9-11.6,0.3-22.5,1.6-34.9
	c0.4,6,0.1,9.8,0.7,13.9l-1.5,57.5c-0.3,23.5-1.4,47.8-1.4,71.3c-0.1,8.8-1.4,18.3-0.7,27.3l-0.3,3.9c-0.2,2.9-0.1,4.9-1.2,7.6
	l0-15.7c0.5-9.7,0.6-19.5,0.2-29.4L1861,548.4z"/>
<path class="st26" d="M1714.1,73.2c1.5,0.4,2.5,2.6,2.8,6.6c0.6,7,1.7,13.2,1.4,20.9c0,3.9,0.4,7,1.8,7.3c1.7,1.4,2.6,4.6,2.6,9.5
	c0.3,7.9,1.3,14.1,1.9,21.1c0.2,5,1.3,6.2,3.1,2.7c1.7-2.5,3.6-4,4.4-9.7c0.5-2.8,1.2-3.6,2.2-4.4l3.6-4l1.1-2.7
	c0.4,7-0.3,11.7-2.1,15.2l-2.4,4.3c-1.5,3.6-1.6,8.4,0,10.8c1.1,1.3,1.8,3.4,2.3,5.5c1,3.2,1.8,3.4,3,0.7c0.4-1.9,1.3-4.6,2-2.4
	c0.4,2.1,0.2,5-0.3,7.8c-1.1,6.6-1.1,13.5-3.4,19.8l3.5,1.8l1-0.7c1.7-6.4,4.4-6.7,5.8-12.3c0.4-1.9,1.4-2.6,1.9-1.5s0.4,3,0.2,5
	l-0.2,6.8c-0.3,11.7-0.3,22.5-1.8,33.9c-0.6,3.8-0.5,5.8,0.6,8c2.4,4.5,2.8,13.5,1.5,22.9c-0.7,4.7-1.9,8.4-2.8,12.1
	c-1.6,4.5-1.4,9.5,0.3,11.8c2.1,3.5,2.5,6.5,1,14c-0.6,3.8-1.1,6.6-1.2,11.5c-0.1,8.8-1.6,12.4-4.1,9.8c-1.7-1.4-2.9-4.7-4.4-8.9
	c-0.5,5.8,1.2,12.1-1.6,16.3c-0.6-0.1-1.1-1.3-1.2-3.3l-1.5-8.2c-0.7-2.1-1.2-3.3-2.1,0.4c-1.3,4.6-2.2,4.4-2.4-0.6l-0.7-10
	c-0.4-7-0.3-14.8-1.4-20.9l-1.9-21.1c0.3-14.2-0.6-27.5-2.6-38.9l-0.9-7.1c-1.3-14.1-2.9-28.2-3.5-43.1c-0.3-4-1-6.1-2-8.4
	c-0.5-1.1-0.8-1.2-1.3,0.7s-1,4.7-2.1,3.4c-0.9-0.2-1-3.2-0.8-5.1l-0.4-32.5l1-12.5c1.8-11.3,1.1-17.4-1.8-23
	c-1.5-3.3-1.8-8.3-0.7-13.9l0.6,0.1C1712.2,70.8,1712.9,72.9,1714.1,73.2z"/>
<path class="st27" d="M1740.9,102.5c1.1-10.5,1.6-20.2,3-30.7c1-1.7,2.1-0.5,3-3.2c1.6-5.5,2.2-5.3,3.7-1c0.7,2.1,1.4,5.3,2.6,4.6
	c2.4,0.6,3.5,4.8,4.3,10.9l-0.4,4.8c-1.5,7.5-1.5,15.3-2.3,22c-1.1,9.6-0.3,15.6,1.3,21.9c1.6,6.3,5.7,8.3,8.5,6
	c3.9-3.9,7.9-4.9,10.8,3.7c-0.3,3.9,1.6,6.3,0,11.8c-0.8,2.7-1.2,7.6-1.8,11.3c-0.9,7.6-2.2,13.2-4.8,15.5c-0.9-0.2-1.6,1.6-2.1,3.4
	c-1.6,9.4-2.9,17.9-2.1,27c0.7,6.1,0.5,12.9,0.9,18.9l-1.1,13.5c-0.4,1.9-1,4.7-1.9,5.4c-0.9-0.2-1.6-2.4-1.8-4.4l-0.7-10
	c-0.6-8-0.9-15-2.9-20.3c-0.4-2.1-0.7-3.1-0.4-6c0.1-8.8-1.1-16.9,0-26.5c0.8-6.7-0.9-11-3-7.6l-1.6,4.5c-0.8,2.7-1.3,5.6-2.4,3.3
	c-1-2.2-0.2-5,0.2-6.8c0.2-1.9,0.2-2.9-0.3-4l-1,0.7c-1,4.7-3.5,6-4.3,8.7c-2,6.4-3,8.1-4.9,4.7l-0.9-0.2c-0.7,0.8-1.6,0.6-1.7-1.4
	c-0.1-3,0.6-3.8,1-4.7c0.7-1.8,1.4-2.6,1.6-5.5c0-3.9,0.5-6.7,1.1-10.5c0.4-1.9,1-4.7,0.6-7.7c-3.1,9-3.4,9-5.5,0.6l-1.3-2.3
	c-1.2-0.3-2-1.5-2-5.4c0.1-4.9,0.8-9.6,2.4-11.2c2.6-2.3,3.6-7.9,3.9-15.7C1740,115,1739.9,108.1,1740.9,102.5z"/>
<path class="st28" d="M1713.5,54.4c1.1-2.7,1.9-4.4,2.5-8.2c0.9-3.7,1.9-5.4,2.9-2.2c2.4,3.5,2.4,3.5,3.7-5c0.7-4.7,2.5-8.2,2.8-5.2
	c0.6,7,4.3,6.9,3.5,16.6c2.3,8.4,1.9,21.1,3.2,31.2c0.8,5.1,1.7,5.3,3.4,2.8c2.7-3.3,3.7-1,3,7.6c-0.6,7.7-0.8,14.5-0.4,20.5
	l-0.2,10.7c-0.7,4.7-1.9,4.4-2.8,5.2c-1.3,0.7-2.5,1.3-2.8,5.2c-0.7,4.7-1.5,7.5-3,7.1l-1.7,2.5c-1.8,3.5-3.3,3.1-3.8-1.9
	c-0.3-7.9-1.9-14.2-1.8-23c0.1-4.9-0.3-7.9-2-8.4c-1.8,0.5-2.4-3.5-2.3-8.4c0.6-7.7-0.7-13.9-1.4-20.9c-0.3-4-0.9-7.1-2.9-5.6
	c-1.6,1.6-2.3-1.5-1.6-6.3C1712.1,63.9,1711.7,57.9,1713.5,54.4z"/>
<path class="st29" d="M1712.1,113.9l-1-14c-0.3-4,0.1-12.7-2.8-6.6l-0.4,0.9c-2.2-2.5-2.6,2.3-3,8.1l-0.8,9.6l-1.3,8.5
	c-0.2,1.9-0.6,3.8-1.5,3.6s-0.7-2.1-0.6-4.1c-0.2-5,0.2-9.8-0.3-14.8c-0.4-7-2.9-9.5-5-5.2c-2.2,4.4-2.2,4.4-3.5-0.9l-0.7-2.1
	c-0.7-3.1-1.5-3.3-2.2,1.4c-1,4.7-1.9,9.3-3.4,12.9c-1,1.7-1.9,1.5-2.4-0.6c-0.7-2.1-1.2-4.2-0.1-6.9c1.5,4.3,3.1,2.7,4.2-3.9
	l1.6-12.4c0.6-3.8,1.5-3.6,2.1-0.5c0.2,1,0.3,4,1,3.2c1-0.7,0.9-3.7,1-5.6c0.6-11.6,3-22.8,2.8-35.6l0.9,7.1
	c0.6,4.1,1.2,7.2,2.9,5.6c3.1-5.1,6.4-9.2,7.1-21.8c-0.1-3,0.8-6.7,1.9-8.4c0.6,0.1,0.8,1.2,0.7,2.1c0.6,7,1.6,14.1,1.6,22
	c0.6,4.1,0.6,8,0.2,12.8c-0.5,6.7-0.3,11.7,2,12.3c1.7,1.4,3,15.5,2,20.1c-1,5.6-1.5,11.4-2,17.2
	C1712.3,118.9,1712.2,115.9,1712.1,113.9z"/>
<path class="st30" d="M1742.8,48c1.4-9.5,1.8-19.2,1.7-29c-0.1-2,0-3.9-0.6-4.1c-2.4,0.4-2-5.4-2-9.3c0.8,1.2,0.4,6,2,5.4
	c2.3-2.4,4.1,1,6.4,2.6c0.6,0.1,1.3,2.3,1.2,4.2c-1.1,9.6,1.2,15,1.8,23c0.1,2,0.8,1.2,1.4,1.3c1.6-1.6,3.1-5.1,4.5-7.7
	c1.5,15.1,0.6,30.6-1.9,46.6l-0.4,0.9c-1.1-1.3-1.2-7.2-2.7-7.5c-2.2,1.4-3.5-1.8-4.3-6c-0.7-2.1-1.8-4.4-2.4,0.4
	c-1,5.6-2.2,5.3-3.5,3C1743,64.7,1741.8,57.5,1742.8,48z"/>
<path class="st28" d="M1708,12.8c-0.5-5-0.6-11,0.2-17.6l-0.2-8.9c-1.3-10.1-0.4-21.7,0.1-32.4c0.2-1.9,0.3-3.9,1.3-4.6
	c0.6,0.1,0.7,2.1,0.6,4.1l-0.3,22.5l0.1,3l0.4,3c0.6,0.1,0.7-1.8,0.8-2.7c0.4-1.9,0.7-4.7,1.5-3.6c0.9,0.2,0.9,4.1,0.4,6
	c-0.7,4.7-0.8,9.6-0.5,14.6c0.4,3,0.1,5.9,0.1,9.8c-0.2,6.8-1.1,14.4,0.8,19.8l0,3.9l-0.2,9.8c-0.2,5.8,0.5,12.9-2.2,16.1
	c-0.8-1.2-0.6-4.1-0.7-6.1c-0.7-6.1-0.8-13-1.6-18.1C1708.5,25.7,1708.7,18.9,1708,12.8z"/>
<path class="st31" d="M1762,327.5l-0.4-7c-0.8-5.1-1.4-5.3-2.9-1.7l-3,7.1c-0.8,2.7-1.5,3.6-2.4,3.3c-1.4-1.3-2.5,1.3-3.5,6
	c-0.5,2.8-1.4,6.5-2.7,4.2l1.7-21.2c0.4-4.8,1.6-8.4,3-11c1.4-2.6,2.3-2.4,3.2,1.8c1.5,7.3,1.5,7.3,4.4,1.1l0.7-1.8
	c2.2-1.4,3-0.2,3.7,9.8c0.6,7,0.6,14.9,3,19.4l0.6,4.1c0.4,3,0,7.8,0.9,11c1.5-7.5,0.8-14.5,2-21.1l1.1-10.5c1-4.7,2.1-7.3,3.6-7
	c3.2,0.8,6.4,2.6,7.8,11.7c0.7,3.1,1.2,4.2,2.1,0.5c1-5.6,1.7-6.4,3.2-2.2l1.3,2.3c3-0.2,4.4,5,5,13c0.1,2,0.2,5,1.2,4.2
	c0.9,0.2,1.4-2.6,1.6-4.5c0.7-12.6,2.3-25.9,0.9-38.1l-0.4-9.9c0.5-6.7,2.1-11.3,4.1-9.8c1.8,0.4,2.2-1.4,2.6-6.2
	c1.5-11.4,2.7-22.9,4.7-33.2c1-4.7,1.1-9.6,0.2-13.7c-0.6-4.1-0.5-9-0.1-13.8l0-11.8c-0.3-7.9,0-15.7,1.2-23.2
	c0.7-4.7,1.1-9.6,0.8-14.5l-0.3-15.8c0.2-9.8-2.3-12.4-3.7-17.6l-0.6-0.1c-2.4,3.3-1.6-2.4-1.6-6.3c0.3-3.9,1-8.6,0.3-11.7
	c-1,0.7-1.5,3.6-1.9,5.4c-1.3,4.6-2.2,4.4-3-0.7c-0.6-4.1-0.5-9-0.5-12.9c0.1-12.7-0.5-24.7-2-35.8c-0.4-3-0.7-6.1-0.2-8.9
	c0.6-3.8,0.2-5.8-0.9-8.1c-2.2-2.5-2.1-7.4,0.1-12.7c-1.1,2.7-1.1,2.7-1.9,8.4c-0.7,8.7-2.3,10.2-4,4.9c-1.5-3.3-2.6-8.5-4.6-10
	c-1.5-0.4-2.6-1.6-3.1-6.7c-0.1-2-1-3.2-1.7-1.4c-1.2,3.6-2.1,3.4-2.8,1.3c-0.4-2.1-1-2.2-1.6-2.4c-1.6,0.6-2.3-1.5-2.6-5.5l-0.3-4
	c-1.1-5.2,0.8-9.6,0.8-14.5l1-28.2c0.8-5.7,2.1-11.3,2-17.2c0.2-2.9,1.4-6.5,2.7-8.2c1-0.7,1,2.2,1.5,4.3l1.3,2.3
	c1.3-1.6,1.4,1.3,1.5,3.3c0.5,5,1.5,8.2,2.9,9.5c2.3,1.5,4.8,0.2,4.2,11.8l0.4,2.1c0.4,3,1,3.2,1.8,0.4c1.5-7.5,3.7-12.8,5.5-20.2
	c1-4.7,2.3-6.3,3.8-5.9l0,7.8c-0.5,9.7,0.3,18.7,0.2,27.5c0.1,3,0.7,6.1,2,5.4c1-0.7,1.2-3.6,1.7-6.4l-0.1-5.9l0.4-8.7
	c0.2-1.9,0.7-1.8,1.3-0.7c1,2.2,1.3,18,0.1,21.6c-1.6,4.5-1.3,8.5-0.7,12.6l1.8,8.3c1,6.1,2,12.3,1.7,20.1
	c-0.5,5.8,0.3,11.8,1.8,15.2c1.2,4.2,3.2,9.6,2.2,18.2c-0.2,1.9,0.4,3,0.6,4.1c0.6,0.1,0.8,1.2,1,3.2c0,7.8,0.9,15,1.2,22.9
	c0.1,3,0.1,5.9,0.6,7c1.8,3.4,1.8,8.3,1.6,14.1c0.4,13.8,0.5,27.6-0.9,42c-0.6,3.8-0.6,7.7-0.3,11.7c0.6,7,0.3,14.8,1,21.8
	c0.2,1,0.3,4-0.3,3.9c-3.4,5-2.8,12.1-2.4,19c-0.8,10.6-1.3,20.3-1.2,30.1c0,3.9-0.8,5.7-2,6.4c-3.9,0-5,9.6-4.5,18.5
	c0.3,11.8-0.3,23.5-0.3,34.3l-0.5,2.8c-1.1,2.7-1.4,6.5-2,10.3c-0.7,4.7-1.1,10.5-1,16.4l0.2,5c0.1,2,0.3,4-0.4,4.8
	c-0.7,1.8-0.9-0.2-1.4-1.3l-2.6-1.6c-1.2-0.3-2.4-0.6-2.7-3.6c-0.5-5-1.2-3.3-2.4-0.6l-1.7,6.4c-0.2,1.9-0.4,4.8-1,4.7
	c-0.9-0.2-1-2.2-1.2-4.2c0-3.9,0.1-8.8-1.4-9.2c-2.1-0.5-3.4-2.8-4.2-7.9c-0.4-3-1.9-2.4-1.8,0.5c-0.2,10.7-4.2,11.7-4.8,19.4
	c-0.2,1.9-0.7,1.8-1.3,1.6c-1.4-1.3-2.5-2.6-3.2-5.7s-1.1-5.2-2-5.4c-3.3,0.2-4.1,2.9-5.5,12.4c-0.2,2.9-0.8,5.7-1.6,5.5
	c-1.3,0.7-1-3.2-1.1-5.2l-1-14C1763.7,343.7,1762.1,337.4,1762,327.5z"/>
<path class="st32" d="M1806.8,346.5c-1.2-3.3-0.9-12,1-16.4C1808.5,336.1,1807.8,341.8,1806.8,346.5z"/>
<path class="st15" d="M1840.8,163.6l-0.4-2.1c-0.2-1,0.4-1.9,0.8-2.7c1.3-0.7,2.1-3.4,2.7-7.2c0.5-2.8,1.3-4.6,1.3-0.7l1,10.1
	c0.4,3-0.2,5.8-1.6,5.5L1840.8,163.6z"/>
<path class="st1" d="M1901.5,248.3l-0.3-0.1c-0.8-9-0.3-18.7,0.7-28.3c0.2-2.9,0.7-0.8,1.3-0.7l-0.5,17.5L1901.5,248.3z"/>
<path class="st33" d="M1704.8,103.3c0.5-2.8,1.3-5.6,2.4-4.3c1.9,2.4,3.4,6.7,4.1,12.8l-0.2,2.9c-1.6,0.6-1.9-2.4-2.9-4.7
	c-0.2-1-0.6-4.1-1.3-2.3c-1,0.7-0.9,3.7-1,5.6l-2.8,31.7c-0.3,3.9-0.5,6.7-0.2,9.8l-0.7,8.7c-0.8,2.7-0.4,8.7-2.2,9.3
	c-1.1-1.3-0.5-5-0.6-7c-0.4-13.8-0.2-28.5,0.2-44.1L1698,136c-0.2,2.9-0.5,5.8-1.6,5.5c-0.6-0.1-0.7-2.1-0.8-5.1l-0.2-20.7
	c0.2-2.9,0.5-5.8-0.1-5.9c-0.8-1.2-1.3,1.6-1.8,3.5c-1.7,6.4-3.2,10-5.7,7.4c-2.2-2.5-4.6,0.8-6.4,8.2c-2.1,7.3-3.3,7-3.8-1
	L1677,116c-0.1-3-0.1-5.9-1.3-6.2c-2-1.5-2.5-6.5-2.6-12.4l-0.4-9.9c-0.4-2.1-0.7-3.1-1.7-1.4c-2.7,3.3-3.2,2.2-3.4-6.7
	c-0.4-6-0.5-12.9-2-16.2c-1-3.2-0.7-6.1-0.1-9.8c0.8-6.7,0.8-13.5-0.3-19.7l-0.5-9c-0.6-7-0.6-14.9-3.4-17.5c-0.5-1.1-1.3-2.3-0.4-6
	l3.2,1.8l4.9,32.6c0.1,3,0.1,5.9-0.4,8.7c-0.4,1.9-0.7,4.7,0.3,4c3.3-3.1,1.8,3.4,1.5,7.3c-1.3,8.5,0.3,14.8,2.8,13.5
	c1.6-0.6,2.4,0.6,3.3,3.8c1.5,3.3,1.7,9.2,1.5,15.1c-0.1,4.9,0.2,8.9,2.1,3.5c1.1-2.7,1.9-1.5,1.9,2.4c0,3.9,0.6,7,1,10.1
	c-0.5,2.8-0.1,4.9,0.7,6.1c0.8,1.2,1.6-1.6,2-2.4c1.2-3.6,2.5-8.2,3.1-13c0.5-5.8,1.3-4.6,2-2.4c1,3.2,1.9,6.4,2.4,11.4
	c2.5-9.2,3.2-10,5.7-7.4c2,1.5,2.5,6.5,2.3,12.4l0,14.7c1.7-2.5,1-8.6,2.1-11.3L1704.8,103.3z"/>
<path class="st34" d="M1773.3,43.7c-0.8,5.7-1.1,9.6-0.5,14.6c1.1,5.2,1.7,12.2,0.9,18.9c-0.2,2.9,0,3.9,0.5,5
	c1.1,5.2,2.6,9.5,4.5,11.9c2.4,3.5,3.7,10.7,3.9,19.6c-0.1,8.8-1.1,18.4-3.8,25.6c-1,1.7-2.2,4.4-3.5,3c-1.2-0.3-1.8-3.4-3-3.7
	c-2.2-2.5-4.9-3.2-6.6,0.3c-2.8,5.2-4.4,2.8-6.7,1.3c-3-0.7-6.3-15.3-5-27.7l3.3-30.6c1.1-14.4,2.9-28.7,1.9-43.7l0.3-3.9
	c0.7-4.7,1.6-8.4,3-11c0.7-1.8,1.5-3.6,1.8-7.4c1.4,5.3,4,5.9,4.3,13.8c0.3,4,1.8,3.4,2.7-0.3c0.9-3.7,1.9-5.4,3.1-5.1l0.7,3.1
	C1775.3,33.4,1774.2,39.1,1773.3,43.7z"/>
<path class="st35" d="M1656.7-46c-0.5-9-0.6-18.8-1.4-27.8c1.1-2.7,1.9-1.5,2.2,2.5c0.5,9,1,17.9,0.8,27.7
	c-0.2,6.8-1.1,14.4,1.7,16.1l0.1,2l-0.3,3.9c-1-2.2-1.3,1.6-1.5,3.6l-0.8,10.6l-0.6-4.1c-0.2-8.9,0.2-17.6,0.6-26.4L1656.7-46z"/>
<path class="st0" d="M1880.4,565l0,11.8C1880.1,572.7,1879.1,569.6,1880.4,565z"/>
<path class="st36" d="M1879.6,630.5c0.4,0.1,0.5,1.1,0.3,4c-0.2,1.9-0.5,4.8-1,4.7c-0.4-0.1-0.3-2-0.2-4
	C1878.9,632.3,1879.2,630.4,1879.6,630.5z"/>
<path class="st37" d="M1762.2,401.2c1.7,1.4,2.7,3.6,2.8,10.5c-0.2,1.9,0.7,6.1,1.8,3.4c2.6-6.2,3.8-3,4.9,2.2l1.2,4.2
	c1.5,3.3,2.7,7.5,2.5,14.4c-0.2,6.8,0.9,12,1,17.9c0.2,1,0.4,3,1,3.2c0.7-0.8,1.1-2.7,1.3-4.6c0.8-6.7,1.7-13.3,1.3-20.3
	c0-3.9,0.4-8.7,1.3-12.4c0.5-2.8,1.4-6.5,2.6-6.2c1.5,0.4,1.5,4.3,1.5,7.3c0,7.8,1.1,13,1.4,20c0.4,3,0.9,4.1,1.8,4.4l4.9-0.8
	c1.6-0.6,2.7-3.3,3-8.1c0.2-2.9,0.6-7.7,1.9-8.4c0.4,2.1,0.2,5,0.1,6.9c-0.8,6.7-0.1,12.7,1.1,16c1.7,5.3,1.8,11.2,1.2,18.9
	c-0.9,7.6-1.5,15.3,0,22.6c1.2,4.2,0.1,9.8-1.9,12.3c-0.6-0.1-0.5-1.1-0.7-2.1l-0.4-3c-1.6-14.1-3.3-15.5-6.9-7.6
	c-2.2,5.3-3.9,3.9-4.5-4.1c-0.4-3-0.3-7.9-2-9.3c0.7,3.1,1.4,5.3,0.8,9c-0.9,3.7-2,2.4-2.9,2.2c-2.4-0.6-3.1,1.2-3.4,9
	c-0.4,12.7-2.3,25.9-2.4,38.6l-0.5,5.8c-0.4,1.9-0.9,3.7-1.5,3.6c0.1-14.1,0.1-28.2,0-42.2c-0.1-3,0.2-6.8-1-6.1
	c-1.8,0.5-2.4-3.5-3.4-6.7c-1.3-6.2-3.4-9.7-3.4-18.5l-0.9-4.1l-0.4-6c0.5-6.7,0-11.8-0.8-16.9c-0.6-4.1-1.8-7.3-1.4-12.1
	c0.1-12.7-2.6-20.3-3.5-31.3c-0.1-3-0.4-6-1.6-6.3c-0.9-0.2-1.3-2.3-1.7-5.3c0.2-1.9-0.3-4-0.9-4.1c-1,0.7-1.2,3.6-1.3,5.6
	l-1.4,17.3c-0.2,1.9,0,3.9-1,4.7c-0.6-0.1-0.4-3-0.2-5c0.3-7.8,0.3-15.6-0.2-23.6c-0.3-7.9-1.2-15-0.2-23.6c0.5-5.8-2.5-10.4-4.6-7
	l-0.6-0.1c0-3.9,0-7.8,1.3-9.5c1.8,0.4,3,3.7,4.3,6c1.1,1.3,1.4,5.3,0.7,10c-0.8,5.7-0.2,10.7,1.4,13.1c3.5,5.8,5.3,17,8,24.6
	L1762.2,401.2z"/>
<path class="st38" d="M1799.1,409.4c0-3.9,0.5-5.8,1.7-6.4c1-0.7,1.9-1.5,3,0.7c2.7,3.6,5.9,5.4,9.3,0.3c0.7-1.8,1.6-1.6,2.2-1.4
	c1.1,1.3,2.7,0.7,3.9,0c1.3-1.6,2.7-3.3,2.8-9.1l1.4-17.3c0.3-3.9,1-5.6,2.2-5.3c3.5,0.9,6.2,9.4,6.2,20.2c0.2,20.7-0.6,42-0.7,62.6
	c-0.2,6.8-1.1,13.5,0,19.6c0.7,3.1,0.6,7-0.2,10.7c-1,0.7-1.1-1.3-1.2-3.3c0-10.8-1.7-17.1-4.3-21.7l0.1-1
	c-1.8-8.3-4.5-11.9-6.7-17.4c-0.7-2.1-1.7-1.4-2.7,0.3c-1.9,4.4-2.7,8.2-2.4,15.1c0.6,8-0.5,13.6-2.4,15.1c-2.1,0.5-2.7,4.2-3.2,10
	c-0.5,5.8-1.1,10.5-3.3,11.9c-0.6-0.1-0.8,2.7-0.9,3.7l-1,8.6c-0.5,2.8-1.3,4.6-2.4,4.3c-0.9-0.2-1.7-1.4-1.6-6.3
	c2.2-4.4,2.6-10.1,0.8-14.5c-0.5-1.1-1.4-1.3-1-3.2c1-5.6,0.6-11.6,1.3-16.4c1.2-7.6,1-12.5-0.8-16.9c-0.6-0.1-0.7-2.1-1.2-4.2
	c-1.6-6.3-0.1-13.8,0.4-20.5C1799.4,421.2,1799.3,415.3,1799.1,409.4z"/>
<path class="st39" d="M1832.5,462.8c1.2,0.3,0.4,7,0.3,10.9c-0.5,5.8-0.6,11.6,0.2,16.7l-2.6,78.8c-0.2,13.7-0.4,28.4-1.2,41.9
	c-0.5,9.7,0.3,18.7-0.4,28.4l-0.3,3.9c0.7,3.1,0.4,6-0.6,7.7c-1.3,0.7-1.6-2.4-1.7-5.3l0.1-1l0.8-37.1l0.2-5.8l0.3-11.7l0.2-9.8
	l1.4-52.6l0.4-35.2c0.2-2.9,0.2-5.8,1-8.6l0.5-10.7C1831.7,469.5,1831.3,462.5,1832.5,462.8z"/>
<path class="st40" d="M1704.9,94.5c0.3-3.9,0.8-6.7,2.1-3.4c1,2.2,1.9,2.4,2.9-2.2c0.1-1,0.5-2.8,1-1.7c0.6,0.1,0.4,2.1,0.7,3.1
	c0.1,9.8,0.9,18.9,1.7,27.9l0.3,15.8l0.1,17.7l0.7,3.1c0.2,1,0.7-0.8,0.7-1.8c1.2-7.6,2.2-4.4,3.2-2.2c2.3,5.5,1.9,14.2,2.5,21.2
	c1.4,13.1,2.1,27,4.1,39.3c1.8,11.2,2.6,24.2,2.1,37.8c-0.3,3.9,0.6,8-0.1,12.7c-1.1,2.7-1.3,5.6-1.6,9.4l-1,24.3
	c-0.5,10.7-1.7,22.1-1.7,32.9c-0.5,13.6-1.8,27-2.4,41.6l-0.2,2.9l-0.2,5.8l-1,0.7c-0.4-2.1-1-3.2-1.3-2.3l0.6-48.9
	c0.2-5.8,0.1-12.7,0.9-19.4c1.9-13.3,1.8-26.1,0.9-38.1l0.2-5.8l0.8-10.6c0.2-21.5,2-44.6-0.6-64.9l-0.3-4l-1.9-25
	c-0.8-5.1-1.1-5.2-2.4-0.6c-1.2,3.6-2.1,3.4-2.7-0.7c-0.5-1.1-0.4-3-0.5-5l-1.5-33.8c-0.1-2-0.4-3,0.2-5.8c0-3.9-0.8-5.1-1.5-7.3
	c-3.3-7.7-3.3-7.7-6.1,4.4L1704.9,94.5z"/>
<path class="st41" d="M1723,311c0.1-4.9,1.4-6.5,2.4-3.3c1,2.2,1.7,5.3,2,9.3c0.2,5,0.9,8.1,1.8,11.2l2.3,8.4
	c1.1,5.2,2.6,8.5,4.9,7.1c1.6-0.6,2.6,1.6,2.5,6.5l-0.2,44.1c-0.2,1.9,0.5,5-0.6,7.7c-1.1-1.3-1.3,1.6-1.6,4.5
	c-0.2,1.9-0.1,4.9-1,4.7c-1,0.7-1.1-1.3-1.2-3.3l0.3-7.8c0.2-2.9,0.2-5.8-0.9-7.1c-1.7-1.4-2.2-6.4-3.1-10.6
	c-1.3-6.2-2.8-10.5-2.7-19.3l-0.4-2.1c-1.2-3.3-1.8-7.3-2.7-11.5c-0.7-2.1-1.2-8.1-2.2-6.4c-1.3,0.7-0.8,6.7-1.4,10.4
	c-0.8,5.7,0.3,10.9-1,16.4l1.9-42.7L1723,311z"/>
<path class="st42" d="M1722.1,322.5c0-7.8,0.8-14.5,1.1-21.3l1.5-34c0.3-3.9,0.8-6.7,2.3-6.3c1.6,2.4,1.8,7.3,2,12.3l0.1,25.5
	c-0.1,4.9,1.2,4.2,2,5.4c0.5,1.1,0.9,0.2,1.3-1.6c1.3-5.6,1.6-5.5,2.7-0.3c1,3.2,1.2,8.1,2.5,10.4c1.6,2.4,2.1,7.4,2.6,13.4
	l-0.1,24.5l-0.7,62.6c0,3.9,0,7.8-1.1,10.5l-0.3-0.1l0.2-21.5l0.1-16.7c-0.2-5,0.5-9.7,0.2-13.7c-0.4-6-0.2-12.8,0-19.6
	c0.2-5.8-0.3-7.9-2.5-6.5c-1.6,1.6-2.7,0.3-3.8-1.9l-5-19.9l-0.4-3c0.2-5.8-1.2-8.1-1.8-11.2c-0.7-3.1-1.3-2.3-1.6,1.6l-1.3,16.4
	L1722.1,322.5z"/>
<path class="st41" d="M1720.1,378l-1.1,13.5c-1.2-3.3-0.6-8,0.1-12.7l0.8-6.7L1720.1,378z"/>
<path class="st43" d="M1718.1,372.6c0.2-1.9,0.3-3.9,0.9-3.7c0.6,0.1,0.4,2.1,0.3,4l-0.2,5.8c0.6,4.1-0.4,8.7-0.1,12.7
	c-1.2,22.3-1.4,44.8-3.2,66.9c-0.7-10,0-19.6-0.1-29.5l0.6-7.7l1.4-43.8L1718.1,372.6z"/>
<path class="st44" d="M1737.7,311.7c1.6-4.5,1-8.6,0.6-11.6s-0.5-5,0.5-6.7c1.1-2.7,1.2,0.3,1.3,2.3c1.1,5.2,2.8,6.6,4.5,8
	c1.4,1.3,2.6-2.3,2.2-5.3c-0.6-7,0.7-12.6,1.7-18.2c1-4.7,0.7-8.7-0.9-8.1c-1.8,0.5-1.8-4.4-1.8-7.3c-0.3-4,0.2-6.8,1.4-9.5
	c1.8-3.5,2.5-9.2,3-15c0.7-4.7,0-14.7-1.2-15c-3-0.7-2.1-7.4-1.4-12.1l1.2-15.4l0.7-16.5c1.6-0.6,1.8-3.5,2.3-6.3
	c1.3-5.6,3.3-7,4.9-4.7c1.3,2.3,1.2,7.2,0.9,12c-1.4,9.5,0.1,17.7-0.4,27.4l0.7,3.1c1.5,3.3,2,9.3,2.5,14.4l0.7,13.9
	c0.1,2,0.1,5.9,1.4,5.3c1.3-0.7,1.3-4.6,1.7-6.4c1.2-11.5,0.1-20.6-0.3-30.5c-0.4-6,1-24.3,2.7-29.8l1.6-1.6c3-3.2,4.1-5.9,4.8-15.5
	c0.7-4.7,1-8.6,2.1-11.3c0.4-0.9,1.2-3.6,0.3-3.9c-2.7,0.3-0.7-3.1-0.1-5.9l3.3-3.1c0.7-0.8,1.2,0.3,1.4,1.3
	c0.9,7.1,2.6,5.5,4.6,3.1c3-4.2,3.5-3,3.4,6.7l0.3,11.8c0,11.8,0.2,23.6-2.7,33.7c-1.2,3.6-1.2,7.6-1.2,11.5
	c-0.4,12.7-0.8,25.3,0.1,36.3l-0.2,6.8c-0.6,3.8-0.5,5.8,0.6,8c1.6,2.4,1.6,6.3,0.6,11.9c-1.2,7.6-3.2,10-6.2,6.3
	c-2.8-2.7-6.3,3.3-6.7,12.1c-0.7,12.6-3.6,22.7-4.2,34.3c0.1,3-0.8,5.7-2,6.4c-1.2-0.3-1.2-3.3-0.9-7.1c0.5-5.8,0-11.8-1.1-16
	c-0.7-2.1-0.7-6.1-0.8-9c-0.1-2-0.2-5-1.3-6.2c-0.6,7.7,0.4,13.8-1.6,20.2l-1.5,3.6c-2.7,7.2-3.3,7-4.1-2c-0.8-5.1-1.9-6.4-3.5-0.9
	c-1.2,3.6-2.1,7.3-2.2,12.2c-0.2,5.8-0.9,11.6-2,17.2c0.5,1.1,0.4,3,0.2,5c-1.1,2.7-0.2,6.8-1.3,9.5c0.1,2,0.2,5-0.5,5.8
	c-0.7,0.8-1.1-1.3-1.2-3.3c-0.4-3-0.2-5-0.1-6.9c-0.7,8.7-2,17.2-2.4,26.9c0,3.9,0.3,7.9-0.3,11.7c-0.7,4.7-0.8,10.6-0.9,15.5
	c-0.1,8.8-0.5,17.5-1.5,27.1c-1-2.2-0.4-6-0.9-8.1l0.5-9.7l0.5-48l0.5-41.1C1739.4,320,1739.3,314,1737.7,311.7z"/>
<path class="st45" d="M1746.6,355.1l-0.8,9.6l-0.9,3.7c-0.6-0.1-0.4-2.1-0.4-3c-0.2-1-0.1-3-0.7-3.1c-0.7,0.8-0.8,2.7-0.9,3.7
	c-0.4,4.8-0.5,10.7-0.3,14.7c0.1,3,0.2,5-0.2,6.8c-1.3,5.6-1.5,11.4-2,17.2c-0.2-8.9,0.6-18.5,1-28.2l2-29c-0.2-1-0.3-4,0.6-3.8
	c0.7-0.8,1.1,1.3,0.9,4.1l-0.4,8.7l0.7,3.1c0.7-0.8,0.5-2.8,0.6-3.8L1746.6,355.1z"/>
<path class="st45" d="M1749.4,334.2c0.8-5.7,2.2-8.3,3.9-6.9c0.8,1.2,1.2,0.3,1.8-0.5l3.4-9c1.9-5.4,2.9-6.2,3.2,0.8
	c0.9,11,1.9,22.1,3.9,30.4c-1.5-0.4-2.3,2.4-3.1,5.1c-0.5,2.8-1.3,4.6-1.8,0.5c-0.1-3-0.8-1.2-1.3,0.7c-2.4,7.3-4.3,8.7-7.1,6.1
	c-0.7-3.1,0.1-8.8-1.4-9.2l-3.8-5.8c-0.4-2.1-0.3-4-0.1-5.9C1748.2,338.8,1748.9,337,1749.4,334.2z"/>
<path class="st46" d="M1734.2,302c-0.1-2-0.7-2.1-1.2-0.3c-0.6,3.8-1.3,4.6-3,4.2c-2.1,0.5-1.6-2.4-1.7-5.3l0.2-17.6
	c0-7.8,0.3-15.6-1.6-22c0-3.9-0.6-8,0-11.8c0.5,12.9,3,22.3,3.2,36.1l0.6,14.9c0.2,1,0.1,3,0.7,3.1s0.7-1.8,0.8-2.7
	c0.8-6.7,1.9-5.4,2.8-1.3l2.6,12.4c3-0.2,1.8,7.3,2,13.2C1738.6,314.8,1735.7,310.2,1734.2,302z"/>
<path class="st47" d="M1780.3,129.9c1-5.6,1.9-13.3,1.4-18.3c-0.6-8-1.9-14.2-4.6-17.8c-2.1-3.5-5.1-7.2-3.8-20.6
	c0.4-4.8-0.3-10.9-1.2-15c-0.6-4.1-0.9-8.1,0.1-12.7c1.6-5.5,1.9-12.3,2.9-17.9c0.7,3.1,1,6.1,2.9,4.7c1-0.7,1.6,2.4,2.3,5.5
	c1-4.7,2.2-9.3,3.3-4.1c0.9,4.1,1.5,7.3,3.9,7.8c1.5,0.4,2.8,6.6,4,10.8c1.8,4.4,1.7,5.3,3-3.2l0.8-5.7c0.5-2.8,1-5.6,2.2-5.3
	c0.7-0.8,1.3-0.7,1.4,1.3c0.1,3-0.7,1.8-1.3,1.6c-1,0.7-1.4,2.6-1.6,5.5c0.1,3,0.2,5,1.4,5.3c1.5,0.4,2.4,4.5,1.5,8.2
	c-1,4.7-0.5,6.7-0.2,9.8l1.1,9.1c1.2,11.1,1.2,22.9,1.3,33.7c0,3.9,0,7.8,0.8,9c0.9,0.2,1.6-4.5,2.1-7.3c0.4-1.9,0.7-4.7,1.6-4.5
	c0.8,1.2,0.9,4.1,1,6.1l-0.8,10.6c0.1,2-0.6,3.8,0.1,5.9c0.8-6.7,1.8-7.4,2.2-1.4c0.4,2.1,1.1,5.2,2,5.4c1.1,1.3,1.5,4.3,1.5,8.2
	l0.3,18.7c0.4,6,0,11.8-0.9,18.4c-0.8,5.7-1.5,11.4-1.1,17.4c0.1,5.9,0.3,11.8-0.3,18.6c-0.3,3.9-0.2,6.8,0.4,9.9
	c1,3.2,0.9,8.1,0.2,12.8c-2.5,13.1-4.2,26.4-5.6,40.8c-0.6,3.8-1.3,5.6-2.7,3.3c-0.4-2.1-0.8-1.2-1.5-0.4c-2,2.4-2.9,10.1-2,17.2
	c0.9,4.1,0.8,9,1,14c0,7.8-1.2,15.4-1.2,23.2c0,3.9-1.3,8.5-2.5,9.2c-1.6,1.6-1.8-3.4-1.9-6.4c-0.6-8-1.7-12.2-4.5-11.9
	c0.8-5.7,2.2-4.4,3-4.2c1.2,0.3,1.8,3.4,2.6,4.6c-1-10.1,0.6-23.4-2.1-30.9c0.1-7.8,0.4-15.6,0.6-23.4c0-3.9,0.9-7.6,2.2-8.3
	c1.3-1.6,2.1,0.5,2.4,3.5l0.4,3c0.4,2.1,5.1,0.3,5.5-1.6l0.4-4.8l0.1-8.8l0.5-29.3c0.2-6.8,0.8-14.5-0.3-19.7
	c-0.9-7.1-1-14-0.4-21.7c0.8-9.6-1.1-16-4.2-15.8c-1,0.7-1.8,0.5-2.3-1.5c-2.4-7.5-5.6-13.2-6.8-24.3l-0.8,2.7
	c-0.4,1.9-1,4.7-1.8,3.5s-0.7-3.1-0.5-5l0.3-14.7c-2.2,1.4-3.5,6-4,12.7l-2,2.4c-1,1.7-1.6,1.6-1.7-1.4c-0.3-4-1.4-5.3-2-8.4
	L1780.3,129.9z"/>
<path class="st48" d="M1787.3,326.9c-0.1-2,0.1-4.9-1-3.2c-0.7,0.8-1,1.7-1.3,4.6c-0.4,1.9-0.4,4.8-1.3,5.6
	c-0.9-0.2-1.2-3.3-1.4-5.3c-0.4-6-2-8.4-4-9.8c-4.8-4.1-5.6-5.3-7.7,13.8c-1.6,1.6-1.9,8.4-3.8,9.9l-2.6-8.5c-0.5-1.1-1-3.2-0.8-5.1
	c0.5-6.7-0.6-11-1.1-16c-0.4-3-0.9-4.1-2.2-2.5c0.8-5.7,0.9-11.6,0.8-17.5c-0.1-3,0.1-4.9,1-5.6c0.7-1.8,1.2,0.3,1.3,2.3
	c0.2,1,0.7,3.1,0.5,5c-0.1,4.9,0.5,9,1.4,12.1s1.5,8.2,0.8,13c-0.5,2.8-0.5,6.7,0.4,7c1.2,0.3,1.2-3.6,1.4-6.5
	c0.8-5.7,0.6-11.6,1.9-16.2c1.2-3.6,1.6-8.4,1.7-13.3c0.3-11.7,4.7-21.4,7.9-16.7c0.8,1.2,1.6,2.4,2.6,1.6c1.2,0.3,2.3-2.4,2.9-6.2
	c0.5-2.8,1.2-7.6,0.4-8.7c-2.5-2.6-2.4-7.5-1.2-15l-0.3-0.1c-0.6-11-0.6-22.7-0.3-34.4c0.1-8.8,0.6-15.5,2.6-21.9
	c0.8-2.7,1.3-5.6,1.3-9.5l0-26.5c-0.3-10.9,0-10.8-3-7.6c-0.1-3-1-6.1,0.5-9.7l3.2-6.1c0.4-0.9,1-1.7,1.3-0.7c0.5,1.1,0.4,3-0.1,4.9
	c-0.6,3.8-0.6,7.7-0.6,11.6c-0.2,1.9-0.7,4.7,0.1,5.9c0.9,0.2,1.2-3.6,1.3-5.6c0.4-1.9,0.6-3.8,1.5-3.6c0.9,0.2,0.7,2.1,0.8,5.1
	c-0.2,2.9-0.2,6.8,0.9,7.1c1.2,0.3,1.5,3.3,2,5.4c1.7,5.3,2.8,13.5,6.2,9.4l1.1,1.3c2.1,4.4,3.7,9.8,2.3,20.2
	c-0.7,4.7-0.8,10.6,0.3,14.8c0.9,4.1,0.8,9,0.7,13.9c0.3,10.9-1.2,22.3-0.5,33.2l-0.5,17.5c-0.4,4.8-0.4,8.7-2.2,4.4l-1.6,0.6
	c-2.4,4.3-2.4,4.3-3.4-2.8c-0.4-3-0.7-6.1-1.8-4.4c-1,0.7-1.8,3.5-1.8,7.4l-0.3,11.7c-0.5,6.7-1,12.5,1.5,15.1l0.1,2
	c-0.6,7.7,0,15.7,0.3,22.7c0.1,3,0.4,6-0.7,8.7c-1.7-9.2-2.5-10.4-5.8-6.4C1788.2,331.1,1787.7,329,1787.3,326.9z"/>
<path class="st44" d="M1770.1,346.2c-0.3,3.9-1.1,10.5-1.7,10.4c-1.3,0.7-1.1-5.2-1.4-9.2l-0.2-5c0.3-3.9,1.9-4.4,2.2-8.3
	c0.3-3.9,1.1-2.7,1.6-1.6L1770.1,346.2z"/>
<path class="st49" d="M1715,262.9c-0.9-7.1-1.9-14.2-3.5-20.5c-2.2-6.4-4.3-13.8-4.1-24.6c-0.2-1-0.1-2-0.5-1.1
	c-0.4,4.8-0.1,8.8-1,12.5c-0.2,1.9-0.6,3.8-1.2,3.6c-0.6-0.1-1.1-1.3-1-3.2c0.2-10.7-0.6-22.7,0.6-34.2c0.8-5.7,1.1-10.5,0.7-16.5
	l-0.2-20.7l-0.4-17.8c-1.3,4.6-0.8,10.6-2.3,14.1c-1-2.2-0.5-5,0-7.8l0.9-7.6c0.2-10.7,2-21.1,2.5-31.8c0.3-3.9,1.3-5.6,2-2.4
	c0.9,4.1,2.2,6.4,3.4,9.7l0.6,11l1.5,30.8c0.1,2,0.2,5,1.2,4.2c0.6,0.1,0.5-2.8,0.9-3.7c1-5.6,1.7-6.4,2.6-2.3
	c1.6,17.7,3.1,35.4,4.5,53.1c0.9,12-0.8,25.3-0.6,38.1c0.1,5.9,0.5,12.9-1.2,19.3C1717.2,274.2,1716.6,273.1,1715,262.9z"/>
<path class="st50" d="M1720.2,270l0.3,11.8c-0.3,7.8,0.3,15.8-1.3,24.2l-1.3-6.2c-1.5-8.2-0.8-19.8-3.7-25.5c-1.5-3.3-2.4-3.5-3.9,0
	c-1.2,3.6-2.5,5.3-3.5,2.1c-2.1-7.4-4-14.7-4-25.5c0-10.8-0.2-20.7-1-29.7l-0.8-19.8c-0.1-3,0.3-7.8-0.5-9
	c-1.7-1.4-1.6-6.3-1.6-10.2c1.3-5.6,1.9-12.3,2.7-19l1.8-23.1c0.2-1.9,0.3-3.9,1.2-3.6c0.7-0.8,1.1,1.3,0.9,4.1l0.4,44.3
	c0.1,2,0.2,5-0.2,6.8c-1.9,13.3-0.3,26.4-1,39c2.2-5.3,0.5-14.6,2.9-21.8c0.2,5,0.9,8.1,0.8,13c0.1,3,0.1,5.9,0.9,8.1
	c2.8,10.5,5.6,21,6.9,35.1c0.6,4.1,1.2,7.2,2.9,1.7c0.4-1.9,1-1.7,1.6-1.6L1720.2,270z"/>
<path class="st51" d="M1695.2,141.1c-0.4-7-1.4-12.1-3.8-12.7c-0.9-0.2-2.1-0.5-3.1-2.7c-1.5-4.3-3.3-3.8-5.4-0.4
	c-0.4,1.9-1.3,1.6-2.3,2.4c2.5-8.2,5.1-11.5,7.9-8.8c1.4,1.3,2.4,0.6,3.2-2.2c0.8-2.7,1.6-4.5,1.8-7.4c0.4-1.9,1.3-4.6,1.9-4.4
	c1.1,1.3,1.2,4.2,0.9,7.1l-0.1,8.8c0.1,6.9-0.5,13.6,0.5,20.7c1.9-8.4,0.8-17.5,3.2-25.7l0,18.7c-0.5,13.6,0.4,25.6-0.3,38.2
	c0.1,2,0.3,4-0.5,5.8c-0.7-3.1-0.4-6-0.1-9.8c0.2-2.9,0.6-7.7-0.5-9c-1.4-1.3-2.1-4.4-2.8-6.6L1695.2,141.1z"/>
<path class="st49" d="M1701.5,163.3c-0.5,6.7-0.5,14.6-2.7,19l0.8-9.6C1701.5,172.1,1700.4,166,1701.5,163.3z"/>
<path class="st52" d="M1818.2,678.1c0.6,0.1,1.5,0.4,1.1-2.7c-0.6-4.1-0.2-8.9,0.1-12.7c0.3-3.9,0.2-6.8-0.4-9.9
	c-1.9-10.3-2.8-21.3-2.4-34c0.3-3.9,0.2-6.8-0.2-8.9c-1.4-9.2-1.5-19-0.7-29.6c0.2-2.9,0.8-5.7,0-7.8c-0.7-2.1-0.5-5-0.2-8.9
	c0.2-2.9,0.5-6.7-1.1-5.2c-0.7,0.8-1.4-1.3-1.2-3.3c-0.3-7.9-2.3-8.4-4.7-9c-1.5-0.4-3.2-0.8-3.8-4.9c-0.6-7-2-13.2-1.6-21
	c0.3-3.9,0-7.8-1.8-7.3c-1.8,0.5-2.7-3.6-2.8-10.5l0.2,1c0.7,2.1,1,6.1,2.4,4.5c1.6-1.6,1.6-5.5,1.9-9.3l0.5-6.7
	c0.2-1.9,0.3-3.9,1-1.7c1.5,3.3,1.9-1.5,2.2-5.3l1-8.6c0.1-4.9,0.8-6.7,2.4-7.3c2.1,0.5,2.9-2.2,3.1-9l-0.4-7
	c-0.3-4,3.5-17.8,4.7-17.5l0.8,1.2c1.8,7.3,5.1,8.1,6.7,17.4c0.4,3,1.2,7.2,2.4,7.5c2,1.5,2.2,6.4,2.4,11.4l0.6,11l-1.3,70.3
	c-0.4,12.7-0.4,24.4-1.1,37c0.1,3-0.6,7.7,0,10.8l-0.5,5.8c-3.8-1.9-3.1-13.5-3.6-22.5c-0.4,8.7-2.5,13.1-3.9,18.7
	c-3,15-3.5,32.5-0.8,44.9c0.9,4.1,0.8,9,0.7,13.9c-0.5,5.8-0.9,11.6,1.3,14.1c1.4,1.3,2.3,13.3,1.9,18.1c-0.4,0.9-0.6,3.8-1.2,3.6
	c-0.6-0.1-0.4-2.1-0.6-4.1l-0.1-6.9c0.1-4.9-0.6-7-2.1-7.4c-1.6,0.6-3.1,1.2-3.6,7.9C1815.5,682.3,1816.3,679.6,1818.2,678.1z"/>
<path class="st17" d="M1874.9,613.7c-0.4-3,0.3-6.8,0.5-10.7C1875.4,605.9,1875.1,609.8,1874.9,613.7z"/>
<path class="st49" d="M1721.1,282c-0.1,8.8,0.1,17.7-1.8,27l-0.1-3l0.5-10.7l0.5-25.4L1721.1,282z"/>
<path class="st0" d="M1664.2-27.1c-0.6-4.1,0.1-4.9,1.6-4.5c0.9,4.1,1.1,9.1,0.9,15C1663.8-15.4,1664.4-23.1,1664.2-27.1z
	 M1656.1,60.2c0.6,0.1,0.7,3.1,0.5,5c-0.1,1-0.5,2.8-1.1,2.7c-0.6-0.1-0.7-2.1-0.6-4.1C1655,61.9,1655.5,60.1,1656.1,60.2z"/>
</svg>
