<?xml version="1.0" encoding="utf-8"?>
<!-- Generator: Adobe Illustrator 22.1.0, SVG Export Plug-In . SVG Version: 6.00 Build 0)  -->
<svg version="1.1" id="Layer_1" xmlns="http://www.w3.org/2000/svg" xmlns:xlink="http://www.w3.org/1999/xlink" x="0px" y="0px"
	 viewBox="0 0 1920 1417.6" style="enable-background:new 0 0 1920 1417.6;" xml:space="preserve">
<style type="text/css">
	.st0{fill:#751A2C;}
	.st1{fill:#661626;}
	.st2{fill:#350D1B;}
	.st3{fill:#441531;}
	.st4{fill:#44121E;}
	.st5{fill:#5B152F;}
	.st6{fill:#922032;}
	.st7{fill:#50142E;}
	.st8{fill:#BE594E;}
	.st9{fill:#A32433;}
	.st10{fill:#851D2C;}
	.st11{fill:#551627;}
	.st12{fill:#40111E;}
	.st13{fill:#D14C46;}
	.st14{fill:#290F1D;}
	.st15{fill:#E1534D;}
	.st16{fill:#AC4647;}
	.st17{fill:#A62F3A;}
	.st18{fill:#DF6359;}
	.st19{fill:#E87169;}
	.st20{fill:#51121E;}
	.st21{fill:#11123F;}
	.st22{fill:#55162C;}
	.st23{fill:#601326;}
	.st24{fill:#851E33;}
	.st25{fill:#621B2E;}
	.st26{fill:#791529;}
	.st27{fill:#862B3E;}
	.st28{fill:#A14458;}
	.st29{fill:#843746;}
	.st30{fill:#7F3443;}
	.st31{fill:#B25061;}
	.st32{fill:#642133;}
	.st33{fill:#501B31;}
	.st34{fill:#461328;}
	.st35{fill:#7B2A44;}
	.st36{fill:#9A1F2E;}
	.st37{fill:#902631;}
	.st38{fill:#9B4A5D;}
	.st39{fill:#D24F3F;}
	.st40{fill:#C84942;}
	.st41{fill:#CB6351;}
	.st42{fill:#BA3E44;}
	.st43{fill:#BB4B48;}
	.st44{fill:#AE282D;}
	.st45{fill:#CF505B;}
	.st46{fill:#6A2F44;}
	.st47{fill:#963541;}
	.st48{fill:#C0433A;}
	.st49{fill:#68293B;}
	.st50{fill:#B55857;}
	.st51{fill:#903A51;}
	.st52{fill:#7D2331;}
	.st53{fill:#7E1929;}
	.st54{fill:#95283B;}
	.st55{fill:#64192B;}
	.st56{fill:#99313A;}
	.st57{fill:#542038;}
	.st58{fill:#6C2739;}
	.st59{fill:#A25263;}
	.st60{fill:#D53E34;}
	.st61{fill:#A02C36;}
	.st62{fill:#A43939;}
	.st63{fill:#C4342D;}
	.st64{fill:#D4372D;}
	.st65{fill:#822C3E;}
	.st66{fill:#66273A;}
	.st67{fill:#6E2939;}
	.st68{fill:#6C1423;}
	.st69{fill:#E48872;}
</style>
<path class="st0" d="M358,1h86v4c-5,4-9,9-16,11c-7,1-9,4-7,11v3c-9,12-17,25-28,35c-5,4-9,9-10,15c-2,6-5,10-9,14c-9,8-13,17-15,28
	c-1,11-6,19-13,27c-3,3-5,6-5,10c-1,8-4,14-12,17c-5,2-7,7-9,12s-5,9-9,13c-5,3-7,9-8,15c-1,10-3,20-6,29c-2,5-4,8-9,9c-4,0-5,3-2,7
	c5,8,5,8-1,16c-4,5-3,7,3,8c3,1,6,1,7,4c1,4-1,7-4,9c-5,4-9,8-12,13l-8,16c-6,7-13,4-21,4c6,5,6,11,3,17c-2,6,0,9,6,12c4,1,7,4,7,9
	c1,20,3,40-8,59c-3,5-3,10,3,14c4,2,4,7,6,11c4-2,4-5,5-7c1-4,3-8,6-11c6-5,13-3,15,5v13l-6,35l-10,15c-2,5-4,11-2,18c2,8,2,8-6,11
	c-2,1-2,1-2,3c-1,5-3,10,1,15c4,4,4,9-1,13c-2,1-4,3-4,6s0,5-2,6c-3,1-4,2-5,5c0,2-1,5-4,3c-2-3-1-6-1-9c2-10,2-21,5-31v-4
	c-4-10-1-20,1-30c1-6,4-11,9-16c-6,0-9,3-11,6l-11,16c-2,2-3,5-1,8c5,7,2,14,0,21c0,2-2,5-4,5c-3-1-3-3-4-5l-1-5c-4,5-3,10-2,15
	c0,6-1,12-4,18c-2,6-6,10-13,9c-3-1-5,1-7,3s-3,6-7,5c-3-2-4-5-4-9v-4c2-5,3-10,3-16c-1-3-1-6-6-5s-5-3-5-6c-1-12,0-24,6-36l5-14
	c2-10,9-19,15-28c4-7,6-15,8-23c2-6-9-16-15-15c-3,0-4,2-5,4c-3,6-6,10-7,16l-3,4c-4,0-4,3-4,6c-3,8-5,16-6,25c-1,4,1,9-5,11l-2-4
	c-2-4-5-3-9-2c-12,5-19,16-28,25c-11,11-13,26-18,39c-5,14-15,27-17,42c0,2-1,3-3,4l-2-1c-2-3-2-7-1-10c4-13,4-27,6-36l-7,37l-4,23
	c-1,3-1,7-5,7c-3-2-3-6-3-9l2-12c4-19,2-37,0-56c-2-14-2-27,1-41c5-17,8-35,9-53c1-8,1-16,10-20c4-1,6-7,7-11c2-7,5-15,6-23
	c0-3,1-6,4-6c5,4,0,8,1,12c-1,1,1,1,0,0c1-2,1-3,3-2c-0.7,10.4-1.7,20.7-3,31c-1,5-1,9,2,14c2-7,4-14,4-22c1-11,3-13,13-16l6-2
	c12-4,16-12,13-24c-2-7-3-14-1-21s7-9,13-6c3,1,5,0,6-2l6-10c2-2,4-4,7-4c4,0,6,3,7,6c2,5,3,10,2,15c-3,22-7,44-13,65l-2,7
	c1-4,3-8,7-12s6-11,7-17c3-18,9-35,12-52l9-47c1-5,2-11,5-17c3-5,4-10,4-15c1-12,3-22,9-32c6-8,8-18,11-28c1-4,0-9-1-13
	c-3-12,2-20,15-20c2,0,3-2,3-4v-11c0-6,1-12,5-17c3-3,2-7,2-11c2-10,4-12,14-13h12c4-2-1-7,1-11c1-3,0-6-1-9v-8c1-2,3-4,5-4
	c3-1,5,1,6,3s1,4,3,5c2,0,2-3,4-4c3-2,2-5,0-7c-5-6-4-12,4-14c9-3,16-7,15-18c0-4,3-5,7-6c3-1,5-3,5-7c-1-2,1-4,4-5s8-1,8-6
	c2-6,3-13-1-19l-4-8V1z"/>
<path class="st1" d="M358,1l6,14c6,7,2,15,0,23c0,2-4,3-7,3c-4,1-7,2-4,7c2,3,0,4-3,4c-5,1-11,1-9,10c2,6-7,13-15,15c-3,1-7,1-8,5
	s3,5,5,7c3,3,4,6-1,8c-2,1-3,2-2,4c0,2,0,4-3,4c-2,1-4-1-4-3l-1-3c-1-2-1-6-5-5c-3,1-6,4-4,8c3,5,4,9,1,14c-1,2,1,4,2,6c3,5,0,7-4,6
	c-6-3-12,2-17-2c-2-1-4,2-4,3c-2,4-3,7-3,11c1,5,0,9-4,12c-2,1-3,4-3,7l1,20c0,5-1,5-5,4c-9-3-18,5-15,14c5,12,1,22-3,32l-8,19
	c-4,6-6,13-6,21s-3,16-6,23c-4,11-6,24-8,35c-4,22-8,44-14,65c-3,9-4,19-8,29l-2,4c-9-1-4,7-7,10c-1,2,1,6-3,5c-2,0-1-4-1-6l7-31
	c3-10,5-21,6-33c0-7,3-14,1-21c-1-3-1-7-5-7c-4-1-5,2-6,5l-8,12c-2,3-3,3-5,0c-4-5-9-4-11,2c-3,6-3,13,0,20c4,8,1,15-2,22
	s-12,6-18,8c-10,3-11,4-11,14c0,9-4,17-5,26l-2,2c-2,0-3-1-3-2c-1-6-2-12-1-18l5-31c-3-5-1-9,0-13l4-17c-2,1-3,3-5,1c-2-4-1-9,1-13
	c5-14,6-29,8-43c2-12,1-24-3-35c-2-7-2-13,0-20v-7c-4-7-2-15-1-23c0-7,4-12,11-15l7-2c4-1,7-3,4-8c-2-3-1-6,2-7c8-4,9-11,10-18
	c1-12,7-22,10-33c2-7,9-13,16-18c8-7,16-14,21-23c6-9,13-17,18-27c2-4,6-5,11-3l5,2c8-2,11-7,7-13c0-3,2-5,4-7c4-2,7-5,9-9
	c2-3,6-4,10-3c5,2,7-1,8-5s2-8,6-10c3-1,3-3,3-5c0-5,2-10,7-13s10-8,13-14H358z"/>
<path class="st2" d="M98,1h90c3,4,1,7-2,10c-4,3-7,7-10,12c-2,1-3,3-5,3c-10,3-15,11-19,19l-8,9c-5,3-8,7-8,13c-3,19-12,34-26,47
	c-6,7-11,14-15,22c-4,9-11,16-18,23l-15,15c-7,6-8,15-4,23l5,9c4,7,5,14,1,21c-1,2,0,3,1,5c6,6,6,10,0,16l-5,6c-4,3-5,8-3,13l2,9
	c1,4,0,8-5,10c-4,2-6,5-7,9c-1,5-5,9-7,13c-1,3-3,5-1,8s5,0,7,0c3-1,7-2,8,2c3,5,2,10,0,14s-6,3-9,2l-6-2c-2,0-4,0-5,3c-2,2,1,3,3,4
	c6,5,5,10-2,13l-6,2c-5,0-6,2-7,6c-1,9-6,16-8,24c-1,3-4,4-7,4s-5-2-5-5V132c0-4,4-6,6-7c9-4,15-9,20-17c3-6,11-9,16-13
	c4-3,8-6,8-12l3-6c4-4,5-9,5-14c-1-6,2-10,8-13c6-2,9-6,10-13C80,23,90,12,98,1z"/>
<path class="st3" d="M1,1306.8L-4.4,985l6.4-7V782c3-7,5-14,11-20l5-11l3-7c3-4,6-8,12-6c5,2,4,7,4,11l1,7c3-4,4-8,4-12
	c1-7,3-13,7-18c7-10,8-22,9-33l2-23c1-11,5-19,11-27c2-2,4-4,7-3s4,4,4,6c-1,8,0,16-4,24c-3,8-2,17-3,26l-3,12l-2,4c2,12-5,23-5,36
	l-1,11c0,2-1,4,1,5c3,1,4-1,5-2c6-9,5-19,4-29l1-3c5-5,6-5,10-1c5,5,8,10,8,17c0,3,0,6,2,8c6,10,6,21,2,31c-2,4-1,7,2,9
	c7,7,8,16,7,26v11c1,2,0,4-1,6c-7,12-8,24-6,38c1,9,0,18-3,28l-16,42c-4,10-4,21-3,32C78,980,3,1304.8,1,1306.8z"/>
<path class="st4" d="M219,1h26c-1,10-4,18-9,26l-4,7c0,8-4,14-9,20s-10,13-11,22c-1,5-4,9-9,13c-10,9-19,19-25,32c-7,11-15,20-25,27
	c-4,2-6,4-6,8c0,6-4,11-6,17c-2,3-4,4-8,4c-3,0-2,2-3,4c-4,9-5,19-7,29c-5,4-6,3-7-2l-2-8c-2,9-8,15-16,17c-3,1-4,3-4,5
	c0,6-2,12,1,17c2,4,2,8,1,11c-2,9-1,18,4,26c6,10,6,20,3,30c-3,12-2,24-5,36c-1,3,2,6,4,9c5,5,5,9-1,13l-15,10c-6,4-12,7-20,5
	c-3-1-5,1-7,3c-4,6-10,11-12,18c-1,4-5,7-6,10c-4,9-2,17,1,24c5,14,5,27-3,40c-2,3-2,7-3,11c-1,6-2,11-8,14l-17,1c-3,0-7,0-9-3V394
	c0-3,3-4,6-4c5,0,7-4,8-8c2-8,7-14,6-23c0-3,3-5,6-4h9c14-2,18-6,19-19c0-7,3-13,4-20c1-6,2-11,1-17c0-3,0-6,2-8c4-4,5-7,2-12
	c-1-2,1-4,3-5c7,0,10-5,12-10c1-6,1-13-3-17c-8-9-11-19-10-30c0-4-1-7-3-11l-6-9c-4-10-3-16,5-24c7-7,14-14,24-19c3-1,5-5,6-9
	c4-10,11-18,20-23c11-5,17-15,18-26c1-12,8-21,16-29c4-5,18-5,22,0c3,3,2,8-2,11c-6,5-6,8-3,11c3,4,14,4,16,1l17-23
	c7-10,13-21,10-34c-1-3,1-7,4-9c6-4,8-10,7-17C217,5,218,3,219,1z"/>
<path class="st5" d="M195,981l-1,4h-6c-3-3-2-7-1-10l10-65v-7c0-7,0-7-6-5c-3,1-4,0-6-1c-5-3-9-1-11,3c-6,19-22,30-32,46
	c-3,4-5,9-11,10c-8,2-14-1-19-8c-2-5-6-7-11-7c-8,1-9,0-9-8v-11c0-9,4-13,13-15c10-2,13-9,8-18c-3-5-5-9,1-14c-5-1-6-5-5-9
	c1-10,5-18,14-23c3-1,6-2,6-6c0-3-4-3-6-4c-6-3-6-5-3-11c5-9,13-18,13-30c-1-5,2-8,4-12c4-5,8-10,8-17c0-3,0-7-6-4c-5,2-7-1-7-5
	c-1-6-2-12,1-17c1-2,4-3,6-2c6,3,14,3,19,9c1,2,3,6,6,3s8-6,5-11c-2-5-1-9,3-13c5-4,11-7,18-5c3,1,5,4,5,7c0,10,2,20-5,29
	c-2,3,0,8-4,10c-3,1-4,4-4,7l-10,58c5-16,7-36,10-56c0-3,0-5,3-6c10,0,20,3,30,0c5-2,7,3,8,7v8c-4,15-4,31-7,46c-2,10-7,15-17,16
	c-1,0-2,0-3,2c4,5,5,11,3,18l1,3c10,4,9,14,7,21l-9,56c2-1,1-5,5-3c3,4,1,10-1,14C198,963,197,972,195,981z"/>
<path class="st6" d="M482,1h24c3,5,1,9-1,14c-1,2-3,2-5,1c-6-3-10-2-14,4l-3,5c-6,18-16,33-26,49c-2,3-4,6-8,5s-6,1-6,4
	c0,11-7,20-9,30c-1,6-7,10-12,14c-4,3-7,7-9,12c-2,7-6,13-12,18c-3,2-4,5-4,9c0,7-2,13-7,18l-11,20c-1,3-3,5-5,6c-5,4-6,8-6,14
	l-2,23c1,12-5,21-7,32c-1,4-2,7,0,11c1,4,0,8-3,11c-4,3-4,7-4,11c1,15,0,29-8,42c-5,9-10,17-10,28c0,5-3,9-7,12c-1,1-3,2-3,4v4
	c2,1,3,0,4-1c2-1,3-4,4-6c3-8,13-11,18-4c8,10,16,20,11,35l-2,11c0,5,1,7,6,5c8-3,17-3,25-5c6-2,10-4,15-8c6-6,8-6,15-1
	c6,3,11,4,17,4c3,0,6-1,8-3c5-5,10-5,16-1c5,2,11,3,13,9c0,10-11,19-21,16c-3,0-4-3-5-5c-5-7-14-8-19,0l-11,17c0,1-1,4-4,3l-1-2
	c-2-9-6-12-15-9c-5,2-11,2-16,2s-10,0-14-4c-3-3-9-2-13-2c-12,0-14-2-14-14v-12c0-5-2-7-7-7h-13c-4,0-7,2-9,5c-8,10-10,23-12,35
	l-8,38c-1,2-1,4-3,4s-3-3-3-4l1-11l6-36c3-14,7-28,5-43c0-3,1-6,4-8c4-3,4-8,4-13c2-12,1-25,3-38c1-9,8-17,5-28c9-12,5-28,10-41
	l4-10c1-3,2-7,0-11c-3,1-4,5-7,6c-4,0-8,1-11-3c-2-4-1-8,2-12c1-2,3-2,3-4c2-4,4-9,4-13c2-9,8-14,15-18c4-3,7-1,9,2
	c9-11,11-24,13-38l4-16c2-4,4-7,8-9c10-2,14-10,17-19c3-5,5-9,10-12c6-4,9-9,10-16c0-8,3-14,9-19l3-6c2-7,5-13,12-16c3-1,3-5,3-7
	c0-6,2-12,5-16s4-4,7,2C456,29,468,15,482,1z"/>
<path class="st7" d="M134,737v16c0,2-1,4,1,5s3-1,4-2c4-4,6-3,8,2c2,7,0,13-4,18c-6,7-9,16-9,25c-1,4-2,8-6,11c-2,1-2,5-3,7
	c0,2,0,4-2,5c-1,1-5,1-4,4c1,2,4,3,6,4c3,1,7,0,7,5c0,4-3,6-7,8c-11,4-17,17-13,28c3,0,2-5,5-3l1,2c0,2,0,4-3,6c-5,1-3,5-1,8
	c8,12,4,22-10,23c-7,1-9,6-10,11v15c0,4,1,5,5,4c7-1,12-1,15,7c2,6,8,8,14,8c6,1,9-3,11-8l2-2c3,6,0,10-4,13
	c-8,5-31.9,178.6-35.9,186.6c-2,4-116.9,102.8-119.9,104.8L76,985l-1-27c0-12,7-22,10-33c5-15,14-30,12-47c-2-11-1-21,1-32l1-4
	c9-8,3-18,5-27c2-8-2-14-8-19c-4-4-4-7-1-12c4-9,4-18-1-26c-2-3-4-7-4-11c0-6-2-11-6-16c-4-4-5-3-8,0c-3-3-2-5-1-8l5-23c0-4,3-8,8-7
	c4,1,5-1,6-4c2-7,4-14,8-21l1-5c-3-13,0-26,2-40c3-17,11-33,14-51l1-4l3-2c2,0,3,1,4,3v14c-3,16-4,33-5,50l8-53c1-13,4-25,9-37
	c0-3,2-6,5-5c4,0,4,3,5,6c1,8,3,16,6,23s2,14-1,20c-2,3-3,5-1,8c3,5,1,9-1,13c-5,9-9,19-9,30c-1,5,0,10,3,14s4,8,5,12v5l-8,31
	c-5,7-7,15-6,24C137,728,137,733,134,737z"/>
<path class="st8" d="M769,1h60c3,4,1,7,0,10c-1,4-3,8-1,13l-4,23c-2,8-5,8-12,3c2,12-5,22-5,33c-1,5-4,9-7,14c-4,9-8,20-3,30
	c0,5-2,9-4,13l-2,1l-2-3c1-9-6-14-9-20c-2-4-5-2-7-2c-8,3-10,2-12-6c-2-6-3-6-8-3c-12,7-18,17-23,28l-10,16c-3,4-8,4-12,3
	c-9-3-10-2-10,7c-1,10-4,20-8,29c-3,0-4-2-5-3l-2-7l-2-43l2-5c5-8,8-17,6-27c-1-7,1-15,3-22c1-3,3-7,7-7c5-1,4-5,6-7c3-6,8-8,12-12
	c7-7,12-15,14-26c0-3,0-10,5-9c6,1,2,7,2,10l1,13c3-2,4-5,4-7c2-9,10-15,12-24l2-1C765,13,765,5,769,1z"/>
<path class="st9" d="M364,247c-1-9,2-18,2-27c0-5,1-9,6-10l4-4c3-10,8-18,14-25l4-7c-2-18,17-26,19-42l5-5c7-2,8-11,14-13l1-4l1-6
	c5-7,6-15,7-24c1-3,3-8,8-3c3,2,4-1,5-2c4-11,13-19,18-30c3-10,8-19,13-28c2-4,7-5,11-7c4-1,4,4,6,6c4-5,2-10,4-15h101c3,3,3,6,3,9
	c0,9-4,17-8,25l-3,2c-4-4-5-9-5-14c0-3,0-6-2-8c-1-1-2-3-4-2c-4,3-10,3-13,7c-5,7-12,10-20,10c-5,1-8,2-8,7l-2,3c-3,5-8,5-11,0
	l-13-21c-2-2-3-5-6-4c-3,0-2,3-2,6c-2,9-6,18-9,26c-2,5-5,8-10,7c-5-2-6-7-5-12c0-2,2-5,1-10c-4,7-8,13-4,20c2,4,1,7-1,10l-8,10
	c-6,6-11,13-12,22c-1,6-4,11-10,15s-11,9-12,16c-1,5-6,7-8,11c-2,7-6,14-9,20l-4,7c-13,12-15,29-16,46c-1,14-4,26-10,39
	c-2,5-3,10,3,13c3,2,4,4,2,6c-6,9-3,20-5,29l-1,4c-2,7-1,12,8,15c7,2,9,11,6,20c-3,10-6,19-7,28c0,5-1,10,2,14l1,7c-2,5-3,11-2,16v4
	c-2,4,0,5,4,4c6-2,13-1,18-6c3-2,6,0,7,2c3,3,7,5,3,10c-10-5-20,0-29,3s-14,1-13-9l1-7c2-8,3-15-2-23v-10c4-11,4-23,8-34
	c2-4,2-8-1-13c-6,12-15,22-12,35c1,6-3,10-8,11c-5,0-8-3-9-8c-1-8-1-15-8-21c-2-1-1-4,0-7c4-9,2-18,3-27c1-3-1-5-3-7c-4-6-5-12-3-20
	C361,267,367,258,364,247z"/>
<path class="st10" d="M482,1c0,3-2,5-3,7c-14,12-24,28-37,42h-1c-3-3,3-5,0-9c-4,6-7,12-7,19c0,5,1,9-6,9c-5,1-7,6-7,11
	c-1,5-3,8-7,11c-4,4-6,9-7,15c0,9-3,16-12,20c-3,1-6,3-6,6c0,8-7,13-10,19l-4,4c-15,1-15,13-16,23l-6,28c-2,7-8,11-9,18l-1-1
	c-4-10-4-10-13-3c-5,4-8,9-9,16l-3,10c-4,2-7,4-8,8l-1,3c-8,4-7,11-7,18c1,14-3,26-12,36l-10,13c-2,3-6,6-10,2c4-11,8-22,19-29l4-4
	c1-4,1-6-4-5c-4,0-7,0-9-4c-1-4,1-6,4-9c5-4,5-7,0-12c-2-2-3-5-3-8c1-3,4-4,7-3c3,0,5-2,6-5c4-10,6-21,7-32c1-6,2-12,8-16
	c4-3,7-7,9-12c2-7,5-12,13-15c5-1,8-7,8-13c-1-5,2-9,6-13c6-5,10-13,11-20c2-14,7-26,18-36c3-3,5-6,6-10c2-8,7-14,14-19c3-2,5-4,7-8
	c4-9,13-15,19-23c1,0,2,3,3,1c2-2,0-4-3-4c-5-3-2-6-1-9c2-3,4-6,7-5c4,2,6,0,8-3c3-4,9-3,10-9H482z"/>
<path class="st11" d="M122,209c-2-12,5-22,6-34c1-3,3-1,6-1c3,5,1,11,2,17l3-4c2-8,5-14,11-20c4-3,5-7,6-11c2-6,6-11,11-15
	c12-8,20-20,27-31l6-7c5-5,8-11,9-19c2-9,6-19,12-28c6-6,11-13,12-22c0-3,2-5,3-6c3-4,5-9,6-14c1-6,4-10,10-13h61c1,6-1,9-6,12
	c-7,4-14,9-11,19c0,2,0,3-2,3c-6,0-7,5-8,10c0,6-5,8-10,5c-3-1-6,0-7,2c-2,5-6,8-11,11l-4,4c-1,6-3,10-7,15c-2,2-3,1-5-1
	c-4-4-8-3-10,2c-5,12-15,21-20,33c-3,5-9,10-14,13c-8,4-11,14-19,18l-1,1c0,12-10,21-10,33c0,5-2,11-4,16l-1,1c-6,3-12,5-5,14
	c2,1-1,4-4,5l-13,3c-3,1-5,3-6,5c-2,9-5,18-1,27c2,3,3,6,2,9c-5,10-2,19,1,27s5,16,2,25c-3,6-2,13-2,19c-1,10-5,19-8,28
	c-3-4-2-8-1-12l3-27l-1-9c-3-6-5-12-5-19c-5,2-8,4-9,9c-1,4-4,7-7,9s-6,2-6-3c2-14,2-29,7-42l2-2l1,1l2,5l2-17c0-4-1-6-3-8v-10
	C117,227,118,217,122,209z"/>
<path class="st12" d="M219,1l1,7c1,7,0,13-7,17c-3,2-6,5-5,9c5,11-1,21-6,30c-4,7-9,14-15,20l-2,2c-2,3-2,8-5,9l-14-1c-4,0-6-3-7-7
	c-1-5,1-8,5-9s5-3,5-7c-1-4-4-3-6-4c-12-3-11-1-20,7c-8,8-7,18-10,26c-4,9-7,20-19,24c-10,5-17,13-20,24c-2,5-5,9-10,11
	c-4,1-8,4-11,7l-9,9c-8,7-9,14-3,23c6,8,9,17,8,28c-1,6,2,12,6,16c9,10,10,21,2,31c-2,4-3,4-11,4c-1,1,0,2,1,3c5,4,5,8-1,11
	c-3,1-3,3-3,6c2,16-6,31-6,46c0,7-6,13-13,14c-5,0-11,3-17,0c-3-2-4,2-3,3c0,11-5,19-9,29c-2,6-8,3-12,4c-2-3-2-5,0-7c5,2,9,1,10-5
	c1-8,7-15,7-23c0-4,4-6,8-6c3,0,5,0,8-2c4-3,4-6-1-8c-3-2-7-3-5-7c1-4,5-6,9-5l4,1c2,0,5,4,8,1s3-8,2-12s-5-3-7-2c-3,2-6,5-10,1
	c-3-4-1-7,1-10l9-18c0-2,2-5,4-5c10-2,7-10,5-15c-4-9-1-16,6-22c2-2,6-4,6-8l-1-4c-1-4-8-3-8-7c0-2,5-4,6-8c1-6-1-11-4-15
	c-2-5-6-8-7-13c-1-8,0-15,7-21c10-9,20-19,28-30l5-7c2-10,9-16,15-23c14-13,23-29,25-49c1-6,5-9,9-12c4-2,5-4,7-7c5-8,9-18,20-20h1
	c5-8,15-13,18-23L219,1z"/>
<path class="st13" d="M826,24c-3-5,1-10,1-15l2-8h61v4c-4,6-6,15-15,19c-6,3-7,10-6,16c0,7-1,13-4,19c-2,4-2,9-2,14c0,7,4,10,10,9
	c7-1,11,5,8,11c-4,8-4,17-5,26l-1,14c-4,11,0,22-2,32c-1,2,0,3,2,4s3-1,4-2c4-4,8-5,12-1c3,1,3-2,4-3c3-10,10-16,20-17
	c7-1,10-4,11-11c1-6,4-11,9-15c2-1,4-3,7-2c2,3,1,7,1,10c0,2-1,5-4,5c-5,0-5,3-4,6c0,9-6,15-15,15c-12-1-16,2-20,14c-2,9-3,9-11,7
	c-3-1-4,0-5,1c-1,4-3,7-6,10c-7,4-13,1-15-6l-2-7c0-5-1-9-8-4c-2,2-5,0-6-3l-1-34c-6,8-10,8-19,4c-9-5-14-13-14-23l-3-9
	c-1-6,1-12,4-17c3-6,6-13,6-20c0-5,2-9,4-13c5-8,5-17,6-26C830,26,830,23,826,24z"/>
<path class="st14" d="M98,1c1,5-2,7-4,10c-8,8-13,17-14,28c0,7-4,11-10,13s-9,5-8,12c0,5,0,11-6,14l-1,2c0,14-12,18-21,24l-6,7
	c-4,11-15,15-25,18l-1-4V6l1-5H98z"/>
<path class="st15" d="M891,169c-4-5-7-6-10,0c-1,3-4,4-7,4c-3-1-4-4-4-7c3-12-1-25,3-37c3-8,1-17,3-25c0-5,0-9,4-12c2-2,2-4,0-6
	c-2-1-3-3-6-2c-2,0-4,5-7,1c-3-3-7-6-6-11c0-7-1-14,4-19c2-3,3-6,2-10c-3-7,1-14,3-20l3-4c11-1,11-13,17-20h46c3,3,1,7,0,9
	c-3,6-5,13-5,19c0,4-1,7-3,10c-9,14-10,31-14,47c-1,4,0,8,1,13c0,6-2,11-8,14c-4,2-8,5-4,11c2,4,0,7-4,8c-4,2-5,5-4,9v1
	C893,151,889,159,891,169z"/>
<path class="st16" d="M769,1c0,4-2,7-3,10s-1,5-5,3c-3-2-4,1-5,3c-3,10-11,18-13,29c0,2-1,3-3,3s-3-3-3-4V27c1-1,2-3-1-4
	c-2,0-2,2-2,4c1,13-9,22-14,32l-2,2c-6-1-8,5-11,8c-2,5-6,7-11,6h-8c-8,1-14,2-16,12c-1,7-8,11-12,17c-2,2-4,1-7,0c-5-2-9-5-12-9
	c-2-5-5-9-9-13c-2-2-3-5-3-7c0-5,1-10,3-14c3-4,6-7,10-4c2,2,3,1,4-1l10-14c3-5,8-7,13-4c4,2,6,1,7-2c3-3,4-7,5-11c0-8,5-14,10-15
	c7-1,13,2,18,9c6-4,3-13,9-18H769z"/>
<path class="st17" d="M718,1c-2,7-2,14-6,20c-1,1-2,3-4,2c-2,0-2-2-2-3c-2-6-7-10-14-8c-5,1-8,5-9,11c0,4,0,7-2,10c-3,6-6,13-14,6
	c-3-2-6,0-8,3c-4,8-11,13-14,22c-2-2-2-7-6-6s-5,4-6,7l-2,10c-2,3-5,6-9,7l-7,5c-5,6-9,6-13,0l-8-7c-2-12-1-24,1-35c1-3,1-7,4-8
	c5-11,11-22,8-35L718,1z"/>
<path class="st3" d="M-14.3,1269.2c8-9,135.3-307.2,148.3-312.2c5-2,7-7,7-13l8-12c9-9,19-18,22-31c1-4,4-6,8-8c4-3,6,1,8,3s3,1,4-1
	c2-2,3-4,5-3c3,1,4,3,4,6c0,11-2,22-4,33c-2,18-41,130.5-42,148.5L-14.3,1269.2z"/>
<path class="st18" d="M891,169l-2-6c-2-4-3-7,1-11c3-3,3-9,2-13c-1-5,0-7,5-8c6,0,7-4,3-8s-3-6,1-9l2-1c10-7,11-10,9-21
	c-2-5,1-9,2-14c1-13,4-27,12-39c2-4,4-9,3-14c0-7,5-12,6-19l1-5h14c2,3,2,5,0,8c-7,11-8,24-12,36c-4,14-5,29-7,43v7c3,9,6,9,13,2
	c2-2,5-5,9-5c3,0,5-2,7-4c2-1,3-4,6-3c3,2,1,4,0,6l-20,25c-1,2-2,3-4,2c-8,4-13,10-14,19c-1,7-4,11-12,11c-10,0-17,7-19,17
	C895,171,895,171,891,169z"/>
<path class="st19" d="M967,86c-2,0-3,0-4,2c-3,5-6,7-12,6c-2,0-4,2-5,4c-3,4-5,9-11,7c-3-1-8-12-7-16c2-15,3-30,7-44
	c4-13,5-27,14-38l1-6h14c3,3,2,6,2,10v25c1,13,9,23,10,36c4-2,4-6,5-8c2-3,2-6,6-7l2,4c-1,10-4,19-11,26C974,88,971,89,967,86z"/>
<path class="st20" d="M252,1c-5,5-6,12-9,17c-8,15-12,31-23,45c-5,6-8,16-9,25c0,3,0,6-3,9c-8,7-13,16-19,24c-7,10-16,18-25,25
	c-4,3-5,7-6,11c-2,6-5,12-10,15c-5,4-5,11-7,16c-2,3-2,8-5,7c-5,0-2-5-3-8v-13c2,1,4,2,5,0c1-6,7-11,7-18c-1-4,1-7,4-9
	c15-8,24-22,32-35c5-11,14-18,22-26c3-3,5-6,6-10c2-8,6-16,12-23c5-6,6-15,10-22c6-9,8-20,13-30H252z"/>
<path class="st21" d="M3,1v497c2,2,3,4,3,7L5,627v3l1,85l-1,28v33l-2,4v205H1v-6L2,8C2,6,0,3,3,1z"/>
<path class="st22" d="M3,780v-36c4-5,5-10,4-15c-2-10,0-20,8-27c2-2,4-4,4-7c0-8,5-15,9-21c2-4,5-5,8-3c5,3,8,0,8-5c1-8,4-16,7-25
	c1-5,0-9-2-14c-3-8-5-17-5-26c0-5-1-8-7-8c-2,0-6-1-6-5c4-4,11-3,12-11c-3-1-7,0-8-4c-3-5-4-12-2-17c3-9,6-16,12-23c2-4,5-5,9-6
	c6-2,11-5,15-9c4-3,4-7,3-11c-2-8,2-14,4-21c0-2,1-3,3-3s2,2,3,3v9c0,6,2,9,8,10c0,23.4,1,46.7,3,70l-2,21c-1,9-5,18-2,27
	c3,2,1,6,1,9l-12,65c6-23,10-52,17-80c2-4,4-8,4-12l1-2c5-2,3-7,4-11c4-15,13-27,18-42l3-13c2-12,12-18,18-27l6-8c1-3,4-5,8-6
	c3,0,5-1,7-3c3-3,6-5,10-4c4,2,4,6,4,10c2,1,2,3,3,6l-10,58l-17,85v9c-1,3-1,7-5,8c-1-5-3-9-6-13c-6-7-3-15-1-23c2-9,4-17,10-25
	c1-2,2-5-1-7c-3-3-3-6,0-9c5-6,6-14,3-20c-5-8-6-16-8-25c0-1,1-4-2-4c-2,0-2,2-3,4l-4,14c-6,24-6,49-12,73c-1,4-2,8-5,11
	c-2-25,5-49,4-74l-7,25c-8,20-14,41-13,63c1,8,0,15-4,22s-4,15-7,22c-4-1-4-6-8-4c-3,1-4,5-4,8c0,10-4,18-5,28v2c0,7-2,14-3,20
	c0,4-2,7-5,6c-4,0-3-4-3-6c-1-8,0-16,3-23l1-12c0-4-1-8,1-11c4-6,3-12,3-18c0-8,1-15,4-22s2-15,3-22c0-2-1-4-4-4c-2,0-2,2-3,4
	c-8,10-12,22-12,35c-1,10-1,21-3,31c-2,7-3,14-9,19c-4,3-4,9-4,13c0,7-2,12-8,16c-2-4-3-8-2-13c1-2,1-5-2-6c-3-2-5,0-7,2
	c-5,4-5,12-9,18S6,770,6,778L3,780z"/>
<path class="st20" d="M90,505c-7,3-10,1-10-6l-1-14c-1,7-7,13-5,21c3,9-1,14-10,17l-4,4c-1,1-3,3-5,3c-5-3-8,1-9,5
	c-6,10-15,20-11,34c2,5,3,7,9,4c1,0,3-2,4,0c2,2-1,3-2,4c-3,6-6,13-15,10c-4-1-4-4-4-7l1-24c1-7,2-15,1-22c-1-5,2-9,6-12
	c9-5,8-7,0-13c-3-3-9-5-7-11c4-5,6-10,6-16c0-4,1-9,5-13c3-2,3-5,3-9c2-12-2-23-5-34c-3-8-1-16,6-22l2-3c0-11,9-15,14-23
	c1-2,3-3,6-2c10,5,17-2,25-7l10-7c5-2,6-6,2-8c-7-4-7-9-6-14c3-10,1-21,4-31c4-13,3-24-4-35c-4-8-4-16-2-24c1-4,0-9-2-13
	c-4-7,0-14,0-20l3-2c10-1,16-6,16-17c1-1,1-4,4-3c2,0,2,2,2,4l1,9c0,6,3,2,4,2c0,7-2,15-4,22l-3,14c3,7,3,13-3,18c-4,15-6,31-7,47
	c5-3,9-6,9-13c1-5,8-5,11-9c1-1,3,2,3,3c-2,8,2,14,4,20c-1.2,16-2.2,32-3,48c0,5-2,9-1,14c2,7,1,12-3,18l-3,6c-1,13-5,25-11,37l-2,1
	c-12-1-9,8-9,14c0,16-4,31-6,47C93,499,93,503,90,505z"/>
<path class="st23" d="M134,737l1-24c0-5,4-9,7-13c4,5,0,10,0,16c-1,4-3,8-1,13l3-14c0-2,0-5,3-6c4,0,3,3,4,6c0,0,0,2,2,2
	c0-8,5-10,12-10c5,0,7-4,10-7c5-3,7-3,10,2l7,12c2,1,4,4,6,2s3-5,1-6c-7-8-3-13,2-19s4-10-1-14l-9-7c-6-3-8-7-7-14l1-5
	c2-9,0-10-9-10c-7-1-13-3-15-11c-1-10,1-19,3-28c3.6-14.3,7-28.6,10-43c6-1,8,0,9,6c0,2-1,5,1,7c3,3,5,8,11,4h4l1,5c0,3,0,6,2,7
	c4,1,3-3,4-5c2-4,4-6,9-4c6,2,9-1,11-6c3-7,5-13,3-21c-1-5,0-10,2-14c0-2,1-4,4-3c2,0,2,2,3,3v9c5-4,8-18,4-21c-5-5-3-10,1-13l10-14
	c2-4,5-7,9-9c3-1,5,0,6,2s0,4-1,6c-10,9-12,22-9,34c2,10-3,19-2,28c0,8-4,15-3,23c-2,11,0,22-2,33c-6.6,46.6-14.6,92.9-24,139l-1,10
	c0,4,0,7-4,10c-3-6-5-8-12-5c-8,3-17,2-24-2c-2-2-2-3,0-5c0-5,2-10,5-15c4-8,1-17,1-25l-2-3c-6-3-19,3-21,10c0,1,0,3,2,4
	c4,3,2,7-1,9c-3,3-4,6-6,10c-4-2-5-5-8-8c-3-2-5-7-10-2l-2-1C143,735,137,738,134,737z"/>
<path class="st24" d="M270,326c5,1,8-1,10-5l10-14c7-9,12-19,10-31c-1-6,1-11,1-17l1-2c8,1,8-5,10-10c1-2,3-3,6-1c1,2,2,4-2,5
	c-3,1-6,9-5,11c3,2,6,0,9,1c2,1,3-1,3-3c1-2,2-5,5-5c4,1,3,4,4,7c1,8-5,15-7,22l-2,17v2c2,8-7,13-6,20c0,8,1,15-5,21c-2,2-2,5-1,7
	c1,14-3,28-2,42c0,3-1,5-3,7c-5,2-6,7-5,12c1,9,0,18-3,26c-4.8,20.4-7.8,41.1-9,62c2-17,8-33,10-50c2-11,6-20,12-29c2-2,4-4,7-3h17
	c5,0,8,2,8,8v17c0,6,2,8,7,8c8,0,16,0,24,5c5,3,13,2,20,0l2-1c14-4,18-1,18,13c2,8,7,12,16,13c3,0,6,3,10,5s6,1,7-5c1-10,8-14,17-11
	c4,1,6,1,9-1c5-4,8-4,11,2l2,4c3,5,6,6,11,2c5-5,11-7,19-6c3,0,5-3,8-4c4-4,9-5,14-2l-17,17c-2,2-5,0-7-2c-4-2-7-1-10,1l-10,7
	c-4,3-7,6-9,11c-1,7-5,12-9,18c-1,3-3,5-6,4c-3,0-4-3-4-5c-1-7-2-13,0-19c1-5,1-10-1-15c-1-2-1-4-4-5c-3,0-4,2-4,4l-10,19
	c-3,5-8,7-14,7l-10-2c-8-1-10-3-12-12l-4-8c-2-5-1-10,0-15c2-7-1-10-9-9c-5,1-9,3-14,3c-6,0-12-1-17-4c-3-2-7-2-10-2l-12-2
	c-5-2-9-6-9-13v-13c0-7-1-7-8-6c-10,1-16,8-19,17c-6,15-7,31-10,47l-6,29c-1,3-1,6-4,6c-3-1-3-3-4-6c-1,6,0,13-3,18c-1,3-1,7-6,4
	c-2-6,1-13,1-19c2-11,3-22,8-32l5-32l1-14c0-3-1-6-4-7s-6,0-8,2c-3,3-5,5-5,9l-2,7c-1,2-2,5-5,5c-3-1-3-4-3-6c-1-4-2-8-7-10
	c-4-1-4-5-3-9c0-2,1-5,3-7c3-5,6-10,6-17c1-13,3-26,1-39c0-4-2-7-6-8c-3-1-6,0-7-3c-2-4-2-9,0-13c2-5,5-9-3-11c-2,0-2-2-2-4
	c2-2,4-4,7-3C259,331,265,331,270,326z"/>
<path class="st25" d="M200,576c-4,0-7,2-9,5l-3,1c1-6-10-7-7-15c1-4,0-7-6-8c-3-3-2-7-1-11l4-21c6-18,6-36,9-55c1-5,2-11,5-15
	c2-7,6-13,9-20s6-8,13-4l8,4c3,3,6,7,4,11c-3,8-4,17-9,25c-7,10-14,20-17,33c-1,8-6,15-8,24l-1,24c8-4,11-2,11,7
	C203,566,202,571,200,576z"/>
<path class="st23" d="M260,575c3-4,0-11,6-14c2,2,2,5,2,8c1,16-1,32-5,47c-2,8-4,16-3,23c0,16-6,31-9,46l2,7v5c-6,9-10,17-9,28
	c0,2,0,5-2,7c-3,5-1,11-2,16c0,3,1,8-5,9c-3-2-2-5-2-8l-1-9c0-13,3-26,5-39l10-61C251.8,618.4,256.1,596.8,260,575z"/>
<path class="st26" d="M252,693c-3-1-4-4-3-6c4-12,4-25,9-37v-2c-3-13,3-25,5-38c2-16,4-33,3-49c5-3,3-7,0-10c-2-3-3-19-1-22
	c1-2,3-1,4,0c1,2,2,3,4,1c2-1,1-3,1-4c0-5-3-10-2-15c3-9,7-17,13-23l-8,52c-3.1,34.5-7.4,68.8-13,103l-8,41C255,687,255,691,252,693
	z"/>
<path class="st27" d="M260,575l-7,45c-6,27-9,55-14,82l-6,39c0,11-1,23-4,35c-1,3-2,8-8,6l1-7c2-28,8-55,13-82c4-23,7-46,12-68
	c2-11,6-23,1-35c-1-4,4-4,5-7c2-1,1-4,2-5C256,575,256,572,260,575z"/>
<path class="st28" d="M100,603v1l-3,12c-6,30-11,61-19,91l-2,5c-2-6,0-11,1-15l11-69l1-5c5-17,6-34,10-50l7-28c2,8-1,16-1,24
	C105,581,100,592,100,603z"/>
<path class="st29" d="M193,457l-8,47c-1,8-1,16-5,23c-3-3-2-6-1-10l5-22c-2,3,0,8-5,10v-6c3-9,3-18,5-27l5-16c0-1,0-3,2-2L193,457z"
	/>
<path class="st30" d="M125,392l3-18c3-2,0-8,4-7c3,1,2,6,1,9l-5,26l-3,4C122,401,125,397,125,392z"/>
<path class="st31" d="M420,27c2-1,3-5,5-4c3,3,1,7,1,10c-1,2-2,4-4,3c-3-1-1-4-2-7V27z"/>
<path class="st23" d="M215,562l1,1c1,4,1,8-3,11c-1,1-2,0-2-1C210,568,212,565,215,562z"/>
<path class="st0" d="M247,82c1-6,3-11,7-15c5,0,7,1,4,5C256,76,256,84,247,82z M265,167c0,2-1,4-3,4s-3-2-3-3c0-2,1-5,3-5
	S265,165,265,167z"/>
<path class="st32" d="M611,496l-5,22c-1,1-1,4-3,4s-3-3-3-5l2-13c2-9,1-18,1-27c0-4-2-6-6-6h-11c-10,0-13,3-13,13c0,9-2,12-10,13
	c-5,1-8,5-11,8c-6,4-11,10-13,17c-3,6-4,14-7,19c-6,11-10,24-24,28c-2,0-4,2-5,4l-12,23v1c3,16-14,19-21,28c-2,3-7,5-11,7
	c-9,3-12,10-13,19c-3,14-4,28-10,42c-1,2-2,4-4,4c-3,0-5-2-5-4c-2-7-7-3-11-3s-6,3-7,7c-4,21-11,42-13,63c-2,24-11,47-12,71
	c-1,15-6,29-8,43c-1,12-6,23-6,35h-2c-4-6-1-12-1-18c0-3,3-7-1-10c-3-6-1-11,1-16l1-7l3-24c0-4,1-8,4-12c3,0,3,0,5,3
	c4-15,4-32,10-47l1-16c0-24,4-47,8-70l2-9c2-5,5-7,10-5c4,2,6,1,9-2c3-5,8-8,8-15c0-2,1-3,3-5l2-3c5-15,15-25,25-36c2-3,4-6,1-10v-8
	l7-30c1-6,3-9,9-9l5-2c10-8,19-16,25-26l1-4c1-8,6-15,11-21c3-5,5-11,9-16c7-12,13-26,27-32l3-4c2-2,4-3,7-2s4,4,4,6v16
	c1-14,7-25,13-38l1-7c1-6,5-8,10-10c5-1,8,0,10,4l1,6c0,1,0,2,2,1c6-2,6,2,7,6l-1,3c-5,12,0,24-1,35l-3,22l3-2L611,496z"/>
<path class="st7" d="M70,707c1,11,0,22-3,33l-1,13c0,2-1,5,2,5c2,0,3-2,4-4l2-16l2-4c2,11,2,22-6,32c-2,2-3,4-6,2c-3-1-3-4-3-7
	c2-16,7-31,7-48C68,711,68,709,70,707z"/>
<path class="st33" d="M375,822c-3,11-2,22-5,33l-2,4c0-15,2-30,5-45c2-7,1-14,2-21l3-27c0-2,0-4-3-5s-3,2-4,4l-1,7c-2,5-4,11-12,9
	c-1-1-2,0-3,1l-12,11c-5,9-13,17-13,28c0,6-8,12-14,12c-5,0-9,2-13,6s-10,5-14,9c-2,2-5,0-6-1c-4-2-7-1-9,2l-2,3c-5,14-18,21-29,31
	c-6,6-11,13-13,22c-3,10-8,18-12,28c-4,9-14,15-13,26c-8,5-7,13-8,20l-2,2c0-12,4-23,7-35v-5c-3-3-2-7-1-10l9-51c5-8,11-14,17-21
	l18-17l2-3c9-4,12-10,10-19c-1-3,1-5,4-5c3-1,5-3,5-7s4-6,7-9c7-5,8-6,4-15c-1-4-1-8,4-9c4-1,6,2,7,6l2,18c1,4,0,9,5,10s7-3,9-6
	c10-12,17-26,26-38l2-8c3-10,7-19,14-27c6-7,11-14,18-20l6-5c4-3,8-3,11,2l8,14c2,3,3,5,2,8c-1,9-1,19-3,28c-4,19-8,38-9,58
	C379,818,379,821,375,822z"/>
<path class="st34" d="M28,498c1,4,4,6,8,8c4,3,9,5,9,10c0,5-5,7-9,9c-4,1-6,4-5,8c3,9,0,18-1,26c-1,10-2,19,1,29c2,3,5,2,9,2
	c4,1,8,2,7,8c-1,10,1,20,5,29c2,5,1,10,1,15c-1,1-2,0-3-1c-2-6-6-5-10-2c-5,4-10,3-14-1c-4-5-9-6-15-6c-3,1-6,0-8-2V498
	C11,499,20,494,28,498z"/>
<path class="st20" d="M151,133c2,1,4,2,4,5c0,2-2,4-4,4c-3,0-4-3-4-5C146,134,149,134,151,133z M83,352c-2,0-2-1-3-2l2-4
	c2,0,3,2,4,3C86,351,85,352,83,352z"/>
<path class="st26" d="M212,879c1,13-4,25-6,37l-4,24c-2,4-2,9-5,13c-3-7-1-14,0-20c4-15,4-30,9-45c1-4,0-10-1-15c0-2-2-4-5-4
	c-5,2-5-1-4-4c4-7,3-13-3-18c-3-3-2-5,2-5l9-1c5-1,7-4,9-8c4-17,3-35,8-51c8-2,8-10,8-15c0-9,3-18,4-26c4,5,1,10,2,15
	c-2,12,0,24-5,36c-5,10-3,23-5,35c-3,14-7,28-8,42C217,873,214,876,212,879z"/>
<path class="st35" d="M186,763v4l-5,25c-1,17-5,33-11,49c-2-5,0-9,0-14l10-58C181,766,180,762,186,763z"/>
<path class="st36" d="M364,247c3,4,2,9,1,12c-2,7-2,14-5,20c-2,6-1,11,3,15c5,4,6,9,4,16v11c0,3,0,7-3,10c-2,2-3,6,0,7
	c9,4,7,12,8,20c0,3,1,6,4,7c2,1,5-1,7-2c2-2,2-4,1-7c-2-8,1-16,6-23l5-11c0-2,0-4,3-4c3,1,5,2,5,5c0,5,1,9-1,14c-3,6-4,13-5,20
	l-2,10c-2,4-2,8,1,13c4,6,2,13,1,19l-2,7c0,3-2,8,2,10c4,3,7,0,9-3l7-1l7-1c6-5,11-2,15,2c3,2,5,1,6-2c2-5,6-8,12-8c4-1,6-3,9-5
	c7-6,11-4,12,4c2,7,7,11,11,16c3,4,8-1,12-3c3-2,5-6,10-4c0,6-4,9-8,11c-7,4-12,8-17,14c-3,3-7,6-10,1c-4-8-13-6-19-10c-2-2-5,2-7,3
	c-6,5-18,6-24,1c-10-7-10-7-18,1c-6,7-15,8-23,9l-14,3c-3,2-7,2-10,1c-4-3-1-6,0-9l3-15c2-3,1-6,0-9l-9-16c-2-6-6-7-12-7
	c-2,1-5,2-5,5c1,4-2,7-4,9c-3,2-6,5-9,1c-2-3-2-7,2-10c8-6,12-14,9-24c-1-3,1-7,4-9c5-3,7-8,8-14l4-9c2-2,3-4,2-6c-4-8,3-16-1-25
	c-1-2,1-5,4-7c4-2,5-6,3-10c-1-4,0-8,1-11C359,268,365,259,364,247z"/>
<path class="st37" d="M472,437c3,2,6,2,8-1c6-10,17-13,25-21l3-3c7-2,13,1,15,9c1,3,0,7,3,7c4,1,4-4,5-6c3-3,3-7,7-10c2-1,5,0,6,1
	c3,3,6,6,11,4l4,2c4,8,11,9,18,9h3c3,6,1,11-4,13c-12,5-21,15-32,22l-5,2c-7,0-12,0-17,6c-1,2-4,3-7,2c-6-2-11,0-15,4
	c-7,8-12,6-16-3c-3-8-5-8-10-3c-3,4-6,3-10,1c-2-2-5-4-8-1s-9,4-6,10c1,2,1,6-2,7c-3,2-7,2-9,0c-5-4-10-6-15-6c-8-1-10-6-9-14
	c2-9,9-16,14-24c2-5,7-5,12-4c4,1,9,1,9,8c1,3,3,5,7,3l9-2C471,447,473,443,472,437z"/>
<path class="st5" d="M162,631c5,4,10,9,18,7c5-2,9,3,8,8l-1,6c-3,11-2,12,7,17l11,9c4,5,1,10-2,14l-5,6c-2,2-4,4,1,7c1,0,3,2,3,4
	c1,3,1,8-2,10c-4,2-7-1-10-4c-2-4-6-8-7-13c-1-3-3-4-6-1c-4,5-9,10-17,8c-2-1-4,1-4,3v5c-1,2-2,5-5,5c-2-1-2-4-2-6l-2-6l-4,17
	c0,2,1,6-2,6c-4,0-3-4-3-6c-1-8,3-14,3-22l1-5c1-11,4-21,7-31c2,2,2,0,2-1c3-10,2-21,6-30C158,635,157,632,162,631z"/>
<path class="st38" d="M162,631c-4,10-6,20-7,30l-4,16c-3-3-2-5-2-8v-4c5-9,3-19,5-28c6-24,9-49,14-73l10-59c3-4,3-8,6-14
	c1,13-4,24-4,36c0,11-6,21-5,32c-4,11-4,22-6,33L162,631z"/>
<path class="st39" d="M791,141h2c2,6,0,11-6,14c-11,5-15,11-12,23v13l-10,33c0,2-1,5-4,5c-4,1-5-2-6-4s-2-2-4-1c-4,2-7,4-9,8
	c-6,15-15,29-23,43l-5,7c-9.7,11.1-16.2,24.5-19,39l-12,21c-5,6-7,14-10,21l-5,10c-2,5-5,5-8,0c-2-4-4-3-7-1l-7,8c-1,2-3,3-5,3
	c-8-5-1-11-1-17c-6,4-11,7-17,8c-9,2-13-2-11-11c1-5,0-8-1-12c-3-8-1-11,7-14c6-2,8-7,4-12c-2-4-5-8-6-13c-2-10,2-19,11-23
	c4-2,5-4,4-8c-2-12,1-23,3-35l1-7c0-2,0-4,2-5s5,0,6,2c3,6,12,7,16,14l3,1l12-1c-6-7-4-14-6-21c-1-3-1-6,1-8c3-2,5,1,6,3
	c3,3,6,3,10,0c2-2,5-4,9-5c6-2,7-7,3-11l-7-5c-5-4-6-9-3-16l3,3l11,5c3,1,5,2,6,5c1,6,7,8,12,11c5,4,9,3,11-2c4-7,9-13,12-21
	c1-5,5-8,11-9c5,0,7-3,8-7c1-8,6-14,10-21c2-4,6-6,11-6C786,145,789,143,791,141z"/>
<path class="st40" d="M687,187c-1,8,1,14,9,17c5,2,6,7,5,12c-1,4-4,5-8,5l-5,2c-9,8-10,8-18-2c-2,3-1,6,0,8c1,4,2,7,1,11
	c0,3,2,4,4,6c1,1,3,2,2,5c-1,2-4,2-6,1h-3c-7,3-10,1-15-6c-2-3-10-5-12-10l-3-1c-2,1-2,2-2,4c1,2,3,5-1,7s-5-1-7-4l-4-5
	c-6-4-13,0-12,7c1,10-5,18-7,27c0,3-1,4-3,6c-8,5-11,12-15,20l-5,10c-1,2-4,4-7,4c-3-1-4-4-5-6v-14c3-6,4-13,8-19c5-9,3-18,0-28
	c-1-2-3-4-6-4c-8-3-11-9-12-17c-1-4-1-9-3-12c-4-6,3-8,3-12c12-8,25-6,37-1c9,3,23,2,30-4s11-12,10-22c-1-7,1-15-2-23v-5
	c4-6,9-10,17-10c4,1,7-2,10-4c6-4,8-4,12,2c2,3,6,2,9,4c2,11,1,21,2,32C687,174,685,181,687,187z"/>
<path class="st41" d="M791,141c1,5-2,8-7,6c-6-2-9,1-11,5c-4,7-10,13-10,21c-1,5-4,9-10,8c-6,0-8,3-9,8c-2,9-9,15-12,23
	c-3,5-8,5-13,1l-5-3c-5,0-7-3-8-8c0-4-4-5-8-6c-3-1-7-1-8-6l2-11c3-6,4-13,4-21c0-9,4-11,12-7c5,3,8,3,12-2c7-10,9-23,19-31
	c0-10,12-9,16-16c2-3,7,1,8,6c2,9,2,9,11,6c4-3,7-1,9,3c1,4,3,6,6,9C794,130,791,136,791,141z"/>
<path class="st42" d="M773,191c0-6,0-12-2-18c-2-5,6-19,12-20c8,0,10-5,10-12c0-5,1-9,4-13c2-8,7-15,11-22c0-1,1-2,3-2c3,2,5,6,4,9
	c-1,13,9,18,18,24c5,2,8-1,11-5l5-7c-4,13,1,25,0,37c0,2-1,5,2,6c2,1,3-2,4-3c3-3,6-3,7,1l2,13c2,7,7,9,13,5c3,3,1,5-2,7
	c-2,2-5,2-8,0c-4-4-6-9-8-14c-1-5-4-5-7-2l-3,2c-6,5-6,5-12,0s-15-3-18,4c-3,5-3,10-5,15c0,2,0,4-3,4s-4-2-4-4l-2-9v-10
	c0-6,0-11-8-9l-1-1c-8-7-9,2-11,6l-7,14C777,189,776,192,773,191z"/>
<path class="st43" d="M683,136c-5,2-9,2-11-4c-1-5-5-3-8-1c-4,4-9,7-16,5c-5,0-7,6-11,7l-1-1c-4-17-3-33,6-48c4,3,8,7,13,9
	c2,0,4,1,5-1c4-8,13-13,12-23c0-2,3-4,5-4c8-1,15-4,22-1c5,1,5-4,8-5c-1,4-1,10-9,9c-2,0-2,2-3,4c-3,10-4,20-2,30
	C694,122,688,129,683,136z"/>
<path class="st41" d="M811,104c-4,5-6,12-10,18c-1,2-1,5-4,6c-8-4-4-11-3-17l2-10l1-4c8-5,7-13,8-20c1-4,1-7,3-10c2-5,3-10,2-15
	c-1-2,0-6,3-6c3-1,3,2,4,4c0,1,0,3,2,3l2-3l1-3l5-23c0-2,1-4,3-4c3,1,3,3,3,5c-1,11-1,23-8,33l-3,9c1,7-1,13-4,18
	C814,91,813,98,811,104z"/>
<path class="st44" d="M538,413l-7,14c-1,2-1,6-5,5c-3,0-4-3-4-6c-2-10-4-13-15-14c-3,0-5,2-8,5s-7,4-12,5c-2,0-4,0-4-2
	c0-8-13-10-11-21c1-3-4-4-6-1c-4,5-9,7-16,7c-5,0-6,5-7,9c-1,2-2,4-5,4c-2,0-2-3-2-5l-4-7c-3-3-5-5-8,0c-2,3-6,3-10,3l-9,1
	c-2,1-3,3-5,1c-2-1-1-3,0-5l2-5c2-6,2-12,1-17c-1-4-1-8-4-11l-1-3c3-11,4-23,8-35c4-9,3-19-10-20c-4-1-6-3-5-7c3-10,4-20,4-31
	c3-7,7-14-3-20c-2,0-1-3,0-4c4-7,5-15,9-22c2-4,3-8,2-12c-1-15,3-29,8-43c1-6,2-11,9-14c2-1,3-4,4-7c3-8,8-15,10-23c1-2,2-3,4-3
	c1-1,3-2,3-4c-1-9,7-14,12-18c6-3,10-9,10-15c1-8,6-14,11-20l8-8c3-4,5-8,1-13c-3-4,2-20,6-22c2-1,4-1,4,1l-1,9l-2,6c1,3,1,6,4,7
	c4,1,7-2,8-5c2-9,7-18,8-28l2-8c5,0,9,2,11,7c4,8,10,14,13,22c2,3,4,3,6,0l2-2c1-12,9-10,17-11c5-1,9-4,12-9c1-2,2-5,6-3l5-2
	c2-2,3-5,6-4c4,2,7,6,7,9c-2,6,1,12,2,18l-4,29c-1,5,4,10-1,15l-2,4c-2,4-5,6-10,5c-2,0-4,0-6,2c-3,2-6,2-9-2c-2-2-5-1-6,1
	c-3,5-7,6-12,6c-7,1-12,6-18,9c-7,5-12,3-12-6c-1-6-1-6-4-9c6,6,5,11-3,13c-4,2-6,4-5,8c1,3-1,6-3,9c-8,11-13,23-16,36
	c-1,4-2,9-5,13c-4,5-7,5-10,0c-1-2-2-5-5-6c-3,3-2,8-2,12c-1,4,0,10-7,6h-2c-6,5-15,7-17,17l-5,16c-2,5-2,10-1,15c2,8,1,16-2,24
	l-3,12c0,5-1,10-4,14c-4,4-5,9-3,14c4,11,5,23,7,35c0,5,1,7,7,7c7-1,11,4,11,11l-4,10c-8,12-6,26-7,39c0,2,1,5,4,5c3,1,4-2,5-4
	c4-8,10-13,20-12l5-2c6-4,8-3,10,3c2,4,4,3,7,0c7-9,18-10,29-10c5,0,8,3,10,8l1,11c2,7-2,14,1,22c4-3,4-8,6-11l3-4c9-4,11-12,15-19
	c5-10,8-11,15-9l2,2c8,7,8,7,15,0c4-4,7-4,11-1s7,7,7,12v22c-5,2-7-2-8-5c-2-5-5-8-10-7c-3,0-5-1-7-4l-8-8c-4-4-6-4-10,1l-3,7
	C553,402,546,408,538,413z"/>
<path class="st45" d="M403,383c5,5,4,14-1,17C400,395,399,389,403,383z"/>
<path class="st46" d="M1017.6,0h166.1c8,1-31.7,53-30.7,60c-2,0-2-4-5-3s-3,0-5-5c-6,7-11,7-17,1c-5-4-9-2-13,2l-7,6c-7,6-13,4-15-5
	l-2-6c-3,11-7,20-8,30c1,3-4.9,12.7-8.9,13.7l-2-25.9C1072.1,50.8,961,17,964,1C966-5,1011.6-1,1017.6,0"/>
<path class="st24" d="M324,207c-5,0-6-3-4-6l6-10c1-4,3-2,4,1c1,4,3,7,7,8c1,1,3,2,2,3l-2,2L324,207z"/>
<path class="st1" d="M112,264l3-18c2,0,4-2,4,1c1,10,0,20-5,29h-1L112,264z"/>
<path class="st47" d="M807,187c3,3-1,9,4,12l4-15c1-6,4-11,11-12c9-2,11-1,17,9c3-5,7-8,11-11c3-2,6-3,6,3c1,5,4,10,7,14
	c1,1,3,4,6,3s5-3,4-6c2-3,5-6,6-10s4-5,7-2c5,6,7,2,8-3c1-6,3-12,9-15c4-3,7-4,12-3c8,2,15-4,13-13c0-4-3-11,7-7c3,1,3-2,2-4
	c-1-3,0-6,1-9l25-32l11-1c2,4-1,5-3,6c-10,2-12,10-16,17l-4,9c-5,6-7,13-6,20c1,4,1,7-3,10c-6,3-8,10-11,16c-3,9-5,10-13,6
	c-3-2-4-1-6,1l-4,10c-2,6-5,11-12,12c-4,0-5,3-6,6l-5,12c-4,8-8,8-13,0c-4-8-11-12-19-10c-9,2-13-2-17-9c-1-2-2-5-5-4c-2,0-2,3-2,6
	l-6,21c-1,3-2,5-4,5c-4,0-4-3-4-6l-1-15c-3,16-6,31-11,45c-1,2,0,6-4,7c-6-1-3-7-5-10v-9c2-3,2-6,2-10l-1-33c0-2,1-5-2-6
	c-2-2-4,1-5,2c-4,2-6,5-11,4v-3c4-6,10-10,17-12c4-1,6,2,7,5L807,187z"/>
<path class="st48" d="M592,83l3-3c4,0,7,2,9,6s7,5,9,1c3-8,12-8,18-13c0,4,2,6,4,8c4,3,6,7,7,12v4c-7,15-5,30-5,45l3,32
	c1,13-14,27-24,27c-8,1-14,3-22-3c-5-4-14-4-22-2c-4,0-7,3-11,3c-5,1-8-2-11-4c-7-8-8-18-6-27c3-9,9-16,18-19c7-2,13-6,18-11
	c2-1,3-2,3-5c-1-7,3-14,8-19c3-5,3-9,2-15C591,95,589,89,592,83z"/>
<path class="st49" d="M946,146l1-9c-2-7-1-14,5-20c5-5,5-13,10-19c4-4,5-10,12-8c2,0,3-2,4-5c3-7,7-15,9-23c3-4,4-1,5,1c2,3,1,6,0,8
	c1-8,5-16,6-25c12-6,21-15,31-23c5-4,9-3,14,2c3,5,6,4,9,1c5-5,6-5,8,1c2,5,5,8,9,9c3,1,5,3,5,6v26c-1,9-2,18,0,26c1,3,1,6-1,8
	c-4-1-4-4-4-7l1-20v14c0,2,0,4-3,4c-3,1-4-1-5-3l-2-13c0-9-3-12-13-11c-11,1-24,0-34,6l-5,2c-9,1-9,1-11,10c-2,8-5,15-10,21
	c-2,2-4,5-6,5c-7,0-10,5-13,10c-5,8-12,14-15,23C952,146,950,149,946,146z"/>
<path class="st50" d="M999,46c-1,9-2,18-5,27l-3,4V66c0-2,0-6-4-4v-4l1-2c10-1,9-9,10-16c2-10,6-19,10-28c2-4,5-5,8-2
	c-5,9-8,19-12,28L999,46z"/>
<path class="st51" d="M999,46c2-12,9-23,14-35l3-1c9,2,17,3,25,0c7,2,10,10,17,11l2,2c1,7,4,12,12,13c4,0,3,4,3,7c1,13-1,27-1,40v8
	c5-2,3-7,5-9c2,1,2,3,2,5c1,4,0,8-2,11c-1,3-3,5-6,3c0-12-1-24,1-37V46c-1-5-2-10-8-11c-7-1-5-8-9-12l-4,5c-5,6-8,6-12-1
	c-3-6-6-6-12-2c-7,6-12,14-21,18L999,46z"/>
<path class="st3" d="M3,630h11c5-1,9,1,13,6c3,5,8,5,13,1l4-3c3-2,6-2,7,3l2,6c-3,8-6,17-7,26c-1,7-4,8-10,4c-4-2-5-2-5,2l-4,6
	c-4,3-5,6-4,11c0,4-2,8-5,11c-10,7-11,17-9,27c2,6,1,12-6,14V630z"/>
<path class="st0" d="M97,616l3-12C103,609,99,612,97,616z"/>
<path class="st5" d="M218,676c0,2-1,4-4,4c-4,0-5-3-5-5c0-3,2-4,5-4S218,673,218,676z"/>
<path class="st52" d="M538,465c11-7,20-18,33-23c6-2,9-7,8-13c-1-5,1-9,5-10c5-2,10-5,16-5c4,2,3,6,2,10h-2c-6-4-17,0-17,6
	c1,9-4,16-7,24c-4,8-6,16-7,24c0,2,0,5-2,5c-3-1-2-3-2-5v-18c0-2,0-5-3-6c-2,0-4,2-4,4c-2,3-4,5-7,5c-4,0-6,3-7,6c-6,11-17,18-20,31
	c0,5-5,8-8,12c-4,5-7,10-7,17l-3,6l-4,4c-2,9-10,12-16,18c-4,3-7,7-13,6c-4-1-4,3-5,6c-3.8,14.3-7.5,28.6-11,43c-2,0-3-2-4-4v-6
	c3-13,0-27,2-40c1-8-1-10-9-10c-3,0-7,1-9-3c-1-4,2-6,5-9c-6,1-7,6-9,9c-4,8-10,9-16,3c-10-9-16-8-25,6l-2,3c-1,1-1,2-3,2
	c-6-3-8-9-3-13c7-7,7-15,6-23c0-8,2-14,9-19c5-3,9-9,8-16c0-2,0-5,2-7c4,1,4,6,4,9c0,5,3,8,8,9l16,2c3,0,5-1,7-4c3-7,8-12,10-20
	c1-3,2-7,7-7c4,0,6,4,7,7c2,4,2,9,1,13c-3,7-2,14-1,21c0,2,1,4,3,5c2,0,3-2,4-3c2-6,7-11,8-18s6-11,12-14l5-4c5-5,10-8,17-1
	c3,3,7-1,7-3c2-7,6-9,12-10L538,465z"/>
<path class="st53" d="M409,485c0,7,3,15-4,21c-2,2-3,4-5,4c-7,4-9,9-7,17c1,5-2,11,0,17c1,2-2,2-4,3c-7,4-7,10-1,15c-1,5-4,6-7,6
	c-4,0-6-2-7-5l-1-9c0-1,0-4-2-4c-7-2-8-7-8-13s-1-10-8-11c-6-2-8-8-4-16c3-7,1-11-4-16c-3-2-6-3-9-1c-9,5-19,8-27,16v1
	c-10,4-17,10-20,21c-1,2-2,4-5,3c-2-4-1-8,2-11c5-6,4-13,5-20c5-21,8-43,14-64c3-11,14-19,26-19c4,0,6,2,6,6v18c-1,6,3,8,7,10
	c4,1,9,2,13,1c2,0,5,0,7,2c10,6,21,5,31,2c4-2,7-1,10,0c4,1,5,3,4,7C409,472,407,478,409,485z"/>
<path class="st54" d="M288,523l-1,11c2,3,1,6,1,9l-8,36l-9,54l-2,10l-2,12l-1,6l-7,38v1c-1,3-3,6-7,5c-3-2-3-5,0-8v-4
	c0-10,5-19,6-29c1-14,4-29,7-43l12-81c4-5,5-11,5-17c1-4,0-11,4-11S287,519,288,523z"/>
<path class="st55" d="M389,561c1-9,7-13,13-17s11,2,15,5c8,7,12,6,15-3c2-4,4-8,9-9c3-1,5,1,5,4c1,3-1,2-3,2c-4,0-5,2-4,4
	c0,3,2,4,5,3c10-3,16,2,14,12l-1,22l-2,23c1,1,0,3,2,3c2,1,2-2,3-3c5,3,6,7,1,11c-8,6-13,14-17,22l-5,4c-2,2-6,3-2,7c3,2-1,4-2,5
	c-4,3-7,6-5,11c1,3-13,16-16,16h-2c-8-4-8-4-10,5c-4,16-6,32-7,49c-1,30-8,60-13,90l-1,1c-3-1-3-5-6-6c2-7,2-15,3-23l8-42
	c2-10,4-21,3-31c-1-7-7-14-11-20c-2-3-5-2-6,0c-7,8-17,13-22,23c-3,6-10,11-12,18c-2,4-4,8-4,12c1,2,0,3-1,5c-10,14-18,29-29,43
	c-2,4-6,6-10,5c-4,0-5-5-5-8l-2-18l-1-6c-1-3-2-5-5-4c-3,2-3,4-2,7c5,9,4,13-6,19c-4,2-7,4-5,9c1,3,0,6-5,5s-5,2-4,6c2,11,2,11-8,17
	l-4,4l-2,2l-16,16c-4,4-9,8-13,14l-4,3c4-9,3-20,6-30c2-11,5-22,6-34l1-9c-1-8,1-15,5-22c2-4,3-8,1-11c-2-6,0-11,4-16c3,0,2-3,2-5
	v-14c1-3,1-5,5-6c4,1,3,4,3,7c0,10,1,21-1,31v6c2-2,2-4,3-7c1-2,1-5,4-4c3,0,3,3,3,5l1,6c0,1,0,3,2,4c2,0,3-1,5-3c6-6,9-15,14-23
	l4-8c2-4,0-7-4-8c-5-1-4-4-4-8c1-17,14-27,19-42l15-38c2-3,2-7,2-10c0-5,0-10,4-14l1-5c0-5,2-9,8-9c3,0,4-2,5-4c3-4,7-6,13-6
	c16-1,22-5,26-21c3-7,6-12,15-11C385,569,388,565,389,561z"/>
<path class="st26" d="M283,746c-6,11-12,22-19,31c-2,3-4,6-8,5c-3-1-3-5-3-8l-2-10l-4,11c0,2-1,6-3,6c-4-1-2-4-2-6l1-37c0-2,1-5-1-7
	c-3-10,1-20,5-29c1-2,2-5,5-5c0,2-2,6,2,7c3,0,3-4,3-6c1-13,4-25,7-37c7-5,13-10,14-19c0-2,1-4,4-4c2,0,2,2,3,4l8,19c4,10,4,20-2,29
	l-5,11l-1,3c-8,5-9,13-9,21c0,4-3,7-6,9c-6,3-9,9-11,16c7-15,9-16,19-13C282,738,285,741,283,746z"/>
<path class="st56" d="M807,187c-6-13-6-13-19-6c-3,2-6,3-7,7c1,3,0,4-1,6l-14,34c-1,2-1,4-3,5c-3,4-6,4-9,0c-3-5-4-5-8,0l-13,25
	l-2,4c-14,20-14,44-19,66v11l-1,6c-6,12-10,25-7,39c1,7-1,14-2,20l-11,50c-1-1-3,0-5,2l-3-1l1-6v-3c2-15,1-29,3-43c3-11,2-23,3-34
	l3-25c0-4,0-7-3-10c-1-5,3-9,3-13c2-14,8-27,17-38c10-12,16-26,24-39c4-7,5-16,14-21c4-2,8-5,10,3c0,1,1,3,2,2l3-3l5-18l5-16
	c5-9,10-18,13-28c1-1,1-3,3-3c2-1,3,1,3,2c2,5,5,5,9,3c5-3,6,0,6,4V187z"/>
<path class="st57" d="M689,402l-5,44c-3-6,2-11,1-17c-1-4,2-10-2-11c-3-2-6,4-9,6c-4,4-7,8-12,11l-2,2c-2,9-8,13-14,19
	c-4,4-7,9-13,10c-4,1-5,4-5,7l-1,8c-1,2-2,4-5,3c-3,0-2-3-2-5c0-3,0-6-4-5c-3-3,0-6,0-8l11-45c1-5,5-7,10-6c7,2,13-1,18-6l10-8
	c4-3,7-6,9-11c2-4,5-7,9-9c4-3,8-1,7,4L689,402z"/>
<path class="st58" d="M689,402v-17c0-4-2-5-5-2s-8,5-9,11l-2,3l-22,19c-4,2-8,3-13,1c-7-2-9,0-10,6c-1,7-2,14-5,20c-2,4-1,9-3,14
	l-4,17l-5,22h-1c-3-3-2-7-1-11l14-64l6-25c3-6,6-11,12-13c5-2,7-7,11-10c5-5,6-5,9,1c1,2,2,3,4,2c3-1,7,0,8-5l7-26c2-5,4-10,10-12
	c5,0,6,3,6,7l-4,35c-1,7,0,14-2,22L689,402z"/>
<path class="st57" d="M684,448l1,7c1,5,2,10-3,13v-14L684,448z"/>
<path class="st59" d="M690,454l-7,45v8c-3,10-3,20-8,30c0-23,5-46,7-69c2-4,0-9,3-13l1-6c0-2,0-4,2-4s2,2,2,4V454z"/>
<path class="st60" d="M631,395l-9,42l-11,49l-1,10c-2,2-1,6-5,8c-1-10,0-19,2-28c1-5,2-11,1-16c-1-4,1-8,2-12c1-10-1-19-1-28
	c0,2,0,4-2,7c-1,2-3,4-5,3s-1-4,0-6c-3-3,1-7-2-10c0-2,0-4,2-5c-2-6-3-12-2-18c1-5-1-9-4-13c-4-6-8-5-12,0c-5,9-7,9-14,1l-4-4
	c-5-7,0-13,0-21c-4,1-5,4-6,6c-1,3-2,7-5,9c-5,4-8,10-8,16c0,4-1,7-5,7c-4-1-6-4-5-7c1-12-6-23-5-36c1-9-9-16-19-14c-11,3-17,0-19-8
	c-2-6-1-10,5-12c4-2,5-4,4-8l1-7c6-11,8-24,10-37c1-4,2-8-1-12c-7-11-3-23,0-35l4-12c2-10,4-11,13-6c6,3,11,5,16-2c1-1,3-2,5-1l10,4
	c1,3,7,7-2,6c-3,0-1,3,0,4c3,3,3,7,4,12c0,10,3,13,12,17l5,2c4,6,4,25,1,31c-4,10-10,19-9,31c1,2,0,6,4,7s5-3,6-5l6-14
	c3-5,6-11,12-14l3-3c1-10,8-18,6-28c0-5,1-10,6-12c6-2,12,0,15,6c1,3,1,6,6,7l-2,17v16c1,5,2,12-8,12c-4,0-9,10-8,15c0,6,1,12,6,16
	c3,3,4,6,2,10c-1,3-2,8-8,7c-5-1-7,3-5,8c2,6,5,12,1,19c-2,3,1,7,6,6c6-1,12-2,17-7c1-2,2-5,5-2c3,2,2,4,0,7s-5,7-1,12
	C635,384,633,390,631,395z"/>
<path class="st61" d="M602,425c0,1-1,3,1,4l3-3l1-9c0-3,2-5,4-4c3,0,2,3,1,4l-1,30c-1,10-1,20-4,29c0-6,1-12-2-18c-1-2,0-4,1-7
	c2-4,3-10,3-15c0-1,0-3-2-4c-2,0-2,2-3,3c0,1,0,3-2,3l-2-4v-10L602,425z"/>
<path class="st61" d="M602,409c0,2,0,4-2,6l-14,5c-5,0-4,6-7,9c-10,2-16,0-22-8c-1-2-3-4-4-1c-3,4-5,2-6-1c-2-3-4-6-9-6
	c9-8,15-19,21-30c3-7,6-6,11,0l9,10c2,1,3,2,6,1c6-1,10,2,11,8C597,405,599,407,602,409z"/>
<path class="st62" d="M631,395c2-6,0-14,10-13l12-12c4-4,8-5,9,2c0,1,0,3,2,3s2-2,3-3l6-15c4-14,15-23,20-36c1,4-2,8-3,12
	c-8,6-9,14-11,22l-4,18c-1,3,0,6-7,5c-6,0-8-1-9-5c-1-2-3-2-4,0C648,381,637,385,631,395z"/>
<path class="st63" d="M551,195c-3,3-7,4-9,8c-1,3-3,3-6,1l-6-3c0-7-3-12-10-14l-3,15c0,2,0,4-3,5s-4-2-5-4l-2-3c-7,11-19,16-29,23
	c-2,2-5,2-8,1c-10-1-18,5-18,15c0,8-2,15-7,22c-5,5-5,13-6,20l-6,30l-2,9v5c1,2,16,5,18,3l2-3c2-3,5-5,9-3c4,1,6,5,5,9
	c-1.1,8-2.4,16-4,24c-11,7-9,21-15,31c3-1,6-4,10-4c3,0,8-1,9,5c-9-1-14,3-18,11c-1,3-3,8-8,6c-4-1-7-6-6-10c2-8,0-16,2-24
	c2-5,3-10,7-14c5-7,4-15-2-18c-2-1-3-2-5,0c-5,2-7,0-8-4c-1-15-3-29-8-43c-1-5,0-10,4-13c3-3,4-6,4-10c0-7,2-13,4-19c3-6,2-12,1-18
	c-1-7-1-13,2-19l6-19c1-4,3-7,7-8c3,0,6-3,8-5c3-6,6-5,7,2c3-2,1-4,2-6v-11c1-2,2-5,5-6c3,0,3,3,4,5c1,3,2,8,5,8c3-1,4-5,5-9
	c3-11,6-23,13-34l6-9c2-3,4-5,2-10c-2-4,2-8,7-8c4,0,5-2,6-5c0-3-1-5-4-6c-2,0-5,1-4-2c1-2,3-2,5-1c4,0,5,3,6,6l1,6c2,9,2,8,9,4
	c5-4,11-10,16-10c8,0,11-3,15-7c5-5,8,0,10,5c3-3,6-6,9-5c6,2,8-1,11-4c2,6,1,13,5,19c2,5,0,9-3,13c-4,4-8,10-8,15c1,14-10,17-18,20
	c-10,3-16,9-20,17c-3,5-2,13,0,19L551,195z"/>
<path class="st64" d="M465,387c-10-5-13-4-21,5c-3-3-1-6,0-9c3-7,7-15,7-23l1-2c9-2,9-8,9-15l2-12c1-4-1-7-4-8c-3-2-5,1-7,4
	c-5,7-5,7-12,2l-5-1c-7,4-6,0-6-5l3-18c5-11,3-23,7-34c1-5,2-10,6-14c5-4,6-10,5-15c-2-11,5-16,13-20l4-1c10,5,16-3,23-8
	c2-2,4-5,8-5s5-4,5-7c1-3,1-5,4-5s3,2,4,4c0,2,0,6,3,6c3-1,2-4,2-6c1-4,2-8,1-12c-1-2-1-4,1-5c1-1,3,0,4,1l9,7c4,4,0,7-1,10
	c-9-4-8-4-12,7l-7,27c-1,4,0,7,2,10c5,7,5,14,3,23c-2,12-5,24-10,35h-1c2,8,1,13-8,15c-3,1-2,6-1,9c1,4,4,7,8,7c3,1,6,0,9-1
	c12-4,24,7,22,19c-1,5-1,10,2,14c3,5,1,11,2,17c0,3-1,7,3,7c3,0,4-4,3-7c-1-5,2-10,6-13s7-7,8-12c0-2,2-4,3-5c1-2,3-4,5-2
	c3,1,3,3,2,6c-2,6-3,12-2,18c-4-2-6-1-8,2c-3,5-8,9-8,16c0,2-2,4-4,5l-11,8c-6-2-5-9-10-11c-2-20-5-19-22-16c-7,1-13,3-16,9
	c-1,2-3,5-6,5c-3-1-2-4-3-6c0-3-1-4-3-5c-3-2-3,1-4,3C470,387,468,389,465,387z"/>
<path class="st60" d="M526,395c2-1,5-2,5,2s5,5,5,9l-2,5c-2,4-3,10-7,9c-2,0-3-7-3-11L526,395z"/>
<path class="st65" d="M710,339c-4-7-1-14,1-20c4-13,2-27,8-39c9.5-17.7,19.2-35.4,29-53c4-4,6-3,8,3c1,1,0,4,2,4c3,1,4-2,5-4l13-31
	l5-11c5-3,10-5,14-9c3-3,6-1,6,3c-1,11,2,22,0,33l1,8c1,3,2,6-2,8c-4-4-1-10-4-15l-6,18l-6,21c-3,6-3,11-2,17c1,12-5,24-7,35
	c0,2-2,3-4,3s-3-2-3-4c-2-4,0-8,0-13c-1-1-1,0-2,1c-2,11-11,18-20,24c-7,6-12,13-17,20C721,348,719,349,710,339z"/>
<path class="st66" d="M710,339c2,0,4,0,5,2c4,6,7,3,10-1c8-14,20-24,32-34c3-2,4-5,5-8c1-5,4-8,6-13c6,8-2,17,4,23c1-13,10-26,7-40
	c-1-2,0-5,1-7l13-45c0-3,2-5,4-4c3,0,3,2,3,4v24c1,7,1,14,4,20c-1,4-2,9-8,10c-3,1-3,6-4,9l-8,20c-5,9-8,19-11,30s-11,18-20,25
	c-4,3-8,1-11-3c-4-4-7-4-13-1c-11,5-12,17-19,25l-6,6c-3-9,1-17,2-25l4-12V339z"/>
<path class="st67" d="M822,231c-3,2-6,5-11,6c-4,1-4,6-4,9c0,4,0,7-3,10c-2-2-1-4,0-6c1-13,7-25,9-39l5-19c6,9,0,18,4,27
	c5-7,5-14,7-21l2-9c0-3,1-6,5-7c2,0,4,3,5,5c0,3,2,5,4,8s5,4,10,3c10-2,18,2,24,11c-3-1-6-1-7-3c-6-4-12-5-18-1c-4,2-8,2-11,2
	c-8,0-13,5-16,12L822,231z"/>
<path class="st65" d="M804,250v10c-6-5-4-13-4-20C803,243,798,249,804,250z"/>
<path class="st68" d="M283,746c0-7-5-8-10-9c-5,0-8,2-9,7l-2,7c-1,2-1,4-3,4s-2-3-3-4c0-5,6-17,11-18c8-2,8-8,8-14c1-5,2-10,6-14
	c12-12,15-30,9-46c-3-6-9-11-8-20c-4,9-5,21-18,22v-6c3-3,2-8,3-11c1-13,4-25,6-38l14-72l5-11c2-5,4-10,11-11c4,0,8-4,10-7
	c8-9,19-9,27-16l3-1c4,0,13,15,11,19l-3,7c-1,7,1,10,8,10c5,1,7,3,6,8l1,9c0,4,0,9,6,6c3-2,3,0,3,2v7c0,4-1,8,4,10c4,2,6-2,9-4l1-1
	c-2,7-6,11-12,10s-8,3-8,7c-1,8-7,14-11,21c-3,4-9,4-14,4c-8,0-15,0-18,8c0,2-3,4-5,3c-5-2-5,2-5,5c0,4,0,7-3,9s-2,5-2,8
	c0,11-3,21-10,30c-2,2-3,5-3,9c-2,13-8,24-17,34c-3,3-4,6-4,10s0,9-3,13c-2,3,1,3,3,3C283,737,285,740,283,746z"/>
<path class="st26" d="M267,644c-1,4,2,8-3,11C265,651,265,647,267,644z"/>
<path class="st65" d="M710,344l-5,26l-1,11l-1,3c-4-10-1-19,1-28L710,344z"/>
<path class="st69" d="M1004.8-1.3c6-3,20.1-1.7,26.1,1.3c5,2,0.5,0,6.5,0c3-1,11.3-4,14.3,1c-5,4-19.6,14-25.6,13l-9-2c-4-2-7,0-8,3
	c-5,10-9,21-10,31c-2,10-2,11-12,12l-7,16l-3,3c-2,0-3-1-3-3c0-13-10-23-10-36V4V1"/>
</svg>
