<?xml version="1.0" encoding="utf-8"?>
<!-- Generator: Adobe Illustrator 22.1.0, SVG Export Plug-In . SVG Version: 6.00 Build 0)  -->
<svg version="1.1" id="Layer_1" xmlns="http://www.w3.org/2000/svg" xmlns:xlink="http://www.w3.org/1999/xlink" x="0px" y="0px"
	 viewBox="0 0 990.8 186" style="enable-background:new 0 0 990.8 186;" xml:space="preserve">
<style type="text/css">
	.st0{fill:#CCB683;}
	.st1{fill:#5269D2;}
	.st2{fill:#4256C7;}
	.st3{fill:#5D7CDF;}
	.st4{fill:#6794E7;}
	.st5{fill:#7FA2F5;}
	.st6{fill:#A1D7FB;}
	.st7{fill:#5F95F5;}
	.st8{fill:#6784F1;}
	.st9{fill:#9BB3FC;}
	.st10{fill:#C1EAF8;}
	.st11{fill:#CFF6FA;}
	.st12{fill:#7FA6FC;}
	.st13{fill:#6B83FA;}
	.st14{fill:#93B5FA;}
	.st15{fill:#97C5FB;}
	.st16{fill:#85BFFC;}
	.st17{fill:#ADEAFC;}
	.st18{fill:#8BB9FB;}
	.st19{fill:#6CA7FA;}
	.st20{fill:#7A8DED;}
</style>
<path class="st0" d="M488.2-346.8c-7.5-1.1-14.4-2.3-15.4-2.5c-1-0.3-1.6-2.3-1.6-6.4c0-3.2-0.5-5.9-1-5.9c-0.7,0-3.6,1.3-6.6,2.8
	c-3,1.6-6.1,2.8-7,2.8c-0.8,0-5.5-0.7-10.4-1.5c-7.9-1.3-9.2-1.7-11.6-3.8l0,0c-1.5-1.4-1.8-3.6-0.7-5.3l2-3.2
	c2.2-3.4,4.3-8.4,4.8-11.1c0.9-5.3,0.4-6-5.5-6c-2.5,0-4.2,1.1-10.1,6.2c-3.9,3.4-7.8,6.2-8.5,6.2s-5.1-0.8-9.8-1.8l-8.5-1.8l-9,1.9
	l-9,1.9l-9.6-2.6c-5.3-1.4-10-2.6-10.5-2.6c-0.4,0-2.5,2.5-4.7,5.5c-2.1,3-8.1,9.6-13.3,14.6c-7.8,7.6-10,9.3-13.1,10
	c-2.2,0.5-4.7,0.7-5.6,0.6c-4.6-0.7-64.9-9.5-64.9-10.1c0-0.3,33.5-2.1,35.8-4.6c10.5-11.9,15.4-18.8,16.8-24.6
	c0.8-3.2,1.7-6.4,2.1-7c0.4-1-0.4-1.5-3.5-2.1c-2.2-0.5-4.2-0.8-4.4-0.7c-0.1,0.1-2.2,1.8-4.6,3.8c-6.6,5.7-21.1,15.8-22.8,15.8
	c-0.8,0-4.4-0.4-7.9-0.8c-3.5-0.5-7.2-0.8-7.9-0.8c-0.9,0-4,1.6-7,3.7c-2.9,2-6,3.7-6.9,3.7c-1.2,0-59.4-13.4-64.6-15.6
	c-1.8-0.8,38.5-4.4,47.8-19.5l8.5-14.1l24.7-21.4c17.3-15,27.2-22.8,32.7-26.1c4.4-2.5,8.6-4.6,9.4-4.6c0.8,0,5.1,2.3,9.6,5.2
	c7.3,4.6,8.1,5.3,6.8,6.5c-0.8,0.8-1.2,1.6-0.9,1.8c1.3,0.9,11.3,2.5,12.4,2c0.7-0.3,3.6-3.4,6.8-7c4.8-5.5,8.5-8.3,24.7-18.8
	l19.1-12.4l22.9-8.4c12.8-4.6,27.8-9.6,33.7-11.1c9.8-2.5,11.2-2.6,17-2.4c3.6,0.2,7.2,0.6,8.1,1c36.1,4.5,53.4,11.6,5.7,8.3
	c-0.7,0-4.8,5.2-10.5,10l-10.5,8.8l6.6,2.5c3.6,1.4,6.6,2.8,6.6,3.2c0,0.4-3.5,3.9-7.8,7.9s-7.8,7.2-7.8,7.3c0,0.1,2.3,0.6,5.3,1.1
	c5.1,1,5.5,1,9.6,0.1c3.6-0.9,4.9-1.7,7.9-5.3c7-8.4,7.9-9.3,11.1-10c5.2-1.2,8.2-0.8,18,2.1c8.1,2.4,9.6,2.8,10.9,2
	c9.6-5.3,21.1-11.1,22.1-11.1c0.7,0,4.9,1.4,9.5,3.2c4.9,1.8,9.2,3,10.5,2.9c1.4-0.1,5.1-2.3,8.8-5.2c3.6-2.8,10.1-7.3,14.7-9.9
	c6.8-3.9,9.6-5.1,15.4-6.3c3.9-0.8,7.9-1.5,9-1.5c3.4,0,41.7-0.8,41.7-0.1c0,0.5-23.8,8-26.8,11.1c-6,6.4-13.1,15.5-12.4,15.9
	c0.4,0.1,4.2-2.8,8.3-6.4c7.7-6.6,7.9-6.8,18.9-10.2c6-1.9,11.6-3.5,12.2-3.5c0.7,0,4.2,1.4,7.8,3c5.9,2.5,35.3,7.8,36,10.2
	c0.8,2.6-28.4-0.9-40.6,11.5c-7.3,7.2-13.1,13.4-13.1,13.8c0.1,0.4,1.4,1.4,3,2.2c2.6,1.4,3.3,1.5,8.7,1c9.9-0.8,16.7-0.7,18,0.5
	c0.7,0.5,2.3,3.6,3.5,6.8c2.5,6.1,3.6,6.9,8.8,5.9c2.2-0.5,5.2-3.2,12.5-11.5c5.3-6,10.5-11.6,11.4-12.5c3-2.6,57.9-34.4,70.6-41
	c6.6-3.4,12.9-6.1,13.9-6.1c0.9,0,40-11.9,46.3-10.5c9,2-21.1,15.9-19.2,17.5l2.5,2l-11.6,10.5l-11.6,10.5l4.9,4.3l4.9,4.3l-1.4,5.6
	l-1.6,5.6l-11.8,8.8c-6.5,4.8-27.3,15.3-28.2,16c-1.7,1.1,13-4.7,16.9-3.9l4.2,1l7.8-3.3c6.4-2.7,9.1-4.5,15.9-10.6
	c6.6-6,9.5-7.9,15.5-10.4l7.4-3.1l10.7,1.6c5.9,0.9,11.6,2,12.8,2.4c1.2,0.5,3.1,2.3,4.4,4.1l2.3,3.4l-3.5,2.5
	c-3.8,2.8-15.4,21.1-9.3,24.3c3.8,2,16-16.1,23.3-16.1c6.6,0,9.1,0.3,18.3,2.5c10.3,2.4,10.9,2.6,13.8,5.7l3,3.2l-3.6,2.9
	c-10.5,8.3-37.7,30.7-54.4,44.8c-15.1,12.9-19.8,17.3-23.2,22.5c-2.3,3.5-5.1,6.8-6,7.3c-1.4,0.7-4.3,0.5-19-1.1
	c-9.5-1-18.3-2.1-19.5-2.4c-2-0.4-2.3-1.3-2.3-5.4v-4.9l-22.8-5l-22.8-4.9l-9.1,7.9c-5.1,4.3-9.9,7.9-10.8,7.9s-6.9-0.5-13.4-1.1
	c-6.4-0.6-12.6-1.1-13.8-1.1c-1.4,0-6.6,2.5-13.5,6.5c-6.2,3.5-11.8,6.5-12.6,6.5c-0.8,0-6.8-1.4-13.4-3.2
	c-9.8-2.5-37.3-1.1-39.2-2.9c-2.2-2.2,22.7-4.8,24.9-7.3c2.9-3.1,5.9-8.8,6-10.9c0-1.5-0.3-1.6-21.6-4.8c-0.8-0.1-3,1.7-4.9,4
	c-2,2.3-4.4,4.5-5.3,4.8c-1.2,0.5-4.4,0.5-10.7,0.1c-4.8-0.3-9.2-0.4-9.6-0.2c-0.5,0.2-3.9,4-7.7,8.5c-3.8,4.5-12.6,26.4-8.5,8.9
	c-1.6,0.7-3,0.5-9.8-1.2c-4.4-1.2-8.6-2.1-9.2-2.1c-0.7,0-3.3,1.8-5.7,3.9c-2.6,2.2-5.3,4.1-6.2,4.3c-0.9,0.1-5.7-0.5-10.5-1.5
	c-4.9-1-9.6-1.6-10.4-1.5c-0.9,0.2-2.3,2.9-3.4,6.6c-1.8,7.1-3,8.9-5.5,8.9C502.7-344.7,495.8-345.7,488.2-346.8z"/>
<path class="st1" d="M885.6,150.3h30.5l-9.4,0.1c2.1,1.1,1.4,4.3-1,4.4c-23.8,1-24.6,2.2-51.9-0.5c-19.4-2-38.8-3-59.6,0
	c-20.8,2-41.6,3-62.3,2h1.4c5.5,0,12.5,1,11.1,6c0,3-6.9,3-11.1,3c-23.5-1-45.7,1-69.3-2c-2.8,0-6.9-1-6.9,2l-1.4,2
	c-12.5,1-24.9,0-37.4-3c-2.8-1-6.9-2-5.5-5c1.4-3,6.9-3,9.7-3l45.7,1h23.5c-5.5-3-12.5-5-20.8-5c-5.5,0-11.1-1-11.1-6s5.5-5,11.1-6
	l6.9-1l-9.7-8c-6.9-8-2.8-15,9.7-16c11.1-1,23.5,0,34.6-2c2.8,0,5.5,1,9.7-2c-13.9-1-24.9-5-37.4-7c-8.3-1-15.2-2-19.4-8
	c-1.4-3-5.5-3-9.7-5c-2.8-1-5.5-3-5.5-6c1.4-3,5.5-4,8.3-4c30.5,1,59.6-2,88.6,4c5.5,1,11.1,1,15.2-2s9.7-3,15.2-1
	c8.3,2,16.6,2,24.9,1c9.7-2,19.4,4,19.4,11c0,5-5.5,6-11.1,7c-13.9,2-27.7,2-41.6,2c-8.3,0-16.6,0-24.9,2c2.8,2,5.5,2,6.9,2
	c18,0,34.6,3,51.2,7c13.9,3,15.2,7,4.2,16c5.5,1,9.7,4,11.1,7c1.4,3,4.2,4,8.3,5C845.5,144.3,864.8,149.3,885.6,150.3z"/>
<path class="st2" d="M851.6,150.3c-26.4,1-51.2-6.2-77.6-8.2l-3.3-1c-5-5.1-9.9-9.2-21.5-9.2c-3.3,0,0-3.1,3.3-4.1
	c5-2.1,13.2-2.1,11.6-7.2c-1.7-4.1-9.9-5.1-16.5-6.2c-19.8-3.1-41.3-7.2-62.7-6.2c-5,0-9.9,0-9.9-4.1c0-3.1,6.6-2.1,9.9-3.1
	c24.8-3.1,51.2,1,75.9-3.1c3.3,0,9.9,0,11.6-3.1c1.7-4.1-3.3-7.2-6.6-10.3c-3.3-2.1-8.3-2.1-13.2-1c-8.3,3.1-18.2,2.1-28.1,0
	c-6.6-2.1-13.2-3.1-19.8-1h-3.3l-36.3-5.1c-8.3-1-21.5-9.2-21.5-15.4c0-2.1,1.7-4.1,5-5.1c5-1,9.9-2.1,14.9-1
	c21.5,0,42.9,0,64.4,2.1c34.7,1,71,5.1,100.7-12.3c5-3.1,11.6-3.1,16.5-4.1c11.6-2.1,18.1-5.4,28-8.5c34.6-14.4,59.4,3.3,36.3,4.4
	h-8.3c-18.2,0-46.1,13.2-42.8,1.9c9.9,0,38.7-8.9,48.6-9.9l9.1-1.2c43.8-3.8,8.3,4.1,14.9,5.1c14.9,3.1-10,4.9,4.8,5.9l-19.6-0.2
	c5,1,4.9,2.5,9.8,7.6c0,9.2-14.9,11.3-23.1,12.3c-21.5,4.1-42.9,9.2-66,12.3c-5,0-8.3,0-9.9,3.1c-1.7,4.1,3.3,4.1,6.6,5.1
	c13.2,5.1,13.2,8.2,5,12.3l-9.9,3.1c-3.3,2.1-6.6,3.1,0,5.1l8.3,4.1c-21.5,3.1-42.9,1-66,5.1c6.6,4.1,13.2,4.1,19.8,5.1
	c6.6,0,13.2,2.1,14.9,7.2c1.7,6.2,9.9,8.2,19.8,8.2c3.3,0,9.9-1,9.9,3.1s-6.6,3.1-11.6,3.1h-36.3c-3.3,0-8.3,0-8.3,2.1
	c0,3.1,5,2.1,6.6,2.1L851.6,150.3z"/>
<path class="st3" d="M845.7,84.3h2.3c-4.6,5-13.9,5-23.1,3c-50.8-6-99.3-2-150.1-3c-4.6,0-9.2-1-9.2,1c-2.3,2,0,4,4.6,4
	c11.5,2,20.8,4,25.4,9c2.3,2,13.9,4,23.1,4c23.1,0,41.6,7,64.6,6c4.6,0,6.9,1,9.2,3c0,2-4.6,2-9.2,3c-13.9,3-32.3,2-48.5,3l-30,1
	c-16.2,1-20.8,6-9.2,11c6.9,4,13.9,8,25.4,11c-9.2,3-18.5,3-27.7,3c-6.9,0-13.9,0-13.9,3s9.2,4,13.9,4c20.8-3,32.3,6,50.8,6
	c4.6,0,6.9,1,4.6,2c0,2-2.3,2-6.9,2h-27.7c-32.3-1-64.6,1-94.7-2h-9.2c-2.3,0-6.9,0-6.9,2l4.6,3c-4.6,2-9.2,2-16.2,2
	c-30-1-60-3-90-8c-6.9-1-16.2-1-16.2-5c2.3-4,11.5-5,20.8-6h2.3c23.1,1,46.2-1,69.3-1c13.9-1,18.5-6,23.1-10c4.6-2-4.6-6-11.5-6
	l-27.7-2l-13.9-2c-4.6-1-6.9-2-6.9-4s4.6-2,9.2-3l32.3-3v-1l-2.3-1c-11.5-1-20.8-4-23.1-10c-2.3-4-6.9-6-16.2-7
	c-11.5-2-20.8-3-20.8-10c0-3-9.2-4-13.9-4l-62.3-6c-9.2,0-23.1,0-20.8-6c2.3-5,16.2-4,23.1-3c39.2,3,76.2,5,115.4,4h18.5
	c-16.2-4-34.6-6-53.1-7l-32.3-4c-4.6-1-11.5-2-11.5-5c2.3-3,9.2-4,13.9-4c32.3,3,62.3-1,94.7-2l34.6-2c18.5-3,39.2-5,60-3
	c32.3,1,64.6,0,97-4c9.2,2,11.5,5,9.2,9c-2.3,4-9.2,4-16.2,4c-16.2-2-30,1-43.9,3c-16.2,1-34.6,4-50.8,4c-6.9,0-13.9,1-13.9,4
	c-2.3,4,4.6,5,11.5,6c20.8,5,46.2,5,69.3,6C781,76.3,813.4,80.3,845.7,84.3z"/>
<path class="st4" d="M649.5,44.3l-103.8,10h-27.2c-6.8-1-10.2-1-15.3,1c0,3,5.1,3,8.5,4l66.3,9l5.1,2c0,2-1.7,2-5.1,3l-8.5,1
	c-27.2,0-56.1,0-83.3-3l-20.4-2c-3.4-1-6.8-1-8.5,1c0,3,5.1,4,6.8,4c13.6,0,25.5,2,39.1,3l25.5,5c3.4,1,8.5,2,3.4,5
	c-6.8,4,1.7,5,5.1,5c11.9,2,22.1,4,22.1,14c0,4,10.2,3,13.6,6c-3.4,2-6.8,2-10.2,1c-15.3-3-28.9-3-44.2-3c-10.2,0-20.4-1-27.2-5
	c-11.9-5-23.8-8-30.6-16c-3.4-3-10.2-4-17-5c-8.5-1-15.3-2-20.4-6c-3.4-3-8.5-4-13.6-4l-10.2-1c-6.8-1-13.6-2-13.6-6
	c0-5,6.8-5,11.9-6l11.9-1c8.5-1,13.6-3,15.3-8c0-7,6.8-10,18.7-10c28.9,1,57.8-5,88.5-3l15.3-1c-5.1-3-15.3-1-17-6l30.6,3l11.9,1
	c22.1-1,44.2,5,68,5C644.4,41.3,647.8,42.3,649.5,44.3z"/>
<path class="st2" d="M235.1,98.5c3.7-7.2-2.4-8.3-8.4-9.5c-32-1.4-60.2-7.3-92-5.9l-16-2.1c-14.1-3.6-30.1-4.3-44-3.7
	c7.6-8.8-10.2-5.2-10.4-10.8C70,63.4,80,64.4,88,64l85.4-9.3l129.2-11.2l7.9-1.7c7.9-1.7,15.9-0.7,16.2,4.9s6.3,6.8,12.2,6.5
	l11.9-0.5c17.9-0.8,36.3,8.3,42.7,19.3c2.2,5.5-3.7,5.8-7.7,7.4c-5.9,3.1-13.9,2-19.8,3.7c-9.9,1.8-17.9,2.2-25.7,5.3
	c-19.5,9.3-39.6,7.3-61.4,9.7c-11.9,0.5-24-1.8-35.8,1.5L235.1,98.5z"/>
<path class="st5" d="M330.6,80.1c9.3-3.7,20.6-4.2,30-5.7c5.7-0.2,13.2-0.6,18.8-3c-5.8-1.9-11.6-6.1-15.6-10.3s-11.6-5-21-4.6
	c-9.4,1.5-20.7,2-32.2-0.8c7.3-5.8,7.1-10.1-8-9.5c11.2-3.8,24.4-5.4,35.7-5.9l58.6-2.5c58.5-3.6,115.4-1.7,172.4,3.5
	c5.8,1.9,15.2,1.5,22.8,2.3c3.8-0.2,7.6-0.3,7.7,2.9c0.1,2.2-3.7,2.3-7.5,2.5c-18.8,4.1-35.8,3.7-54.8,3.5l-7.6,0.3
	c-18.7,5.2-37.7,4.9-56.5,5.7c-15.1,0.7-18.8,3-18.4,11.7c2.1,5.4-1.5,8.8-12.9,9.3l-20.7,2c-24.4,4.3-51,2.2-75.5,5.4
	C338.5,87.4,332.7,85.5,330.6,80.1z"/>
<path class="st6" d="M317.5,157.1c-2.9-4.2-11.2-6.1-19.4-5.7c-43.8-0.3-87.8-3.9-128.9-5.5c-22-1.3-46.5,0.9-68.5-1.5l-13.8-1.6
	l-5.6-1.9c0-1.1,2.6-2.3,8.1-2.5l40.9-2.8l125.7-5.3c5.5-0.2,13.7,0.5,19-3c-16.7-5.8-43.9-2.5-63.2-5c-27.3,1.2-57.3,3.5-82.2-0.9
	c-11-0.6-22-2.3-8.6-8.4c5.4-2.4-2.9-3.2-5.6-3c-13.7,0.6-24.7-1.1-35.7-2.9c-11.1-2.8-11.3-8.3,2.4-8.8c24.6-1,43.4-9.5,70.8-8.5
	c19-4.1,38.2-3.8,60-4.7c27.3-1.2,57.4-1.3,84.5-8c8.3,1.8,11.2,6.1,19.4,4.6c8.4,4,3.1,7.5-7.8,9.1c-8.1,2.5-19,3-29.8,6.7
	c8.3,1.8,19.2,1.4,30.1,0.9c41-0.6,85,2.9,128.6,0l8.2-0.3c11,0.6,24.7,2.2,22.2,7.8c0.3,6.5-13.4,7.1-24.3,7.6
	c-53.4,4.8-107.5,7.1-161.2,6.8l49.4,2.3c13.7-0.6,24.6,0,35.7,1.8c5.5,0.9,8.3,1.8,8.4,5.1c-2.6,2.3-5.3,3.5-10.8,3.7l-10.9,1.6
	c-35.6-0.7-68.2,5.1-103.7,7.7c19.3,2.5,41.2,2.6,60.4,4c5.5,0.9,16.4,0.4,16.6,4.8l0.1,2.2C325.6,155.6,322.9,156.9,317.5,157.1z"
	/>
<path class="st3" d="M299.1,147.7l-84.9-5.4l-13.6-0.7c-6.8-1-17-1.8-17.1-4.2c-0.2-3.6,10-2.8,16.8-3c47.3-1.7,94.3-8.1,141.7-8.6
	c3.4,1.1,10.1-0.4,10.1-1.6c3.2-3.7-3.5-2.3-10.3-3.2c-30.6-2.5-61-2.7-94.9-2.7l-30.6-3.7c13.3-4.1,23.4-5.6,37-4.9
	c30.5,1.3,64.3,0.2,94.6-2.1l98-3.4c10.1-0.4,20.3-0.7,23.5-4.4c3.1-4.9-10.4-5.6-20.6-6.5l-17-0.6c-42.4,2.3-103.4-0.8-189.5,0.6
	c-10.2-0.8-20.3-0.5-20.5-4.1c-0.2-3.6,10-4,16.6-5.4l30.3-3.5c13.5-1.7,20.1-4.3,16.5-9c47.2-4.1,91.2-3.2,138.5-4.8
	c-3.3,2.5-20.3,0.7-16.7,4.2c0.2,3.6,10.4,4.4,20.6,5.3l20.3-0.7c10.1-0.4,27.1,0.3,30.6,2.5c10.6,8,34.2,7.2,54.6,8.9
	c13.5-0.5,27.1,1.5,30.8,6.1c7.2,9.4,31,10.9,51.5,13.8c-6.4,7.4-23.3,6.8-36.9,7.3L473.6,120c20.4,1.7,37.4,3.5,51.1,6.6
	c10.3,2,20.4,1.7,30.5,0.1c13.5-0.5,30.4-1.1,40.7,1c6.8,1,13.7,3.1,10.4,5.6c0.1,2.4-6.6,2.6-13.3,4.1c-13.5,0.5-30.4,1.1-47.2,4.1
	c27.2,2.7,54.2,1.7,78,3.3L739,148l10.2,0.8l6.9,3.4l-10,2.8l-43.9,2.7l-37.1,2.5c-30.3,3.5-60.7,4.5-91.1,5.6
	c-10.1,0.4-23.6,0.8-30.6-2.5c10-4,33.8-1.2,30-9.5c-7.1-5.8-27.1-1.5-37.3-2.3c-71.1-1.1-142.1,0.2-210-3.5L299.1,147.7z"/>
<path class="st1" d="M944.8,35c-5.8,6.9-23.2,3.5-29,8.7c2.9,5.2,17.4,3.5,17.4,10.4c0,5.2-8.7,5.2-14.5,5.2l-107.1-1.7h-23.2
	c-5.8,1.7-11.6,1.7-14.5,5.2c-2.9,3.5,5.8,5.2,8.7,6.9l8.7,3.5c-8.7,15.6,11.6,12.2,23.2,13.9c20.3,3.5,43.4,1.7,60.8,12.2
	c-29,1.7-55-6.9-84-8.7l-66.6-3.5c-23.2,0-43.4-5.2-66.6-8.7c-11.6,0-14.5-5.2-14.5-12.2s2.9-13.9,14.5-13.9
	c26.1,1.7,49.2-5.2,75.3-5.2l165.1,6.9c8.7,0,14.5,0,5.8-6.9c-8.7-6.9,2.9-8.7,8.7-8.7L944.8,35z"/>
<path class="st7" d="M553.7,167.3l-2-1.4c6-4.1,16.1-1.4,22.1-1.4c10.1,0,18.1-1.4,28.2-4.1c-36.2-4.1-66.4-9.6-100.6-12.3
	c-8,0-18.1-1.4-26.2-4.1c-2-1.4-8-1.4-6-5.5l10.1-2.7l32.2-1.4c-8-6.8-16.1-8.2-28.2-5.5c-8,1.4-16.1,0-22.1-4.1
	c-8-5.5-18.1-5.5-28.2-8.2c-4,0-10.1,0-10.1-4.1c0-2.7,6-2.7,10.1-2.7c22.1,0,42.2-2.7,64.4-1.4c8,0,16.1-1.4,22.1-4.1
	c10.1,6.8,20.1,8.2,34.2,8.2c22.1-2.7,42.2,1.4,62.4,5.5c4,0,12.1-1.4,12.1,2.7c0,4.1-6,5.5-10.1,4.1c-14.1,0-24.1,5.5-38.2,5.5
	c12.1,6.8,26.2,5.5,38.2,6.8c10.1,0,14.1,2.7,20.1,8.2c4,5.5,4,9.6-6,11l-6,1.4c2,13.7-14.1,8.2-22.1,8.2
	C587.9,165.9,571.8,168.7,553.7,167.3z"/>
<path class="st8" d="M341.3,30l10.5-0.3c5.2-1.4,11.3,0.4,16.5-2.3c11.2-1.6,22.5-1.2,33.8-0.8l54.9-1.3l22.6,1.4l3.8,1.2
	c4.6,3.1,7.7,7.5,12.3,10l0,1.9c-2.2,2.6-6,2.1-9,2.8c-7.5,2.1-15,2.3-22.5,1.2l-3.8-1.2c-9.8-0.4-18.9-3.4-28.6-2.5
	c-5.3,0.1-9.1-2.4-14.3-2.2l-6.8-0.5c-10.5-0.4-20.4-3.4-31.7-3.7c-20.3-1.4-41.4-0.3-61.7,0.2c-3.8,0.1-7.5,0.8-10.5,2.2
	c-7.5,2.1-15.7,2.3-23.3,2.5l-63.1,5.4c-2.3,0.1-3.7,0.7-2.2,3.3c0,1.3-1.5,2-2.9,2.6c-3.7,1.4-7.5,0.8-11.3,0.3
	c-9.8-1-20.3-0.1-30.8,0.1c-15.8-0.9-32.3,1.4-48.1-0.1c-2.3-0.6-4.5,0.1-6.1-1.8c5.2-1.4,11.3-0.3,17.3-1.1c2.3,1.2,4.5,0.5,6,0.5
	l54.1-1.3c3.8-0.1,7.6,1.7,11.3,0.4c0.7-1.9-3.1-1.9-3.1-3.8c7.5-2.1,15-1,22.5-2.5c12-2.2,24-1.2,36-4.1c13.5-0.3,26.3-1.9,39-4.8
	c10.5-1.5,21.8-2.5,32.3-2.7C336.8,28.8,339.8,28.7,341.3,30z"/>
<path class="st6" d="M204.2,48.8l12-0.3c4.5-2,9-1.5,13.5-0.3l12.1,2.3c9.8-0.2,19.6,2.1,30.2,3.8c5.3,0.5,6.1,1.8,5.4,5.7
	l-17.2,4.9c-0.8,0-3,0.1-3,1.4c0,1.3,1.6,1.9,3.1,2.5l5.3,1.2c2.3,0.6,4.5,1.2,3.9,4.4c-0.7,2.6,1.6,3.2,3.9,3.8l12.8,1
	c2.3-0.1,5.3-0.1,7.5,1.1c0.8,3.8,0.1,5.1-4.4,5.3l-27.1,0.7l-18,2.4l18.9,2.8c6,1.1,11.3,2.3,15.9,4.8c6.1,3.1,12.9,4.8,19.7,6
	l11.3,2.3c2.3,0.6,4.6,1.8,3.9,3.8c0,1.9-2.2,2-4.4,2.7l-10.5,0.9c-3.8,0.1-5.2,1.4-5.2,4.6l0,1.3c-2.9,3.3-5.1,5.9-3.5,9.7
	c0,1.3-1.5,2-2.9,2.6l-5.2,0.8c-16.5,1-32.3,2.1-48.2-1.4l-18.1-1.5c-4.5,0.1-9.1-2.4-13.6-2.9l-33.2-3.7l-18.1-1.5l-15.9-2.2
	l-0.8,0c-0.8-0.6-2.3,0.1-2.3-1.9c0-1.3,1.5-2,3-2l15-1.7l21.8-1.8c-3.8-1.2-7.5-1.1-9.8-2.3c-2.3-0.6-4.5-1.2-3.9-3.8
	c-0.1-2.6,2.2-2.6,5.2-3.3l3.8-0.1c0.7-1.9-2.3-3.2-0.1-5.1c1.5-1.3,3.7-0.7,6-1.4l21-1.8l5.3-0.1c-12.8,0.3-26.4-1.3-39.2-2.3
	l-30.2-3.1c-15.8-0.9-31.6-1.8-47.5-4c-5.3-0.5-10.5,0.9-15.8-1.5l0.7-1.3c6-2.7,11.3-0.9,17.3-0.4l19.6,1.4
	c15.1,1.6,29.4,1.2,43.7,2.8c10.6,2.3,21.8,1.4,32.4,3.7c-0.8-0.6,0,0,0,0c-4.6-4.4-0.1-5.1,2.9-5.9c8.2-1.5,15.8-1.7,24-1.2L217,80
	l-16.5,0.4l-6-1.1c-3-0.6-5.3-1.8-5.4-5c-0.1-2.6,2.9-3.9,5.2-4.6l3-0.1l-3.8-0.6c-2.3-0.6-3.8-1.2-3.8-3.1c0-1.9,1.4-3.3,3.7-3.9
	l10.5-1.5l6.7-1.5c2.3-0.1,6-0.1,6-2.7c-0.1-2.6-3.8-1.8-6.8-1.8c-3.8-0.6-6.1-1.8-5.4-5L204.2,48.8z"/>
<path class="st9" d="M302.3,156.4c-11.3,0.3-21.9-2.7-33.2-2.4c-0.8,0-1.5,0-1.5-1.2l1.5-1.3l0.8,0c1.5-0.7,4.5-1.4,3.7-3.3
	c-0.8-2.6-3-1.2-5.3-1.2c-15.9-2.8-31.7-4.4-47.5-5.9c-5.3-0.5-10.6-2.3-15.8-1.5c-1.6-3.8-0.9-4.5,3.6-5.2c1.5,1.2,2.3,2.5,4.6,2.5
	c21.1,1.4,41.5,6.1,62.6,6.8c2.3-0.1,5.3-0.1,6.7-2.1c1.5-1.3,3.7-2,6.7-2.1c6.8,1.1,13.5-1,20.3-1.1l7.5,0.5
	c10.5,0.4,20.4,2.1,30.9,1.2l11.3,1l6.8,1.8c1.5,0,3,1.2,3.1,2.5c0,1.9-2.2,3.3-3.7,3.3c-5.7,1.2-11.5,2.3-17.2,3l0,0.6
	c1.6,1.9,3.8,3.1,2.4,5.7c-1.4,2.6-5.2,1.4-6.7,1.5c-11.3-1.7-22.6-0.7-33.2-3L302.3,156.4z"/>
<path class="st10" d="M147.9,85.5l-40.7-2.9l-2.3-0.6l-12.8-2.3l-4.5,0.1c-6.8-3-13.6-2.9-21.1-2.7c-4.5,0.1-8.3,0.2-12,2.2
	c-0.8-0.6-1.5-1.2-0.8-2.6c3.7-1.4,5.2-3.3-0.1-5.1c3.6-6.5,8.8-7.3,16.4-6.8c8.3,1.1,16.6,2.2,24.9,1.3l6-0.1
	c9.1,1.7,18.1,0.2,27-3.2l12.7-4.2c-9.8,0.2-17.4-2.1-25.6-2.6c-5.3,0.1-9.8,0.9-14.4-3.5c-2.3-1.9-7.5-0.5-11.3,0.3
	c-5.2,1.4-9.7,1.5-15,1l-25.6,0.6c-2.3,0.1-5.2,0.8-6.8-2.4c2.2-1.3,5.2-0.8,7.5-1.5l69.9-2.4l36.9,0.4l18.1,0.2l11.3,0.4
	c8.3,0.4,15.8,1.5,23.4,5.2c-0.7,2.6-2.9,2.6-4.4,3.3c-6,2.1-12,2.2-18,2.4c-12.1-1-23.3,1.9-35.2,4.7l-1.5,0.7
	c-4.4,5.9-11.9,5.4-18.6,6.9l-0.7,1.3c0.8,1.3,2.3,0.6,3.8,0.6c10.5-0.3,20.4,2.1,30.9,2.5l2.3-0.1c1.5,0.6,3,1.2,3.1,2.5
	c0,1.9-1.5,2-3.7,2.7l-2.3,0.1C158.3,81.4,153.1,83.5,147.9,85.5z"/>
<path class="st11" d="M41.8,52.1c1.5,1.2,3.8,0.6,6,0.5l33.1-0.2c6,0.5,12.7-2.2,18.8-1.7l5.3-0.1c0.8,2.6-3,1.4-2.2,3.9
	c14.3,0.3,27.9,1.9,41.5,3.5c0,1.3-0.7,1.9-1.5,2c-10.4,3.5-20.9,6.9-32.1,8.5c-3,0.7-6-0.5-9-0.4c-7.5-1.1-15,1-22.6-0.1
	c-3.8-1.2-8.3-1.1-12.1-1.6c-3.8,0.1-7.5-1.1-8.9,4.1c0,1.3-2.2,1.3-4.5,1.4l-28-5.7l-3.8-1.8c-2.3-1.9-5.4-3.7-5.4-5.7
	c-0.1-2.6,3.7-2,6-2.7C28.2,53.1,35,51,41.8,52.1z"/>
<path class="st6" d="M53.6,76.9c0,1.3,0.8,1.9,1.6,1.9c5.2-2.1,8.2-1.5,11.3,1.7l-12-0.3c-2.3,0.1-3-0.6-2.3-3.2L53.6,76.9z"/>
<path class="st12" d="M302.3,156.4c6.7-2.7,12.8,0.3,18.8,0.2l23.4,2c1.5,0,4.5,1.2,5.2-1.4c0.7-1.9-1.6-3.2-3.9-3.8
	c-0.8-0.6-2.3-0.6-2.3-2.5c0.7-1.9,2.2-1.3,3.7-1.4l17.2-2.4c1.5,0,3.8-0.1,3.7-2c0-1.3-2.3-1.2-3-1.2l-6.1-1.8
	c-3.8-3.1-3.9-5.1-0.9-7.7c3-2,6-2.7,9.7-3.5l-20.5-5.9c-6.1-2.4-7.6-4.3-7-10.1c-0.1-2.6-0.8-3.8-3.1-4.4c-3.1-1.9-6.9-3.7-8.5-7.5
	c0-1.9-3.8-1.2-3.8-3.1l0.7-1.3c2.2-1.3,5.2-0.8,7.5-0.2L380,103l3-0.1c2.3-0.1,3.8,1.2,4.6,3.1c0,1.9-1.4,3.3-2.9,4.6l-4.5,0.8
	l-5.2,1.4l13.6,3.5c3,0.6,6,0.5,4.6,4.4c-1.5,2,0,1.9,1.6,2.5c9.8,1.7,20.4,2.7,30.9,3.1c6-0.1,11.3-0.3,16.6,2.2
	c3.1,3.1,0.8,3.8-2.9,4.6l-10.5,0.9l-11.2,2.2c2.3,2.5,8.3,1.7,6.9,6.3c-13.5,2.3-25.3,9.6-39.7,8c-2.3-0.6-4.5,0.8-7.5,0.8
	c-3.7,0.7-6,2.1-6.6,5.3c-0.7,3.2-2.2,3.9-5.9,3.4l-16.6-0.2L302.3,156.4z"/>
<path class="st13" d="M348.3,159.7l16.6,0.2c3-0.1,3.7-0.7,3.7-2.7c-0.1-5.1,4.4-6.5,8.8-7.9c6-1.4,12,0.3,18-0.4
	c7.5-0.8,14.2-5.5,22.4-6.3l6.8-0.2c4.4-4,9.7-3.5,15-2.3l10.5-0.3c6-1.4,12-1.6,18-1.1c0.8,3.8-0.6,5.8-4.3,7.2l-10.5,1.5
	c-12,0.9-24,4.4-35.9,6.7c-1.5,0-3.7,1.4-4.4,2.7c-1.4,4.5-5.1,6.6-10.4,6.7l-3.8,0.1c-2.3-2.5-5.2,0.8-7.5-0.5l-23.4-2l-7.5,0.2
	L348.3,159.7z"/>
<path class="st3" d="M516.8,66.8l0.8,0c-1.4,3.3-4.4,3.3-7.5,2.1c-16.6-3.5-32.4-0.5-48.9-0.7c-1.5,0-3-0.6-3,0.7
	c-0.7,1.3,0.1,2.6,1.6,2.5c3.8,1.2,6.8,2.4,8.4,5.6c0.8,1.3,4.6,2.5,7.6,2.4c7.5-0.2,13.6,4.2,21.1,3.3c1.5,0,2.3,0.6,3.1,1.9
	c0,1.3-1.5,1.3-3,2c-4.5,2-10.5,1.5-15.7,2.3l-9.8,0.9c-5.2,0.8-6.7,4-2.8,7.1c2.3,2.5,4.6,5,8.4,6.9c-3,2-6,2.1-9,2.1
	c-2.3,0.1-4.5,0.1-4.5,2c0,1.9,3.1,2.5,4.6,2.5c6.7-2.1,10.6,3.6,16.6,3.5c1.5,0,2.3,0.6,1.5,1.2c0,1.3-0.7,1.3-2.2,1.3l-9,0.2
	c-10.5-0.4-21,1.2-30.9-0.5l-3,0.1c-0.8,0-2.3,0.1-2.2,1.3l1.6,1.9c-1.5,1.3-3,1.4-5.2,1.4c-9.8-0.4-19.6-1.4-29.4-4.4
	c-2.3-0.6-5.3-0.5-5.3-3.1c0.7-2.6,3.7-3.3,6.7-4l0.8,0c7.5,0.5,15-1,22.5-1.2c4.5-0.8,5.9-4,7.4-6.6c1.5-1.3-1.6-3.8-3.9-3.8
	l-9.1-1.1l-4.5-1.2c-1.5-0.6-2.3-1.2-2.3-2.5s1.5-1.3,3-2l10.5-2.2l0-0.6l-0.8-0.6c-3.8-0.6-6.8-2.4-7.7-6.2
	c-0.8-2.6-2.3-3.8-5.4-4.4c-3.8-1.2-6.8-1.8-6.9-6.3c0-1.9-3.1-2.5-4.6-2.5l-20.4-3.4c-3,0.1-7.5,0.2-6.9-3.7
	c0.7-3.2,5.2-2.7,7.5-2.1c12.8,1.6,24.9,2.6,37.7,1.7l6-0.1c-5.3-2.4-11.4-3.6-17.4-4.1l-10.6-2.3c-1.5-0.6-3.8-1.2-3.8-3.1
	c0.7-1.9,2.9-2.6,4.4-2.7c10.6,1.7,20.3-1.1,30.8-2l11.2-1.6c6-2.1,12.7-3.5,19.5-2.4c10.5,0.4,21-0.5,31.5-3.3
	c3,1.2,3.8,3.1,3.1,5.7c-0.7,2.6-2.9,2.6-5.2,2.7c-5.3-1.2-9.8,0.9-14.2,2.3c-5.2,0.8-11.2,2.8-16.5,3c-2.3,0.1-4.5,0.8-4.4,2.7
	c-0.7,2.6,1.6,3.2,3.9,3.8c6.8,3,15.1,2.8,22.6,3.3C495.6,62.2,506.2,64.5,516.8,66.8z"/>
<path class="st4" d="M464.3,42.4l-45.7,7.6l-12,0.3c-3-0.6-4.5-0.5-6.8,0.8c0,1.9,2.3,1.9,3.8,2.5l29.5,5.1l2.3,1.2
	c0,1.3-0.7,1.3-2.2,2l-3.7,0.7c-12,0.3-24.8,0.6-36.9-1l-9.1-1.1c-1.5-0.6-3-0.6-3.7,0.7c0,1.9,2.3,2.5,3.1,2.5
	c6-0.1,11.3,1,17.3,1.5l11.4,2.9c1.5,0.6,3.8,1.2,1.6,3.2c-2.9,2.6,0.8,3.2,2.3,3.2c5.3,1.2,9.8,2.3,10,8.8c0.1,2.6,4.6,1.8,6.1,3.7
	c-1.5,1.3-3,1.4-4.5,0.8c-6.8-1.8-12.8-1.6-19.6-1.4c-4.5,0.1-9-0.4-12.1-2.9c-5.3-3.1-10.7-4.9-13.8-10c-1.6-1.9-4.6-2.5-7.6-3
	c-3.8-0.6-6.8-1.1-9.1-3.6c-1.6-1.9-3.8-2.5-6.1-2.4l-4.5-0.5c-3-0.6-6-1.1-6.1-3.7c-0.1-3.2,2.9-3.3,5.2-4l5.2-0.8
	c3.7-0.7,6-2.1,6.6-5.3c-0.1-4.5,2.8-6.5,8.1-6.6c12.8,0.3,25.5-3.8,39-2.9l6.8-0.8c-2.3-1.9-6.8-0.5-7.6-3.7l13.6,1.6l5.3,0.5
	c9.8-0.9,19.6,2.7,30.1,2.5C462,40.5,463.5,41.1,464.3,42.4z"/>
<path class="st14" d="M276.6,59.9c1.4-3.3-0.8-3.8-3.1-4.4c-12.1-1-22.7-3.9-34.7-3.7l-6-1.1c-5.3-1.8-11.3-2.3-16.6-2.2
	c2.9-3.9-3.8-2.5-3.9-5.1c2.2-1.3,6-0.8,9-0.9l32.3-3.4l48.8-3.8l3-0.7c3-0.7,6-0.1,6.1,2.4s2.3,3.2,4.6,3.1l4.5-0.1
	c6.8-0.2,13.6,4.2,16,9.3c0.8,2.6-1.4,2.6-2.9,3.3c-2.2,1.3-5.2,0.8-7.5,1.5c-3.7,0.7-6.8,0.8-9.7,2.2c-7.4,4-15,2.9-23.2,3.8
	c-4.5,0.1-9.1-1.1-13.5,0.3L276.6,59.9z"/>
<path class="st5" d="M316.4,55c3.7-2,8.2-2.1,12-2.9c2.3-0.1,5.3-0.1,7.5-1.5c-2.3-1.2-4.6-3.7-6.2-6.3s-4.6-3.1-8.3-3
	c-3.7,0.7-8.3,0.8-12.8-1c2.9-3.3,2.9-5.9-3.1-5.7c4.5-2,9.7-2.8,14.2-2.9l23.3-0.6c23.3-1.2,45.9,0.8,68.6,4.8
	c2.3,1.2,6,1.1,9.1,1.7c1.5,0,3-0.1,3.1,1.9c0,1.3-1.5,1.3-3,1.4c-7.5,2.1-14.3,1.6-21.8,1.2l-3,0.1c-7.5,2.8-15,2.3-22.5,2.5
	c-6,0.1-7.5,1.5-7.4,6.6c0.8,3.2-0.6,5.2-5.1,5.3l-8.3,0.8c-9.7,2.2-20.3,0.5-30,2C319.5,59.4,317.2,58.2,316.4,55z"/>
<path class="st6" d="M185.4,49.2c-3.8,0.1-7.5,1.5-11.3-0.4c9.8-0.2,20.3-1.1,30.8-0.1l-0.7,0.7l-3.7,1.4
	C195.9,50.2,190.7,51,185.4,49.2z"/>
<path class="st15" d="M175.9,122.2l-6.8-1.8l33.9,3c3.8,0.6,7.5,0.5,10.6,3l0.8,0.6c10.5-2.8,19.6,1.4,28.6,2.5
	c14.3,0.9,28.6,0.6,42.9-1.1c1.5,0,3-0.1,3.7-2c0.7-1.3-1.6-1.9-2.3-2.5c-3.1-1.9-2.3-3.8,1.4-4.5c3.8-0.1,3.7-1.4,2.9-3.9
	c-0.8-3.2,1.4-5.2,5.1-5.3l13.5-1.6c1.5,0,2.3,0.6,3-0.7c0-1.3-1.5-1.2-2.3-1.9l-12.8-2.3c-6.8-0.5-13.6-2.9-19-6
	s-10.6-4.2-16.7-4.7l-18.1-2.8c-1.5,0-4.5,0.1-4.6-2.5c0.7-1.9,3-1.4,5.2-1.4c14.2-2.3,29.3-2,43.6-2.4c3-0.1,6-0.1,4.4-3.3
	c6-2.1,11.3-0.9,15.8,0.9c1.5,0.6,3.1,1.9,2.3,3.2c0,1.3-1.5,2-3,2l-36.1,0.9l-9.7,1.5c7.6,2.4,15.1,1.6,21.9,2.7
	c11.3,1.7,21.9,5.3,33.2,5.6c2.3,0.6,4.6,1.8,5.4,3.7c0,1.9,0.8,3.8,3.1,4.4c2.3,1.2,3.8,2.5,3.9,5.1c-0.7,2.6-3.7,3.3-5.9,4
	l-5.2,0.8c5.4,3.7,5.4,5.7-0.5,9c1.5,1.2,3.8,1.2,6.1,1.8c3,1.2,6.8,1.8,6.2,5.6c-0.7,3.2-4.4,2.7-8.2,3.4l-8.3-0.4l-7.5,0.8
	c0.8,1.9,3.8,1.8,3.1,3.8c-7.5,0.8-15,2.3-22.5,1.8c-1.5-0.6-3,0.1-3.7,1.4c-0.7,3.9-3.7,2.7-6.7,2.7c-13.5-0.3-26.4-3.2-39.2-4.2
	l-27.2-3.2c-2.3,0.1-2.3-1.2-1.6-3.2c3-2,3.7-3.9,2.8-6.5c-0.8-3.2-3.8-3.1-6.9-3.7L175.9,122.2z"/>
<path class="st16" d="M322.1,102.5c-0.8-2.6-3.1-3.8-5.4-3.7c-12.1-1-24.2-3.9-35.5-5.6c-6-1.1-12.8-0.3-18.9-2.1l-3.8-1.2l-1.5-1.2
	c0-0.6,0.7-1.3,2.2-1.3l11.3-0.9l34.6-0.8c1.5,0,3.8,0.6,5.2-1.4c-4.6-3.7-12.1-2.3-17.4-4.1c-7.5,0.2-15.8,1-22.6-2
	c-3-0.6-6.1-1.8-2.4-5.1c1.5-1.3-0.8-1.9-1.6-1.9c-3.8,0.1-6.8-1.1-9.8-2.3c-3.1-1.9-3.1-5.1,0.6-5.2c6.8-0.2,11.9-4.8,19.5-3.7
	c5.2-2.1,10.5-1.5,16.5-1.7c7.5-0.2,15.8,0.3,23.2-3.1c2.3,1.2,3.1,3.8,5.3,3.1c2.3,2.5,0.9,4.5-2.1,5.2c-2.2,1.3-5.2,1.4-8.2,3.4
	c2.3,1.2,5.3,1.2,8.3,1.1c11.3,0.4,23.4,3.3,35.4,2.3l2.3-0.1c3,0.6,6.8,1.8,6.1,5c0.1,3.9-3.7,3.9-6.7,4
	c-14.7,1.8-29.6,2.2-44.4,1.1l13.6,2.2c3.8-0.1,6.8,0.5,9.8,1.7c1.5,0.6,2.3,1.2,2.3,3.2c-0.7,1.3-1.5,2-3,2l-3,0.7
	c-9.8-1-18.8,1.7-28.5,2.6c5.3,1.8,11.3,2.3,16.6,3.5c1.5,0.6,4.5,0.5,4.6,3.1l0,1.3C324.3,101.8,323.6,102.4,322.1,102.5z"/>
<path class="st17" d="M185.4,49.2l18.8,0.2c1.6,2.5,3.1,5.1,7.6,3l3,0.6c2.3,0.6,4.5,1.2,5.3,3.1c0.1,2.6-2.9,3.3-5.2,4l-15.7,2.3
	l-5.2,1.4c-1.5,0-3.8,0.1-3.7,2c0.8,1.3,2.3,2.5,3.8,2.5c3-0.1,5.3,0.5,8.3,2.4l-9,0.9c-1.5,0.7-3,1.4-2.9,3.3
	c0,1.9,1.6,2.5,3.1,3.1l9.1,1.1l20.3,1.4c-15,2.3-29.4-0.6-43.5,3.6c1.6,3.2,5.3,1.8,6.9,3.7c-12.8,0.3-25.6-1.3-37.7-2.3
	c2.9-3.9,7.4-6,13.4-4.8l3-0.1c1.5,0,3.8,0.6,3.7-1.4c0-1.9-2.3-1.2-3.8-1.2c-11.3,0.3-22.6-2.7-33.9-1.7l-3.8-1.2
	c-0.8-0.6-2.3-0.6-2.3-1.9c0-1.3,1.5-1.3,3-1.4l12-2.2c2.3-0.1,4.5-0.8,5.2-2.1c1.4-3.9,5.2-4,8.9-4.7c8.2-2.8,16.4-4.3,24.7-4.5
	l12.8-0.3c6,0.5,11.2-1.6,17.2-3.6c-8.3-0.4-14.4-4.2-21.9-4L185.4,49.2z"/>
<path class="st11" d="M66.5,80.4l-11.3-1.7c1.4-2.6,3.7-3.3,7.4-3.4c4.5,0.5,9.1,2.4,13.5-1c0.7-0.7,2.3-0.1,3,0.6
	c3.8,3.1,8.4,4.3,13.6,3.5c3.7-0.7,7.6,2.4,11.3,1.7c1.5,0,1.5,1.2,0.8,1.9C92.1,82.4,79.3,80.1,66.5,80.4z"/>
<path class="st18" d="M322.1,102.5c0.7-0.7,1.5-2,3-2c3-0.1,6-0.8,6.1,3.7c0,1.9,3.1,3.1,5.4,4.4c3.8,1.2,8.3,2.4,5.5,7.6
	c-1.4,3.3,0.9,5.8,4.7,7c6.8,3,13.7,4.8,21.2,5.9c1.5,0,3,0.6,3.8,1.8c-2.2,2.6-6,1.4-9,2.8c-6,2.1-6.7,4-3.6,8.5
	c-17.3-0.2-33.9-1.1-49.7-2.6l-4.6-1.8c-1.5,0-3-0.6-3.1-2.5c0.7-1.3,2.2-0.7,3-0.7l17.3-0.4c3-0.1,6.8-0.2,7.5-2.8
	c0.7-2.6-3.8-2.5-6.1-3.7l-6.8-1.8l-2.3-1.2c0-1.3,1.5-1.3,2.2-2c1.5-0.7,4.5,0.5,4.4-2.7c-0.1-2.6-3.1-2.5-5.3-3.1l-1.5-0.6
	c2.2-2.6,5.2-2.1,8.2-2.8c2.2-0.7,5.3-0.1,6-2.7c-0.1-3.2-3.1-3.8-5.4-4.4C319.9,105.8,318.4,104.5,322.1,102.5z"/>
<path class="st19" d="M325,99.2l-18.9-4l-3-0.6c-1.5-0.6-3.8-1.2-3.8-2.5c0-1.9,2.2-1.3,3.7-1.4c10.5-0.3,21-3.1,31.5-2.7
	c0.8,0.6,2.3-0.1,2.2-0.7c0.7-1.9-0.8-1.3-2.3-1.9c-6.8-1.8-13.6-2.2-21.1-2.7l-6.8-2.4c3-2,5.2-2.7,8.2-2.1
	c6.8,1.1,14.3,0.9,21.1,0.1l21.8-0.5c2.3-0.1,4.5-0.1,5.2-2.1c0.7-2.6-2.3-3.2-4.6-3.7l-3.8-0.6c-14.3,1-27.9-1.9-42.2-2.2
	c-2.3-0.6-4.5-0.5-4.6-2.5c0-1.9,2.2-2,3.7-2.7l6.7-1.5c3-0.7,4.5-2,3.6-4.6c10.5-1.5,20.3-0.5,30.8-0.8c-0.7,1.3-4.5,0.1-3.7,2
	c0,1.9,2.3,2.5,4.6,3.1l4.5-0.1c2.3-0.1,6,0.5,6.8,1.8c2.4,4.4,7.6,4.3,12.2,5.5c3-0.1,6,1.1,6.9,3.7c1.6,5.1,6.9,6.3,11.5,8.1
	c-1.4,3.9-5.2,3.3-8.2,3.4l-23.3,1.9c4.5,1.2,8.3,2.4,11.4,4.2c2.3,1.2,4.5,1.2,6.8,0.5c3-0.1,6.8-0.2,9.1,1.1
	c1.5,0.6,3.1,1.9,2.3,3.2c0,1.3-1.5,1.3-3,2c-3,0.1-6.8,0.2-10.5,1.5c6.1,1.8,12.1,1.6,17.4,2.8l25.7,3.2l2.3,0.6l1.6,1.9l-2.2,1.3
	l-9.8,0.9l-8.3,0.8c-6.7,1.5-13.5,1.6-20.3,1.8c-2.3,0.1-5.3,0.1-6.8-1.8c2.2-2,7.5-0.2,6.7-4.7c-1.6-3.2-6-1.1-8.3-1.7
	c-15.8-1.5-31.6-1.8-46.8-4.6L325,99.2z"/>
<path class="st20" d="M460.9,121.6c0,0.6,2.3,1.2,0,1.3l-5.2,0.8c-11.3-0.4-22.5,1.2-34.6,1.5c0.8,1.9,3,1.2,3.8,2.5
	c-8.3-0.4-17.3-0.2-25.6-2.6l-3.8,0.1c-2.3-0.6-4.5-0.5-5.3-2.4c-1.6-1.9,1.4-2.6,2.9-4.6c-8.3,0.2-15.1-2.2-21.9-5.3
	c2.9-2.6,6-2.1,8.2-2.1L408,110c0.8,0,1.5,0,0.8,0.6c-3,0.1-5.2,0.8-8.2,3.4c13.6,3.5,26.5,5.8,40,5.5L460.9,121.6z"/>
<path class="st7" d="M408.8,110.7L408,110c2.2-2,6-0.8,8.3-0.8c3.8-0.1,6.8-0.8,10.5-2.2c-13.6-1.6-24.9-3.9-37.7-4.9
	c-3,0.1-6.8-0.5-9.8-1.7c-0.8-0.6-3-0.6-2.3-2.5l3.7-1.4l12-0.9c-3.1-3.1-6.1-3.7-10.6-2.3c-3,0.7-6,0.1-8.3-1.7
	c-3.1-2.5-6.8-2.4-10.6-3.6c-1.5,0-3.8,0.1-3.8-1.8c0-1.3,2.2-1.3,3.7-1.4c8.3-0.2,15.8-1.7,24-1.2c3-0.1,6-0.8,8.2-2.1
	c3.8,3.1,7.6,3.7,12.9,3.5c8.2-1.5,15.8,0.3,23.4,2c1.5,0,4.5-0.8,4.5,1.2c0,1.9-2.2,2.6-3.7,2c-5.3,0.1-9,2.8-14.2,2.9
	c4.6,3.1,9.8,2.3,14.4,2.9c3.8-0.1,5.3,1.2,7.6,3.7c1.6,2.5,1.6,4.5-2.1,5.2l-2.2,0.7c0.9,6.4-5.2,4-8.2,4.1
	C421.5,109.7,415.6,111.1,408.8,110.7z"/>
</svg>
